<svg xmlns="http://www.w3.org/2000/svg" width="16" height="16" viewBox="0 0 16 16">
  <metadata><?xpacket begin="﻿" id="W5M0MpCehiHzreSzNTczkc9d"?>
<x:xmpmeta xmlns:x="adobe:ns:meta/" x:xmptk="Adobe XMP Core 5.6-c138 79.159824, 2016/09/14-01:09:01        ">
   <rdf:RDF xmlns:rdf="http://www.w3.org/1999/02/22-rdf-syntax-ns#">
      <rdf:Description rdf:about=""/>
   </rdf:RDF>
</x:xmpmeta>
                                                                                                    
                                                                                                    
                                                                                                    
                                                                                                    
                                                                                                    
                                                                                                    
                                                                                                    
                                                                                                    
                                                                                                    
                                                                                                    
                                                                                                    
                                                                                                    
                                                                                                    
                                                                                                    
                                                                                                    
                                                                                                    
                                                                                                    
                                                                                                    
                                                                                                    
                                                                                                    
                           
<?xpacket end="w"?></metadata>
<defs>
    <style>
      .cls-1 {
        fill-rule: evenodd;
      }
    </style>
  </defs>
  <path id="aim_1" class="cls-1" d="M744,295a1,1,0,1,0,1,1A1,1,0,0,0,744,295Zm7,0h-0.08a7,7,0,0,0-5.92-5.92V289a1,1,0,0,0-2,0v0.08a7,7,0,0,0-5.92,5.92H737a1,1,0,0,0,0,2h0.08a7,7,0,0,0,5.92,5.92V303a1,1,0,0,0,2,0v-0.08a7,7,0,0,0,5.92-5.92H751A1,1,0,0,0,751,295Zm-6,5.9V300a1,1,0,0,0-2,0v0.9a5.027,5.027,0,0,1-3.9-3.9H740a1,1,0,0,0,0-2h-0.9a5.029,5.029,0,0,1,3.9-3.9V292a1,1,0,0,0,2,0v-0.9a5.029,5.029,0,0,1,3.9,3.9H748a1,1,0,0,0,0,2h0.9A5.027,5.027,0,0,1,745,300.9Z" transform="translate(-736 -288)"/>
</svg>
