<svg xmlns="http://www.w3.org/2000/svg" width="16" height="16" viewBox="0 0 16 16">
  <metadata><?xpacket begin="﻿" id="W5M0MpCehiHzreSzNTczkc9d"?>
<x:xmpmeta xmlns:x="adobe:ns:meta/" x:xmptk="Adobe XMP Core 5.6-c138 79.159824, 2016/09/14-01:09:01        ">
   <rdf:RDF xmlns:rdf="http://www.w3.org/1999/02/22-rdf-syntax-ns#">
      <rdf:Description rdf:about=""/>
   </rdf:RDF>
</x:xmpmeta>
                                                                                                    
                                                                                                    
                                                                                                    
                                                                                                    
                                                                                                    
                                                                                                    
                                                                                                    
                                                                                                    
                                                                                                    
                                                                                                    
                                                                                                    
                                                                                                    
                                                                                                    
                                                                                                    
                                                                                                    
                                                                                                    
                                                                                                    
                                                                                                    
                                                                                                    
                                                                                                    
                           
<?xpacket end="w"?></metadata>
<defs>
    <style>
      .cls-1 {
        fill-rule: evenodd;
      }
    </style>
  </defs>
  <path id="aim_2" class="cls-1" d="M47,327H45.91A6.006,6.006,0,0,0,41,322.09V321a1,1,0,0,0-2,0v1.09A6.006,6.006,0,0,0,34.09,327H33a1,1,0,0,0,0,2h1.09A6.007,6.007,0,0,0,39,333.91V335a1,1,0,0,0,2,0v-1.09A6.007,6.007,0,0,0,45.91,329H47A1,1,0,0,0,47,327Zm-6,4.858V331a1,1,0,0,0-2,0v0.858A3.984,3.984,0,0,1,36.141,329H37a1,1,0,0,0,0-2H36.141A3.987,3.987,0,0,1,39,324.141V325a1,1,0,0,0,2,0v-0.859A3.987,3.987,0,0,1,43.859,327H43a1,1,0,0,0,0,2h0.859A3.984,3.984,0,0,1,41,331.858ZM40,327a1,1,0,1,0,1,1A1,1,0,0,0,40,327Z" transform="translate(-32 -320)"/>
</svg>
