<svg xmlns="http://www.w3.org/2000/svg" width="14" height="16" viewBox="0 0 14 16">
  <metadata><?xpacket begin="﻿" id="W5M0MpCehiHzreSzNTczkc9d"?>
<x:xmpmeta xmlns:x="adobe:ns:meta/" x:xmptk="Adobe XMP Core 5.6-c138 79.159824, 2016/09/14-01:09:01        ">
   <rdf:RDF xmlns:rdf="http://www.w3.org/1999/02/22-rdf-syntax-ns#">
      <rdf:Description rdf:about=""/>
   </rdf:RDF>
</x:xmpmeta>
                                                                                                    
                                                                                                    
                                                                                                    
                                                                                                    
                                                                                                    
                                                                                                    
                                                                                                    
                                                                                                    
                                                                                                    
                                                                                                    
                                                                                                    
                                                                                                    
                                                                                                    
                                                                                                    
                                                                                                    
                                                                                                    
                                                                                                    
                                                                                                    
                                                                                                    
                                                                                                    
                           
<?xpacket end="w"?></metadata>
<defs>
    <style>
      .cls-1 {
        fill-rule: evenodd;
      }
    </style>
  </defs>
  <path id="align_1" class="cls-1" d="M520,676h0a1,1,0,0,1-1-1v-2a1,1,0,0,1,1-1h0a1,1,0,0,1,1,1v2A1,1,0,0,1,520,676Zm0,6h0a1,1,0,0,1-1-1v-2a1,1,0,0,1,1-1h0a1,1,0,0,1,1,1v2A1,1,0,0,1,520,682Zm0,6h0a1,1,0,0,1-1-1v-2a1,1,0,0,1,1-1h0a1,1,0,0,1,1,1v2A1,1,0,0,1,520,688Zm5-15h-1a1,1,0,0,0-1,1h0a1,1,0,0,0,1,1h1v10h-1a1,1,0,0,0-1,1h0a1,1,0,0,0,1,1h1a2.006,2.006,0,0,0,2-2V675A2.006,2.006,0,0,0,525,673Zm-12,2v10a2.006,2.006,0,0,0,2,2h1a1,1,0,0,0,1-1h0a1,1,0,0,0-1-1h-1V675h1a1,1,0,0,0,1-1h0a1,1,0,0,0-1-1h-1A2.006,2.006,0,0,0,513,675Z" transform="translate(-513 -672)"/>
</svg>
