<svg xmlns="http://www.w3.org/2000/svg" width="15.656" height="16" viewBox="0 0 15.656 16">
  <metadata><?xpacket begin="﻿" id="W5M0MpCehiHzreSzNTczkc9d"?>
<x:xmpmeta xmlns:x="adobe:ns:meta/" x:xmptk="Adobe XMP Core 5.6-c138 79.159824, 2016/09/14-01:09:01        ">
   <rdf:RDF xmlns:rdf="http://www.w3.org/1999/02/22-rdf-syntax-ns#">
      <rdf:Description rdf:about=""/>
   </rdf:RDF>
</x:xmpmeta>
                                                                                                    
                                                                                                    
                                                                                                    
                                                                                                    
                                                                                                    
                                                                                                    
                                                                                                    
                                                                                                    
                                                                                                    
                                                                                                    
                                                                                                    
                                                                                                    
                                                                                                    
                                                                                                    
                                                                                                    
                                                                                                    
                                                                                                    
                                                                                                    
                                                                                                    
                                                                                                    
                           
<?xpacket end="w"?></metadata>
<defs>
    <style>
      .cls-1 {
        fill-rule: evenodd;
      }
    </style>
  </defs>
  <path id="align_2" class="cls-1" d="M556.641,679.01a1,1,0,0,0,.088,1.99h1.959a0.864,0.864,0,0,0,.391-0.09,1,1,0,0,0-.391-1.91h-1.959A0.265,0.265,0,0,0,556.641,679.01Zm-5.788-.01a1,1,0,0,0,0,2h1.959a1,1,0,0,0,0-2h-1.959Zm-3.829,1.99a1,1,0,0,0-.088-1.99h-1.959a0.871,0.871,0,0,0-.392.09,1,1,0,0,0,.392,1.91h1.959A0.265,0.265,0,0,0,547.024,680.99ZM559.549,683h-2.007l0.166,0.75-9.548,2.24-0.5-2.213A0.987,0.987,0,0,0,546.7,683h0a1,1,0,0,0-.956,1.229l0.5,2.211v0.01a1.983,1.983,0,0,0,1.91,1.55,1.771,1.771,0,0,0,.225-0.01l9.8-2.3a2.015,2.015,0,0,0,1.43-2.39Zm-15.434-6h2.008l-0.167-.75,9.549-2.24,0.5,2.213a0.986,0.986,0,0,0,.957.777h0a1,1,0,0,0,.956-1.23l-0.5-2.21v-0.01a1.983,1.983,0,0,0-1.91-1.55,1.763,1.763,0,0,0-.225.01l-9.8,2.3a2.014,2.014,0,0,0-1.43,2.39Z" transform="translate(-544 -672)"/>
</svg>
