<svg xmlns="http://www.w3.org/2000/svg" width="16" height="16" viewBox="0 0 16 16">
  <metadata><?xpacket begin="﻿" id="W5M0MpCehiHzreSzNTczkc9d"?>
<x:xmpmeta xmlns:x="adobe:ns:meta/" x:xmptk="Adobe XMP Core 5.6-c138 79.159824, 2016/09/14-01:09:01        ">
   <rdf:RDF xmlns:rdf="http://www.w3.org/1999/02/22-rdf-syntax-ns#">
      <rdf:Description rdf:about=""/>
   </rdf:RDF>
</x:xmpmeta>
                                                                                                    
                                                                                                    
                                                                                                    
                                                                                                    
                                                                                                    
                                                                                                    
                                                                                                    
                                                                                                    
                                                                                                    
                                                                                                    
                                                                                                    
                                                                                                    
                                                                                                    
                                                                                                    
                                                                                                    
                                                                                                    
                                                                                                    
                                                                                                    
                                                                                                    
                                                                                                    
                           
<?xpacket end="w"?></metadata>
<defs>
    <style>
      .cls-1 {
        fill-rule: evenodd;
      }
    </style>
  </defs>
  <path id="arange_1" class="cls-1" d="M719,682a1,1,0,0,0-1,1v1.586l-3.293-3.293a1,1,0,0,0-1.414,1.414L716.586,686H715a1,1,0,0,0,0,2h4a0.975,0.975,0,0,0,.349-0.071,0.825,0.825,0,0,0,.095-0.045,0.948,0.948,0,0,0,.208-0.14,0.842,0.842,0,0,0,.077-0.069,0.986,0.986,0,0,0,.178-0.265c0-.009.011-0.015,0.015-0.025l0,0a1.02,1.02,0,0,0,.069-0.346c0-.013.007-0.024,0.007-0.037v-4A1,1,0,0,0,719,682Zm-9.707-.707L706,684.586V683a1,1,0,0,0-2,0v4a1,1,0,0,0,.07.349,0.831,0.831,0,0,0,.046.095,0.948,0.948,0,0,0,.14.208,0.842,0.842,0,0,0,.069.077,0.979,0.979,0,0,0,.266.179l0.023,0.014,0,0A1.006,1.006,0,0,0,705,688h4a1,1,0,0,0,0-2h-1.586l3.293-3.293A1,1,0,0,0,709.293,681.293ZM707.414,674H709a1,1,0,0,0,0-2h-4a1,1,0,0,0-.349.07,1.033,1.033,0,0,0-.095.045,0.983,0.983,0,0,0-.209.141c-0.026.023-.052,0.043-0.076,0.068a0.986,0.986,0,0,0-.178.265c0,0.009-.011.016-0.015,0.025l0,0a1.015,1.015,0,0,0-.069.346c0,0.013-.007.024-0.007,0.037v4a1,1,0,0,0,2,0v-1.586l3.293,3.293a1,1,0,0,0,1.414-1.414Zm12.515-1.349a0.839,0.839,0,0,0-.045-0.1,1,1,0,0,0-.14-0.208,0.885,0.885,0,0,0-.334-0.255c-0.009,0-.016-0.011-0.025-0.014l0,0a0.953,0.953,0,0,0-.35-0.069c-0.012,0-.021-0.007-0.033-0.007h-4a1,1,0,0,0,0,2h1.586l-3.293,3.293a1,1,0,1,0,1.414,1.414L718,675.414V677a1,1,0,0,0,2,0v-4A0.975,0.975,0,0,0,719.929,672.651Z" transform="translate(-704 -672)"/>
</svg>
