<svg xmlns="http://www.w3.org/2000/svg" width="15.812" height="15.906" viewBox="0 0 15.812 15.906">
  <metadata><?xpacket begin="﻿" id="W5M0MpCehiHzreSzNTczkc9d"?>
<x:xmpmeta xmlns:x="adobe:ns:meta/" x:xmptk="Adobe XMP Core 5.6-c138 79.159824, 2016/09/14-01:09:01        ">
   <rdf:RDF xmlns:rdf="http://www.w3.org/1999/02/22-rdf-syntax-ns#">
      <rdf:Description rdf:about=""/>
   </rdf:RDF>
</x:xmpmeta>
                                                                                                    
                                                                                                    
                                                                                                    
                                                                                                    
                                                                                                    
                                                                                                    
                                                                                                    
                                                                                                    
                                                                                                    
                                                                                                    
                                                                                                    
                                                                                                    
                                                                                                    
                                                                                                    
                                                                                                    
                                                                                                    
                                                                                                    
                                                                                                    
                                                                                                    
                                                                                                    
                           
<?xpacket end="w"?></metadata>
<defs>
    <style>
      .cls-1 {
        fill-rule: evenodd;
      }
    </style>
  </defs>
  <path id="arange_2" class="cls-1" d="M748.321,683.017h1.569a0.995,0.995,0,0,0,0-1.989h-3.957a0.978,0.978,0,0,0-.345.07,0.905,0.905,0,0,0-.094.045,0.96,0.96,0,0,0-.206.14c-0.026.023-.052,0.043-0.076,0.068a0.993,0.993,0,0,0-.176.263c0,0.009-.011.016-0.015,0.025l0,0a0.985,0.985,0,0,0-.068.345c0,0.012-.007.023-0.007,0.036V686a0.99,0.99,0,1,0,1.979,0v-1.577l3.257,3.275a0.986,0.986,0,0,0,1.4,0,1,1,0,0,0,0-1.406Zm-5.47-1.436a0.938,0.938,0,0,0-.139-0.207,0.8,0.8,0,0,0-.068-0.076,0.98,0.98,0,0,0-.26-0.177c-0.01,0-.017-0.012-0.027-0.016h0a0.948,0.948,0,0,0-.346-0.069c-0.012,0-.021-0.007-0.033-0.007h-3.957a0.995,0.995,0,0,0,0,1.989h1.569l-3.258,3.276a1,1,0,0,0,0,1.406,0.986,0.986,0,0,0,1.4,0l3.258-3.275V686a0.989,0.989,0,1,0,1.978,0v-3.978a1,1,0,0,0-.069-0.348A1.015,1.015,0,0,0,742.851,681.581Zm-0.875-8.51a0.991,0.991,0,0,0-.989,1v1.577l-3.258-3.275a0.986,0.986,0,0,0-1.4,0,1,1,0,0,0,0,1.407l3.258,3.275h-1.569a0.995,0.995,0,0,0,0,1.989h3.957a0.984,0.984,0,0,0,.346-0.07c0.033-.013.062-0.029,0.094-0.045a0.96,0.96,0,0,0,.206-0.14,0.687,0.687,0,0,0,.075-0.068,0.964,0.964,0,0,0,.176-0.262c0-.01.012-0.017,0.016-0.026s0,0,0,0a0.985,0.985,0,0,0,.068-0.345c0-.012.007-0.023,0.007-0.036v-3.978A0.991,0.991,0,0,0,741.976,673.071Zm3.082,5.415a1.007,1.007,0,0,0,.139.208,0.884,0.884,0,0,0,.33.253c0.009,0,.016.011,0.025,0.015h0a0.963,0.963,0,0,0,.378.076h3.957a0.995,0.995,0,0,0,0-1.989h-1.569l3.258-3.275a1,1,0,0,0,0-1.407,0.986,0.986,0,0,0-1.4,0l-3.257,3.275v-1.577a0.99,0.99,0,1,0-1.979,0v3.978a0.973,0.973,0,0,0,.07.348A0.8,0.8,0,0,0,745.058,678.486Z" transform="translate(-736.063 -672.094)"/>
</svg>
