<svg xmlns="http://www.w3.org/2000/svg" width="15.812" height="15.906" viewBox="0 0 15.812 15.906">
  <metadata><?xpacket begin="﻿" id="W5M0MpCehiHzreSzNTczkc9d"?>
<x:xmpmeta xmlns:x="adobe:ns:meta/" x:xmptk="Adobe XMP Core 5.6-c138 79.159824, 2016/09/14-01:09:01        ">
   <rdf:RDF xmlns:rdf="http://www.w3.org/1999/02/22-rdf-syntax-ns#">
      <rdf:Description rdf:about=""/>
   </rdf:RDF>
</x:xmpmeta>
                                                                                                    
                                                                                                    
                                                                                                    
                                                                                                    
                                                                                                    
                                                                                                    
                                                                                                    
                                                                                                    
                                                                                                    
                                                                                                    
                                                                                                    
                                                                                                    
                                                                                                    
                                                                                                    
                                                                                                    
                                                                                                    
                                                                                                    
                                                                                                    
                                                                                                    
                                                                                                    
                           
<?xpacket end="w"?></metadata>
<defs>
    <style>
      .cls-1 {
        fill-rule: evenodd;
      }
    </style>
  </defs>
  <path id="arrow_simple_d" class="cls-1" d="M303.579,718.293l-3.258-3.276h1.569a0.995,0.995,0,0,0,0-1.989h-3.957a0.978,0.978,0,0,0-.345.07,0.905,0.905,0,0,0-.094.045,0.96,0.96,0,0,0-.206.14c-0.026.023-.052,0.043-0.076,0.068a1.007,1.007,0,0,0-.177.265c0,0.008-.01.015-0.014,0.023l0,0a0.985,0.985,0,0,0-.068.345c0,0.012-.007.023-0.007,0.036V718a0.99,0.99,0,1,0,1.979,0v-1.577l3.257,3.275a0.986,0.986,0,0,0,1.4,0A1,1,0,0,0,303.579,718.293Zm-9.6-13.222a0.992,0.992,0,0,0-.989,1v1.577l-3.258-3.275a0.985,0.985,0,0,0-1.4,0,1,1,0,0,0,0,1.407l3.257,3.275h-1.569a0.995,0.995,0,0,0,0,1.989h3.957a0.984,0.984,0,0,0,.346-0.07c0.033-.013.062-0.029,0.094-0.045a0.96,0.96,0,0,0,.206-0.14,0.978,0.978,0,0,0,.075-0.068,0.962,0.962,0,0,0,.177-0.264c0-.009.011-0.015,0.015-0.024s0,0,0,0a0.985,0.985,0,0,0,.068-0.345c0-.012.007-0.023,0.007-0.036v-3.978A0.992,0.992,0,0,0,293.976,705.071Z" transform="translate(-288.063 -704.094)"/>
</svg>
