<svg xmlns="http://www.w3.org/2000/svg" width="16" height="16" viewBox="0 0 16 16">
  <metadata><?xpacket begin="﻿" id="W5M0MpCehiHzreSzNTczkc9d"?>
<x:xmpmeta xmlns:x="adobe:ns:meta/" x:xmptk="Adobe XMP Core 5.6-c138 79.159824, 2016/09/14-01:09:01        ">
   <rdf:RDF xmlns:rdf="http://www.w3.org/1999/02/22-rdf-syntax-ns#">
      <rdf:Description rdf:about=""/>
   </rdf:RDF>
</x:xmpmeta>
                                                                                                    
                                                                                                    
                                                                                                    
                                                                                                    
                                                                                                    
                                                                                                    
                                                                                                    
                                                                                                    
                                                                                                    
                                                                                                    
                                                                                                    
                                                                                                    
                                                                                                    
                                                                                                    
                                                                                                    
                                                                                                    
                                                                                                    
                                                                                                    
                                                                                                    
                                                                                                    
                           
<?xpacket end="w"?></metadata>
<defs>
    <style>
      .cls-1 {
        fill-rule: evenodd;
      }
    </style>
  </defs>
  <path id="arrow_simple_u" class="cls-1" d="M261.293,713.293L258,716.586V715a1,1,0,0,0-2,0v4a1,1,0,0,0,.07.349,1.033,1.033,0,0,0,.045.095,0.986,0.986,0,0,0,.474.463c0.009,0,.016.011,0.026,0.015l0,0A1.006,1.006,0,0,0,257,720h4a1,1,0,0,0,0-2h-1.586l3.293-3.293A1,1,0,0,0,261.293,713.293Zm10.637-8.642a1.059,1.059,0,0,0-.046-0.1,1,1,0,0,0-.14-0.208,0.986,0.986,0,0,0-.069-0.076,0.972,0.972,0,0,0-.263-0.177c-0.01,0-.017-0.012-0.027-0.017h0a0.985,0.985,0,0,0-.348-0.069c-0.013,0-.023-0.007-0.035-0.007h-4a1,1,0,0,0,0,2h1.586l-3.293,3.293a1,1,0,1,0,1.414,1.414L270,707.414V709a1,1,0,0,0,2,0v-4A1,1,0,0,0,271.93,704.651Z" transform="translate(-256 -704)"/>
</svg>
