<svg xmlns="http://www.w3.org/2000/svg" width="15.812" height="15.813" viewBox="0 0 15.812 15.813">
  <metadata><?xpacket begin="﻿" id="W5M0MpCehiHzreSzNTczkc9d"?>
<x:xmpmeta xmlns:x="adobe:ns:meta/" x:xmptk="Adobe XMP Core 5.6-c138 79.159824, 2016/09/14-01:09:01        ">
   <rdf:RDF xmlns:rdf="http://www.w3.org/1999/02/22-rdf-syntax-ns#">
      <rdf:Description rdf:about=""/>
   </rdf:RDF>
</x:xmpmeta>
                                                                                                    
                                                                                                    
                                                                                                    
                                                                                                    
                                                                                                    
                                                                                                    
                                                                                                    
                                                                                                    
                                                                                                    
                                                                                                    
                                                                                                    
                                                                                                    
                                                                                                    
                                                                                                    
                                                                                                    
                                                                                                    
                                                                                                    
                                                                                                    
                                                                                                    
                                                                                                    
                           
<?xpacket end="w"?></metadata>
<defs>
    <style>
      .cls-1 {
        fill-rule: evenodd;
      }
    </style>
  </defs>
  <path id="arrows_down_up" class="cls-1" d="M679.665,707.278L676.7,704.31a0.99,0.99,0,0,0-1.4,0l-2.968,2.968a0.989,0.989,0,0,0,1.4,1.4l1.279-1.279v11.461a0.99,0.99,0,0,0,1.979,0V707.4l1.279,1.279A0.989,0.989,0,0,0,679.665,707.278Zm7.914,7.914a0.99,0.99,0,0,0-1.4,0l-1.279,1.279V705.01a0.989,0.989,0,1,0-1.978,0v11.461l-1.28-1.279a0.989,0.989,0,1,0-1.4,1.4l2.967,2.968a0.99,0.99,0,0,0,1.4,0l2.968-2.968A0.988,0.988,0,0,0,687.579,715.192Z" transform="translate(-672.063 -704.031)"/>
</svg>
