<svg xmlns="http://www.w3.org/2000/svg" width="16" height="16" viewBox="0 0 16 16">
  <metadata><?xpacket begin="﻿" id="W5M0MpCehiHzreSzNTczkc9d"?>
<x:xmpmeta xmlns:x="adobe:ns:meta/" x:xmptk="Adobe XMP Core 5.6-c138 79.159824, 2016/09/14-01:09:01        ">
   <rdf:RDF xmlns:rdf="http://www.w3.org/1999/02/22-rdf-syntax-ns#">
      <rdf:Description rdf:about=""/>
   </rdf:RDF>
</x:xmpmeta>
                                                                                                    
                                                                                                    
                                                                                                    
                                                                                                    
                                                                                                    
                                                                                                    
                                                                                                    
                                                                                                    
                                                                                                    
                                                                                                    
                                                                                                    
                                                                                                    
                                                                                                    
                                                                                                    
                                                                                                    
                                                                                                    
                                                                                                    
                                                                                                    
                                                                                                    
                                                                                                    
                           
<?xpacket end="w"?></metadata>
<defs>
    <style>
      .cls-1 {
        fill-rule: evenodd;
      }
    </style>
  </defs>
  <path id="arrow_simple_3" class="cls-1" d="M208,715a1,1,0,0,0-2,0v1.586L195.414,706H197a1,1,0,0,0,0-2h-4a1,1,0,0,0-.349.07,1.033,1.033,0,0,0-.095.045,0.983,0.983,0,0,0-.209.141c-0.026.023-.052,0.043-0.076,0.068a1,1,0,0,0-.178.265c0,0.009-.011.016-0.015,0.025l0,0a1.015,1.015,0,0,0-.069.346c0,0.013-.007.024-0.007,0.037v4a1,1,0,0,0,2,0v-1.586L204.586,718H203a1,1,0,0,0,0,2h4a0.975,0.975,0,0,0,.349-0.071,0.825,0.825,0,0,0,.095-0.045,1.207,1.207,0,0,0,.285-0.209,0.965,0.965,0,0,0,.178-0.264c0-.009.011-0.016,0.015-0.026l0,0a1.025,1.025,0,0,0,.069-0.347c0-.013.007-0.023,0.007-0.036v-4Z" transform="translate(-192 -704)"/>
</svg>
