<svg xmlns="http://www.w3.org/2000/svg" width="16" height="7.906" viewBox="0 0 16 7.906">
  <metadata><?xpacket begin="﻿" id="W5M0MpCehiHzreSzNTczkc9d"?>
<x:xmpmeta xmlns:x="adobe:ns:meta/" x:xmptk="Adobe XMP Core 5.6-c138 79.159824, 2016/09/14-01:09:01        ">
   <rdf:RDF xmlns:rdf="http://www.w3.org/1999/02/22-rdf-syntax-ns#">
      <rdf:Description rdf:about=""/>
   </rdf:RDF>
</x:xmpmeta>
                                                                                                    
                                                                                                    
                                                                                                    
                                                                                                    
                                                                                                    
                                                                                                    
                                                                                                    
                                                                                                    
                                                                                                    
                                                                                                    
                                                                                                    
                                                                                                    
                                                                                                    
                                                                                                    
                                                                                                    
                                                                                                    
                                                                                                    
                                                                                                    
                                                                                                    
                                                                                                    
                           
<?xpacket end="w"?></metadata>
<defs>
    <style>
      .cls-1 {
        fill-rule: evenodd;
      }
    </style>
  </defs>
  <path id="arrow_simple_1" class="cls-1" d="M143,711.011h-11.59l1.294-1.281a0.982,0.982,0,0,0,0-1.4,1.007,1.007,0,0,0-1.415,0l-3,2.971a0.973,0.973,0,0,0-.2.294,0.814,0.814,0,0,0-.035.1,0.918,0.918,0,0,0-.048.244,0.69,0.69,0,0,0,0,.1,0.965,0.965,0,0,0,.061.311,0.268,0.268,0,0,0,.007.027v0a0.99,0.99,0,0,0,.2.291c0.008,0.009.011,0.021,0.02,0.03l3,2.971a1.008,1.008,0,0,0,1.415,0,0.982,0.982,0,0,0,0-1.4l-1.294-1.281H143A0.99,0.99,0,1,0,143,711.011Z" transform="translate(-128 -708.063)"/>
</svg>
