<svg xmlns="http://www.w3.org/2000/svg" width="16" height="10" viewBox="0 0 16 10">
  <metadata><?xpacket begin="﻿" id="W5M0MpCehiHzreSzNTczkc9d"?>
<x:xmpmeta xmlns:x="adobe:ns:meta/" x:xmptk="Adobe XMP Core 5.6-c138 79.159824, 2016/09/14-01:09:01        ">
   <rdf:RDF xmlns:rdf="http://www.w3.org/1999/02/22-rdf-syntax-ns#">
      <rdf:Description rdf:about=""/>
   </rdf:RDF>
</x:xmpmeta>
                                                                                                    
                                                                                                    
                                                                                                    
                                                                                                    
                                                                                                    
                                                                                                    
                                                                                                    
                                                                                                    
                                                                                                    
                                                                                                    
                                                                                                    
                                                                                                    
                                                                                                    
                                                                                                    
                                                                                                    
                                                                                                    
                                                                                                    
                                                                                                    
                                                                                                    
                                                                                                    
                           
<?xpacket end="w"?></metadata>
<defs>
    <style>
      .cls-1 {
        fill-rule: evenodd;
      }
    </style>
  </defs>
  <path id="arrow_back_1" class="cls-1" d="M240,710.5a3.5,3.5,0,0,1-3.5,3.5h-9.1l1.3,1.29a1.008,1.008,0,0,1,0,1.42,1.015,1.015,0,0,1-1.421,0l-3-3c-0.009-.01-0.009-0.02-0.019-0.03a0.841,0.841,0,0,1-.191-0.3,0.037,0.037,0,0,1-.01-0.03,0.853,0.853,0,0,1-.06-0.31v-0.1a1.008,1.008,0,0,1,.05-0.25,0.3,0.3,0,0,1,.04-0.1,0.953,0.953,0,0,1,.19-0.3l3-3a1,1,0,0,1,1.421,1.42L227.4,712h9.1a1.5,1.5,0,1,0,0-3H232a1,1,0,0,1-1-1h0a1,1,0,0,1,1-1h4.5A3.5,3.5,0,0,1,240,710.5Z" transform="translate(-224 -707)"/>
</svg>
