<svg xmlns="http://www.w3.org/2000/svg" width="16" height="15.906" viewBox="0 0 16 15.906">
  <metadata><?xpacket begin="﻿" id="W5M0MpCehiHzreSzNTczkc9d"?>
<x:xmpmeta xmlns:x="adobe:ns:meta/" x:xmptk="Adobe XMP Core 5.6-c138 79.159824, 2016/09/14-01:09:01        ">
   <rdf:RDF xmlns:rdf="http://www.w3.org/1999/02/22-rdf-syntax-ns#">
      <rdf:Description rdf:about=""/>
   </rdf:RDF>
</x:xmpmeta>
                                                                                                    
                                                                                                    
                                                                                                    
                                                                                                    
                                                                                                    
                                                                                                    
                                                                                                    
                                                                                                    
                                                                                                    
                                                                                                    
                                                                                                    
                                                                                                    
                                                                                                    
                                                                                                    
                                                                                                    
                                                                                                    
                                                                                                    
                                                                                                    
                                                                                                    
                                                                                                    
                           
<?xpacket end="w"?></metadata>
<defs>
    <style>
      .cls-1 {
        fill-rule: evenodd;
      }
    </style>
  </defs>
  <path id="arrow_simple_2" class="cls-1" d="M176,708.092a0.837,0.837,0,0,0,0-.1,0.94,0.94,0,0,0-.048-0.247,1.013,1.013,0,0,0-.035-0.1,0.973,0.973,0,0,0-.2-0.3l-3-2.984a1,1,0,0,0-1.414,0,0.99,0.99,0,0,0,0,1.407l1.3,1.289C160.145,707.313,160,718.877,160,719a1,1,0,0,0,2,0c0-.4.129-9.684,10.577-9.934l-1.281,1.274a0.989,0.989,0,0,0,0,1.406,1,1,0,0,0,1.414,0l3-2.984c0.009-.009.012-0.021,0.021-0.03a0.961,0.961,0,0,0,.2-0.292,0,0,0,0,0,0,0c0-.008,0-0.017.007-0.026A0.978,0.978,0,0,0,176,708.092Z" transform="translate(-160 -704.094)"/>
</svg>
