<svg xmlns="http://www.w3.org/2000/svg" width="15.875" height="12" viewBox="0 0 15.875 12">
  <metadata><?xpacket begin="﻿" id="W5M0MpCehiHzreSzNTczkc9d"?>
<x:xmpmeta xmlns:x="adobe:ns:meta/" x:xmptk="Adobe XMP Core 5.6-c138 79.159824, 2016/09/14-01:09:01        ">
   <rdf:RDF xmlns:rdf="http://www.w3.org/1999/02/22-rdf-syntax-ns#">
      <rdf:Description rdf:about=""/>
   </rdf:RDF>
</x:xmpmeta>
                                                                                                    
                                                                                                    
                                                                                                    
                                                                                                    
                                                                                                    
                                                                                                    
                                                                                                    
                                                                                                    
                                                                                                    
                                                                                                    
                                                                                                    
                                                                                                    
                                                                                                    
                                                                                                    
                                                                                                    
                                                                                                    
                                                                                                    
                                                                                                    
                                                                                                    
                                                                                                    
                           
<?xpacket end="w"?></metadata>
<defs>
    <style>
      .cls-1 {
        fill-rule: evenodd;
      }
    </style>
  </defs>
  <path id="back" class="cls-1" d="M46,450H37.067a1.98,1.98,0,0,0-1.588.8l-2.978,4a2.012,2.012,0,0,0,0,2.4l2.978,4a1.982,1.982,0,0,0,1.588.8H46a1.993,1.993,0,0,0,1.985-2v-8A1.992,1.992,0,0,0,46,450Zm0,10H37.067l-2.978-4,2.978-4H46v8Zm-7.65-1.293a0.987,0.987,0,0,0,1.4,0l1.284-1.293,1.283,1.293a0.987,0.987,0,0,0,1.4,0,1,1,0,0,0,0-1.414L42.441,456l1.283-1.293a1,1,0,0,0,0-1.414,0.987,0.987,0,0,0-1.4,0l-1.283,1.293-1.284-1.293a0.987,0.987,0,0,0-1.4,0,1,1,0,0,0,0,1.414L39.633,456l-1.284,1.293A1,1,0,0,0,38.35,458.707Z" transform="translate(-32.125 -450)"/>
</svg>
