<svg xmlns="http://www.w3.org/2000/svg" width="15.875" height="14" viewBox="0 0 15.875 14">
  <metadata><?xpacket begin="﻿" id="W5M0MpCehiHzreSzNTczkc9d"?>
<x:xmpmeta xmlns:x="adobe:ns:meta/" x:xmptk="Adobe XMP Core 5.6-c138 79.159824, 2016/09/14-01:09:01        ">
   <rdf:RDF xmlns:rdf="http://www.w3.org/1999/02/22-rdf-syntax-ns#">
      <rdf:Description rdf:about=""/>
   </rdf:RDF>
</x:xmpmeta>
                                                                                                    
                                                                                                    
                                                                                                    
                                                                                                    
                                                                                                    
                                                                                                    
                                                                                                    
                                                                                                    
                                                                                                    
                                                                                                    
                                                                                                    
                                                                                                    
                                                                                                    
                                                                                                    
                                                                                                    
                                                                                                    
                                                                                                    
                                                                                                    
                                                                                                    
                                                                                                    
                           
<?xpacket end="w"?></metadata>
<defs>
    <style>
      .cls-1 {
        fill-rule: evenodd;
      }
    </style>
  </defs>
  <path id="bag_2" class="cls-1" d="M271.441,516.689a1.978,1.978,0,0,0-1.5-.689h-0.278l-0.767-2.316a0.992,0.992,0,0,0-.942-0.684h-7.945a0.992,0.992,0,0,0-.942.684L258.3,516h-0.277a1.98,1.98,0,0,0-1.5.689,2.014,2.014,0,0,0-.466,1.594l0.993,7A1.991,1.991,0,0,0,259.016,527h9.932a1.991,1.991,0,0,0,1.966-1.717l0.993-7A2.01,2.01,0,0,0,271.441,516.689ZM260.725,515h6.514l0.331,1h-7.176Zm-1.709,10-0.993-7h11.918l-0.993,7h-9.932ZM262,520a1,1,0,0,0-.993,1v1a0.993,0.993,0,1,0,1.986,0v-1A1,1,0,0,0,262,520Zm3.973,0a1,1,0,0,0-.993,1v1a0.993,0.993,0,1,0,1.986,0v-1A1,1,0,0,0,265.968,520Z" transform="translate(-256.063 -513)"/>
</svg>
