<svg xmlns="http://www.w3.org/2000/svg" width="15.875" height="16" viewBox="0 0 15.875 16">
  <metadata><?xpacket begin="﻿" id="W5M0MpCehiHzreSzNTczkc9d"?>
<x:xmpmeta xmlns:x="adobe:ns:meta/" x:xmptk="Adobe XMP Core 5.6-c138 79.159824, 2016/09/14-01:09:01        ">
   <rdf:RDF xmlns:rdf="http://www.w3.org/1999/02/22-rdf-syntax-ns#">
      <rdf:Description rdf:about=""/>
   </rdf:RDF>
</x:xmpmeta>
                                                                                                    
                                                                                                    
                                                                                                    
                                                                                                    
                                                                                                    
                                                                                                    
                                                                                                    
                                                                                                    
                                                                                                    
                                                                                                    
                                                                                                    
                                                                                                    
                                                                                                    
                                                                                                    
                                                                                                    
                                                                                                    
                                                                                                    
                                                                                                    
                                                                                                    
                                                                                                    
                           
<?xpacket end="w"?></metadata>
<defs>
    <style>
      .cls-1 {
        fill-rule: evenodd;
      }
    </style>
  </defs>
  <path id="bag_3" class="cls-1" d="M303.438,516.676a1.982,1.982,0,0,0-1.49-.676H301.73l-0.806-3.243a0.993,0.993,0,0,0-.963-0.757H292.01a1,1,0,0,0-.965.757L290.24,516h-0.218a1.982,1.982,0,0,0-1.49.676,2.009,2.009,0,0,0-.482,1.572l0.993,8A1.993,1.993,0,0,0,291.016,528h9.938a1.993,1.993,0,0,0,1.973-1.752l0.994-8A2.01,2.01,0,0,0,303.438,516.676ZM292.786,514h6.4l0.5,2h-7.393Zm-1.77,12-0.994-8h11.926l-0.994,8h-9.938ZM294,520a1,1,0,0,0-.993,1v2a0.994,0.994,0,1,0,1.987,0v-2A1,1,0,0,0,294,520Zm3.976,0a1,1,0,0,0-.994,1v2a0.994,0.994,0,1,0,1.988,0v-2A1,1,0,0,0,297.973,520Z" transform="translate(-288.063 -512)"/>
</svg>
