<svg xmlns="http://www.w3.org/2000/svg" width="15.875" height="16" viewBox="0 0 15.875 16">
  <metadata><?xpacket begin="﻿" id="W5M0MpCehiHzreSzNTczkc9d"?>
<x:xmpmeta xmlns:x="adobe:ns:meta/" x:xmptk="Adobe XMP Core 5.6-c138 79.159824, 2016/09/14-01:09:01        ">
   <rdf:RDF xmlns:rdf="http://www.w3.org/1999/02/22-rdf-syntax-ns#">
      <rdf:Description rdf:about=""/>
   </rdf:RDF>
</x:xmpmeta>
                                                                                                    
                                                                                                    
                                                                                                    
                                                                                                    
                                                                                                    
                                                                                                    
                                                                                                    
                                                                                                    
                                                                                                    
                                                                                                    
                                                                                                    
                                                                                                    
                                                                                                    
                                                                                                    
                                                                                                    
                                                                                                    
                                                                                                    
                                                                                                    
                                                                                                    
                                                                                                    
                           
<?xpacket end="w"?></metadata>
<defs>
    <style>
      .cls-1 {
        fill-rule: evenodd;
      }
    </style>
  </defs>
  <path id="bag_4" class="cls-1" d="M367.439,516.678a1.983,1.983,0,0,0-1.492-.678h-1.988a3.975,3.975,0,1,0-7.95,0h-1.987a1.984,1.984,0,0,0-1.491.676,2.013,2.013,0,0,0-.482,1.572l0.994,8A1.992,1.992,0,0,0,355.015,528h9.938a1.992,1.992,0,0,0,1.976-1.779l0.157-1.422,0.832-6.545A2.01,2.01,0,0,0,367.439,516.678ZM359.984,514a1.994,1.994,0,0,1,1.988,2H358A1.994,1.994,0,0,1,359.984,514Zm4.969,12h-9.938l-0.993-8h11.925l-0.837,6.578Zm-2.981-6a1,1,0,0,0-.994,1,0.994,0.994,0,1,1-1.987,0A0.994,0.994,0,1,0,357,521a2.982,2.982,0,1,0,5.963,0A1,1,0,0,0,361.972,520Z" transform="translate(-352.063 -512)"/>
</svg>
