<svg xmlns="http://www.w3.org/2000/svg" width="15.907" height="16" viewBox="0 0 15.907 16">
  <metadata><?xpacket begin="﻿" id="W5M0MpCehiHzreSzNTczkc9d"?>
<x:xmpmeta xmlns:x="adobe:ns:meta/" x:xmptk="Adobe XMP Core 5.6-c138 79.159824, 2016/09/14-01:09:01        ">
   <rdf:RDF xmlns:rdf="http://www.w3.org/1999/02/22-rdf-syntax-ns#">
      <rdf:Description rdf:about=""/>
   </rdf:RDF>
</x:xmpmeta>
                                                                                                    
                                                                                                    
                                                                                                    
                                                                                                    
                                                                                                    
                                                                                                    
                                                                                                    
                                                                                                    
                                                                                                    
                                                                                                    
                                                                                                    
                                                                                                    
                                                                                                    
                                                                                                    
                                                                                                    
                                                                                                    
                                                                                                    
                                                                                                    
                                                                                                    
                                                                                                    
                           
<?xpacket end="w"?></metadata>
<defs>
    <style>
      .cls-1 {
        fill-rule: evenodd;
      }
    </style>
  </defs>
  <path id="bag_1" class="cls-1" d="M239.623,515.89l-1.991-3a1.99,1.99,0,0,0-1.657-.89H228.01a1.989,1.989,0,0,0-1.657.89l-1.991,3a2.007,2.007,0,0,0-.322,1.331l1,9A2,2,0,0,0,227.014,528h9.956a1.994,1.994,0,0,0,1.979-1.779l0.158-1.422,0.838-7.578A2.007,2.007,0,0,0,239.623,515.89ZM235.975,514l0.664,1h-9.293l0.664-1h7.965Zm1.153,10.578L236.97,526h-9.956l-1-9h11.947Zm-8.017-3.131A0.994,0.994,0,0,0,230,522h3.983a1,1,0,0,0,.89-0.553l1-2a1,1,0,1,0-1.781-.894L233.368,520h-2.751l-0.721-1.447a1,1,0,1,0-1.781.894Z" transform="translate(-224.031 -512)"/>
</svg>
