<svg xmlns="http://www.w3.org/2000/svg" width="15.875" height="15.844" viewBox="0 0 15.875 15.844">
  <metadata><?xpacket begin="﻿" id="W5M0MpCehiHzreSzNTczkc9d"?>
<x:xmpmeta xmlns:x="adobe:ns:meta/" x:xmptk="Adobe XMP Core 5.6-c138 79.159824, 2016/09/14-01:09:01        ">
   <rdf:RDF xmlns:rdf="http://www.w3.org/1999/02/22-rdf-syntax-ns#">
      <rdf:Description rdf:about=""/>
   </rdf:RDF>
</x:xmpmeta>
                                                                                                    
                                                                                                    
                                                                                                    
                                                                                                    
                                                                                                    
                                                                                                    
                                                                                                    
                                                                                                    
                                                                                                    
                                                                                                    
                                                                                                    
                                                                                                    
                                                                                                    
                                                                                                    
                                                                                                    
                                                                                                    
                                                                                                    
                                                                                                    
                                                                                                    
                                                                                                    
                           
<?xpacket end="w"?></metadata>
<defs>
    <style>
      .cls-1 {
        fill-rule: evenodd;
      }
    </style>
  </defs>
  <path id="bag_3_open" class="cls-1" d="M335.438,516.742a1.987,1.987,0,0,0-1.49-.671h-0.379l-1.713-3.421a0.994,0.994,0,0,0-1.778.888l1.268,2.533h-6.722l1.269-2.533a0.994,0.994,0,0,0-1.778-.888l-1.714,3.421h-0.379a1.985,1.985,0,0,0-1.972,2.23l0.994,7.937a1.985,1.985,0,0,0,1.972,1.738h9.938a1.987,1.987,0,0,0,1.973-1.738l0.994-7.937A1.981,1.981,0,0,0,335.438,516.742Zm-12.422,9.25-0.994-7.937h11.926l-0.994,7.937h-9.938ZM326,520.039a0.992,0.992,0,0,0-.993.992v1.985a0.994,0.994,0,0,0,1.987,0v-1.985A0.993,0.993,0,0,0,326,520.039Zm3.976,0a0.993,0.993,0,0,0-.994.992v1.985a0.994,0.994,0,0,0,1.988,0v-1.985A0.993,0.993,0,0,0,329.973,520.039Z" transform="translate(-320.063 -512.125)"/>
</svg>
