<svg xmlns="http://www.w3.org/2000/svg" width="16" height="16" viewBox="0 0 16 16">
  <metadata><?xpacket begin="﻿" id="W5M0MpCehiHzreSzNTczkc9d"?>
<x:xmpmeta xmlns:x="adobe:ns:meta/" x:xmptk="Adobe XMP Core 5.6-c138 79.159824, 2016/09/14-01:09:01        ">
   <rdf:RDF xmlns:rdf="http://www.w3.org/1999/02/22-rdf-syntax-ns#">
      <rdf:Description rdf:about=""/>
   </rdf:RDF>
</x:xmpmeta>
                                                                                                    
                                                                                                    
                                                                                                    
                                                                                                    
                                                                                                    
                                                                                                    
                                                                                                    
                                                                                                    
                                                                                                    
                                                                                                    
                                                                                                    
                                                                                                    
                                                                                                    
                                                                                                    
                                                                                                    
                                                                                                    
                                                                                                    
                                                                                                    
                                                                                                    
                                                                                                    
                           
<?xpacket end="w"?></metadata>
<defs>
    <style>
      .cls-1 {
        fill-rule: evenodd;
      }
    </style>
  </defs>
  <path id="baggage" class="cls-1" d="M142,515h-2v-1a2,2,0,0,0-2-2h-4a2,2,0,0,0-2,2v1h-2a2,2,0,0,0-2,2v9a2,2,0,0,0,2,2h12a2,2,0,0,0,2-2v-9A2,2,0,0,0,142,515Zm-8-1h4v1h-4v-1Zm8,12H130v-2h2a1,1,0,0,0,2,0h4a1,1,0,0,0,2,0h2v2Zm0-4h-2a1,1,0,0,0-2,0h-4a1,1,0,0,0-2,0h-2v-5h12v5Z" transform="translate(-128 -512)"/>
</svg>
