<svg xmlns="http://www.w3.org/2000/svg" width="16" height="12" viewBox="0 0 16 12">
  <metadata><?xpacket begin="﻿" id="W5M0MpCehiHzreSzNTczkc9d"?>
<x:xmpmeta xmlns:x="adobe:ns:meta/" x:xmptk="Adobe XMP Core 5.6-c138 79.159824, 2016/09/14-01:09:01        ">
   <rdf:RDF xmlns:rdf="http://www.w3.org/1999/02/22-rdf-syntax-ns#">
      <rdf:Description rdf:about=""/>
   </rdf:RDF>
</x:xmpmeta>
                                                                                                    
                                                                                                    
                                                                                                    
                                                                                                    
                                                                                                    
                                                                                                    
                                                                                                    
                                                                                                    
                                                                                                    
                                                                                                    
                                                                                                    
                                                                                                    
                                                                                                    
                                                                                                    
                                                                                                    
                                                                                                    
                                                                                                    
                                                                                                    
                                                                                                    
                                                                                                    
                           
<?xpacket end="w"?></metadata>
<defs>
    <style>
      .cls-1 {
        fill-rule: evenodd;
      }
    </style>
  </defs>
  <path id="battery_2_3" class="cls-1" d="M270,100a2.006,2.006,0,0,0-2-2H258a2.006,2.006,0,0,0-2,2v8a2.006,2.006,0,0,0,2,2h10a2.006,2.006,0,0,0,2-2,2.006,2.006,0,0,0,2-2v-4A2.006,2.006,0,0,0,270,100Zm0,6h-2v2H258v-8h10v2h2v4Zm-10-5a1,1,0,0,0-1,1v4a1,1,0,0,0,2,0v-4A1,1,0,0,0,260,101Zm3,0a1,1,0,0,0-1,1v4a1,1,0,0,0,2,0v-4A1,1,0,0,0,263,101Z" transform="translate(-256 -98)"/>
</svg>
