<svg xmlns="http://www.w3.org/2000/svg" width="16" height="12" viewBox="0 0 16 12">
  <metadata><?xpacket begin="﻿" id="W5M0MpCehiHzreSzNTczkc9d"?>
<x:xmpmeta xmlns:x="adobe:ns:meta/" x:xmptk="Adobe XMP Core 5.6-c138 79.159824, 2016/09/14-01:09:01        ">
   <rdf:RDF xmlns:rdf="http://www.w3.org/1999/02/22-rdf-syntax-ns#">
      <rdf:Description rdf:about=""/>
   </rdf:RDF>
</x:xmpmeta>
                                                                                                    
                                                                                                    
                                                                                                    
                                                                                                    
                                                                                                    
                                                                                                    
                                                                                                    
                                                                                                    
                                                                                                    
                                                                                                    
                                                                                                    
                                                                                                    
                                                                                                    
                                                                                                    
                                                                                                    
                                                                                                    
                                                                                                    
                                                                                                    
                                                                                                    
                                                                                                    
                           
<?xpacket end="w"?></metadata>
<defs>
    <style>
      .cls-1 {
        fill-rule: evenodd;
      }
    </style>
  </defs>
  <path id="battery_2_5" class="cls-1" d="M331,103h-3V98l-4,7h3v5Zm-7,5h-2v-8h2a1,1,0,0,0,0-2h-2a2.006,2.006,0,0,0-2,2v8a2.006,2.006,0,0,0,2,2h2A1,1,0,0,0,324,108Zm10-8a2.006,2.006,0,0,0-2-2h-1a1,1,0,0,0,0,2h1v2h2v4h-2v2h-1a1,1,0,0,0,0,2h1a2.006,2.006,0,0,0,2-2,2.006,2.006,0,0,0,2-2v-4A2.006,2.006,0,0,0,334,100Z" transform="translate(-320 -98)"/>
</svg>
