<svg xmlns="http://www.w3.org/2000/svg" width="16" height="10" viewBox="0 0 16 10">
  <metadata><?xpacket begin="﻿" id="W5M0MpCehiHzreSzNTczkc9d"?>
<x:xmpmeta xmlns:x="adobe:ns:meta/" x:xmptk="Adobe XMP Core 5.6-c138 79.159824, 2016/09/14-01:09:01        ">
   <rdf:RDF xmlns:rdf="http://www.w3.org/1999/02/22-rdf-syntax-ns#">
      <rdf:Description rdf:about=""/>
   </rdf:RDF>
</x:xmpmeta>
                                                                                                    
                                                                                                    
                                                                                                    
                                                                                                    
                                                                                                    
                                                                                                    
                                                                                                    
                                                                                                    
                                                                                                    
                                                                                                    
                                                                                                    
                                                                                                    
                                                                                                    
                                                                                                    
                                                                                                    
                                                                                                    
                                                                                                    
                                                                                                    
                                                                                                    
                                                                                                    
                           
<?xpacket end="w"?></metadata>
<defs>
    <style>
      .cls-1 {
        fill-rule: evenodd;
      }
    </style>
  </defs>
  <path id="battery_1_4" class="cls-1" d="M142,100h-0.268A2,2,0,0,0,140,99H130a2,2,0,0,0-2,2v6a2,2,0,0,0,2,2h10a2,2,0,0,0,1.732-1H142a2,2,0,0,0,2-2v-4A2,2,0,0,0,142,100Zm0,6h-2v1H130v-6h10v1h2v4Zm-10-4a1,1,0,0,0-1,1v2a1,1,0,0,0,2,0v-2A1,1,0,0,0,132,102Zm3,0a1,1,0,0,0-1,1v2a1,1,0,0,0,2,0v-2A1,1,0,0,0,135,102Zm3,0a1,1,0,0,0-1,1v2a1,1,0,0,0,2,0v-2A1,1,0,0,0,138,102Z" transform="translate(-128 -99)"/>
</svg>
