<svg xmlns="http://www.w3.org/2000/svg" width="16" height="12" viewBox="0 0 16 12">
  <metadata><?xpacket begin="﻿" id="W5M0MpCehiHzreSzNTczkc9d"?>
<x:xmpmeta xmlns:x="adobe:ns:meta/" x:xmptk="Adobe XMP Core 5.6-c138 79.159824, 2016/09/14-01:09:01        ">
   <rdf:RDF xmlns:rdf="http://www.w3.org/1999/02/22-rdf-syntax-ns#">
      <rdf:Description rdf:about=""/>
   </rdf:RDF>
</x:xmpmeta>
                                                                                                    
                                                                                                    
                                                                                                    
                                                                                                    
                                                                                                    
                                                                                                    
                                                                                                    
                                                                                                    
                                                                                                    
                                                                                                    
                                                                                                    
                                                                                                    
                                                                                                    
                                                                                                    
                                                                                                    
                                                                                                    
                                                                                                    
                                                                                                    
                                                                                                    
                                                                                                    
                           
<?xpacket end="w"?></metadata>
<defs>
    <style>
      .cls-1 {
        fill-rule: evenodd;
      }
    </style>
  </defs>
  <path id="battery_1_5" class="cls-1" d="M164,107h-2v-6h2a1,1,0,0,0,0-2h-2a2.006,2.006,0,0,0-2,2v6a2.006,2.006,0,0,0,2,2h2A1,1,0,0,0,164,107Zm10-7h-0.27A1.984,1.984,0,0,0,172,99h-1a1,1,0,0,0,0,2h1v1h2v4h-2v1h-1a1,1,0,0,0,0,2h1a1.984,1.984,0,0,0,1.73-1H174a2.006,2.006,0,0,0,2-2v-4A2.006,2.006,0,0,0,174,100Zm-3,3h-3V98l-4,7h3v5Z" transform="translate(-160 -98)"/>
</svg>
