<svg xmlns="http://www.w3.org/2000/svg" width="16" height="14" viewBox="0 0 16 14">
  <metadata><?xpacket begin="﻿" id="W5M0MpCehiHzreSzNTczkc9d"?>
<x:xmpmeta xmlns:x="adobe:ns:meta/" x:xmptk="Adobe XMP Core 5.6-c138 79.159824, 2016/09/14-01:09:01        ">
   <rdf:RDF xmlns:rdf="http://www.w3.org/1999/02/22-rdf-syntax-ns#">
      <rdf:Description rdf:about=""/>
   </rdf:RDF>
</x:xmpmeta>
                                                                                                    
                                                                                                    
                                                                                                    
                                                                                                    
                                                                                                    
                                                                                                    
                                                                                                    
                                                                                                    
                                                                                                    
                                                                                                    
                                                                                                    
                                                                                                    
                                                                                                    
                                                                                                    
                                                                                                    
                                                                                                    
                                                                                                    
                                                                                                    
                                                                                                    
                                                                                                    
                           
<?xpacket end="w"?></metadata>
<defs>
    <style>
      .cls-1 {
        fill-rule: evenodd;
      }
    </style>
  </defs>
  <path id="bike" class="cls-1" d="M515,233a3,3,0,1,0,3,3A3,3,0,0,0,515,233Zm0,4a1,1,0,1,1,1-1A1,1,0,0,1,515,237Zm10-4a3,3,0,1,0,3,3A3,3,0,0,0,525,233Zm0,4a1,1,0,1,1,1-1A1,1,0,0,1,525,237Zm-3.758-4.97-2.286-.572,1.241-1.241,3.356,1.677a1,1,0,0,0,.894-1.789l-4-2a1,1,0,0,0-1.154.188l-3,3a1,1,0,0,0,.464,1.677l2.953,0.738-0.659,1.975a1,1,0,1,0,1.9.633l1-3A1,1,0,0,0,521.242,232.03ZM522.5,228a1.5,1.5,0,1,0-1.5-1.5A1.5,1.5,0,0,0,522.5,228Z" transform="translate(-512 -225)"/>
</svg>
