<svg xmlns="http://www.w3.org/2000/svg" width="11.844" height="15.937" viewBox="0 0 11.844 15.937">
  <metadata><?xpacket begin="﻿" id="W5M0MpCehiHzreSzNTczkc9d"?>
<x:xmpmeta xmlns:x="adobe:ns:meta/" x:xmptk="Adobe XMP Core 5.6-c138 79.159824, 2016/09/14-01:09:01        ">
   <rdf:RDF xmlns:rdf="http://www.w3.org/1999/02/22-rdf-syntax-ns#">
      <rdf:Description rdf:about=""/>
   </rdf:RDF>
</x:xmpmeta>
                                                                                                    
                                                                                                    
                                                                                                    
                                                                                                    
                                                                                                    
                                                                                                    
                                                                                                    
                                                                                                    
                                                                                                    
                                                                                                    
                                                                                                    
                                                                                                    
                                                                                                    
                                                                                                    
                                                                                                    
                                                                                                    
                                                                                                    
                                                                                                    
                                                                                                    
                                                                                                    
                           
<?xpacket end="w"?></metadata>
<defs>
    <style>
      .cls-1 {
        fill-rule: evenodd;
      }
    </style>
  </defs>
  <path id="bluetooth" class="cls-1" d="M230.02,334.007,231.009,336a0.978,0.978,0,0,1-.428-0.1,1,1,0,0,1-.561-0.9v-5.214l-3.445,2.083a0.986,0.986,0,0,1-1.357-.342,1,1,0,0,1,.339-1.367l3.53-2.134-3.53-2.135a1,1,0,0,1-.339-1.367,0.984,0.984,0,0,1,1.357-.341l3.445,2.083v-5.214a1,1,0,0,1,.561-0.9,0.982,0.982,0,0,1,1.045.12l4.944,3.985a1,1,0,0,1-.109,1.632l-3.531,2.135,3.531,2.134a1,1,0,0,1,.109,1.633l-4.944,3.985A0.981,0.981,0,0,1,231.009,336Zm0.989-6.21v3.14l2.226-1.795Zm0-6.661v3.141l2.226-1.346Z" transform="translate(-225.094 -320.063)"/>
</svg>
