<svg xmlns="http://www.w3.org/2000/svg" width="14" height="16" viewBox="0 0 14 16">
  <metadata><?xpacket begin="﻿" id="W5M0MpCehiHzreSzNTczkc9d"?>
<x:xmpmeta xmlns:x="adobe:ns:meta/" x:xmptk="Adobe XMP Core 5.6-c138 79.159824, 2016/09/14-01:09:01        ">
   <rdf:RDF xmlns:rdf="http://www.w3.org/1999/02/22-rdf-syntax-ns#">
      <rdf:Description rdf:about=""/>
   </rdf:RDF>
</x:xmpmeta>
                                                                                                    
                                                                                                    
                                                                                                    
                                                                                                    
                                                                                                    
                                                                                                    
                                                                                                    
                                                                                                    
                                                                                                    
                                                                                                    
                                                                                                    
                                                                                                    
                                                                                                    
                                                                                                    
                                                                                                    
                                                                                                    
                                                                                                    
                                                                                                    
                                                                                                    
                                                                                                    
                           
<?xpacket end="w"?></metadata>
<defs>
    <style>
      .cls-1 {
        fill-rule: evenodd;
      }
    </style>
  </defs>
  <path id="book_1" class="cls-1" d="M589,416H579a2.006,2.006,0,0,0-2,2v11a3.009,3.009,0,0,0,3,3h9a2.006,2.006,0,0,0,2-2V418A2.006,2.006,0,0,0,589,416Zm0,14h-9a1,1,0,0,1,0-2h9v2Zm0-4h-9a2.772,2.772,0,0,0-1,.18V418h10v8Zm-7-4h4a1,1,0,0,0,0-2h-4A1,1,0,0,0,582,422Z" transform="translate(-577 -416)"/>
</svg>
