<svg xmlns="http://www.w3.org/2000/svg" width="14" height="16" viewBox="0 0 14 16">
  <metadata><?xpacket begin="﻿" id="W5M0MpCehiHzreSzNTczkc9d"?>
<x:xmpmeta xmlns:x="adobe:ns:meta/" x:xmptk="Adobe XMP Core 5.6-c138 79.159824, 2016/09/14-01:09:01        ">
   <rdf:RDF xmlns:rdf="http://www.w3.org/1999/02/22-rdf-syntax-ns#">
      <rdf:Description rdf:about=""/>
   </rdf:RDF>
</x:xmpmeta>
                                                                                                    
                                                                                                    
                                                                                                    
                                                                                                    
                                                                                                    
                                                                                                    
                                                                                                    
                                                                                                    
                                                                                                    
                                                                                                    
                                                                                                    
                                                                                                    
                                                                                                    
                                                                                                    
                                                                                                    
                                                                                                    
                                                                                                    
                                                                                                    
                                                                                                    
                                                                                                    
                           
<?xpacket end="w"?></metadata>
<defs>
    <style>
      .cls-1 {
        fill-rule: evenodd;
      }
    </style>
  </defs>
  <path id="book_4" class="cls-1" d="M557,416h-9a2,2,0,0,0-2,2v1a1,1,0,0,0,0,2v2a1,1,0,0,0,0,2v2a1,1,0,0,0,0,2v1a2,2,0,0,0,2,2h9a2,2,0,0,0,2-2V418A2,2,0,0,0,557,416Zm0,14h-9v-1a1,1,0,0,0,0-2v-2a1,1,0,0,0,0-2v-2a1,1,0,0,0,0-2v-1h9v12Zm-6-8h3a1,1,0,0,0,0-2h-3A1,1,0,0,0,551,422Z" transform="translate(-545 -416)"/>
</svg>
