<svg xmlns="http://www.w3.org/2000/svg" width="16" height="16" viewBox="0 0 16 16">
  <metadata><?xpacket begin="﻿" id="W5M0MpCehiHzreSzNTczkc9d"?>
<x:xmpmeta xmlns:x="adobe:ns:meta/" x:xmptk="Adobe XMP Core 5.6-c138 79.159824, 2016/09/14-01:09:01        ">
   <rdf:RDF xmlns:rdf="http://www.w3.org/1999/02/22-rdf-syntax-ns#">
      <rdf:Description rdf:about=""/>
   </rdf:RDF>
</x:xmpmeta>
                                                                                                    
                                                                                                    
                                                                                                    
                                                                                                    
                                                                                                    
                                                                                                    
                                                                                                    
                                                                                                    
                                                                                                    
                                                                                                    
                                                                                                    
                                                                                                    
                                                                                                    
                                                                                                    
                                                                                                    
                                                                                                    
                                                                                                    
                                                                                                    
                                                                                                    
                                                                                                    
                           
<?xpacket end="w"?></metadata>
<defs>
    <style>
      .cls-1 {
        fill-rule: evenodd;
      }
    </style>
  </defs>
  <path id="book_1_add" class="cls-1" d="M643,428h4a1,1,0,0,0,0-2h-4a2.772,2.772,0,0,0-1,.18V418h10v5a1,1,0,0,0,2,0v-5a2.006,2.006,0,0,0-2-2H642a2.006,2.006,0,0,0-2,2v11a3.009,3.009,0,0,0,3,3h4a1,1,0,0,0,0-2h-4A1,1,0,0,1,643,428Zm12,0h-1v-1a1,1,0,0,0-2,0v1h-1a1,1,0,0,0,0,2h1v1a1,1,0,0,0,2,0v-1h1A1,1,0,0,0,655,428Zm-6-8h-4a1,1,0,0,0,0,2h4A1,1,0,0,0,649,420Z" transform="translate(-640 -416)"/>
</svg>
