<svg xmlns="http://www.w3.org/2000/svg" width="16" height="16" viewBox="0 0 16 16">
  <metadata><?xpacket begin="﻿" id="W5M0MpCehiHzreSzNTczkc9d"?>
<x:xmpmeta xmlns:x="adobe:ns:meta/" x:xmptk="Adobe XMP Core 5.6-c138 79.159824, 2016/09/14-01:09:01        ">
   <rdf:RDF xmlns:rdf="http://www.w3.org/1999/02/22-rdf-syntax-ns#">
      <rdf:Description rdf:about=""/>
   </rdf:RDF>
</x:xmpmeta>
                                                                                                    
                                                                                                    
                                                                                                    
                                                                                                    
                                                                                                    
                                                                                                    
                                                                                                    
                                                                                                    
                                                                                                    
                                                                                                    
                                                                                                    
                                                                                                    
                                                                                                    
                                                                                                    
                                                                                                    
                                                                                                    
                                                                                                    
                                                                                                    
                                                                                                    
                                                                                                    
                           
<?xpacket end="w"?></metadata>
<defs>
    <style>
      .cls-1 {
        fill-rule: evenodd;
      }
    </style>
  </defs>
  <path id="book_1_minus" class="cls-1" d="M611,428h4a1,1,0,0,0,0-2h-4a2.772,2.772,0,0,0-1,.18V418h10v7a1,1,0,0,0,2,0v-7a2.006,2.006,0,0,0-2-2H610a2.006,2.006,0,0,0-2,2v11a3.009,3.009,0,0,0,3,3h4a1,1,0,0,0,0-2h-4A1,1,0,0,1,611,428Zm6-8h-4a1,1,0,0,0,0,2h4A1,1,0,0,0,617,420Zm6,8h-4a1,1,0,0,0,0,2h4A1,1,0,0,0,623,428Z" transform="translate(-608 -416)"/>
</svg>
