<svg xmlns="http://www.w3.org/2000/svg" width="16" height="16" viewBox="0 0 16 16">
  <metadata><?xpacket begin="﻿" id="W5M0MpCehiHzreSzNTczkc9d"?>
<x:xmpmeta xmlns:x="adobe:ns:meta/" x:xmptk="Adobe XMP Core 5.6-c138 79.159824, 2016/09/14-01:09:01        ">
   <rdf:RDF xmlns:rdf="http://www.w3.org/1999/02/22-rdf-syntax-ns#">
      <rdf:Description rdf:about=""/>
   </rdf:RDF>
</x:xmpmeta>
                                                                                                    
                                                                                                    
                                                                                                    
                                                                                                    
                                                                                                    
                                                                                                    
                                                                                                    
                                                                                                    
                                                                                                    
                                                                                                    
                                                                                                    
                                                                                                    
                                                                                                    
                                                                                                    
                                                                                                    
                                                                                                    
                                                                                                    
                                                                                                    
                                                                                                    
                                                                                                    
                           
<?xpacket end="w"?></metadata>
<defs>
    <style>
      .cls-1 {
        fill-rule: evenodd;
      }
    </style>
  </defs>
  <path id="book_3" class="cls-1" d="M750,416H738a2,2,0,0,0-2,2v12a2,2,0,0,0,2,2h12a2,2,0,0,0,2-2V418A2,2,0,0,0,750,416Zm0,14h-9v-1a1,1,0,0,0-2,0v1h-1V418h1v1a1,1,0,0,0,2,0v-1h9v12Zm-6-8h3a1,1,0,0,0,0-2h-3A1,1,0,0,0,744,422Zm-4,0a1,1,0,0,0-1,1v2a1,1,0,0,0,2,0v-2A1,1,0,0,0,740,422Z" transform="translate(-736 -416)"/>
</svg>
