<svg xmlns="http://www.w3.org/2000/svg" width="16" height="16" viewBox="0 0 16 16">
  <metadata><?xpacket begin="﻿" id="W5M0MpCehiHzreSzNTczkc9d"?>
<x:xmpmeta xmlns:x="adobe:ns:meta/" x:xmptk="Adobe XMP Core 5.6-c138 79.159824, 2016/09/14-01:09:01        ">
   <rdf:RDF xmlns:rdf="http://www.w3.org/1999/02/22-rdf-syntax-ns#">
      <rdf:Description rdf:about=""/>
   </rdf:RDF>
</x:xmpmeta>
                                                                                                    
                                                                                                    
                                                                                                    
                                                                                                    
                                                                                                    
                                                                                                    
                                                                                                    
                                                                                                    
                                                                                                    
                                                                                                    
                                                                                                    
                                                                                                    
                                                                                                    
                                                                                                    
                                                                                                    
                                                                                                    
                                                                                                    
                                                                                                    
                                                                                                    
                                                                                                    
                           
<?xpacket end="w"?></metadata>
<defs>
    <style>
      .cls-1 {
        fill-rule: evenodd;
      }
    </style>
  </defs>
  <path id="box" class="cls-1" d="M751.664,355.89l-2-3A2,2,0,0,0,748,352h-8a2,2,0,0,0-1.664.89l-2,3A2,2,0,0,0,736,357v9a2,2,0,0,0,2,2h12a2,2,0,0,0,2-2v-9A2,2,0,0,0,751.664,355.89ZM748,354l2,3h-5v-3h3Zm-8,0h3v3h-5Zm10,12H738v-7h12v7Zm-9-5a1,1,0,0,0,1,1h4a1,1,0,0,0,0-2h-4A1,1,0,0,0,741,361Z" transform="translate(-736 -352)"/>
</svg>
