<svg xmlns="http://www.w3.org/2000/svg" width="16" height="14" viewBox="0 0 16 14">
  <metadata><?xpacket begin="﻿" id="W5M0MpCehiHzreSzNTczkc9d"?>
<x:xmpmeta xmlns:x="adobe:ns:meta/" x:xmptk="Adobe XMP Core 5.6-c138 79.159824, 2016/09/14-01:09:01        ">
   <rdf:RDF xmlns:rdf="http://www.w3.org/1999/02/22-rdf-syntax-ns#">
      <rdf:Description rdf:about=""/>
   </rdf:RDF>
</x:xmpmeta>
                                                                                                    
                                                                                                    
                                                                                                    
                                                                                                    
                                                                                                    
                                                                                                    
                                                                                                    
                                                                                                    
                                                                                                    
                                                                                                    
                                                                                                    
                                                                                                    
                                                                                                    
                                                                                                    
                                                                                                    
                                                                                                    
                                                                                                    
                                                                                                    
                                                                                                    
                                                                                                    
                           
<?xpacket end="w"?></metadata>
<defs>
    <style>
      .cls-1 {
        fill-rule: evenodd;
      }
    </style>
  </defs>
  <path id="bus" class="cls-1" d="M591.9,229.37l-1-3A2,2,0,0,0,589,225H578a2.006,2.006,0,0,0-2,2v8a2,2,0,0,0,1.11,1.79,2.991,2.991,0,0,0,5.71.21h2.36a2.991,2.991,0,0,0,5.71-.21A2,2,0,0,0,592,235v-5A1.932,1.932,0,0,0,591.9,229.37ZM589,227l1,3h-4v-3h3Zm-5,0v3h-2v-3h2Zm-6,0h2v3h-2v-3Zm0,5h12v1.77a2.986,2.986,0,0,0-4.82,1.23h-2.36a2.986,2.986,0,0,0-4.82-1.23V232Zm1,4a1,1,0,1,1,1,1A1,1,0,0,1,579,236Zm8,0a1,1,0,1,1,1,1A1,1,0,0,1,587,236Z" transform="translate(-576 -225)"/>
</svg>
