<svg xmlns="http://www.w3.org/2000/svg" width="14" height="16" viewBox="0 0 14 16">
  <metadata><?xpacket begin="﻿" id="W5M0MpCehiHzreSzNTczkc9d"?>
<x:xmpmeta xmlns:x="adobe:ns:meta/" x:xmptk="Adobe XMP Core 5.6-c138 79.159824, 2016/09/14-01:09:01        ">
   <rdf:RDF xmlns:rdf="http://www.w3.org/1999/02/22-rdf-syntax-ns#">
      <rdf:Description rdf:about=""/>
   </rdf:RDF>
</x:xmpmeta>
                                                                                                    
                                                                                                    
                                                                                                    
                                                                                                    
                                                                                                    
                                                                                                    
                                                                                                    
                                                                                                    
                                                                                                    
                                                                                                    
                                                                                                    
                                                                                                    
                                                                                                    
                                                                                                    
                                                                                                    
                                                                                                    
                                                                                                    
                                                                                                    
                                                                                                    
                                                                                                    
                           
<?xpacket end="w"?></metadata>
<defs>
    <style>
      .cls-1 {
        fill-rule: evenodd;
      }
    </style>
  </defs>
  <path id="cable_2" class="cls-1" d="M709,101h2V99h-2v2Zm4,0h2V99h-2v2Zm4.973,1.265A1.934,1.934,0,0,0,718,102V98a2,2,0,0,0-2-2h-8a2,2,0,0,0-2,2v4a1.934,1.934,0,0,0,.027.265A2,2,0,0,0,705,104v8h14v-8A2,2,0,0,0,717.973,102.265ZM708,98h8v4h-8V98Zm-1,12v-6h10v6H707Z" transform="translate(-705 -96)"/>
</svg>
