<svg xmlns="http://www.w3.org/2000/svg" width="15.719" height="16" viewBox="0 0 15.719 16">
  <metadata><?xpacket begin="﻿" id="W5M0MpCehiHzreSzNTczkc9d"?>
<x:xmpmeta xmlns:x="adobe:ns:meta/" x:xmptk="Adobe XMP Core 5.6-c138 79.159824, 2016/09/14-01:09:01        ">
   <rdf:RDF xmlns:rdf="http://www.w3.org/1999/02/22-rdf-syntax-ns#">
      <rdf:Description rdf:about=""/>
   </rdf:RDF>
</x:xmpmeta>
                                                                                                    
                                                                                                    
                                                                                                    
                                                                                                    
                                                                                                    
                                                                                                    
                                                                                                    
                                                                                                    
                                                                                                    
                                                                                                    
                                                                                                    
                                                                                                    
                                                                                                    
                                                                                                    
                                                                                                    
                                                                                                    
                                                                                                    
                                                                                                    
                                                                                                    
                                                                                                    
                           
<?xpacket end="w"?></metadata>
<defs>
    <style>
      .cls-1 {
        fill-rule: evenodd;
      }
    </style>
  </defs>
  <path id="cable_1" class="cls-1" d="M687.146,100.825l-4.171-4.24a1.946,1.946,0,0,0-2.783,0l-4.8,4.882a5.054,5.054,0,0,0-.625,6.29l-2.5,2.536a1.01,1.01,0,0,0,0,1.414,0.972,0.972,0,0,0,1.391,0l2.5-2.537a4.853,4.853,0,0,0,6.189-.635l4.8-4.882A2.022,2.022,0,0,0,687.146,100.825ZM678.866,108a2.92,2.92,0,0,1-2.086-.88,3.028,3.028,0,0,1,0-4.24l0.289-.294,4.172,4.24-0.29.294A2.92,2.92,0,0,1,678.866,108Zm3.766-2.588-4.172-4.24L681.583,98l4.172,4.24Zm-1.307-3.912,0.984,1a0.688,0.688,0,0,0,.984,0,0.715,0.715,0,0,0,0-1l-0.984-1a0.686,0.686,0,0,0-.984,0A0.715,0.715,0,0,0,681.325,101.5Z" transform="translate(-672 -96)"/>
</svg>
