<svg xmlns="http://www.w3.org/2000/svg" width="16" height="16" viewBox="0 0 16 16">
  <metadata><?xpacket begin="﻿" id="W5M0MpCehiHzreSzNTczkc9d"?>
<x:xmpmeta xmlns:x="adobe:ns:meta/" x:xmptk="Adobe XMP Core 5.6-c138 79.159824, 2016/09/14-01:09:01        ">
   <rdf:RDF xmlns:rdf="http://www.w3.org/1999/02/22-rdf-syntax-ns#">
      <rdf:Description rdf:about=""/>
   </rdf:RDF>
</x:xmpmeta>
                                                                                                    
                                                                                                    
                                                                                                    
                                                                                                    
                                                                                                    
                                                                                                    
                                                                                                    
                                                                                                    
                                                                                                    
                                                                                                    
                                                                                                    
                                                                                                    
                                                                                                    
                                                                                                    
                                                                                                    
                                                                                                    
                                                                                                    
                                                                                                    
                                                                                                    
                                                                                                    
                           
<?xpacket end="w"?></metadata>
<defs>
    <style>
      .cls-1 {
        fill-rule: evenodd;
      }
    </style>
  </defs>
  <path id="calendar_minus" class="cls-1" d="M271,268h-4a1,1,0,0,0,0,2h4A1,1,0,0,0,271,268Zm-1-11h-2a1,1,0,0,0-2,0h-4a1,1,0,0,0-2,0h-2a2.006,2.006,0,0,0-2,2v11a2.006,2.006,0,0,0,2,2h5a1,1,0,0,0,0-2h-5v-7h12v2a1,1,0,0,0,2,0v-6A2.006,2.006,0,0,0,270,257Zm-12,4v-2h2a1,1,0,0,0,2,0h4a1,1,0,0,0,2,0h2v2H258Z" transform="translate(-256 -256)"/>
</svg>
