<svg xmlns="http://www.w3.org/2000/svg" width="16" height="14" viewBox="0 0 16 14">
  <metadata><?xpacket begin="﻿" id="W5M0MpCehiHzreSzNTczkc9d"?>
<x:xmpmeta xmlns:x="adobe:ns:meta/" x:xmptk="Adobe XMP Core 5.6-c138 79.159824, 2016/09/14-01:09:01        ">
   <rdf:RDF xmlns:rdf="http://www.w3.org/1999/02/22-rdf-syntax-ns#">
      <rdf:Description rdf:about=""/>
   </rdf:RDF>
</x:xmpmeta>
                                                                                                    
                                                                                                    
                                                                                                    
                                                                                                    
                                                                                                    
                                                                                                    
                                                                                                    
                                                                                                    
                                                                                                    
                                                                                                    
                                                                                                    
                                                                                                    
                                                                                                    
                                                                                                    
                                                                                                    
                                                                                                    
                                                                                                    
                                                                                                    
                                                                                                    
                                                                                                    
                           
<?xpacket end="w"?></metadata>
<defs>
    <style>
      .cls-1 {
        fill-rule: evenodd;
      }
    </style>
  </defs>
  <path id="cam_4" class="cls-1" d="M558,163h-4.764l-0.447-.9A2,2,0,0,0,551,161h-4a2,2,0,0,0-1.789,1.1l-1,2a2,2,0,0,0-.211.9v8a2,2,0,0,0,2,2h12a2,2,0,0,0,2-2v-8A2,2,0,0,0,558,163Zm0,10H546v-8l1-2h4l1,2h6v8Zm-9-4a3,3,0,1,0,3-3A3,3,0,0,0,549,169Zm4,0a1,1,0,1,1-1-1A1,1,0,0,1,553,169Zm-3-4a1,1,0,1,0-1,1A1,1,0,0,0,550,165Z" transform="translate(-544 -161)"/>
</svg>
