<svg xmlns="http://www.w3.org/2000/svg" width="16" height="14" viewBox="0 0 16 14">
  <metadata><?xpacket begin="﻿" id="W5M0MpCehiHzreSzNTczkc9d"?>
<x:xmpmeta xmlns:x="adobe:ns:meta/" x:xmptk="Adobe XMP Core 5.6-c138 79.159824, 2016/09/14-01:09:01        ">
   <rdf:RDF xmlns:rdf="http://www.w3.org/1999/02/22-rdf-syntax-ns#">
      <rdf:Description rdf:about=""/>
   </rdf:RDF>
</x:xmpmeta>
                                                                                                    
                                                                                                    
                                                                                                    
                                                                                                    
                                                                                                    
                                                                                                    
                                                                                                    
                                                                                                    
                                                                                                    
                                                                                                    
                                                                                                    
                                                                                                    
                                                                                                    
                                                                                                    
                                                                                                    
                                                                                                    
                                                                                                    
                                                                                                    
                                                                                                    
                                                                                                    
                           
<?xpacket end="w"?></metadata>
<defs>
    <style>
      .cls-1 {
        fill-rule: evenodd;
      }
    </style>
  </defs>
  <path id="cam_2_1" class="cls-1" d="M430,163h-1.764l-0.447-.9A2,2,0,0,0,426,161h-4a2,2,0,0,0-1.789,1.1l-0.447.9H418a2,2,0,0,0-2,2v8a2,2,0,0,0,2,2h12a2,2,0,0,0,2-2v-8A2,2,0,0,0,430,163Zm0,10H418v-8h3l1-2h4l1,2h3v8Zm-6-6a2,2,0,1,0,2,2A2,2,0,0,0,424,167Z" transform="translate(-416 -161)"/>
</svg>
