<svg xmlns="http://www.w3.org/2000/svg" width="15.844" height="15.906" viewBox="0 0 15.844 15.906">
  <metadata><?xpacket begin="﻿" id="W5M0MpCehiHzreSzNTczkc9d"?>
<x:xmpmeta xmlns:x="adobe:ns:meta/" x:xmptk="Adobe XMP Core 5.6-c138 79.159824, 2016/09/14-01:09:01        ">
   <rdf:RDF xmlns:rdf="http://www.w3.org/1999/02/22-rdf-syntax-ns#">
      <rdf:Description rdf:about=""/>
   </rdf:RDF>
</x:xmpmeta>
                                                                                                    
                                                                                                    
                                                                                                    
                                                                                                    
                                                                                                    
                                                                                                    
                                                                                                    
                                                                                                    
                                                                                                    
                                                                                                    
                                                                                                    
                                                                                                    
                                                                                                    
                                                                                                    
                                                                                                    
                                                                                                    
                                                                                                    
                                                                                                    
                                                                                                    
                                                                                                    
                           
<?xpacket end="w"?></metadata>
<defs>
    <style>
      .cls-1 {
        fill-rule: evenodd;
      }
    </style>
  </defs>
  <path id="cam_2_2_no" class="cls-1" d="M589.89,163.066h-1.741l-0.445-.885a1.976,1.976,0,0,0-1.771-1.1h-3.957a1.933,1.933,0,0,0-.643.109l1.87,1.88h2.73l0.99,1.989h2.967v4.734l1.979,1.989v-6.723A1.989,1.989,0,0,0,589.89,163.066Zm1.59,11.132,0,0-1.593-1.6V172.6l-3.018-3.035s0,0,0,0L583.43,166.1l0,0-1.976-1.987,0,0-1.474-1.482,0,0-2.247-2.259a0.986,0.986,0,0,0-1.4,0,1,1,0,0,0,0,1.407l1.319,1.325h-0.006a1.874,1.874,0,0,0-.93.458,1.992,1.992,0,0,0-.672,1.492v7.957A1.989,1.989,0,0,0,578.019,175h11.462l0.7,0.7a0.984,0.984,0,0,0,1.4,0,1,1,0,0,0,0-1.406Zm-8.4-5.622,0,0,1.326,1.334,0,0a0.9,0.9,0,0,1-.455.119,1,1,0,0,1-.99-1A0.9,0.9,0,0,1,583.084,168.576Zm-5.065,4.436v-7.957h1.569l2.075,2.086a0.008,0.008,0,0,0,0,0,2.815,2.815,0,0,0-.5.895,2.76,2.76,0,0,0-.178.994,1.089,1.089,0,0,0,.02.259A2.967,2.967,0,0,0,583.7,172a1.072,1.072,0,0,0,.257.02,2.737,2.737,0,0,0,.989-0.179,2.8,2.8,0,0,0,.89-0.5l0,0,1.665,1.674h-9.483Z" transform="translate(-576.031 -160.094)"/>
</svg>
