<svg xmlns="http://www.w3.org/2000/svg" width="16" height="16" viewBox="0 0 16 16">
  <metadata><?xpacket begin="﻿" id="W5M0MpCehiHzreSzNTczkc9d"?>
<x:xmpmeta xmlns:x="adobe:ns:meta/" x:xmptk="Adobe XMP Core 5.6-c138 79.159824, 2016/09/14-01:09:01        ">
   <rdf:RDF xmlns:rdf="http://www.w3.org/1999/02/22-rdf-syntax-ns#">
      <rdf:Description rdf:about=""/>
   </rdf:RDF>
</x:xmpmeta>
                                                                                                    
                                                                                                    
                                                                                                    
                                                                                                    
                                                                                                    
                                                                                                    
                                                                                                    
                                                                                                    
                                                                                                    
                                                                                                    
                                                                                                    
                                                                                                    
                                                                                                    
                                                                                                    
                                                                                                    
                                                                                                    
                                                                                                    
                                                                                                    
                                                                                                    
                                                                                                    
                           
<?xpacket end="w"?></metadata>
<defs>
    <style>
      .cls-1 {
        fill-rule: evenodd;
      }
    </style>
  </defs>
  <path id="caps_back" class="cls-1" d="M334,64H322a2.006,2.006,0,0,0-2,2V78a2.006,2.006,0,0,0,2,2h12a2.006,2.006,0,0,0,2-2V66A2.006,2.006,0,0,0,334,64Zm0,14H322V66h12V78Zm-10.02-4.8,2.35,0.47,0.47,2.35a1.225,1.225,0,0,0,2.4,0l0.47-2.35,2.35-.47a1.225,1.225,0,0,0,0-2.4l-2.35-.47-0.47-2.35a1.225,1.225,0,0,0-2.4,0l-0.47,2.35-2.35.47A1.225,1.225,0,0,0,323.98,73.2ZM328,71a1,1,0,1,1-1,1A1,1,0,0,1,328,71Z" transform="translate(-320 -64)"/>
</svg>
