<svg xmlns="http://www.w3.org/2000/svg" width="15.875" height="16" viewBox="0 0 15.875 16">
  <metadata><?xpacket begin="﻿" id="W5M0MpCehiHzreSzNTczkc9d"?>
<x:xmpmeta xmlns:x="adobe:ns:meta/" x:xmptk="Adobe XMP Core 5.6-c138 79.159824, 2016/09/14-01:09:01        ">
   <rdf:RDF xmlns:rdf="http://www.w3.org/1999/02/22-rdf-syntax-ns#">
      <rdf:Description rdf:about=""/>
   </rdf:RDF>
</x:xmpmeta>
                                                                                                    
                                                                                                    
                                                                                                    
                                                                                                    
                                                                                                    
                                                                                                    
                                                                                                    
                                                                                                    
                                                                                                    
                                                                                                    
                                                                                                    
                                                                                                    
                                                                                                    
                                                                                                    
                                                                                                    
                                                                                                    
                                                                                                    
                                                                                                    
                                                                                                    
                                                                                                    
                           
<?xpacket end="w"?></metadata>
<defs>
    <style>
      .cls-1 {
        fill-rule: evenodd;
      }
    </style>
  </defs>
  <path id="caps_4_2" class="cls-1" d="M399.921,75.752l-0.994-8a2.01,2.01,0,0,0-.567-1.166l-1.988-2A1.981,1.981,0,0,0,394.967,64H389a1.982,1.982,0,0,0-1.406.586l-1.988,2a2.01,2.01,0,0,0-.567,1.166l-0.993,8a2.008,2.008,0,0,0,.482,1.572,1.982,1.982,0,0,0,1.49.676h2.367l0.719,1.447A1,1,0,0,0,390,80h3.976a1,1,0,0,0,.889-0.553L395.581,78h2.367a1.982,1.982,0,0,0,1.49-.676A2.009,2.009,0,0,0,399.921,75.752ZM394.967,66l0.994,1H388.01L389,66h5.963Zm-8.945,10,0.87-7h10.187l0.869,7H386.022Z" transform="translate(-384.031 -64)"/>
</svg>
