<svg xmlns="http://www.w3.org/2000/svg" width="16" height="12" viewBox="0 0 16 12">
  <metadata><?xpacket begin="﻿" id="W5M0MpCehiHzreSzNTczkc9d"?>
<x:xmpmeta xmlns:x="adobe:ns:meta/" x:xmptk="Adobe XMP Core 5.6-c138 79.159824, 2016/09/14-01:09:01        ">
   <rdf:RDF xmlns:rdf="http://www.w3.org/1999/02/22-rdf-syntax-ns#">
      <rdf:Description rdf:about=""/>
   </rdf:RDF>
</x:xmpmeta>
                                                                                                    
                                                                                                    
                                                                                                    
                                                                                                    
                                                                                                    
                                                                                                    
                                                                                                    
                                                                                                    
                                                                                                    
                                                                                                    
                                                                                                    
                                                                                                    
                                                                                                    
                                                                                                    
                                                                                                    
                                                                                                    
                                                                                                    
                                                                                                    
                                                                                                    
                                                                                                    
                           
<?xpacket end="w"?></metadata>
<defs>
    <style>
      .cls-1 {
        fill-rule: evenodd;
      }
    </style>
  </defs>
  <path id="car_1" class="cls-1" d="M654,229h-1.465l-1.7-2.555A1,1,0,0,0,650,226h-6a1,1,0,0,0-.832.445l-1.766,2.649A2,2,0,0,0,640,231v3a2,2,0,0,0,1.11,1.79,2.991,2.991,0,0,0,5.71.21h2.36a2.991,2.991,0,0,0,5.71-.21A2,2,0,0,0,656,234v-3A2.006,2.006,0,0,0,654,229Zm0,3.77a2.986,2.986,0,0,0-4.82,1.23h-2.36a2.986,2.986,0,0,0-4.82-1.23V231h12v1.77ZM649.465,228l0.666,1H648v-1h1.465Zm-4.93,0H646v1h-2.132ZM643,235a1,1,0,1,1,1,1A1,1,0,0,1,643,235Zm8,0a1,1,0,1,1,1,1A1,1,0,0,1,651,235Z" transform="translate(-640 -226)"/>
</svg>
