<svg xmlns="http://www.w3.org/2000/svg" width="16" height="12" viewBox="0 0 16 12">
  <metadata><?xpacket begin="﻿" id="W5M0MpCehiHzreSzNTczkc9d"?>
<x:xmpmeta xmlns:x="adobe:ns:meta/" x:xmptk="Adobe XMP Core 5.6-c138 79.159824, 2016/09/14-01:09:01        ">
   <rdf:RDF xmlns:rdf="http://www.w3.org/1999/02/22-rdf-syntax-ns#">
      <rdf:Description rdf:about=""/>
   </rdf:RDF>
</x:xmpmeta>
                                                                                                    
                                                                                                    
                                                                                                    
                                                                                                    
                                                                                                    
                                                                                                    
                                                                                                    
                                                                                                    
                                                                                                    
                                                                                                    
                                                                                                    
                                                                                                    
                                                                                                    
                                                                                                    
                                                                                                    
                                                                                                    
                                                                                                    
                                                                                                    
                                                                                                    
                                                                                                    
                           
<?xpacket end="w"?></metadata>
<defs>
    <style>
      .cls-1 {
        fill-rule: evenodd;
      }
    </style>
  </defs>
  <path id="car_2" class="cls-1" d="M622,229h-1.93l-1.41-2.11A1.981,1.981,0,0,0,617,226h-7a2.006,2.006,0,0,0-2,2v6a2,2,0,0,0,1.11,1.79,2.991,2.991,0,0,0,5.71.21h2.36a2.991,2.991,0,0,0,5.71-.21A2,2,0,0,0,624,234v-3A2.006,2.006,0,0,0,622,229Zm-1,2h1v1.77a2.986,2.986,0,0,0-4.82,1.23h-2.36a2.986,2.986,0,0,0-4.82-1.23V231h11Zm-4-3,0.667,1H615v-1h2Zm-7,0h3v1h-3v-1Zm1,7a1,1,0,1,1,1,1A1,1,0,0,1,611,235Zm8,0a1,1,0,1,1,1,1A1,1,0,0,1,619,235Z" transform="translate(-608 -226)"/>
</svg>
