<svg xmlns="http://www.w3.org/2000/svg" width="16" height="12" viewBox="0 0 16 12">
  <metadata><?xpacket begin="﻿" id="W5M0MpCehiHzreSzNTczkc9d"?>
<x:xmpmeta xmlns:x="adobe:ns:meta/" x:xmptk="Adobe XMP Core 5.6-c138 79.159824, 2016/09/14-01:09:01        ">
   <rdf:RDF xmlns:rdf="http://www.w3.org/1999/02/22-rdf-syntax-ns#">
      <rdf:Description rdf:about=""/>
   </rdf:RDF>
</x:xmpmeta>
                                                                                                    
                                                                                                    
                                                                                                    
                                                                                                    
                                                                                                    
                                                                                                    
                                                                                                    
                                                                                                    
                                                                                                    
                                                                                                    
                                                                                                    
                                                                                                    
                                                                                                    
                                                                                                    
                                                                                                    
                                                                                                    
                                                                                                    
                                                                                                    
                                                                                                    
                                                                                                    
                           
<?xpacket end="w"?></metadata>
<defs>
    <style>
      .cls-1 {
        fill-rule: evenodd;
      }
    </style>
  </defs>
  <path id="card_1_minus" class="cls-1" d="M622,514H610a2.006,2.006,0,0,0-2,2v8a2.006,2.006,0,0,0,2,2h5a1,1,0,0,0,0-2h-5v-4h12v1a1,1,0,0,0,2,0v-5A2.006,2.006,0,0,0,622,514Zm0,4H610v-2h12v2Zm1,6h-4a1,1,0,0,0,0,2h4a1,1,0,0,0,1-1,0.946,0.946,0,0,0-.09-0.41A1,1,0,0,0,623,524Zm-9-3h-1a1,1,0,0,0,0,2h2a1,1,0,0,0,0-2h-1Z" transform="translate(-608 -514)"/>
</svg>
