<svg xmlns="http://www.w3.org/2000/svg" width="16" height="14" viewBox="0 0 16 14">
  <metadata><?xpacket begin="﻿" id="W5M0MpCehiHzreSzNTczkc9d"?>
<x:xmpmeta xmlns:x="adobe:ns:meta/" x:xmptk="Adobe XMP Core 5.6-c138 79.159824, 2016/09/14-01:09:01        ">
   <rdf:RDF xmlns:rdf="http://www.w3.org/1999/02/22-rdf-syntax-ns#">
      <rdf:Description rdf:about=""/>
   </rdf:RDF>
</x:xmpmeta>
                                                                                                    
                                                                                                    
                                                                                                    
                                                                                                    
                                                                                                    
                                                                                                    
                                                                                                    
                                                                                                    
                                                                                                    
                                                                                                    
                                                                                                    
                                                                                                    
                                                                                                    
                                                                                                    
                                                                                                    
                                                                                                    
                                                                                                    
                                                                                                    
                                                                                                    
                                                                                                    
                           
<?xpacket end="w"?></metadata>
<defs>
    <style>
      .cls-1 {
        fill-rule: evenodd;
      }
    </style>
  </defs>
  <path id="card_1_exp" class="cls-1" d="M686,513H674a2.006,2.006,0,0,0-2,2v8a2.006,2.006,0,0,0,2,2h7a1,1,0,0,0,0-2h-7v-4h14v-4A2.006,2.006,0,0,0,686,513Zm0,4H674v-2h12v2Zm-8,3h-1a1,1,0,0,0,0,2h2a1,1,0,0,0,0-2h-1Zm7,1a1,1,0,0,0-1,1v1a1,1,0,0,0,2,0v-1A1,1,0,0,0,685,521Zm0,4a1,1,0,1,0,1,1A1,1,0,0,0,685,525Z" transform="translate(-672 -513)"/>
</svg>
