<svg xmlns="http://www.w3.org/2000/svg" width="16" height="14" viewBox="0 0 16 14">
  <metadata><?xpacket begin="﻿" id="W5M0MpCehiHzreSzNTczkc9d"?>
<x:xmpmeta xmlns:x="adobe:ns:meta/" x:xmptk="Adobe XMP Core 5.6-c138 79.159824, 2016/09/14-01:09:01        ">
   <rdf:RDF xmlns:rdf="http://www.w3.org/1999/02/22-rdf-syntax-ns#">
      <rdf:Description rdf:about=""/>
   </rdf:RDF>
</x:xmpmeta>
                                                                                                    
                                                                                                    
                                                                                                    
                                                                                                    
                                                                                                    
                                                                                                    
                                                                                                    
                                                                                                    
                                                                                                    
                                                                                                    
                                                                                                    
                                                                                                    
                                                                                                    
                                                                                                    
                                                                                                    
                                                                                                    
                                                                                                    
                                                                                                    
                                                                                                    
                                                                                                    
                           
<?xpacket end="w"?></metadata>
<defs>
    <style>
      .cls-1 {
        fill-rule: evenodd;
      }
    </style>
  </defs>
  <path id="card_1_add" class="cls-1" d="M654,513H642a2.006,2.006,0,0,0-2,2v8a2.006,2.006,0,0,0,2,2h5a1,1,0,0,0,0-2h-5v-4h14v-4A2.006,2.006,0,0,0,654,513Zm0,4H642v-2h12v2Zm1,6h-1v-1a1,1,0,0,0-2,0v1h-1a1,1,0,0,0,0,2h1v1a1,1,0,0,0,2,0v-1h1a1,1,0,0,0,1-1v-1a1.871,1.871,0,0,1-.09.59A1,1,0,0,0,655,523Zm-9-3h-1a1,1,0,0,0,0,2h2a1,1,0,0,0,0-2h-1Z" transform="translate(-640 -513)"/>
</svg>
