<svg xmlns="http://www.w3.org/2000/svg" width="12" height="16" viewBox="0 0 12 16">
  <metadata><?xpacket begin="﻿" id="W5M0MpCehiHzreSzNTczkc9d"?>
<x:xmpmeta xmlns:x="adobe:ns:meta/" x:xmptk="Adobe XMP Core 5.6-c138 79.159824, 2016/09/14-01:09:01        ">
   <rdf:RDF xmlns:rdf="http://www.w3.org/1999/02/22-rdf-syntax-ns#">
      <rdf:Description rdf:about=""/>
   </rdf:RDF>
</x:xmpmeta>
                                                                                                    
                                                                                                    
                                                                                                    
                                                                                                    
                                                                                                    
                                                                                                    
                                                                                                    
                                                                                                    
                                                                                                    
                                                                                                    
                                                                                                    
                                                                                                    
                                                                                                    
                                                                                                    
                                                                                                    
                                                                                                    
                                                                                                    
                                                                                                    
                                                                                                    
                                                                                                    
                           
<?xpacket end="w"?></metadata>
<defs>
    <style>
      .cls-1 {
        fill-rule: evenodd;
      }
    </style>
  </defs>
  <path id="card_clubs" class="cls-1" d="M427,584.5a1.5,1.5,0,0,1-1.5,1.5,1.514,1.514,0,0,1-.95-0.345L425,587h-2l0.45-1.345a1.514,1.514,0,0,1-.95.345,1.5,1.5,0,0,1,0-3c0.03,0,.065.01,0.1,0.01a1.443,1.443,0,0,1-.1-0.51,1.5,1.5,0,0,1,3,0,1.443,1.443,0,0,1-.1.51c0.03,0,.065-0.01.1-0.01A1.5,1.5,0,0,1,427,584.5Zm1-6.5v12h-8V578h8m0-2h-8a2,2,0,0,0-2,2v12a2,2,0,0,0,2,2h8a2,2,0,0,0,2-2V578a2,2,0,0,0-2-2h0Z" transform="translate(-418 -576)"/>
</svg>
