<svg xmlns="http://www.w3.org/2000/svg" width="12" height="16" viewBox="0 0 12 16">
  <metadata><?xpacket begin="﻿" id="W5M0MpCehiHzreSzNTczkc9d"?>
<x:xmpmeta xmlns:x="adobe:ns:meta/" x:xmptk="Adobe XMP Core 5.6-c138 79.159824, 2016/09/14-01:09:01        ">
   <rdf:RDF xmlns:rdf="http://www.w3.org/1999/02/22-rdf-syntax-ns#">
      <rdf:Description rdf:about=""/>
   </rdf:RDF>
</x:xmpmeta>
                                                                                                    
                                                                                                    
                                                                                                    
                                                                                                    
                                                                                                    
                                                                                                    
                                                                                                    
                                                                                                    
                                                                                                    
                                                                                                    
                                                                                                    
                                                                                                    
                                                                                                    
                                                                                                    
                                                                                                    
                                                                                                    
                                                                                                    
                                                                                                    
                                                                                                    
                                                                                                    
                           
<?xpacket end="w"?></metadata>
<defs>
    <style>
      .cls-1 {
        fill-rule: evenodd;
      }
    </style>
  </defs>
  <path id="card_hearts" class="cls-1" d="M396,576h-8a2,2,0,0,0-2,2v12a2,2,0,0,0,2,2h8a2,2,0,0,0,2-2V578A2,2,0,0,0,396,576Zm0,14h-8V578h8v12Zm-4-3.5s2.345-2.2,2.62-2.5a5.874,5.874,0,0,1-4.12-2.5A1.5,1.5,0,0,0,389,583a1.483,1.483,0,0,0,.375.99C389.65,584.3,392,586.5,392,586.5Z" transform="translate(-386 -576)"/>
</svg>
