<svg xmlns="http://www.w3.org/2000/svg" width="15.906" height="16" viewBox="0 0 15.906 16">
  <metadata><?xpacket begin="﻿" id="W5M0MpCehiHzreSzNTczkc9d"?>
<x:xmpmeta xmlns:x="adobe:ns:meta/" x:xmptk="Adobe XMP Core 5.6-c138 79.159824, 2016/09/14-01:09:01        ">
   <rdf:RDF xmlns:rdf="http://www.w3.org/1999/02/22-rdf-syntax-ns#">
      <rdf:Description rdf:about=""/>
   </rdf:RDF>
</x:xmpmeta>
                                                                                                    
                                                                                                    
                                                                                                    
                                                                                                    
                                                                                                    
                                                                                                    
                                                                                                    
                                                                                                    
                                                                                                    
                                                                                                    
                                                                                                    
                                                                                                    
                                                                                                    
                                                                                                    
                                                                                                    
                                                                                                    
                                                                                                    
                                                                                                    
                                                                                                    
                                                                                                    
                           
<?xpacket end="w"?></metadata>
<defs>
    <style>
      .cls-1 {
        fill-rule: evenodd;
      }
    </style>
  </defs>
  <path id="cart_1" class="cls-1" d="M399.467,514.732a1.988,1.988,0,0,0-1.54-.732h-9.956v-1a1,1,0,0,0-1-1h-1.991a1,1,0,0,0,0,2h1v7a2,2,0,0,0,1.991,2h8.961a1.993,1.993,0,0,0,1.952-1.608l1-5A2,2,0,0,0,399.467,514.732ZM387.971,521v-5h9.956l-1,5h-8.961Zm-1,3a2,2,0,1,0,1.992,2A1.995,1.995,0,0,0,386.975,524Zm9.957,0a2,2,0,1,0,1.991,2A2,2,0,0,0,396.932,524Z" transform="translate(-384 -512)"/>
</svg>
