<svg xmlns="http://www.w3.org/2000/svg" width="16" height="15.875" viewBox="0 0 16 15.875">
  <metadata><?xpacket begin="﻿" id="W5M0MpCehiHzreSzNTczkc9d"?>
<x:xmpmeta xmlns:x="adobe:ns:meta/" x:xmptk="Adobe XMP Core 5.6-c138 79.159824, 2016/09/14-01:09:01        ">
   <rdf:RDF xmlns:rdf="http://www.w3.org/1999/02/22-rdf-syntax-ns#">
      <rdf:Description rdf:about=""/>
   </rdf:RDF>
</x:xmpmeta>
                                                                                                    
                                                                                                    
                                                                                                    
                                                                                                    
                                                                                                    
                                                                                                    
                                                                                                    
                                                                                                    
                                                                                                    
                                                                                                    
                                                                                                    
                                                                                                    
                                                                                                    
                                                                                                    
                                                                                                    
                                                                                                    
                                                                                                    
                                                                                                    
                                                                                                    
                                                                                                    
                           
<?xpacket end="w"?></metadata>
<defs>
    <style>
      .cls-1 {
        fill-rule: evenodd;
      }
    </style>
  </defs>
  <path id="chair_2" class="cls-1" d="M367,644.925h-1a1,1,0,0,0-.707.29l-0.293.291v-4.551a1,1,0,0,0-1-.992h-8a1,1,0,0,0-1,.992v4.551l-0.293-.291a1,1,0,0,0-.707-0.29h-1a0.992,0.992,0,1,0,0,1.984h0.586l0.813,0.807a1.952,1.952,0,0,0-.4,1.178v0.992a1.992,1.992,0,0,0,2,1.985h3v0.992h-1a1,1,0,0,0-.447.1l-2,.992a0.99,0.99,0,0,0-.448,1.332,1.006,1.006,0,0,0,1.342.443l1.789-.887h3.453l1.878,0.894a0.994,0.994,0,1,0,.866-1.789l-2.083-.992a1,1,0,0,0-.433-0.1H361v-0.992h3a1.992,1.992,0,0,0,2-1.985v-0.992a1.952,1.952,0,0,0-.4-1.178l0.813-.807H367A0.992,0.992,0,1,0,367,644.925Zm-4-2.977v4.961h-6v-4.961h6Zm1,7.938h-8v-0.992h8v0.992Z" transform="translate(-352 -639.969)"/>
</svg>
