<svg xmlns="http://www.w3.org/2000/svg" width="14" height="16" viewBox="0 0 14 16">
  <metadata><?xpacket begin="﻿" id="W5M0MpCehiHzreSzNTczkc9d"?>
<x:xmpmeta xmlns:x="adobe:ns:meta/" x:xmptk="Adobe XMP Core 5.6-c138 79.159824, 2016/09/14-01:09:01        ">
   <rdf:RDF xmlns:rdf="http://www.w3.org/1999/02/22-rdf-syntax-ns#">
      <rdf:Description rdf:about=""/>
   </rdf:RDF>
</x:xmpmeta>
                                                                                                    
                                                                                                    
                                                                                                    
                                                                                                    
                                                                                                    
                                                                                                    
                                                                                                    
                                                                                                    
                                                                                                    
                                                                                                    
                                                                                                    
                                                                                                    
                                                                                                    
                                                                                                    
                                                                                                    
                                                                                                    
                                                                                                    
                                                                                                    
                                                                                                    
                                                                                                    
                           
<?xpacket end="w"?></metadata>
<defs>
    <style>
      .cls-1 {
        fill-rule: evenodd;
      }
    </style>
  </defs>
  <path id="chair_1" class="cls-1" d="M334,646h-1v-5a1,1,0,0,0-1-1h-8a1,1,0,0,0-1,1v5h-1a1,1,0,0,0,0,2h1v0.277A1.993,1.993,0,0,0,322,650v1a1.994,1.994,0,0,0,1,1.723V655a1,1,0,0,0,2,0v-2h6v2a1,1,0,0,0,2,0v-2.277A1.994,1.994,0,0,0,334,651v-1a1.993,1.993,0,0,0-1-1.723V648h1A1,1,0,0,0,334,646Zm-3-4v6h-6v-6h6Zm-7,9v-1h8v1h-8Z" transform="translate(-321 -640)"/>
</svg>
