<svg xmlns="http://www.w3.org/2000/svg" width="16" height="15.688" viewBox="0 0 16 15.688">
  <metadata><?xpacket begin="﻿" id="W5M0MpCehiHzreSzNTczkc9d"?>
<x:xmpmeta xmlns:x="adobe:ns:meta/" x:xmptk="Adobe XMP Core 5.6-c138 79.159824, 2016/09/14-01:09:01        ">
   <rdf:RDF xmlns:rdf="http://www.w3.org/1999/02/22-rdf-syntax-ns#">
      <rdf:Description rdf:about=""/>
   </rdf:RDF>
</x:xmpmeta>
                                                                                                    
                                                                                                    
                                                                                                    
                                                                                                    
                                                                                                    
                                                                                                    
                                                                                                    
                                                                                                    
                                                                                                    
                                                                                                    
                                                                                                    
                                                                                                    
                                                                                                    
                                                                                                    
                                                                                                    
                                                                                                    
                                                                                                    
                                                                                                    
                                                                                                    
                                                                                                    
                           
<?xpacket end="w"?></metadata>
<defs>
    <style>
      .cls-1 {
        fill-rule: evenodd;
      }
    </style>
  </defs>
  <path id="cherry" class="cls-1" d="M299.372,582.054c-0.2-.135-0.383-0.275-0.56-0.418,0.584,0.054,1.152.055,1.669,0.055a5.492,5.492,0,0,1,2.072.223,1.014,1.014,0,0,0,.973-0.043,0.977,0.977,0,0,0,.474-0.834,4.547,4.547,0,0,0-2.542-4.19,7.229,7.229,0,0,0-6.9.372h0c-0.021.011-.041,0.025-0.061,0.036s-0.032.016-.047,0.026l0,0c-1.942,1.045-2.979,3.994-3.305,5.094a4.9,4.9,0,0,0-3.137,4.54,4.953,4.953,0,0,0,5,4.9,5,5,0,0,0,3-.98,5,5,0,0,0,3,.98A4.887,4.887,0,0,0,299.372,582.054Zm1.143-3.478a2.735,2.735,0,0,1,1.2,1.181c-0.4-.027-0.813-0.027-1.236-0.027-1.605,0-3.024,0-4.063-1.26A5.13,5.13,0,0,1,300.515,578.576Zm-5.881,1.093a11.982,11.982,0,0,0,2.189,2.846A4.891,4.891,0,0,0,296,583a4.983,4.983,0,0,0-2.641-.952A9,9,0,0,1,294.634,579.669Zm0.036,9.7a3.11,3.11,0,0,1-1.67.49,2.941,2.941,0,1,1,0-5.881,3.11,3.11,0,0,1,1.67.49A2.923,2.923,0,0,1,294.67,589.369Zm4.33,0.49a3.11,3.11,0,0,1-1.67-.49,4.816,4.816,0,0,0,0-4.9,3.11,3.11,0,0,1,1.67-.49A2.941,2.941,0,1,1,299,589.859Z" transform="translate(-288 -576.125)"/>
</svg>
