<svg xmlns="http://www.w3.org/2000/svg" width="16" height="12" viewBox="0 0 16 12">
  <metadata><?xpacket begin="﻿" id="W5M0MpCehiHzreSzNTczkc9d"?>
<x:xmpmeta xmlns:x="adobe:ns:meta/" x:xmptk="Adobe XMP Core 5.6-c138 79.159824, 2016/09/14-01:09:01        ">
   <rdf:RDF xmlns:rdf="http://www.w3.org/1999/02/22-rdf-syntax-ns#">
      <rdf:Description rdf:about=""/>
   </rdf:RDF>
</x:xmpmeta>
                                                                                                    
                                                                                                    
                                                                                                    
                                                                                                    
                                                                                                    
                                                                                                    
                                                                                                    
                                                                                                    
                                                                                                    
                                                                                                    
                                                                                                    
                                                                                                    
                                                                                                    
                                                                                                    
                                                                                                    
                                                                                                    
                                                                                                    
                                                                                                    
                                                                                                    
                                                                                                    
                           
<?xpacket end="w"?></metadata>
<defs>
    <style>
      .cls-1 {
        fill-rule: evenodd;
      }
    </style>
  </defs>
  <path id="cloud_2" class="cls-1" d="M719.79,263.32a3.062,3.062,0,0,0-.22-0.49h-0.01a3.391,3.391,0,0,0-2.08-1.68,2.172,2.172,0,0,0-.24-0.07A5.951,5.951,0,0,0,712,258a3.708,3.708,0,0,0-.47.03h-0.02a6.017,6.017,0,0,0-4.01,2,4.019,4.019,0,0,0-2.13.97,3.846,3.846,0,0,0-1.13,1.64v0.01A3.8,3.8,0,0,0,704,264a3.956,3.956,0,0,0,2.14,3.52,1.2,1.2,0,0,0,.22.12,4.23,4.23,0,0,0,.95.31h0.01l0.22,0.03A3.953,3.953,0,0,0,711,270a3.71,3.71,0,0,0,.67-0.06,3.6,3.6,0,0,0,1.17-.4,3.879,3.879,0,0,0,1.62-1.54h2.04a1.615,1.615,0,0,0,.31-0.02,0.083,0.083,0,0,0,.05,0,3.161,3.161,0,0,0,.68-0.14,0.02,0.02,0,0,0,.02-0.01A3.494,3.494,0,0,0,720,264.5,3.373,3.373,0,0,0,719.79,263.32Zm-7.19,3.88a2.027,2.027,0,0,1-1.6.8,1.679,1.679,0,0,1-.5-0.07,2,2,0,1,1,2.49-2.06,0.57,0.57,0,0,1,.01.13A2.012,2.012,0,0,1,712.6,267.2Zm4.62-1.4a1.368,1.368,0,0,1-.72.2H715a4.086,4.086,0,0,0-.17-1.17,4.007,4.007,0,0,0-6.66-1.66,4.178,4.178,0,0,0-.99,1.64v0.01a3.5,3.5,0,0,0-.15.73,1.1,1.1,0,0,0-.02.18,0.55,0.55,0,0,1-.09-0.07,1.885,1.885,0,0,1-.74-0.84v-0.01A1.847,1.847,0,0,1,706,264a2.005,2.005,0,0,1,2-2,1.679,1.679,0,0,1,.5.07,4,4,0,0,1,7.37.93v0.01l0.03,0.12a1.35,1.35,0,0,1,.6-0.13,1.5,1.5,0,0,1,1.41,1,1.386,1.386,0,0,1,.09.5A1.444,1.444,0,0,1,717.22,265.8Z" transform="translate(-704 -258)"/>
</svg>
