<svg xmlns="http://www.w3.org/2000/svg" width="16" height="14" viewBox="0 0 16 14">
  <metadata><?xpacket begin="﻿" id="W5M0MpCehiHzreSzNTczkc9d"?>
<x:xmpmeta xmlns:x="adobe:ns:meta/" x:xmptk="Adobe XMP Core 5.6-c138 79.159824, 2016/09/14-01:09:01        ">
   <rdf:RDF xmlns:rdf="http://www.w3.org/1999/02/22-rdf-syntax-ns#">
      <rdf:Description rdf:about=""/>
   </rdf:RDF>
</x:xmpmeta>
                                                                                                    
                                                                                                    
                                                                                                    
                                                                                                    
                                                                                                    
                                                                                                    
                                                                                                    
                                                                                                    
                                                                                                    
                                                                                                    
                                                                                                    
                                                                                                    
                                                                                                    
                                                                                                    
                                                                                                    
                                                                                                    
                                                                                                    
                                                                                                    
                                                                                                    
                                                                                                    
                           
<?xpacket end="w"?></metadata>
<defs>
    <style>
      .cls-1 {
        fill-rule: evenodd;
      }
    </style>
  </defs>
  <path id="cloud_up" class="cls-1" d="M399.79,134.319a3.481,3.481,0,0,0-2.55-2.24A5.952,5.952,0,0,0,392,129a6.032,6.032,0,0,0-4.5,2.03,4,4,0,0,0-2.178,6.94,1,1,0,0,0,1.678-.739v-0.007a0.967,0.967,0,0,0-.323-0.728,2,2,0,0,1-.641-1.886A2.021,2.021,0,0,1,388,133a1.7,1.7,0,0,1,.5.07,3.995,3.995,0,0,1,7.4,1.06,1.35,1.35,0,0,1,.6-0.13,1.5,1.5,0,0,1,1.41,1,1.386,1.386,0,0,1,.09.5,1.5,1.5,0,0,1-.564,1.17,1.063,1.063,0,0,0-.436.822,1,1,0,0,0,1.628.782A3.492,3.492,0,0,0,400,135.5,3.373,3.373,0,0,0,399.79,134.319Zm-9.083,3.389,0.293-.293V142a1,1,0,0,0,2,0v-4.585l0.293,0.293a1,1,0,0,0,1.414-1.414l-2-2a1,1,0,0,0-1.414,0l-2,2A1,1,0,0,0,390.707,137.708Z" transform="translate(-384 -129)"/>
</svg>
