<svg xmlns="http://www.w3.org/2000/svg" width="16" height="13.906" viewBox="0 0 16 13.906">
  <metadata><?xpacket begin="﻿" id="W5M0MpCehiHzreSzNTczkc9d"?>
<x:xmpmeta xmlns:x="adobe:ns:meta/" x:xmptk="Adobe XMP Core 5.6-c138 79.159824, 2016/09/14-01:09:01        ">
   <rdf:RDF xmlns:rdf="http://www.w3.org/1999/02/22-rdf-syntax-ns#">
      <rdf:Description rdf:about=""/>
   </rdf:RDF>
</x:xmpmeta>
                                                                                                    
                                                                                                    
                                                                                                    
                                                                                                    
                                                                                                    
                                                                                                    
                                                                                                    
                                                                                                    
                                                                                                    
                                                                                                    
                                                                                                    
                                                                                                    
                                                                                                    
                                                                                                    
                                                                                                    
                                                                                                    
                                                                                                    
                                                                                                    
                                                                                                    
                                                                                                    
                           
<?xpacket end="w"?></metadata>
<defs>
    <style>
      .cls-1 {
        fill-rule: evenodd;
      }
    </style>
  </defs>
  <path id="cloud_down" class="cls-1" d="M367.79,134.258a3.474,3.474,0,0,0-2.55-2.225,5.956,5.956,0,0,0-5.24-3.06,6.048,6.048,0,0,0-4.5,2.017,3.967,3.967,0,0,0-2.178,6.9,1,1,0,0,0,1.678-.735v-0.006a0.959,0.959,0,0,0-.323-0.724,1.975,1.975,0,0,1-.641-1.874,2.017,2.017,0,0,1,1.962-1.6,1.7,1.7,0,0,1,.5.069,4,4,0,0,1,7.4,1.054,1.35,1.35,0,0,1,.6-0.13,1.5,1.5,0,0,1,1.41.994,1.37,1.37,0,0,1,.09.5,1.484,1.484,0,0,1-.564,1.162,1.055,1.055,0,0,0-.436.817,1,1,0,0,0,1.628.777A3.461,3.461,0,0,0,368,135.431,3.335,3.335,0,0,0,367.79,134.258Zm-6.5,4.941L361,139.49v-4.556a1,1,0,0,0-2,0v4.556l-0.293-.291a1,1,0,0,0-1.414,0,0.988,0.988,0,0,0,0,1.405l2,1.987a1,1,0,0,0,1.414,0l2-1.987a0.988,0.988,0,0,0,0-1.405A1,1,0,0,0,361.293,139.2Z" transform="translate(-352 -128.969)"/>
</svg>
