<svg xmlns="http://www.w3.org/2000/svg" width="16" height="10" viewBox="0 0 16 10">
  <metadata><?xpacket begin="﻿" id="W5M0MpCehiHzreSzNTczkc9d"?>
<x:xmpmeta xmlns:x="adobe:ns:meta/" x:xmptk="Adobe XMP Core 5.6-c138 79.159824, 2016/09/14-01:09:01        ">
   <rdf:RDF xmlns:rdf="http://www.w3.org/1999/02/22-rdf-syntax-ns#">
      <rdf:Description rdf:about=""/>
   </rdf:RDF>
</x:xmpmeta>
                                                                                                    
                                                                                                    
                                                                                                    
                                                                                                    
                                                                                                    
                                                                                                    
                                                                                                    
                                                                                                    
                                                                                                    
                                                                                                    
                                                                                                    
                                                                                                    
                                                                                                    
                                                                                                    
                                                                                                    
                                                                                                    
                                                                                                    
                                                                                                    
                                                                                                    
                                                                                                    
                           
<?xpacket end="w"?></metadata>
<defs>
    <style>
      .cls-1 {
        fill-rule: evenodd;
      }
    </style>
  </defs>
  <path id="cloud_1" class="cls-1" d="M686,265v0.5a1.386,1.386,0,0,0-.09-0.5H686Zm-6-4a4,4,0,0,1,3.9,3.13,1.35,1.35,0,0,1,.6-0.13,1.5,1.5,0,0,1,1.41,1,1.386,1.386,0,0,1,.09.5,1.5,1.5,0,0,1-1.5,1.5H676a2,2,0,0,1,0-4,1.679,1.679,0,0,1,.5.07A3.978,3.978,0,0,1,680,261m0-2a5.991,5.991,0,0,0-4.5,2.031A4,4,0,0,0,676,269h8.5a3.5,3.5,0,0,0,3.5-3.5,3.368,3.368,0,0,0-.208-1.178,3.49,3.49,0,0,0-2.55-2.243A5.956,5.956,0,0,0,680,259h0Z" transform="translate(-672 -259)"/>
</svg>
