<svg xmlns="http://www.w3.org/2000/svg" width="16" height="16" viewBox="0 0 16 16">
  <metadata><?xpacket begin="﻿" id="W5M0MpCehiHzreSzNTczkc9d"?>
<x:xmpmeta xmlns:x="adobe:ns:meta/" x:xmptk="Adobe XMP Core 5.6-c138 79.159824, 2016/09/14-01:09:01        ">
   <rdf:RDF xmlns:rdf="http://www.w3.org/1999/02/22-rdf-syntax-ns#">
      <rdf:Description rdf:about=""/>
   </rdf:RDF>
</x:xmpmeta>
                                                                                                    
                                                                                                    
                                                                                                    
                                                                                                    
                                                                                                    
                                                                                                    
                                                                                                    
                                                                                                    
                                                                                                    
                                                                                                    
                                                                                                    
                                                                                                    
                                                                                                    
                                                                                                    
                                                                                                    
                                                                                                    
                                                                                                    
                                                                                                    
                                                                                                    
                                                                                                    
                           
<?xpacket end="w"?></metadata>
<defs>
    <style>
      .cls-1 {
        fill-rule: evenodd;
      }
    </style>
  </defs>
  <path id="clubs" class="cls-1" d="M616,578a3,3,0,0,1,3,3,2.887,2.887,0,0,1-.19,1.02c0.06,0,.13-0.02.19-0.02a3,3,0,0,1,0,6,3.028,3.028,0,0,1-1.9-.69L618,590h-4l0.9-2.69a3.028,3.028,0,0,1-1.9.69,3,3,0,0,1,0-6c0.06,0,.13.02,0.19,0.02A2.887,2.887,0,0,1,613,581a3,3,0,0,1,3-3m0-2a7.324,7.324,0,0,0-4,13.9,2,2,0,0,0,2,2.1h4a2,2,0,0,0,2-2.1,8.911,8.911,0,0,0-4-13.9h0Z" transform="translate(-608 -576)"/>
</svg>
