<svg xmlns="http://www.w3.org/2000/svg" width="16" height="16" viewBox="0 0 16 16">
  <metadata><?xpacket begin="﻿" id="W5M0MpCehiHzreSzNTczkc9d"?>
<x:xmpmeta xmlns:x="adobe:ns:meta/" x:xmptk="Adobe XMP Core 5.6-c138 79.159824, 2016/09/14-01:09:01        ">
   <rdf:RDF xmlns:rdf="http://www.w3.org/1999/02/22-rdf-syntax-ns#">
      <rdf:Description rdf:about=""/>
   </rdf:RDF>
</x:xmpmeta>
                                                                                                    
                                                                                                    
                                                                                                    
                                                                                                    
                                                                                                    
                                                                                                    
                                                                                                    
                                                                                                    
                                                                                                    
                                                                                                    
                                                                                                    
                                                                                                    
                                                                                                    
                                                                                                    
                                                                                                    
                                                                                                    
                                                                                                    
                                                                                                    
                                                                                                    
                                                                                                    
                           
<?xpacket end="w"?></metadata>
<defs>
    <style>
      .cls-1 {
        fill-rule: evenodd;
      }
    </style>
  </defs>
  <path id="code_sq" class="cls-1" d="M110,64H98a2,2,0,0,0-2,2V78a2,2,0,0,0,2,2h12a2,2,0,0,0,2-2V66A2,2,0,0,0,110,64Zm0,14H98V66h12V78Zm-9-2h2V74h-1V70h1V68h-2a1,1,0,0,0-1,1v6A1,1,0,0,0,101,76Zm6,0a1,1,0,0,0,1-1V69a1,1,0,0,0-1-1h-2v2h1v4h-1v2h2Z" transform="translate(-96 -64)"/>
</svg>
