<svg xmlns="http://www.w3.org/2000/svg" width="16" height="16" viewBox="0 0 16 16">
  <metadata><?xpacket begin="﻿" id="W5M0MpCehiHzreSzNTczkc9d"?>
<x:xmpmeta xmlns:x="adobe:ns:meta/" x:xmptk="Adobe XMP Core 5.6-c138 79.159824, 2016/09/14-01:09:01        ">
   <rdf:RDF xmlns:rdf="http://www.w3.org/1999/02/22-rdf-syntax-ns#">
      <rdf:Description rdf:about=""/>
   </rdf:RDF>
</x:xmpmeta>
                                                                                                    
                                                                                                    
                                                                                                    
                                                                                                    
                                                                                                    
                                                                                                    
                                                                                                    
                                                                                                    
                                                                                                    
                                                                                                    
                                                                                                    
                                                                                                    
                                                                                                    
                                                                                                    
                                                                                                    
                                                                                                    
                                                                                                    
                                                                                                    
                                                                                                    
                                                                                                    
                           
<?xpacket end="w"?></metadata>
<defs>
    <style>
      .cls-1 {
        fill-rule: evenodd;
      }
    </style>
  </defs>
  <path id="compas_1" class="cls-1" d="M328,224a8,8,0,1,0,8,8A8.009,8.009,0,0,0,328,224Zm0,14a6,6,0,1,1,6-6A6,6,0,0,1,328,238Zm2.142-10.121h-0.021c-0.053,0-.106,0-0.158.007a1.978,1.978,0,0,0-.772.223l-2.793,1.4a2,2,0,0,0-.894.894l-1.414,2.829a2,2,0,0,0,2.683,2.683L329.6,234.5a2,2,0,0,0,.895-0.9l1.374-2.748A2,2,0,0,0,330.142,227.879Zm-1.435,4.828-2.828,1.414,1.414-2.828,2.828-1.415Z" transform="translate(-320 -224)"/>
</svg>
