<svg xmlns="http://www.w3.org/2000/svg" width="15.844" height="11.625" viewBox="0 0 15.844 11.625">
  <metadata><?xpacket begin="﻿" id="W5M0MpCehiHzreSzNTczkc9d"?>
<x:xmpmeta xmlns:x="adobe:ns:meta/" x:xmptk="Adobe XMP Core 5.6-c138 79.159824, 2016/09/14-01:09:01        ">
   <rdf:RDF xmlns:rdf="http://www.w3.org/1999/02/22-rdf-syntax-ns#">
      <rdf:Description rdf:about=""/>
   </rdf:RDF>
</x:xmpmeta>
                                                                                                    
                                                                                                    
                                                                                                    
                                                                                                    
                                                                                                    
                                                                                                    
                                                                                                    
                                                                                                    
                                                                                                    
                                                                                                    
                                                                                                    
                                                                                                    
                                                                                                    
                                                                                                    
                                                                                                    
                                                                                                    
                                                                                                    
                                                                                                    
                                                                                                    
                                                                                                    
                           
<?xpacket end="w"?></metadata>
<defs>
    <style>
      .cls-1 {
        fill-rule: evenodd;
      }
    </style>
  </defs>
  <path id="connection_2" class="cls-1" d="M198.561,330.2a1.915,1.915,0,0,0,0,2.741,2,2,0,0,0,2.788,0,1.915,1.915,0,0,0,0-2.741A2,2,0,0,0,198.561,330.2Zm-3.536-1.84a0.967,0.967,0,0,0,.127,1.229,1,1,0,0,0,1.531-.179,3.966,3.966,0,0,1,6.545,0,1,1,0,0,0,1.531.179,0.967,0.967,0,0,0,.126-1.229A5.994,5.994,0,0,0,195.025,328.364Zm12.622-2.852a9.961,9.961,0,0,0-15.384,0,0.967,0.967,0,0,0,.066,1.306h0a1,1,0,0,0,1.478-.1,7.991,7.991,0,0,1,12.294,0,1,1,0,0,0,1.479.1h0A0.967,0.967,0,0,0,207.647,325.512Z" transform="translate(-192.031 -321.875)"/>
</svg>
