<svg xmlns="http://www.w3.org/2000/svg" width="16" height="16" viewBox="0 0 16 16">
  <metadata><?xpacket begin="﻿" id="W5M0MpCehiHzreSzNTczkc9d"?>
<x:xmpmeta xmlns:x="adobe:ns:meta/" x:xmptk="Adobe XMP Core 5.6-c138 79.159824, 2016/09/14-01:09:01        ">
   <rdf:RDF xmlns:rdf="http://www.w3.org/1999/02/22-rdf-syntax-ns#">
      <rdf:Description rdf:about=""/>
   </rdf:RDF>
</x:xmpmeta>
                                                                                                    
                                                                                                    
                                                                                                    
                                                                                                    
                                                                                                    
                                                                                                    
                                                                                                    
                                                                                                    
                                                                                                    
                                                                                                    
                                                                                                    
                                                                                                    
                                                                                                    
                                                                                                    
                                                                                                    
                                                                                                    
                                                                                                    
                                                                                                    
                                                                                                    
                                                                                                    
                           
<?xpacket end="w"?></metadata>
<defs>
    <style>
      .cls-1 {
        fill-rule: evenodd;
      }
    </style>
  </defs>
  <path id="connection_1" class="cls-1" d="M174,332a2,2,0,1,0,2,2A2,2,0,0,0,174,332Zm1.194-3.879a5.931,5.931,0,0,0-1.617-.107,5.994,5.994,0,0,0-5.456,7.18,1,1,0,1,0,1.955-.423,4.063,4.063,0,0,1,.087-1.918,3.948,3.948,0,0,1,2.69-2.69,4.05,4.05,0,0,1,1.918-.087A1,1,0,1,0,175.194,328.121Zm-0.1-4.062a10.251,10.251,0,0,0-2.819.086,10.017,10.017,0,0,0-8.131,8.131,10.289,10.289,0,0,0-.086,2.819,1.009,1.009,0,0,0,1,.9h0a1,1,0,0,0,.987-1.134,7.942,7.942,0,0,1,.5-3.751,8.053,8.053,0,0,1,5-4.723,7.925,7.925,0,0,1,3.325-.345A1.006,1.006,0,0,0,176,325.06h0A1.008,1.008,0,0,0,175.1,324.059ZM174,322h1a1,1,0,0,0,0-2h-1a14,14,0,0,0-14,14v1a1,1,0,0,0,2,0v-1A12,12,0,0,1,174,322Z" transform="translate(-160 -320)"/>
</svg>
