<svg xmlns="http://www.w3.org/2000/svg" width="16" height="16" viewBox="0 0 16 16">
  <metadata><?xpacket begin="﻿" id="W5M0MpCehiHzreSzNTczkc9d"?>
<x:xmpmeta xmlns:x="adobe:ns:meta/" x:xmptk="Adobe XMP Core 5.6-c138 79.159824, 2016/09/14-01:09:01        ">
   <rdf:RDF xmlns:rdf="http://www.w3.org/1999/02/22-rdf-syntax-ns#">
      <rdf:Description rdf:about=""/>
   </rdf:RDF>
</x:xmpmeta>
                                                                                                    
                                                                                                    
                                                                                                    
                                                                                                    
                                                                                                    
                                                                                                    
                                                                                                    
                                                                                                    
                                                                                                    
                                                                                                    
                                                                                                    
                                                                                                    
                                                                                                    
                                                                                                    
                                                                                                    
                                                                                                    
                                                                                                    
                                                                                                    
                                                                                                    
                                                                                                    
                           
<?xpacket end="w"?></metadata>
<defs>
    <style>
      .cls-1 {
        fill-rule: evenodd;
      }
    </style>
  </defs>
  <path id="copy_2" class="cls-1" d="M622,676h-8a2.006,2.006,0,0,0-2,2v8a2.006,2.006,0,0,0,2,2h8a2.006,2.006,0,0,0,2-2v-8A2.006,2.006,0,0,0,622,676Zm0,10h-8v-8h8v8Zm-4-14h-8a2.006,2.006,0,0,0-2,2v8a2.006,2.006,0,0,0,2,2V674h10A2.006,2.006,0,0,0,618,672Zm1,3h0a1,1,0,0,0,1-1h0a1,1,0,0,0-1-1h0a1,1,0,0,0-1,1h0A1,1,0,0,0,619,675Zm-9,9h0a1,1,0,0,0,1-1h0a1,1,0,0,0-1-1h0a1,1,0,0,0-1,1h0A1,1,0,0,0,610,684Z" transform="translate(-608 -672)"/>
</svg>
