<svg xmlns="http://www.w3.org/2000/svg" width="16" height="16" viewBox="0 0 16 16">
  <metadata><?xpacket begin="﻿" id="W5M0MpCehiHzreSzNTczkc9d"?>
<x:xmpmeta xmlns:x="adobe:ns:meta/" x:xmptk="Adobe XMP Core 5.6-c138 79.159824, 2016/09/14-01:09:01        ">
   <rdf:RDF xmlns:rdf="http://www.w3.org/1999/02/22-rdf-syntax-ns#">
      <rdf:Description rdf:about=""/>
   </rdf:RDF>
</x:xmpmeta>
                                                                                                    
                                                                                                    
                                                                                                    
                                                                                                    
                                                                                                    
                                                                                                    
                                                                                                    
                                                                                                    
                                                                                                    
                                                                                                    
                                                                                                    
                                                                                                    
                                                                                                    
                                                                                                    
                                                                                                    
                                                                                                    
                                                                                                    
                                                                                                    
                                                                                                    
                                                                                                    
                           
<?xpacket end="w"?></metadata>
<defs>
    <style>
      .cls-1 {
        fill-rule: evenodd;
      }
    </style>
  </defs>
  <path id="copy_4" class="cls-1" d="M686,678h-6a2.006,2.006,0,0,0-2,2v6a2.006,2.006,0,0,0,2,2h6a2.006,2.006,0,0,0,2-2v-6A2.006,2.006,0,0,0,686,678Zm0,8h-6v-6h6v6Zm-5-12a1,1,0,0,0,.91-0.59A0.946,0.946,0,0,0,682,673a1,1,0,0,0-1-1h-7a2.006,2.006,0,0,0-2,2v7a1,1,0,0,0,1,1,0.946,0.946,0,0,0,.41-0.09A1,1,0,0,0,674,681v-7h7Zm3,3a1,1,0,0,0,.91-0.59A0.946,0.946,0,0,0,685,676a1,1,0,0,0-1-1h-7a2.006,2.006,0,0,0-2,2v7a1,1,0,0,0,1,1,0.946,0.946,0,0,0,.41-0.09A1,1,0,0,0,677,684v-7h7Z" transform="translate(-672 -672)"/>
</svg>
