<svg xmlns="http://www.w3.org/2000/svg" width="16" height="16" viewBox="0 0 16 16">
  <metadata><?xpacket begin="﻿" id="W5M0MpCehiHzreSzNTczkc9d"?>
<x:xmpmeta xmlns:x="adobe:ns:meta/" x:xmptk="Adobe XMP Core 5.6-c138 79.159824, 2016/09/14-01:09:01        ">
   <rdf:RDF xmlns:rdf="http://www.w3.org/1999/02/22-rdf-syntax-ns#">
      <rdf:Description rdf:about=""/>
   </rdf:RDF>
</x:xmpmeta>
                                                                                                    
                                                                                                    
                                                                                                    
                                                                                                    
                                                                                                    
                                                                                                    
                                                                                                    
                                                                                                    
                                                                                                    
                                                                                                    
                                                                                                    
                                                                                                    
                                                                                                    
                                                                                                    
                                                                                                    
                                                                                                    
                                                                                                    
                                                                                                    
                                                                                                    
                                                                                                    
                           
<?xpacket end="w"?></metadata>
<defs>
    <style>
      .cls-1 {
        fill-rule: evenodd;
      }
    </style>
  </defs>
  <path id="copy_1" class="cls-1" d="M589,683v-9a2.006,2.006,0,0,0-2-2h-9a2.006,2.006,0,0,0-2,2v9a2.006,2.006,0,0,0,2,2h9A2.006,2.006,0,0,0,589,683Zm-11-9h9v9h-9v-9Zm13,1a0.946,0.946,0,0,0-.41.09,1,1,0,0,0-.59.91v10H580a1,1,0,0,0-.91.59,0.946,0.946,0,0,0-.09.41,1,1,0,0,0,1,1h10a2.006,2.006,0,0,0,2-2V676A1,1,0,0,0,591,675Z" transform="translate(-576 -672)"/>
</svg>
