<svg xmlns="http://www.w3.org/2000/svg" width="16" height="16" viewBox="0 0 16 16">
  <metadata><?xpacket begin="﻿" id="W5M0MpCehiHzreSzNTczkc9d"?>
<x:xmpmeta xmlns:x="adobe:ns:meta/" x:xmptk="Adobe XMP Core 5.6-c138 79.159824, 2016/09/14-01:09:01        ">
   <rdf:RDF xmlns:rdf="http://www.w3.org/1999/02/22-rdf-syntax-ns#">
      <rdf:Description rdf:about=""/>
   </rdf:RDF>
</x:xmpmeta>
                                                                                                    
                                                                                                    
                                                                                                    
                                                                                                    
                                                                                                    
                                                                                                    
                                                                                                    
                                                                                                    
                                                                                                    
                                                                                                    
                                                                                                    
                                                                                                    
                                                                                                    
                                                                                                    
                                                                                                    
                                                                                                    
                                                                                                    
                                                                                                    
                                                                                                    
                                                                                                    
                           
<?xpacket end="w"?></metadata>
<defs>
    <style>
      .cls-1 {
        fill-rule: evenodd;
      }
    </style>
  </defs>
  <path id="copy_3" class="cls-1" d="M653,683v-6a2.006,2.006,0,0,0-2-2h-6a2.006,2.006,0,0,0-2,2v6a2.006,2.006,0,0,0,2,2h6A2.006,2.006,0,0,0,653,683Zm-8-3v-3h6v6h-6v-3Zm4-6a1,1,0,0,0,.91-0.59A0.946,0.946,0,0,0,650,673a1,1,0,0,0-1-1h-7a2.006,2.006,0,0,0-2,2v7a1,1,0,0,0,1,1,0.946,0.946,0,0,0,.41-0.09A1,1,0,0,0,642,681v-7h7Zm6,4a0.946,0.946,0,0,0-.41.09,1,1,0,0,0-.59.91v7h-7a1,1,0,0,0-.91.59,0.946,0.946,0,0,0-.09.41,1,1,0,0,0,1,1h7a2.006,2.006,0,0,0,2-2v-7A1,1,0,0,0,655,678Z" transform="translate(-640 -672)"/>
</svg>
