<svg xmlns="http://www.w3.org/2000/svg" width="16" height="16" viewBox="0 0 16 16">
  <metadata><?xpacket begin="﻿" id="W5M0MpCehiHzreSzNTczkc9d"?>
<x:xmpmeta xmlns:x="adobe:ns:meta/" x:xmptk="Adobe XMP Core 5.6-c138 79.159824, 2016/09/14-01:09:01        ">
   <rdf:RDF xmlns:rdf="http://www.w3.org/1999/02/22-rdf-syntax-ns#">
      <rdf:Description rdf:about=""/>
   </rdf:RDF>
</x:xmpmeta>
                                                                                                    
                                                                                                    
                                                                                                    
                                                                                                    
                                                                                                    
                                                                                                    
                                                                                                    
                                                                                                    
                                                                                                    
                                                                                                    
                                                                                                    
                                                                                                    
                                                                                                    
                                                                                                    
                                                                                                    
                                                                                                    
                                                                                                    
                                                                                                    
                                                                                                    
                                                                                                    
                           
<?xpacket end="w"?></metadata>
<defs>
    <style>
      .cls-1 {
        fill-rule: evenodd;
      }
    </style>
  </defs>
  <path id="crop_1" class="cls-1" d="M325,672a1,1,0,0,1,1,1v4a1,1,0,0,1-1,1h-4a1,1,0,0,1,0-2h3v-3A1,1,0,0,1,325,672Zm-5,11a1,1,0,0,1,1-1h4a1,1,0,0,1,1,1v4a1,1,0,0,1-2,0v-3h-3A1,1,0,0,1,320,683Zm11,5a1,1,0,0,1-1-1v-4a1,1,0,0,1,1-1h4a1,1,0,0,1,0,2h-3v3A1,1,0,0,1,331,688Zm5-11a1,1,0,0,1-1,1h-4a1,1,0,0,1-1-1v-4a1,1,0,0,1,2,0v3h3A1,1,0,0,1,336,677Z" transform="translate(-320 -672)"/>
</svg>
