<svg xmlns="http://www.w3.org/2000/svg" width="16" height="16" viewBox="0 0 16 16">
  <metadata><?xpacket begin="﻿" id="W5M0MpCehiHzreSzNTczkc9d"?>
<x:xmpmeta xmlns:x="adobe:ns:meta/" x:xmptk="Adobe XMP Core 5.6-c138 79.159824, 2016/09/14-01:09:01        ">
   <rdf:RDF xmlns:rdf="http://www.w3.org/1999/02/22-rdf-syntax-ns#">
      <rdf:Description rdf:about=""/>
   </rdf:RDF>
</x:xmpmeta>
                                                                                                    
                                                                                                    
                                                                                                    
                                                                                                    
                                                                                                    
                                                                                                    
                                                                                                    
                                                                                                    
                                                                                                    
                                                                                                    
                                                                                                    
                                                                                                    
                                                                                                    
                                                                                                    
                                                                                                    
                                                                                                    
                                                                                                    
                                                                                                    
                                                                                                    
                                                                                                    
                           
<?xpacket end="w"?></metadata>
<defs>
    <style>
      .cls-1 {
        fill-rule: evenodd;
      }
    </style>
  </defs>
  <path id="cs" class="cls-1" d="M488,96a8,8,0,1,0,8,8A8.009,8.009,0,0,0,488,96Zm2.7,9.285a2.84,2.84,0,0,0,.117-0.285h3.094a5.964,5.964,0,0,1-1.023,2.473ZM482.09,103a5.958,5.958,0,0,1,1.023-2.473l2.188,2.188a2.746,2.746,0,0,0-.117.285H482.09Zm5.91,0a1,1,0,1,1-1,1A1,1,0,0,1,488,103Zm5.91,0h-3.094A3,3,0,0,0,488,101a2.951,2.951,0,0,0-1.285.3l-2.188-2.188A5.988,5.988,0,0,1,493.91,103Zm-11.82,2h3.094A3,3,0,0,0,488,107a2.965,2.965,0,0,0,1.285-.3l2.188,2.188A5.988,5.988,0,0,1,482.09,105Z" transform="translate(-480 -96)"/>
</svg>
