<svg xmlns="http://www.w3.org/2000/svg" width="15.906" height="13.875" viewBox="0 0 15.906 13.875">
  <metadata><?xpacket begin="﻿" id="W5M0MpCehiHzreSzNTczkc9d"?>
<x:xmpmeta xmlns:x="adobe:ns:meta/" x:xmptk="Adobe XMP Core 5.6-c138 79.159824, 2016/09/14-01:09:01        ">
   <rdf:RDF xmlns:rdf="http://www.w3.org/1999/02/22-rdf-syntax-ns#">
      <rdf:Description rdf:about=""/>
   </rdf:RDF>
</x:xmpmeta>
                                                                                                    
                                                                                                    
                                                                                                    
                                                                                                    
                                                                                                    
                                                                                                    
                                                                                                    
                                                                                                    
                                                                                                    
                                                                                                    
                                                                                                    
                                                                                                    
                                                                                                    
                                                                                                    
                                                                                                    
                                                                                                    
                                                                                                    
                                                                                                    
                                                                                                    
                                                                                                    
                           
<?xpacket end="w"?></metadata>
<defs>
    <style>
      .cls-1 {
        fill-rule: evenodd;
      }
    </style>
  </defs>
  <path id="cut" class="cls-1" d="M713.275,328.031l6.238-5.191a0.994,0.994,0,1,0-1.272-1.528l-6.516,5.429-1.977-1.648,0,0a2.952,2.952,0,0,0,.194-1.028,3.014,3.014,0,1,0-1.47,2.553l0.01,0.008,1.7,1.409-1.7,1.41-0.01.008a2.947,2.947,0,0,0-1.51-.425,2.978,2.978,0,1,0,2.98,2.978,2.948,2.948,0,0,0-.194-1.028l0,0,1.977-1.647,6.516,5.429a1.02,1.02,0,0,0,.636.228,0.985,0.985,0,0,0,.765-0.357,1,1,0,0,0-.129-1.4Zm-7.312-3.97a0.994,0.994,0,1,1,.994.993,0.983,0.983,0,0,1-.356-0.072c-0.026-.01-0.05-0.024-0.075-0.036A0.989,0.989,0,0,1,705.963,324.061Zm0.994,8.933a0.986,0.986,0,0,1-.431-1.877c0.025-.012.049-0.026,0.075-0.036a0.983,0.983,0,0,1,.356-0.072A0.993,0.993,0,1,1,706.957,332.994Z" transform="translate(-703.969 -321.094)"/>
</svg>
