<svg xmlns="http://www.w3.org/2000/svg" width="16" height="16" viewBox="0 0 16 16">
  <metadata><?xpacket begin="﻿" id="W5M0MpCehiHzreSzNTczkc9d"?>
<x:xmpmeta xmlns:x="adobe:ns:meta/" x:xmptk="Adobe XMP Core 5.6-c138 79.159824, 2016/09/14-01:09:01        ">
   <rdf:RDF xmlns:rdf="http://www.w3.org/1999/02/22-rdf-syntax-ns#">
      <rdf:Description rdf:about=""/>
   </rdf:RDF>
</x:xmpmeta>
                                                                                                    
                                                                                                    
                                                                                                    
                                                                                                    
                                                                                                    
                                                                                                    
                                                                                                    
                                                                                                    
                                                                                                    
                                                                                                    
                                                                                                    
                                                                                                    
                                                                                                    
                                                                                                    
                                                                                                    
                                                                                                    
                                                                                                    
                                                                                                    
                                                                                                    
                                                                                                    
                           
<?xpacket end="w"?></metadata>
<defs>
    <style>
      .cls-1 {
        fill-rule: evenodd;
      }
    </style>
  </defs>
  <path id="data_lines" class="cls-1" d="M712,460a1,1,0,0,0,1-1v-4a1,1,0,0,0-2,0v4A1,1,0,0,0,712,460Zm6,0a1,1,0,0,0,1-1V449a1,1,0,0,0-2,0v10A1,1,0,0,0,718,460Zm-9,0a1,1,0,0,0,1-1v-1a1,1,0,0,0-2,0v1A1,1,0,0,0,709,460Zm6,0a1,1,0,0,0,1-1v-7a1,1,0,0,0-2,0v7A1,1,0,0,0,715,460Zm4,2H706V449a1,1,0,0,0-2,0v14a1,1,0,0,0,1,1h14A1,1,0,0,0,719,462Z" transform="translate(-704 -448)"/>
</svg>
