<svg xmlns="http://www.w3.org/2000/svg" width="16" height="16" viewBox="0 0 16 16">
  <metadata><?xpacket begin="﻿" id="W5M0MpCehiHzreSzNTczkc9d"?>
<x:xmpmeta xmlns:x="adobe:ns:meta/" x:xmptk="Adobe XMP Core 5.6-c138 79.159824, 2016/09/14-01:09:01        ">
   <rdf:RDF xmlns:rdf="http://www.w3.org/1999/02/22-rdf-syntax-ns#">
      <rdf:Description rdf:about=""/>
   </rdf:RDF>
</x:xmpmeta>
                                                                                                    
                                                                                                    
                                                                                                    
                                                                                                    
                                                                                                    
                                                                                                    
                                                                                                    
                                                                                                    
                                                                                                    
                                                                                                    
                                                                                                    
                                                                                                    
                                                                                                    
                                                                                                    
                                                                                                    
                                                                                                    
                                                                                                    
                                                                                                    
                                                                                                    
                                                                                                    
                           
<?xpacket end="w"?></metadata>
<defs>
    <style>
      .cls-1 {
        fill-rule: evenodd;
      }
    </style>
  </defs>
  <path id="data_4" class="cls-1" d="M685.949,452.051A6.925,6.925,0,0,0,682,450.079V450a2,2,0,0,0-2-2,8,8,0,0,0-8,8,2,2,0,0,0,2,2h0.079A7,7,0,1,0,685.949,452.051Zm-10.192-.294A5.981,5.981,0,0,1,680,450v6h-6A5.985,5.985,0,0,1,675.757,451.757Zm8.778,8.778A5,5,0,0,1,676.1,458H680a2,2,0,0,0,2-2v-3.9A5,5,0,0,1,684.535,460.535Z" transform="translate(-672 -448)"/>
</svg>
