<svg xmlns="http://www.w3.org/2000/svg" width="16" height="16" viewBox="0 0 16 16">
  <metadata><?xpacket begin="﻿" id="W5M0MpCehiHzreSzNTczkc9d"?>
<x:xmpmeta xmlns:x="adobe:ns:meta/" x:xmptk="Adobe XMP Core 5.6-c138 79.159824, 2016/09/14-01:09:01        ">
   <rdf:RDF xmlns:rdf="http://www.w3.org/1999/02/22-rdf-syntax-ns#">
      <rdf:Description rdf:about=""/>
   </rdf:RDF>
</x:xmpmeta>
                                                                                                    
                                                                                                    
                                                                                                    
                                                                                                    
                                                                                                    
                                                                                                    
                                                                                                    
                                                                                                    
                                                                                                    
                                                                                                    
                                                                                                    
                                                                                                    
                                                                                                    
                                                                                                    
                                                                                                    
                                                                                                    
                                                                                                    
                                                                                                    
                                                                                                    
                                                                                                    
                           
<?xpacket end="w"?></metadata>
<defs>
    <style>
      .cls-1 {
        fill-rule: evenodd;
      }
    </style>
  </defs>
  <path id="data_1" class="cls-1" d="M584,448a8,8,0,1,0,8,8A8.009,8.009,0,0,0,584,448Zm6,8a5.937,5.937,0,0,1-.079.92L585,455.279V450.09A6,6,0,0,1,590,456Zm-7-5.91V455h-4.91A5.994,5.994,0,0,1,583,450.09ZM584,462a6,6,0,0,1-5.91-5h5.292l2.369,4.739A6.026,6.026,0,0,1,584,462Zm3.537-1.162-1.563-3.126,3.317,1.105A6.041,6.041,0,0,1,587.537,460.838Z" transform="translate(-576 -448)"/>
</svg>
