<svg xmlns="http://www.w3.org/2000/svg" width="15.906" height="15.906" viewBox="0 0 15.906 15.906">
  <metadata><?xpacket begin="﻿" id="W5M0MpCehiHzreSzNTczkc9d"?>
<x:xmpmeta xmlns:x="adobe:ns:meta/" x:xmptk="Adobe XMP Core 5.6-c138 79.159824, 2016/09/14-01:09:01        ">
   <rdf:RDF xmlns:rdf="http://www.w3.org/1999/02/22-rdf-syntax-ns#">
      <rdf:Description rdf:about=""/>
   </rdf:RDF>
</x:xmpmeta>
                                                                                                    
                                                                                                    
                                                                                                    
                                                                                                    
                                                                                                    
                                                                                                    
                                                                                                    
                                                                                                    
                                                                                                    
                                                                                                    
                                                                                                    
                                                                                                    
                                                                                                    
                                                                                                    
                                                                                                    
                                                                                                    
                                                                                                    
                                                                                                    
                                                                                                    
                                                                                                    
                           
<?xpacket end="w"?></metadata>
<defs>
    <style>
      .cls-1 {
        fill-rule: evenodd;
      }
    </style>
  </defs>
  <path id="data_line" class="cls-1" d="M750.858,462h-12.9V449.1a0.993,0.993,0,1,0-1.985,0v13.895a1,1,0,0,0,.992.992h13.895A0.993,0.993,0,0,0,750.858,462Zm-7.94-1.985a0.992,0.992,0,0,1-.826-0.442l-1.985-2.977a0.993,0.993,0,1,1,1.652-1.1L742.7,456.9l1.284-3.211a0.993,0.993,0,0,1,1.472-.457l1.985,1.323,2.508-5.85a0.992,0.992,0,0,1,1.824.782l-2.978,6.947a0.993,0.993,0,0,1-1.462.435l-1.96-1.307-1.53,3.827a0.993,0.993,0,0,1-.819.618A0.9,0.9,0,0,1,742.918,460.015Z" transform="translate(-735.969 -448.094)"/>
</svg>
