<svg xmlns="http://www.w3.org/2000/svg" width="16" height="16" viewBox="0 0 16 16">
  <metadata><?xpacket begin="﻿" id="W5M0MpCehiHzreSzNTczkc9d"?>
<x:xmpmeta xmlns:x="adobe:ns:meta/" x:xmptk="Adobe XMP Core 5.6-c138 79.159824, 2016/09/14-01:09:01        ">
   <rdf:RDF xmlns:rdf="http://www.w3.org/1999/02/22-rdf-syntax-ns#">
      <rdf:Description rdf:about=""/>
   </rdf:RDF>
</x:xmpmeta>
                                                                                                    
                                                                                                    
                                                                                                    
                                                                                                    
                                                                                                    
                                                                                                    
                                                                                                    
                                                                                                    
                                                                                                    
                                                                                                    
                                                                                                    
                                                                                                    
                                                                                                    
                                                                                                    
                                                                                                    
                                                                                                    
                                                                                                    
                                                                                                    
                                                                                                    
                                                                                                    
                           
<?xpacket end="w"?></metadata>
<defs>
    <style>
      .cls-1 {
        fill-rule: evenodd;
      }
    </style>
  </defs>
  <path id="delete_4" class="cls-1" d="M143,547h-4v-1a2,2,0,0,0-2-2h-2a2,2,0,0,0-2,2v1h-4a1,1,0,0,0,0,2h1v9a2,2,0,0,0,2,2h8a2,2,0,0,0,2-2v-9h1A1,1,0,0,0,143,547Zm-8-1h2v1h-2v-1Zm5,12h-8v-9h8v9Zm-5-7a1,1,0,0,0,0,2h2a1,1,0,0,0,0-2h-2Z" transform="translate(-128 -544)"/>
</svg>
