<svg xmlns="http://www.w3.org/2000/svg" width="12" height="16" viewBox="0 0 12 16">
  <metadata><?xpacket begin="﻿" id="W5M0MpCehiHzreSzNTczkc9d"?>
<x:xmpmeta xmlns:x="adobe:ns:meta/" x:xmptk="Adobe XMP Core 5.6-c138 79.159824, 2016/09/14-01:09:01        ">
   <rdf:RDF xmlns:rdf="http://www.w3.org/1999/02/22-rdf-syntax-ns#">
      <rdf:Description rdf:about=""/>
   </rdf:RDF>
</x:xmpmeta>
                                                                                                    
                                                                                                    
                                                                                                    
                                                                                                    
                                                                                                    
                                                                                                    
                                                                                                    
                                                                                                    
                                                                                                    
                                                                                                    
                                                                                                    
                                                                                                    
                                                                                                    
                                                                                                    
                                                                                                    
                                                                                                    
                                                                                                    
                                                                                                    
                                                                                                    
                                                                                                    
                           
<?xpacket end="w"?></metadata>
<defs>
    <style>
      .cls-1 {
        fill-rule: evenodd;
      }
    </style>
  </defs>
  <path id="door_2" class="cls-1" d="M460,640h-8a2.006,2.006,0,0,0-2,2v9a1.93,1.93,0,0,0,.061.465c0.011,0.048.028,0.093,0.043,0.139a2.036,2.036,0,0,0,.12.294c0.025,0.049.05,0.1,0.079,0.146a2.138,2.138,0,0,0,.2.264c0.029,0.033.052,0.069,0.083,0.1a2,2,0,0,0,.346.274c0.015,0.01.026,0.024,0.041,0.033l5,3A2,2,0,0,0,459,654v-8a2,2,0,0,0-.971-1.715L454.221,642H460v11a2.006,2.006,0,0,0,2-2v-9A2.006,2.006,0,0,0,460,640Zm-3,14-5-3v-8l5,3v8Z" transform="translate(-450 -640)"/>
</svg>
