<svg xmlns="http://www.w3.org/2000/svg" width="16" height="16" viewBox="0 0 16 16">
  <metadata><?xpacket begin="﻿" id="W5M0MpCehiHzreSzNTczkc9d"?>
<x:xmpmeta xmlns:x="adobe:ns:meta/" x:xmptk="Adobe XMP Core 5.6-c138 79.159824, 2016/09/14-01:09:01        ">
   <rdf:RDF xmlns:rdf="http://www.w3.org/1999/02/22-rdf-syntax-ns#">
      <rdf:Description rdf:about=""/>
   </rdf:RDF>
</x:xmpmeta>
                                                                                                    
                                                                                                    
                                                                                                    
                                                                                                    
                                                                                                    
                                                                                                    
                                                                                                    
                                                                                                    
                                                                                                    
                                                                                                    
                                                                                                    
                                                                                                    
                                                                                                    
                                                                                                    
                                                                                                    
                                                                                                    
                                                                                                    
                                                                                                    
                                                                                                    
                                                                                                    
                           
<?xpacket end="w"?></metadata>
<defs>
    <style>
      .cls-1 {
        fill-rule: evenodd;
      }
    </style>
  </defs>
  <path id="down_sq" class="cls-1" d="M78,64H66a2,2,0,0,0-2,2V78a2,2,0,0,0,2,2H78a2,2,0,0,0,2-2V66A2,2,0,0,0,78,64Zm0,14H66V66H78V78Zm-6.707-2.293c0.009,0.009.021,0.012,0.03,0.02a0.981,0.981,0,0,0,.294.2h0a1,1,0,0,0,1.087-.217l2-2a1,1,0,0,0-1.414-1.414L73,72.586V69a1,1,0,0,0-2,0v3.586l-0.293-.293a1,1,0,0,0-1.414,1.414Z" transform="translate(-64 -64)"/>
</svg>
