<svg xmlns="http://www.w3.org/2000/svg" width="16" height="16" viewBox="0 0 16 16">
  <metadata><?xpacket begin="﻿" id="W5M0MpCehiHzreSzNTczkc9d"?>
<x:xmpmeta xmlns:x="adobe:ns:meta/" x:xmptk="Adobe XMP Core 5.6-c138 79.159824, 2016/09/14-01:09:01        ">
   <rdf:RDF xmlns:rdf="http://www.w3.org/1999/02/22-rdf-syntax-ns#">
      <rdf:Description rdf:about=""/>
   </rdf:RDF>
</x:xmpmeta>
                                                                                                    
                                                                                                    
                                                                                                    
                                                                                                    
                                                                                                    
                                                                                                    
                                                                                                    
                                                                                                    
                                                                                                    
                                                                                                    
                                                                                                    
                                                                                                    
                                                                                                    
                                                                                                    
                                                                                                    
                                                                                                    
                                                                                                    
                                                                                                    
                                                                                                    
                                                                                                    
                           
<?xpacket end="w"?></metadata>
<defs>
    <style>
      .cls-1 {
        fill-rule: evenodd;
      }
    </style>
  </defs>
  <path id="download_1" class="cls-1" d="M623,716a1,1,0,0,0-1,1v1H610v-1a1,1,0,0,0-2,0v2a1,1,0,0,0,1,1h14a1,1,0,0,0,1-1v-2A1,1,0,0,0,623,716Zm-7.707-.293a1,1,0,0,0,1.414,0l3-3a1,1,0,0,0-1.414-1.414L617,712.586V705a1,1,0,0,0-2,0v7.586l-1.293-1.293a1,1,0,0,0-1.414,1.414Z" transform="translate(-608 -704)"/>
</svg>
