<svg xmlns="http://www.w3.org/2000/svg" width="15.812" height="15.906" viewBox="0 0 15.812 15.906">
  <metadata><?xpacket begin="﻿" id="W5M0MpCehiHzreSzNTczkc9d"?>
<x:xmpmeta xmlns:x="adobe:ns:meta/" x:xmptk="Adobe XMP Core 5.6-c138 79.159824, 2016/09/14-01:09:01        ">
   <rdf:RDF xmlns:rdf="http://www.w3.org/1999/02/22-rdf-syntax-ns#">
      <rdf:Description rdf:about=""/>
   </rdf:RDF>
</x:xmpmeta>
                                                                                                    
                                                                                                    
                                                                                                    
                                                                                                    
                                                                                                    
                                                                                                    
                                                                                                    
                                                                                                    
                                                                                                    
                                                                                                    
                                                                                                    
                                                                                                    
                                                                                                    
                                                                                                    
                                                                                                    
                                                                                                    
                                                                                                    
                                                                                                    
                                                                                                    
                                                                                                    
                           
<?xpacket end="w"?></metadata>
<defs>
    <style>
      .cls-1 {
        fill-rule: evenodd;
      }
    </style>
  </defs>
  <path id="electro_2_no" class="cls-1" d="M617.933,98.073l-1.058,2.675,2.285,2.3h0.752l-0.317.437,1.425,1.432,0.465-.656a2,2,0,0,0-1.563-3.2h-1.049l0.9-2.247a1.987,1.987,0,0,0-1.84-2.725h-4.946a1.938,1.938,0,0,0-.643.109l1.87,1.88h3.719Zm5.646,12.226-3.729-3.749,0,0-1.414-1.423,0,0-2.071-2.082h0.006l-0.3-.3v0l-3.284-3.3V99.445l-1.741-1.751a0.009,0.009,0,0,1,0,0l-1.318-1.325a0.985,0.985,0,0,0-1.4,0,1,1,0,0,0,0,1.406l2.363,2.375v0l-0.168,1.224-0.178,1.233-0.307,2.138a2.005,2.005,0,0,0,.465,1.582,1.968,1.968,0,0,0,1.494.686h1.543l-0.514,2.6a1.978,1.978,0,0,0,3.551,1.542l0.94-1.333,0.593-.816,0.574-.815,0,0,3.492,3.512a0.986,0.986,0,0,0,1.4,0A1,1,0,0,0,623.579,110.3ZM612,105.035l0.1-.657,0.168-1.243,0.178-1.213v0l3.1,3.118H612Zm5.273,1.74-0.584.806-0.584.825-1.137,1.6,0.455-2.288,0.237-1.173,0.227-1.164v0l1.387,1.394Z" transform="translate(-608.063 -96.094)"/>
</svg>
