<svg xmlns="http://www.w3.org/2000/svg" width="11.937" height="16" viewBox="0 0 11.937 16">
  <metadata><?xpacket begin="﻿" id="W5M0MpCehiHzreSzNTczkc9d"?>
<x:xmpmeta xmlns:x="adobe:ns:meta/" x:xmptk="Adobe XMP Core 5.6-c138 79.159824, 2016/09/14-01:09:01        ">
   <rdf:RDF xmlns:rdf="http://www.w3.org/1999/02/22-rdf-syntax-ns#">
      <rdf:Description rdf:about=""/>
   </rdf:RDF>
</x:xmpmeta>
                                                                                                    
                                                                                                    
                                                                                                    
                                                                                                    
                                                                                                    
                                                                                                    
                                                                                                    
                                                                                                    
                                                                                                    
                                                                                                    
                                                                                                    
                                                                                                    
                                                                                                    
                                                                                                    
                                                                                                    
                                                                                                    
                                                                                                    
                                                                                                    
                                                                                                    
                                                                                                    
                           
<?xpacket end="w"?></metadata>
<defs>
    <style>
      .cls-1 {
        fill-rule: evenodd;
      }
    </style>
  </defs>
  <path id="electro_1" class="cls-1" d="M552.026,98v5H556l-3.974,7v-5h-3.973l3.973-7M556,103h0m-3.979-7a1.985,1.985,0,0,0-1.725,1.008l-3.973,7a2.011,2.011,0,0,0,.006,2,1.986,1.986,0,0,0,1.719,1h1.986v3a1.984,1.984,0,0,0,3.712.992l3.933-6.927A2,2,0,0,0,556.005,101h-1.992V98a2,2,0,0,0-1.477-1.933,1.972,1.972,0,0,0-.51-0.067h0Z" transform="translate(-546.063 -96)"/>
</svg>
