<svg xmlns="http://www.w3.org/2000/svg" width="15.875" height="14" viewBox="0 0 15.875 14">
  <metadata><?xpacket begin="﻿" id="W5M0MpCehiHzreSzNTczkc9d"?>
<x:xmpmeta xmlns:x="adobe:ns:meta/" x:xmptk="Adobe XMP Core 5.6-c138 79.159824, 2016/09/14-01:09:01        ">
   <rdf:RDF xmlns:rdf="http://www.w3.org/1999/02/22-rdf-syntax-ns#">
      <rdf:Description rdf:about=""/>
   </rdf:RDF>
</x:xmpmeta>
                                                                                                    
                                                                                                    
                                                                                                    
                                                                                                    
                                                                                                    
                                                                                                    
                                                                                                    
                                                                                                    
                                                                                                    
                                                                                                    
                                                                                                    
                                                                                                    
                                                                                                    
                                                                                                    
                                                                                                    
                                                                                                    
                                                                                                    
                                                                                                    
                                                                                                    
                                                                                                    
                           
<?xpacket end="w"?></metadata>
<defs>
    <style>
      .cls-1 {
        fill-rule: evenodd;
      }
    </style>
  </defs>
  <path id="exclamation_tr" class="cls-1" d="M615.957,195l5.937,10H610.02l5.937-10m0-2a1.975,1.975,0,0,0-1.7.971l-5.937,10a2.015,2.015,0,0,0-.025,2.014A1.975,1.975,0,0,0,610.02,207h11.874a1.975,1.975,0,0,0,1.722-1.015,2.018,2.018,0,0,0-.025-2.014l-5.937-10a1.976,1.976,0,0,0-1.7-.971h0Zm0,9h0a1,1,0,0,1,.989,1h0a1,1,0,0,1-.989,1h0a1,1,0,0,1-.99-1h0A1,1,0,0,1,615.957,202Zm0-4h0a1,1,0,0,1,.989,1v1a1,1,0,0,1-.989,1h0a1,1,0,0,1-.99-1v-1A1,1,0,0,1,615.957,198Z" transform="translate(-608.031 -193)"/>
</svg>
