<svg xmlns="http://www.w3.org/2000/svg" width="15.969" height="12" viewBox="0 0 15.969 12">
  <metadata><?xpacket begin="﻿" id="W5M0MpCehiHzreSzNTczkc9d"?>
<x:xmpmeta xmlns:x="adobe:ns:meta/" x:xmptk="Adobe XMP Core 5.6-c138 79.159824, 2016/09/14-01:09:01        ">
   <rdf:RDF xmlns:rdf="http://www.w3.org/1999/02/22-rdf-syntax-ns#">
      <rdf:Description rdf:about=""/>
   </rdf:RDF>
</x:xmpmeta>
                                                                                                    
                                                                                                    
                                                                                                    
                                                                                                    
                                                                                                    
                                                                                                    
                                                                                                    
                                                                                                    
                                                                                                    
                                                                                                    
                                                                                                    
                                                                                                    
                                                                                                    
                                                                                                    
                                                                                                    
                                                                                                    
                                                                                                    
                                                                                                    
                                                                                                    
                                                                                                    
                           
<?xpacket end="w"?></metadata>
<defs>
    <style>
      .cls-1 {
        fill-rule: evenodd;
      }
    </style>
  </defs>
  <path id="eye_2" class="cls-1" d="M712,197a3,3,0,1,0,2.992,3A3,3,0,0,0,712,197Zm7.907,2.628C719.814,199.4,717.6,194,712,194s-7.816,5.4-7.908,5.628a1,1,0,0,0,0,.743C704.182,200.6,706.4,206,712,206s7.816-5.4,7.907-5.629A1,1,0,0,0,719.905,199.628ZM712,204c-3.538,0-5.342-2.931-5.882-4,0.54-1.054,2.364-4,5.882-4,3.539,0,5.343,2.933,5.882,4C717.34,201.052,715.516,204,712,204Z" transform="translate(-704.031 -194)"/>
</svg>
