<svg xmlns="http://www.w3.org/2000/svg" width="15.969" height="12" viewBox="0 0 15.969 12">
  <metadata><?xpacket begin="﻿" id="W5M0MpCehiHzreSzNTczkc9d"?>
<x:xmpmeta xmlns:x="adobe:ns:meta/" x:xmptk="Adobe XMP Core 5.6-c138 79.159824, 2016/09/14-01:09:01        ">
   <rdf:RDF xmlns:rdf="http://www.w3.org/1999/02/22-rdf-syntax-ns#">
      <rdf:Description rdf:about=""/>
   </rdf:RDF>
</x:xmpmeta>
                                                                                                    
                                                                                                    
                                                                                                    
                                                                                                    
                                                                                                    
                                                                                                    
                                                                                                    
                                                                                                    
                                                                                                    
                                                                                                    
                                                                                                    
                                                                                                    
                                                                                                    
                                                                                                    
                                                                                                    
                                                                                                    
                                                                                                    
                                                                                                    
                                                                                                    
                                                                                                    
                           
<?xpacket end="w"?></metadata>
<defs>
    <style>
      .cls-1 {
        fill-rule: evenodd;
      }
    </style>
  </defs>
  <path id="eye_1" class="cls-1" d="M680,197a3,3,0,1,0,2.993,3A3.005,3.005,0,0,0,680,197Zm0,4a1,1,0,1,1,1-1A1,1,0,0,1,680,201Zm7.908-1.372C687.814,199.4,685.6,194,680,194s-7.815,5.4-7.907,5.628a1,1,0,0,0,0,.743C672.182,200.6,674.4,206,680,206s7.817-5.4,7.908-5.629A1,1,0,0,0,687.905,199.628ZM680,204c-3.537,0-5.341-2.931-5.881-4,0.54-1.054,2.364-4,5.881-4,3.54,0,5.344,2.933,5.882,4C685.34,201.052,683.516,204,680,204Z" transform="translate(-672.031 -194)"/>
</svg>
