<svg xmlns="http://www.w3.org/2000/svg" width="15.813" height="15.906" viewBox="0 0 15.813 15.906">
  <metadata><?xpacket begin="﻿" id="W5M0MpCehiHzreSzNTczkc9d"?>
<x:xmpmeta xmlns:x="adobe:ns:meta/" x:xmptk="Adobe XMP Core 5.6-c138 79.159824, 2016/09/14-01:09:01        ">
   <rdf:RDF xmlns:rdf="http://www.w3.org/1999/02/22-rdf-syntax-ns#">
      <rdf:Description rdf:about=""/>
   </rdf:RDF>
</x:xmpmeta>
                                                                                                    
                                                                                                    
                                                                                                    
                                                                                                    
                                                                                                    
                                                                                                    
                                                                                                    
                                                                                                    
                                                                                                    
                                                                                                    
                                                                                                    
                                                                                                    
                                                                                                    
                                                                                                    
                                                                                                    
                                                                                                    
                                                                                                    
                                                                                                    
                                                                                                    
                                                                                                    
                           
<?xpacket end="w"?></metadata>
<defs>
    <style>
      .cls-1 {
        fill-rule: evenodd;
      }
    </style>
  </defs>
  <path id="eye_2_no" class="cls-1" d="M742.044,197.727l4.174,4.2a2.952,2.952,0,0,1-1.77,1.044,3.024,3.024,0,0,1-.525.05,2.737,2.737,0,0,1-.989-0.179,2.96,2.96,0,0,1-1.8-1.81,2.769,2.769,0,0,1-.178-1,3.037,3.037,0,0,1,.049-0.527A2.974,2.974,0,0,1,742.044,197.727Zm9.724,1.939c-0.089-.229-2.3-5.6-7.845-5.6a7.267,7.267,0,0,0-1.583.16l1.831,1.84c3.353,0.129,5.065,2.934,5.589,3.968a7.947,7.947,0,0,1-.633,1.014l1.424,1.433a10,10,0,0,0,1.217-2.079A1.048,1.048,0,0,0,751.768,199.666Zm-4.521,3.292a5.206,5.206,0,0,1-1.187.637,3.805,3.805,0,0,1-.742.248c-0.1.03-.208,0.05-0.316,0.08a5.326,5.326,0,0,1-.911.079,0.888,0.888,0,0,1-.168.01,2.041,2.041,0,0,1-.247-0.01,5.237,5.237,0,0,1-1.148-.159,7.113,7.113,0,0,1-4.441-3.809c0.059-.119.138-0.259,0.227-0.428,0.109-.179.238-0.378,0.4-0.6l0.178-.239a6.919,6.919,0,0,1,.445-0.547c0.059-.07.119-0.139,0.188-0.209a6.062,6.062,0,0,1,.514-0.477,5.707,5.707,0,0,1,1.079-.746l-1.454-1.462a8.313,8.313,0,0,0-1.039.785c-0.178.159-.346,0.329-0.5,0.488-0.069.069-.128,0.139-0.188,0.208-0.168.18-.316,0.359-0.455,0.538-0.059.079-.128,0.159-0.178,0.238a6.221,6.221,0,0,0-.4.587,9.853,9.853,0,0,0-.812,1.492,1.048,1.048,0,0,0,0,.736c0.089,0.229,2.3,5.6,7.845,5.6a5.474,5.474,0,0,0,.713-0.04,5.9,5.9,0,0,0,.87-0.12,3.021,3.021,0,0,0,.336-0.069h0.01c0.258-.07.515-0.149,0.752-0.239a2.438,2.438,0,0,0,.287-0.109,6.945,6.945,0,0,0,.673-0.319,7.879,7.879,0,0,0,1.118-.706Zm3.6,5.033a0.98,0.98,0,0,1-.7-0.292L736.3,193.775a1,1,0,0,1,0-1.406,0.984,0.984,0,0,1,1.4,0l13.85,13.924a1,1,0,0,1,0,1.406A0.984,0.984,0,0,1,750.848,207.991Z" transform="translate(-736.031 -192.094)"/>
</svg>
