<svg xmlns="http://www.w3.org/2000/svg" width="16" height="16" viewBox="0 0 16 16">
  <metadata><?xpacket begin="﻿" id="W5M0MpCehiHzreSzNTczkc9d"?>
<x:xmpmeta xmlns:x="adobe:ns:meta/" x:xmptk="Adobe XMP Core 5.6-c138 79.159824, 2016/09/14-01:09:01        ">
   <rdf:RDF xmlns:rdf="http://www.w3.org/1999/02/22-rdf-syntax-ns#">
      <rdf:Description rdf:about=""/>
   </rdf:RDF>
</x:xmpmeta>
                                                                                                    
                                                                                                    
                                                                                                    
                                                                                                    
                                                                                                    
                                                                                                    
                                                                                                    
                                                                                                    
                                                                                                    
                                                                                                    
                                                                                                    
                                                                                                    
                                                                                                    
                                                                                                    
                                                                                                    
                                                                                                    
                                                                                                    
                                                                                                    
                                                                                                    
                                                                                                    
                           
<?xpacket end="w"?></metadata>
<defs>
    <style>
      .cls-1 {
        fill-rule: evenodd;
      }
    </style>
  </defs>
  <path id="fan" class="cls-1" d="M110,128H98a2.006,2.006,0,0,0-2,2v12a2.006,2.006,0,0,0,2,2h12a2.006,2.006,0,0,0,2-2V130A2.006,2.006,0,0,0,110,128Zm0,14H98V130h12v12Zm-4.16-8.47-0.84.67v-1.25a1.947,1.947,0,1,0-3.47,1.21L102.2,135h-1.25a1.947,1.947,0,1,0,1.21,3.47l0.84-.67v1.25a1.947,1.947,0,1,0,3.47-1.21L105.8,137h1.25A1.947,1.947,0,1,0,105.84,133.53ZM104,137a1,1,0,1,1,1-1A1,1,0,0,1,104,137Z" transform="translate(-96 -128)"/>
</svg>
