<svg xmlns="http://www.w3.org/2000/svg" width="15.843" height="16" viewBox="0 0 15.843 16">
  <metadata><?xpacket begin="﻿" id="W5M0MpCehiHzreSzNTczkc9d"?>
<x:xmpmeta xmlns:x="adobe:ns:meta/" x:xmptk="Adobe XMP Core 5.6-c138 79.159824, 2016/09/14-01:09:01        ">
   <rdf:RDF xmlns:rdf="http://www.w3.org/1999/02/22-rdf-syntax-ns#">
      <rdf:Description rdf:about=""/>
   </rdf:RDF>
</x:xmpmeta>
                                                                                                    
                                                                                                    
                                                                                                    
                                                                                                    
                                                                                                    
                                                                                                    
                                                                                                    
                                                                                                    
                                                                                                    
                                                                                                    
                                                                                                    
                                                                                                    
                                                                                                    
                                                                                                    
                                                                                                    
                                                                                                    
                                                                                                    
                                                                                                    
                                                                                                    
                                                                                                    
                           
<?xpacket end="w"?></metadata>
<defs>
    <style>
      .cls-1 {
        fill-rule: evenodd;
      }
    </style>
  </defs>
  <path id="fix_1" class="cls-1" d="M591.194,75.586l-6.345-6.414V67a2.012,2.012,0,0,0-.58-1.414l-0.989-1a1.968,1.968,0,0,0-1.4-.586h-2.968a1.976,1.976,0,0,0-1.8,1.177A2,2,0,0,0,575.945,67v3a2.012,2.012,0,0,0,.58,1.414l0.989,1a1.968,1.968,0,0,0,1.4.586h2.148l6.346,6.414a1.963,1.963,0,0,0,2.8,0l0.989-1A2.015,2.015,0,0,0,591.194,75.586ZM588.806,78l-6.925-7h-2.968l-0.989-1V67l0.989,1,0.989,1h0.989V68L579.9,67l-0.989-1h2.968l0.989,1v3l6.925,7Z" transform="translate(-575.938 -64)"/>
</svg>
