<svg xmlns="http://www.w3.org/2000/svg" width="16" height="16" viewBox="0 0 16 16">
  <metadata><?xpacket begin="﻿" id="W5M0MpCehiHzreSzNTczkc9d"?>
<x:xmpmeta xmlns:x="adobe:ns:meta/" x:xmptk="Adobe XMP Core 5.6-c138 79.159824, 2016/09/14-01:09:01        ">
   <rdf:RDF xmlns:rdf="http://www.w3.org/1999/02/22-rdf-syntax-ns#">
      <rdf:Description rdf:about=""/>
   </rdf:RDF>
</x:xmpmeta>
                                                                                                    
                                                                                                    
                                                                                                    
                                                                                                    
                                                                                                    
                                                                                                    
                                                                                                    
                                                                                                    
                                                                                                    
                                                                                                    
                                                                                                    
                                                                                                    
                                                                                                    
                                                                                                    
                                                                                                    
                                                                                                    
                                                                                                    
                                                                                                    
                                                                                                    
                                                                                                    
                           
<?xpacket end="w"?></metadata>
<defs>
    <style>
      .cls-1 {
        fill-rule: evenodd;
      }
    </style>
  </defs>
  <path id="fix_2" class="cls-1" d="M655.414,72.586l-1-1A2,2,0,0,0,653,71h-2.172L649,69.172V67a2,2,0,0,0-.586-1.414l-1-1A2,2,0,0,0,646,64h-3a2,2,0,0,0-1.823,1.177A2,2,0,0,0,640,67v3a2,2,0,0,0,.586,1.414l1,1A2,2,0,0,0,643,73h2.172L647,74.828V77a2,2,0,0,0,.586,1.414l1,1A2,2,0,0,0,650,80h3a2,2,0,0,0,1.823-1.177A2,2,0,0,0,656,77V74A2,2,0,0,0,655.414,72.586ZM654,77l-2-2h-1v1l2,2h-3l-1-1V74l-3-3h-3l-1-1V67l2,2h1V68l-2-2h3l1,1v3l3,3h3l1,1v3Z" transform="translate(-640 -64)"/>
</svg>
