<svg xmlns="http://www.w3.org/2000/svg" width="16" height="16" viewBox="0 0 16 16">
  <metadata><?xpacket begin="﻿" id="W5M0MpCehiHzreSzNTczkc9d"?>
<x:xmpmeta xmlns:x="adobe:ns:meta/" x:xmptk="Adobe XMP Core 5.6-c138 79.159824, 2016/09/14-01:09:01        ">
   <rdf:RDF xmlns:rdf="http://www.w3.org/1999/02/22-rdf-syntax-ns#">
      <rdf:Description rdf:about=""/>
   </rdf:RDF>
</x:xmpmeta>
                                                                                                    
                                                                                                    
                                                                                                    
                                                                                                    
                                                                                                    
                                                                                                    
                                                                                                    
                                                                                                    
                                                                                                    
                                                                                                    
                                                                                                    
                                                                                                    
                                                                                                    
                                                                                                    
                                                                                                    
                                                                                                    
                                                                                                    
                                                                                                    
                                                                                                    
                                                                                                    
                           
<?xpacket end="w"?></metadata>
<defs>
    <style>
      .cls-1 {
        fill-rule: evenodd;
      }
    </style>
  </defs>
  <path id="flag_1" class="cls-1" d="M398,546h-3a2,2,0,0,0-2-2h-4a1.944,1.944,0,0,1-2,0h-1a2,2,0,0,0-2,2v12a2,2,0,0,0,2,2h1a2,2,0,0,0,2-2v-4h2a2,2,0,0,0,2,2h5a2,2,0,0,0,2-2v-6A2,2,0,0,0,398,546Zm-11,12h-1V546h1v12Zm11-7v3h-5v-2h-4v-6h4v2h5v3Z" transform="translate(-384 -544)"/>
</svg>
