<svg xmlns="http://www.w3.org/2000/svg" width="15" height="16" viewBox="0 0 15 16">
  <metadata><?xpacket begin="﻿" id="W5M0MpCehiHzreSzNTczkc9d"?>
<x:xmpmeta xmlns:x="adobe:ns:meta/" x:xmptk="Adobe XMP Core 5.6-c138 79.159824, 2016/09/14-01:09:01        ">
   <rdf:RDF xmlns:rdf="http://www.w3.org/1999/02/22-rdf-syntax-ns#">
      <rdf:Description rdf:about=""/>
   </rdf:RDF>
</x:xmpmeta>
                                                                                                    
                                                                                                    
                                                                                                    
                                                                                                    
                                                                                                    
                                                                                                    
                                                                                                    
                                                                                                    
                                                                                                    
                                                                                                    
                                                                                                    
                                                                                                    
                                                                                                    
                                                                                                    
                                                                                                    
                                                                                                    
                                                                                                    
                                                                                                    
                                                                                                    
                                                                                                    
                           
<?xpacket end="w"?></metadata>
<defs>
    <style>
      .cls-1 {
        fill-rule: evenodd;
      }
    </style>
  </defs>
  <path id="flag_2" class="cls-1" d="M429.973,551l1.488-1.586a2.1,2.1,0,0,0,.407-2.18A1.88,1.88,0,0,0,430.134,546h-2.816a1.941,1.941,0,0,0-1.877-2h-3.754a1.728,1.728,0,0,1-1.877,0h-0.939a1.941,1.941,0,0,0-1.877,2v12a1.942,1.942,0,0,0,1.877,2h0.939a1.942,1.942,0,0,0,1.877-2v-4h1.877a1.942,1.942,0,0,0,1.877,2h4.693a1.88,1.88,0,0,0,1.734-1.235,2.1,2.1,0,0,0-.407-2.179Zm-10.163,7h-0.939V546h0.939v12Zm5.631-4v-2h-3.754v-6h3.754v2h4.693l-2.816,3,2.816,3h-4.693Z" transform="translate(-417 -544)"/>
</svg>
