<svg xmlns="http://www.w3.org/2000/svg" width="14" height="16" viewBox="0 0 14 16">
  <metadata><?xpacket begin="﻿" id="W5M0MpCehiHzreSzNTczkc9d"?>
<x:xmpmeta xmlns:x="adobe:ns:meta/" x:xmptk="Adobe XMP Core 5.6-c138 79.159824, 2016/09/14-01:09:01        ">
   <rdf:RDF xmlns:rdf="http://www.w3.org/1999/02/22-rdf-syntax-ns#">
      <rdf:Description rdf:about=""/>
   </rdf:RDF>
</x:xmpmeta>
                                                                                                    
                                                                                                    
                                                                                                    
                                                                                                    
                                                                                                    
                                                                                                    
                                                                                                    
                                                                                                    
                                                                                                    
                                                                                                    
                                                                                                    
                                                                                                    
                                                                                                    
                                                                                                    
                                                                                                    
                                                                                                    
                                                                                                    
                                                                                                    
                                                                                                    
                                                                                                    
                           
<?xpacket end="w"?></metadata>
<defs>
    <style>
      .cls-1 {
        fill-rule: evenodd;
      }
    </style>
  </defs>
  <path id="flat_1_exp" class="cls-1" d="M717,384H707a2.006,2.006,0,0,0-2,2v12a2.022,2.022,0,0,0,.88,1.66A2.046,2.046,0,0,0,707,400a2.111,2.111,0,0,0,.74-0.14l4.26-1.71,1.631,0.652a1,1,0,0,0,.742-1.853L712,396l-5,2V386h10v5a1,1,0,0,0,1,1h0a1,1,0,0,0,1-1v-5A2.006,2.006,0,0,0,717,384Zm1,14a1,1,0,1,0,1,1A1,1,0,0,0,718,398Zm0-4a1,1,0,0,0-1,1v1a1,1,0,0,0,2,0v-1A1,1,0,0,0,718,394Z" transform="translate(-705 -384)"/>
</svg>
