<svg xmlns="http://www.w3.org/2000/svg" width="14" height="16" viewBox="0 0 14 16">
  <metadata><?xpacket begin="﻿" id="W5M0MpCehiHzreSzNTczkc9d"?>
<x:xmpmeta xmlns:x="adobe:ns:meta/" x:xmptk="Adobe XMP Core 5.6-c138 79.159824, 2016/09/14-01:09:01        ">
   <rdf:RDF xmlns:rdf="http://www.w3.org/1999/02/22-rdf-syntax-ns#">
      <rdf:Description rdf:about=""/>
   </rdf:RDF>
</x:xmpmeta>
                                                                                                    
                                                                                                    
                                                                                                    
                                                                                                    
                                                                                                    
                                                                                                    
                                                                                                    
                                                                                                    
                                                                                                    
                                                                                                    
                                                                                                    
                                                                                                    
                                                                                                    
                                                                                                    
                                                                                                    
                                                                                                    
                                                                                                    
                                                                                                    
                                                                                                    
                                                                                                    
                           
<?xpacket end="w"?></metadata>
<defs>
    <style>
      .cls-1 {
        fill-rule: evenodd;
      }
    </style>
  </defs>
  <path id="flat_2_love" class="cls-1" d="M525,386v12l-5-2-5,2V386h10m0-2H515a2,2,0,0,0-2,2v12a2,2,0,0,0,2.743,1.857l4.257-1.7,4.257,1.7A2,2,0,0,0,527,398V386a2,2,0,0,0-2-2h0Zm-2.534,7.638,0,0L520,394l-2.468-2.36v0a1.5,1.5,0,1,1,2.454-1.344c0,0.023.025,0.023,0.028,0A1.5,1.5,0,1,1,522.466,391.638Z" transform="translate(-513 -384)"/>
</svg>
