<svg xmlns="http://www.w3.org/2000/svg" width="16" height="16" viewBox="0 0 16 16">
  <metadata><?xpacket begin="﻿" id="W5M0MpCehiHzreSzNTczkc9d"?>
<x:xmpmeta xmlns:x="adobe:ns:meta/" x:xmptk="Adobe XMP Core 5.6-c138 79.159824, 2016/09/14-01:09:01        ">
   <rdf:RDF xmlns:rdf="http://www.w3.org/1999/02/22-rdf-syntax-ns#">
      <rdf:Description rdf:about=""/>
   </rdf:RDF>
</x:xmpmeta>
                                                                                                    
                                                                                                    
                                                                                                    
                                                                                                    
                                                                                                    
                                                                                                    
                                                                                                    
                                                                                                    
                                                                                                    
                                                                                                    
                                                                                                    
                                                                                                    
                                                                                                    
                                                                                                    
                                                                                                    
                                                                                                    
                                                                                                    
                                                                                                    
                                                                                                    
                                                                                                    
                           
<?xpacket end="w"?></metadata>
<defs>
    <style>
      .cls-1 {
        fill-rule: evenodd;
      }
    </style>
  </defs>
  <path id="flat_1_plus" class="cls-1" d="M591,396h-1v-1a1,1,0,0,0-2,0v1h-1a1,1,0,0,0,0,2h1v1a1,1,0,0,0,2,0v-1h1A1,1,0,0,0,591,396Zm-8.368.147L578,398V386h10v5a1,1,0,0,0,2,0v-5a2.006,2.006,0,0,0-2-2H578a2.006,2.006,0,0,0-2,2v12a2.022,2.022,0,0,0,.88,1.66A2.046,2.046,0,0,0,578,400a2.111,2.111,0,0,0,.74-0.14c0.341-.137,3.295-1.32,4.635-1.853A0.991,0.991,0,0,0,584,397.08v0A1,1,0,0,0,582.632,396.147Z" transform="translate(-576 -384)"/>
</svg>
