<svg xmlns="http://www.w3.org/2000/svg" width="14" height="16" viewBox="0 0 14 16">
  <metadata><?xpacket begin="﻿" id="W5M0MpCehiHzreSzNTczkc9d"?>
<x:xmpmeta xmlns:x="adobe:ns:meta/" x:xmptk="Adobe XMP Core 5.6-c138 79.159824, 2016/09/14-01:09:01        ">
   <rdf:RDF xmlns:rdf="http://www.w3.org/1999/02/22-rdf-syntax-ns#">
      <rdf:Description rdf:about=""/>
   </rdf:RDF>
</x:xmpmeta>
                                                                                                    
                                                                                                    
                                                                                                    
                                                                                                    
                                                                                                    
                                                                                                    
                                                                                                    
                                                                                                    
                                                                                                    
                                                                                                    
                                                                                                    
                                                                                                    
                                                                                                    
                                                                                                    
                                                                                                    
                                                                                                    
                                                                                                    
                                                                                                    
                                                                                                    
                                                                                                    
                           
<?xpacket end="w"?></metadata>
<defs>
    <style>
      .cls-1 {
        fill-rule: evenodd;
      }
    </style>
  </defs>
  <path id="flat_2_plus" class="cls-1" d="M461,384H451a2,2,0,0,0-2,2v12a2,2,0,0,0,2.743,1.857l4.257-1.7,4.257,1.7A2,2,0,0,0,463,398V386A2,2,0,0,0,461,384Zm0,14-5-2-5,2V386h10v12Zm-7-6h1v1a1,1,0,0,0,2,0v-1h1a1,1,0,0,0,0-2h-1v-1a1,1,0,0,0-2,0v1h-1A1,1,0,0,0,454,392Z" transform="translate(-449 -384)"/>
</svg>
