<svg xmlns="http://www.w3.org/2000/svg" width="16" height="16" viewBox="0 0 16 16">
  <metadata><?xpacket begin="﻿" id="W5M0MpCehiHzreSzNTczkc9d"?>
<x:xmpmeta xmlns:x="adobe:ns:meta/" x:xmptk="Adobe XMP Core 5.6-c138 79.159824, 2016/09/14-01:09:01        ">
   <rdf:RDF xmlns:rdf="http://www.w3.org/1999/02/22-rdf-syntax-ns#">
      <rdf:Description rdf:about=""/>
   </rdf:RDF>
</x:xmpmeta>
                                                                                                    
                                                                                                    
                                                                                                    
                                                                                                    
                                                                                                    
                                                                                                    
                                                                                                    
                                                                                                    
                                                                                                    
                                                                                                    
                                                                                                    
                                                                                                    
                                                                                                    
                                                                                                    
                                                                                                    
                                                                                                    
                                                                                                    
                                                                                                    
                                                                                                    
                                                                                                    
                           
<?xpacket end="w"?></metadata>
<defs>
    <style>
      .cls-1 {
        fill-rule: evenodd;
      }
    </style>
  </defs>
  <path id="flat_1_love" class="cls-1" d="M646.632,396.147L642,398V386h10v6a1,1,0,0,0,2,0v-6a2.006,2.006,0,0,0-2-2H642a2.006,2.006,0,0,0-2,2v12a2.022,2.022,0,0,0,.88,1.66A2.046,2.046,0,0,0,642,400a2.111,2.111,0,0,0,.74-0.14c0.341-.136,3.295-1.32,4.635-1.853A0.991,0.991,0,0,0,648,397.08v0A1,1,0,0,0,646.632,396.147ZM656,396.5a1.5,1.5,0,0,0-2.986-.206c0,0.023-.025.023-0.028,0a1.5,1.5,0,1,0-2.454,1.344v0L653,400l2.468-2.36,0,0A1.49,1.49,0,0,0,656,396.5Z" transform="translate(-640 -384)"/>
</svg>
