<svg xmlns="http://www.w3.org/2000/svg" width="15.656" height="16" viewBox="0 0 15.656 16">
  <metadata><?xpacket begin="﻿" id="W5M0MpCehiHzreSzNTczkc9d"?>
<x:xmpmeta xmlns:x="adobe:ns:meta/" x:xmptk="Adobe XMP Core 5.6-c138 79.159824, 2016/09/14-01:09:01        ">
   <rdf:RDF xmlns:rdf="http://www.w3.org/1999/02/22-rdf-syntax-ns#">
      <rdf:Description rdf:about=""/>
   </rdf:RDF>
</x:xmpmeta>
                                                                                                    
                                                                                                    
                                                                                                    
                                                                                                    
                                                                                                    
                                                                                                    
                                                                                                    
                                                                                                    
                                                                                                    
                                                                                                    
                                                                                                    
                                                                                                    
                                                                                                    
                                                                                                    
                                                                                                    
                                                                                                    
                                                                                                    
                                                                                                    
                                                                                                    
                                                                                                    
                           
<?xpacket end="w"?></metadata>
<defs>
    <style>
      .cls-1 {
        fill-rule: evenodd;
      }
    </style>
  </defs>
  <path id="flower" class="cls-1" d="M199.823,290a3.45,3.45,0,0,1,.979,2.41v1.18l0.812-.83a3.308,3.308,0,0,1,2.359-1,3.45,3.45,0,0,1-.979,2.41l-0.812.83h1.155a3.308,3.308,0,0,1,2.359,1,3.308,3.308,0,0,1-2.359,1h-1.155l0.812,0.83a3.45,3.45,0,0,1,.979,2.41,3.308,3.308,0,0,1-2.359-1l-0.812-.83v1.18a3.45,3.45,0,0,1-.979,2.41,3.455,3.455,0,0,1-.979-2.41v-1.18l-0.812.83a3.306,3.306,0,0,1-2.359,1,3.455,3.455,0,0,1,.979-2.41l0.812-.83h-1.155a3.3,3.3,0,0,1-2.358-1,3.3,3.3,0,0,1,2.358-1h1.155l-0.812-.83a3.455,3.455,0,0,1-.979-2.41,3.306,3.306,0,0,1,2.359,1l0.812,0.83v-1.18a3.455,3.455,0,0,1,.979-2.41m4.15,1.76h0M199.823,288a1.928,1.928,0,0,0-1.384.586,5.394,5.394,0,0,0-1.024,1.479,5.164,5.164,0,0,0-1.742-.305,1.978,1.978,0,0,0-1.957,2,5.494,5.494,0,0,0,.3,1.779,5.286,5.286,0,0,0-1.448,1.047,2.031,2.031,0,0,0,0,2.828,5.307,5.307,0,0,0,1.448,1.047,5.494,5.494,0,0,0-.3,1.779,1.978,1.978,0,0,0,1.957,2,5.189,5.189,0,0,0,1.742-.305,5.394,5.394,0,0,0,1.024,1.479,1.927,1.927,0,0,0,2.768,0,5.4,5.4,0,0,0,1.025-1.479,5.179,5.179,0,0,0,1.741.305,1.979,1.979,0,0,0,1.958-2,5.5,5.5,0,0,0-.3-1.779,5.292,5.292,0,0,0,1.448-1.047,2.031,2.031,0,0,0,0-2.828,5.271,5.271,0,0,0-1.448-1.047,5.469,5.469,0,0,0,.3-1.651c0-.042,0-0.085,0-0.128a1.977,1.977,0,0,0-1.955-2h0a5.154,5.154,0,0,0-1.741.305,5.4,5.4,0,0,0-1.025-1.479,1.928,1.928,0,0,0-1.384-.586h0Zm0.979,8a0.979,0.979,0,1,1-.979-1A0.99,0.99,0,0,1,200.8,296Z" transform="translate(-192 -288)"/>
</svg>
