<svg xmlns="http://www.w3.org/2000/svg" width="16" height="14" viewBox="0 0 16 14">
  <metadata><?xpacket begin="﻿" id="W5M0MpCehiHzreSzNTczkc9d"?>
<x:xmpmeta xmlns:x="adobe:ns:meta/" x:xmptk="Adobe XMP Core 5.6-c138 79.159824, 2016/09/14-01:09:01        ">
   <rdf:RDF xmlns:rdf="http://www.w3.org/1999/02/22-rdf-syntax-ns#">
      <rdf:Description rdf:about=""/>
   </rdf:RDF>
</x:xmpmeta>
                                                                                                    
                                                                                                    
                                                                                                    
                                                                                                    
                                                                                                    
                                                                                                    
                                                                                                    
                                                                                                    
                                                                                                    
                                                                                                    
                                                                                                    
                                                                                                    
                                                                                                    
                                                                                                    
                                                                                                    
                                                                                                    
                                                                                                    
                                                                                                    
                                                                                                    
                                                                                                    
                           
<?xpacket end="w"?></metadata>
<defs>
    <style>
      .cls-1 {
        fill-rule: evenodd;
      }
    </style>
  </defs>
  <path id="folders" class="cls-1" d="M302,451h-2.764l-0.447-.895A2,2,0,0,0,297,449h-4a2,2,0,0,0-2,2v7a2,2,0,0,0,2,2h9a2,2,0,0,0,2-2v-5A2,2,0,0,0,302,451Zm0,7h-9v-7h4l1,2h4v5Zm-3,3h-9v-7a1,1,0,0,0-2,0v7a1.871,1.871,0,0,0,.09.59,2.024,2.024,0,0,0,1.32,1.32,1.871,1.871,0,0,0,.59.09h9A1,1,0,0,0,299,461Z" transform="translate(-288 -449)"/>
</svg>
