<svg xmlns="http://www.w3.org/2000/svg" width="15.907" height="14" viewBox="0 0 15.907 14">
  <metadata><?xpacket begin="﻿" id="W5M0MpCehiHzreSzNTczkc9d"?>
<x:xmpmeta xmlns:x="adobe:ns:meta/" x:xmptk="Adobe XMP Core 5.6-c138 79.159824, 2016/09/14-01:09:01        ">
   <rdf:RDF xmlns:rdf="http://www.w3.org/1999/02/22-rdf-syntax-ns#">
      <rdf:Description rdf:about=""/>
   </rdf:RDF>
</x:xmpmeta>
                                                                                                    
                                                                                                    
                                                                                                    
                                                                                                    
                                                                                                    
                                                                                                    
                                                                                                    
                                                                                                    
                                                                                                    
                                                                                                    
                                                                                                    
                                                                                                    
                                                                                                    
                                                                                                    
                                                                                                    
                                                                                                    
                                                                                                    
                                                                                                    
                                                                                                    
                                                                                                    
                           
<?xpacket end="w"?></metadata>
<defs>
    <style>
      .cls-1 {
        fill-rule: evenodd;
      }
    </style>
  </defs>
  <path id="folder_4" class="cls-1" d="M431.435,451.68a1.994,1.994,0,0,0-1.491-.68h-4.731l-0.447-.89a1.987,1.987,0,0,0-1.779-1.11h-4.97a1.968,1.968,0,0,0-1.471.66,1.992,1.992,0,0,0-.507,1.54l0.308,3.07,0.149,1.58,0.537,5.35a1.99,1.99,0,0,0,1.978,1.8h9.939a1.982,1.982,0,0,0,1.968-1.75l0.994-8A1.964,1.964,0,0,0,431.435,451.68Zm-8.448-.68,0.993,2h5.964l-0.119,1h-11.51l-0.3-3h4.97Zm5.963,10h-9.939l-0.5-5h11.062Z" transform="translate(-416.031 -449)"/>
</svg>
