<svg xmlns="http://www.w3.org/2000/svg" width="16" height="14" viewBox="0 0 16 14">
  <metadata><?xpacket begin="﻿" id="W5M0MpCehiHzreSzNTczkc9d"?>
<x:xmpmeta xmlns:x="adobe:ns:meta/" x:xmptk="Adobe XMP Core 5.6-c138 79.159824, 2016/09/14-01:09:01        ">
   <rdf:RDF xmlns:rdf="http://www.w3.org/1999/02/22-rdf-syntax-ns#">
      <rdf:Description rdf:about=""/>
   </rdf:RDF>
</x:xmpmeta>
                                                                                                    
                                                                                                    
                                                                                                    
                                                                                                    
                                                                                                    
                                                                                                    
                                                                                                    
                                                                                                    
                                                                                                    
                                                                                                    
                                                                                                    
                                                                                                    
                                                                                                    
                                                                                                    
                                                                                                    
                                                                                                    
                                                                                                    
                                                                                                    
                                                                                                    
                                                                                                    
                           
<?xpacket end="w"?></metadata>
<defs>
    <style>
      .cls-1 {
        fill-rule: evenodd;
      }
    </style>
  </defs>
  <path id="folder_5" class="cls-1" d="M462,451h-4.764l-0.447-.895A2,2,0,0,0,455,449h-5a2,2,0,0,0-2,2v10a2,2,0,0,0,2,2h12a2,2,0,0,0,2-2v-8A2,2,0,0,0,462,451Zm0,10H450V451h5l1,2h6v8Zm-10-5a1,1,0,0,0,1,1h6a1,1,0,0,0,0-2h-6A1,1,0,0,0,452,456Z" transform="translate(-448 -449)"/>
</svg>
