<svg xmlns="http://www.w3.org/2000/svg" width="16" height="16" viewBox="0 0 16 16">
  <metadata><?xpacket begin="﻿" id="W5M0MpCehiHzreSzNTczkc9d"?>
<x:xmpmeta xmlns:x="adobe:ns:meta/" x:xmptk="Adobe XMP Core 5.6-c138 79.159824, 2016/09/14-01:09:01        ">
   <rdf:RDF xmlns:rdf="http://www.w3.org/1999/02/22-rdf-syntax-ns#">
      <rdf:Description rdf:about=""/>
   </rdf:RDF>
</x:xmpmeta>
                                                                                                    
                                                                                                    
                                                                                                    
                                                                                                    
                                                                                                    
                                                                                                    
                                                                                                    
                                                                                                    
                                                                                                    
                                                                                                    
                                                                                                    
                                                                                                    
                                                                                                    
                                                                                                    
                                                                                                    
                                                                                                    
                                                                                                    
                                                                                                    
                                                                                                    
                                                                                                    
                           
<?xpacket end="w"?></metadata>
<defs>
    <style>
      .cls-1 {
        fill-rule: evenodd;
      }
    </style>
  </defs>
  <path id="gamble_roll" class="cls-1" d="M488,576a8,8,0,1,0,8,8A8.011,8.011,0,0,0,488,576Zm0,14a6,6,0,1,1,6-6A6,6,0,0,1,488,590Zm4-7h-1.18a2.985,2.985,0,0,0-1.82-1.82V580a1,1,0,0,0-2,0v1.18a2.985,2.985,0,0,0-1.82,1.82H484a1,1,0,0,0,0,2h1.18a2.985,2.985,0,0,0,1.82,1.82V588a1,1,0,0,0,2,0v-1.18a2.985,2.985,0,0,0,1.82-1.82H492A1,1,0,0,0,492,583Zm-4,2a1,1,0,1,1,1-1A1,1,0,0,1,488,585Z" transform="translate(-480 -576)"/>
</svg>
