<svg xmlns="http://www.w3.org/2000/svg" width="16" height="16" viewBox="0 0 16 16">
  <metadata><?xpacket begin="﻿" id="W5M0MpCehiHzreSzNTczkc9d"?>
<x:xmpmeta xmlns:x="adobe:ns:meta/" x:xmptk="Adobe XMP Core 5.6-c138 79.159824, 2016/09/14-01:09:01        ">
   <rdf:RDF xmlns:rdf="http://www.w3.org/1999/02/22-rdf-syntax-ns#">
      <rdf:Description rdf:about=""/>
   </rdf:RDF>
</x:xmpmeta>
                                                                                                    
                                                                                                    
                                                                                                    
                                                                                                    
                                                                                                    
                                                                                                    
                                                                                                    
                                                                                                    
                                                                                                    
                                                                                                    
                                                                                                    
                                                                                                    
                                                                                                    
                                                                                                    
                                                                                                    
                                                                                                    
                                                                                                    
                                                                                                    
                                                                                                    
                                                                                                    
                           
<?xpacket end="w"?></metadata>
<defs>
    <style>
      .cls-1 {
        fill-rule: evenodd;
      }
    </style>
  </defs>
  <path id="gamble_chck_" data-name="gamble_chck " class="cls-1" d="M520,578a6,6,0,1,1-6,6,6,6,0,0,1,6-6h0Zm0-2a8,8,0,1,0,8,8,8.009,8.009,0,0,0-8-8h0Zm3.862,6.953a1,1,0,0,0-1.676-.43v0a1.006,1.006,0,0,0-.249.976,1.977,1.977,0,0,1,0,1,1.006,1.006,0,0,0,.249.976h0a1,1,0,0,0,1.676-.429A4.041,4.041,0,0,0,523.862,582.953Zm-3.351,2.981A2.005,2.005,0,0,1,520,586a1.95,1.95,0,0,1-.5-0.064,1.006,1.006,0,0,0-.976.249h0a1,1,0,0,0,.429,1.675,4.009,4.009,0,0,0,2.1,0A1,1,0,0,0,520.511,585.934Zm-2.693-3.416,0,0a1,1,0,0,0-1.675.428,4.025,4.025,0,0,0,0,2.112,1,1,0,0,0,1.675.427l0,0a1.006,1.006,0,0,0,.247-0.982,1.948,1.948,0,0,1,0-1A1.008,1.008,0,0,0,517.818,582.518Zm3.239-2.376a4.023,4.023,0,0,0-2.1,0,1,1,0,0,0-.429,1.675v0a1.006,1.006,0,0,0,.976.249A1.95,1.95,0,0,1,520,582a2.005,2.005,0,0,1,.511.066A1,1,0,0,0,521.057,580.142Z" transform="translate(-512 -576)"/>
</svg>
