<svg xmlns="http://www.w3.org/2000/svg" width="16" height="16" viewBox="0 0 16 16">
  <metadata><?xpacket begin="﻿" id="W5M0MpCehiHzreSzNTczkc9d"?>
<x:xmpmeta xmlns:x="adobe:ns:meta/" x:xmptk="Adobe XMP Core 5.6-c138 79.159824, 2016/09/14-01:09:01        ">
   <rdf:RDF xmlns:rdf="http://www.w3.org/1999/02/22-rdf-syntax-ns#">
      <rdf:Description rdf:about=""/>
   </rdf:RDF>
</x:xmpmeta>
                                                                                                    
                                                                                                    
                                                                                                    
                                                                                                    
                                                                                                    
                                                                                                    
                                                                                                    
                                                                                                    
                                                                                                    
                                                                                                    
                                                                                                    
                                                                                                    
                                                                                                    
                                                                                                    
                                                                                                    
                                                                                                    
                                                                                                    
                                                                                                    
                                                                                                    
                                                                                                    
                           
<?xpacket end="w"?></metadata>
<defs>
    <style>
      .cls-1 {
        fill-rule: evenodd;
      }
    </style>
  </defs>
  <path id="game_pad_wire" class="cls-1" d="M428,67h-3V65a1,1,0,0,0-2,0v2h-3c-1.494,0-4,.909-4,7,0,5.221,2.506,6,4,6a2.751,2.751,0,0,0,2.949-2.184c0.23-.691.272-0.816,1.051-0.816s0.821,0.125,1.052.816A2.749,2.749,0,0,0,428,80c1.494,0,4-.779,4-6C432,67.909,429.494,67,428,67Zm0,11c-0.779,0-.82-0.125-1.052-0.816a3.083,3.083,0,0,0-5.9,0C420.821,77.875,420.779,78,420,78c-1.327,0-2-1.346-2-4,0-1.5.195-5,2-5h8c1.805,0,2,3.5,2,5C430,76.654,429.327,78,428,78Zm-2-8a1,1,0,1,0,1,1A1,1,0,0,0,426,70Zm2,2a1,1,0,1,0,1,1A1,1,0,0,0,428,72Zm-5-1h-0.5V70.5a1,1,0,0,0-2,0V71H420a1,1,0,1,0,0,2h0.5v0.5a1,1,0,0,0,2,0V73H423A1,1,0,1,0,423,71Z" transform="translate(-416 -64)"/>
</svg>
