<svg xmlns="http://www.w3.org/2000/svg" width="16" height="13" viewBox="0 0 16 13">
  <metadata><?xpacket begin="﻿" id="W5M0MpCehiHzreSzNTczkc9d"?>
<x:xmpmeta xmlns:x="adobe:ns:meta/" x:xmptk="Adobe XMP Core 5.6-c138 79.159824, 2016/09/14-01:09:01        ">
   <rdf:RDF xmlns:rdf="http://www.w3.org/1999/02/22-rdf-syntax-ns#">
      <rdf:Description rdf:about=""/>
   </rdf:RDF>
</x:xmpmeta>
                                                                                                    
                                                                                                    
                                                                                                    
                                                                                                    
                                                                                                    
                                                                                                    
                                                                                                    
                                                                                                    
                                                                                                    
                                                                                                    
                                                                                                    
                                                                                                    
                                                                                                    
                                                                                                    
                                                                                                    
                                                                                                    
                                                                                                    
                                                                                                    
                                                                                                    
                                                                                                    
                           
<?xpacket end="w"?></metadata>
<defs>
    <style>
      .cls-1 {
        fill-rule: evenodd;
      }
    </style>
  </defs>
  <path id="game_pad_non_wire" class="cls-1" d="M460,66h-8c-1.494,0-4,.909-4,7,0,5.221,2.506,6,4,6a2.751,2.751,0,0,0,2.949-2.183c0.23-.692.272-0.816,1.051-0.816s0.821,0.125,1.052.816A2.749,2.749,0,0,0,460,79c1.494,0,4-.779,4-6C464,66.909,461.494,66,460,66Zm0,11c-0.779,0-.82-0.125-1.052-0.816a3.082,3.082,0,0,0-5.9,0C452.821,76.875,452.779,77,452,77c-1.327,0-2-1.346-2-4,0-1.5.195-5,2-5h8c1.805,0,2,3.5,2,5C462,75.654,461.327,77,460,77Zm-2-8a1,1,0,1,0,1,1A1,1,0,0,0,458,69Zm2,2a1,1,0,1,0,1,1A1,1,0,0,0,460,71Zm-5-1h-0.5V69.5a1,1,0,1,0-2,0V70H452a1,1,0,0,0,0,2h0.5v0.5a1,1,0,1,0,2,0V72H455A1,1,0,0,0,455,70Z" transform="translate(-448 -66)"/>
</svg>
