<svg xmlns="http://www.w3.org/2000/svg" width="15.813" height="14" viewBox="0 0 15.813 14">
  <metadata><?xpacket begin="﻿" id="W5M0MpCehiHzreSzNTczkc9d"?>
<x:xmpmeta xmlns:x="adobe:ns:meta/" x:xmptk="Adobe XMP Core 5.6-c138 79.159824, 2016/09/14-01:09:01        ">
   <rdf:RDF xmlns:rdf="http://www.w3.org/1999/02/22-rdf-syntax-ns#">
      <rdf:Description rdf:about=""/>
   </rdf:RDF>
</x:xmpmeta>
                                                                                                    
                                                                                                    
                                                                                                    
                                                                                                    
                                                                                                    
                                                                                                    
                                                                                                    
                                                                                                    
                                                                                                    
                                                                                                    
                                                                                                    
                                                                                                    
                                                                                                    
                                                                                                    
                                                                                                    
                                                                                                    
                                                                                                    
                                                                                                    
                                                                                                    
                                                                                                    
                           
<?xpacket end="w"?></metadata>
<defs>
    <style>
      .cls-1 {
        fill-rule: evenodd;
      }
    </style>
  </defs>
  <path id="gear_4" class="cls-1" d="M746.905,67l2.969,5-2.969,5h-5.937L738,72l2.969-5h5.937m0-2h-5.937a1.973,1.973,0,0,0-1.7.971l-2.969,5a2.018,2.018,0,0,0,0,2.058l2.969,5a1.973,1.973,0,0,0,1.7.971h5.937a1.976,1.976,0,0,0,1.7-.971l2.969-5a2.018,2.018,0,0,0,0-2.058l-2.969-5a1.975,1.975,0,0,0-1.7-.971h0Zm-0.99,7a1.979,1.979,0,1,1-1.979-2A1.99,1.99,0,0,1,745.915,72Z" transform="translate(-736.031 -65)"/>
</svg>
