<svg xmlns="http://www.w3.org/2000/svg" width="16" height="16" viewBox="0 0 16 16">
  <metadata><?xpacket begin="﻿" id="W5M0MpCehiHzreSzNTczkc9d"?>
<x:xmpmeta xmlns:x="adobe:ns:meta/" x:xmptk="Adobe XMP Core 5.6-c138 79.159824, 2016/09/14-01:09:01        ">
   <rdf:RDF xmlns:rdf="http://www.w3.org/1999/02/22-rdf-syntax-ns#">
      <rdf:Description rdf:about=""/>
   </rdf:RDF>
</x:xmpmeta>
                                                                                                    
                                                                                                    
                                                                                                    
                                                                                                    
                                                                                                    
                                                                                                    
                                                                                                    
                                                                                                    
                                                                                                    
                                                                                                    
                                                                                                    
                                                                                                    
                                                                                                    
                                                                                                    
                                                                                                    
                                                                                                    
                                                                                                    
                                                                                                    
                                                                                                    
                                                                                                    
                           
<?xpacket end="w"?></metadata>
<defs>
    <style>
      .cls-1 {
        fill-rule: evenodd;
      }
    </style>
  </defs>
  <path id="gear_1" class="cls-1" d="M617,66v1.523a0.844,0.844,0,0,0,.521.779l0.01,0a0.865,0.865,0,0,0,.335.068,0.838,0.838,0,0,0,.6-0.246l1.079-1.079,1.41,1.41-1.079,1.079a0.846,0.846,0,0,0-.178.93l0,0.01a0.844,0.844,0,0,0,.779.521H622v2h-1.524a0.844,0.844,0,0,0-.778.521l0,0.01a0.846,0.846,0,0,0,.178.93l1.079,1.079-1.41,1.41-1.079-1.079a0.838,0.838,0,0,0-.6-0.246,0.865,0.865,0,0,0-.335.068l-0.01,0a0.844,0.844,0,0,0-.521.779V78h-2V76.476a0.844,0.844,0,0,0-.521-0.779l-0.01,0a0.865,0.865,0,0,0-.335-0.068,0.838,0.838,0,0,0-.6.246L612.46,76.95l-1.41-1.41,1.079-1.079a0.846,0.846,0,0,0,.177-0.93,0.046,0.046,0,0,0,0-.01A0.844,0.844,0,0,0,611.523,73H610V71h1.523a0.844,0.844,0,0,0,.779-0.521,0.042,0.042,0,0,0,0-.01,0.846,0.846,0,0,0-.177-0.93L611.05,68.46l1.41-1.41,1.079,1.079a0.838,0.838,0,0,0,.6.246,0.865,0.865,0,0,0,.335-0.068l0.01,0A0.844,0.844,0,0,0,615,67.523V66h2m0-2h-2a2,2,0,0,0-1.825,1.181,2,2,0,0,0-2.129.454l-1.41,1.41a2,2,0,0,0-.454,2.129A2,2,0,0,0,608,71v2a2,2,0,0,0,1.181,1.825,2,2,0,0,0,.455,2.129l1.41,1.41a2,2,0,0,0,2.128.454A2,2,0,0,0,615,80h2a2,2,0,0,0,1.826-1.182,2,2,0,0,0,2.128-.454l1.41-1.41a2,2,0,0,0,.454-2.129A2,2,0,0,0,624,73V71a2,2,0,0,0-1.182-1.826,2,2,0,0,0-.454-2.129l-1.41-1.41a2,2,0,0,0-2.129-.454A2,2,0,0,0,617,64h0Zm1,8a2,2,0,1,1-2-2A2,2,0,0,1,618,72Z" transform="translate(-608 -64)"/>
</svg>
