<svg xmlns="http://www.w3.org/2000/svg" width="15.438" height="16" viewBox="0 0 15.438 16">
  <metadata><?xpacket begin="﻿" id="W5M0MpCehiHzreSzNTczkc9d"?>
<x:xmpmeta xmlns:x="adobe:ns:meta/" x:xmptk="Adobe XMP Core 5.6-c138 79.159824, 2016/09/14-01:09:01        ">
   <rdf:RDF xmlns:rdf="http://www.w3.org/1999/02/22-rdf-syntax-ns#">
      <rdf:Description rdf:about=""/>
   </rdf:RDF>
</x:xmpmeta>
                                                                                                    
                                                                                                    
                                                                                                    
                                                                                                    
                                                                                                    
                                                                                                    
                                                                                                    
                                                                                                    
                                                                                                    
                                                                                                    
                                                                                                    
                                                                                                    
                                                                                                    
                                                                                                    
                                                                                                    
                                                                                                    
                                                                                                    
                                                                                                    
                                                                                                    
                                                                                                    
                           
<?xpacket end="w"?></metadata>
<defs>
    <style>
      .cls-1 {
        fill-rule: evenodd;
      }
    </style>
  </defs>
  <path id="gear_2" class="cls-1" d="M686.712,72.4l-0.722-.417,0.722-.38a2,2,0,0,0,.734-2.728l-1-1.74A2.007,2.007,0,0,0,683.7,66.4l-0.72.416L683,66a2,2,0,0,0-2-2h-2a2,2,0,0,0-2,2v0.826l-0.7-.427a2.005,2.005,0,0,0-2.74.735l-1,1.74a2,2,0,0,0,.734,2.728l0.708,0.409-0.708.388a2,2,0,0,0-.734,2.728l1,1.74a2.005,2.005,0,0,0,2.74.735l0.72-.416-0.02.814a2,2,0,0,0,2,2h2a2,2,0,0,0,2-2V77.174l0.7,0.427a2.007,2.007,0,0,0,2.741-.735l1-1.74A2,2,0,0,0,686.712,72.4Zm-1.726,1.314,0.723,0.417-1,1.74-0.72-.416a1.968,1.968,0,0,0-1.971,0l-0.028.016a1.959,1.959,0,0,0-.988,1.7V78h-2V77.174a1.963,1.963,0,0,0-.987-1.7l-0.029-.016a1.966,1.966,0,0,0-1.971,0l-0.72.416-1-1.74L675,73.721a1.987,1.987,0,0,0,0-3.442l-0.709-.409,1-1.74,0.72,0.416a1.967,1.967,0,0,0,1.971,0l0.028-.016a1.959,1.959,0,0,0,.988-1.7V66h2v0.826a1.962,1.962,0,0,0,.988,1.7l0.028,0.016a1.965,1.965,0,0,0,1.971,0l0.72-.416,1,1.74-0.723.417a1.961,1.961,0,0,0-.98,1.7v0.024A1.958,1.958,0,0,0,684.986,73.713ZM680,70a2,2,0,1,0,2,2A2,2,0,0,0,680,70Z" transform="translate(-672.281 -64)"/>
</svg>
