<svg xmlns="http://www.w3.org/2000/svg" width="16" height="15.937" viewBox="0 0 16 15.937">
  <metadata><?xpacket begin="﻿" id="W5M0MpCehiHzreSzNTczkc9d"?>
<x:xmpmeta xmlns:x="adobe:ns:meta/" x:xmptk="Adobe XMP Core 5.6-c138 79.159824, 2016/09/14-01:09:01        ">
   <rdf:RDF xmlns:rdf="http://www.w3.org/1999/02/22-rdf-syntax-ns#">
      <rdf:Description rdf:about=""/>
   </rdf:RDF>
</x:xmpmeta>
                                                                                                    
                                                                                                    
                                                                                                    
                                                                                                    
                                                                                                    
                                                                                                    
                                                                                                    
                                                                                                    
                                                                                                    
                                                                                                    
                                                                                                    
                                                                                                    
                                                                                                    
                                                                                                    
                                                                                                    
                                                                                                    
                                                                                                    
                                                                                                    
                                                                                                    
                                                                                                    
                           
<?xpacket end="w"?></metadata>
<defs>
    <style>
      .cls-1 {
        fill-rule: evenodd;
      }
    </style>
  </defs>
  <path id="gift_1" class="cls-1" d="M686,355.039h-0.041a2.484,2.484,0,0,0-.366-1.677,2.831,2.831,0,0,0-2.542-1.312,3.735,3.735,0,0,1-5.994,0,2.815,2.815,0,0,0-2.542,1.312,2.478,2.478,0,0,0-.366,1.677H674a2,2,0,0,0-2,1.994V366A2,2,0,0,0,674,368h12A2,2,0,0,0,688,366v-8.971A2,2,0,0,0,686,355.039Zm-8,3.988v-1.994h4v1.994h-4Zm5.164-4.986a0.8,0.8,0,0,1,.735.383,0.436,0.436,0,0,1,.083.381,1.083,1.083,0,0,1-.875.234h-1.645A2.084,2.084,0,0,1,683.164,354.041Zm-7.039.765a0.444,0.444,0,0,1,.083-0.382,0.8,0.8,0,0,1,.735-0.383,2.086,2.086,0,0,1,1.7,1H677A1.091,1.091,0,0,1,676.125,354.806ZM674,357.033h2v1.994h-2v-1.994ZM674,366V361.02h3V366h-3Zm5,0V361.02h2V366h-2Zm7,0h-3V361.02h3V366Zm-2-6.977v-1.994h2v1.994h-2Z" transform="translate(-672 -352.063)"/>
</svg>
