<svg xmlns="http://www.w3.org/2000/svg" width="16" height="16" viewBox="0 0 16 16">
  <metadata><?xpacket begin="﻿" id="W5M0MpCehiHzreSzNTczkc9d"?>
<x:xmpmeta xmlns:x="adobe:ns:meta/" x:xmptk="Adobe XMP Core 5.6-c138 79.159824, 2016/09/14-01:09:01        ">
   <rdf:RDF xmlns:rdf="http://www.w3.org/1999/02/22-rdf-syntax-ns#">
      <rdf:Description rdf:about=""/>
   </rdf:RDF>
</x:xmpmeta>
                                                                                                    
                                                                                                    
                                                                                                    
                                                                                                    
                                                                                                    
                                                                                                    
                                                                                                    
                                                                                                    
                                                                                                    
                                                                                                    
                                                                                                    
                                                                                                    
                                                                                                    
                                                                                                    
                                                                                                    
                                                                                                    
                                                                                                    
                                                                                                    
                                                                                                    
                                                                                                    
                           
<?xpacket end="w"?></metadata>
<defs>
    <style>
      .cls-1 {
        fill-rule: evenodd;
      }
    </style>
  </defs>
  <path id="gift_2" class="cls-1" d="M718.763,356.152A2.729,2.729,0,0,0,719,355a2.9,2.9,0,0,0-3-3,4.69,4.69,0,0,0-4,2.52,4.69,4.69,0,0,0-4-2.52,2.9,2.9,0,0,0-3,3,2.729,2.729,0,0,0,.237,1.152A2,2,0,0,0,704,358v2a2,2,0,0,0,1,1.732V366a2,2,0,0,0,2,2h10a2,2,0,0,0,2-2v-4.268A2,2,0,0,0,720,360v-2A2,2,0,0,0,718.763,356.152ZM706,358h5v2h-5v-2Zm10-4a0.906,0.906,0,0,1,1,1c0,0.765-1.4.948-3.537,0.989A3.091,3.091,0,0,1,716,354Zm-8,0a3.091,3.091,0,0,1,2.537,1.989C708.406,355.948,707,355.765,707,355A0.906,0.906,0,0,1,708,354Zm-1,12v-4h4v4h-4Zm10,0h-4v-4h4v4Zm1-6h-5v-2h5v2Z" transform="translate(-704 -352)"/>
</svg>
