<svg xmlns="http://www.w3.org/2000/svg" width="15.844" height="16" viewBox="0 0 15.844 16">
  <metadata><?xpacket begin="﻿" id="W5M0MpCehiHzreSzNTczkc9d"?>
<x:xmpmeta xmlns:x="adobe:ns:meta/" x:xmptk="Adobe XMP Core 5.6-c138 79.159824, 2016/09/14-01:09:01        ">
   <rdf:RDF xmlns:rdf="http://www.w3.org/1999/02/22-rdf-syntax-ns#">
      <rdf:Description rdf:about=""/>
   </rdf:RDF>
</x:xmpmeta>
                                                                                                    
                                                                                                    
                                                                                                    
                                                                                                    
                                                                                                    
                                                                                                    
                                                                                                    
                                                                                                    
                                                                                                    
                                                                                                    
                                                                                                    
                                                                                                    
                                                                                                    
                                                                                                    
                                                                                                    
                                                                                                    
                                                                                                    
                                                                                                    
                                                                                                    
                                                                                                    
                           
<?xpacket end="w"?></metadata>
<defs>
    <style>
      .cls-1 {
        fill-rule: evenodd;
      }
    </style>
  </defs>
  <path id="gpu_1" class="cls-1" d="M45.839,226l-4.955,12-1.2-3.017L38.9,233l-1.937-.782L33.948,231l11.892-5h0Zm0-2a1.955,1.955,0,0,0-.762.154l-11.892,5a2.007,2.007,0,0,0,.026,3.7l3.018,1.218,1.148,0.463,0.471,1.188,1.2,3.017A1.983,1.983,0,0,0,40.87,240h0.014a1.982,1.982,0,0,0,1.829-1.231l4.955-12a2.012,2.012,0,0,0-.428-2.183,1.971,1.971,0,0,0-1.4-.586h0Zm0,4h0Zm0-2-4.955,12-1.2-3.017L38.9,233l-1.937-.782L33.948,231l11.892-5h0Zm0-2a1.955,1.955,0,0,0-.762.154l-11.892,5a2.007,2.007,0,0,0,.026,3.7l3.018,1.218,1.148,0.463,0.471,1.188,1.2,3.017A1.983,1.983,0,0,0,40.87,240h0.014a1.982,1.982,0,0,0,1.829-1.231l4.955-12a2.012,2.012,0,0,0-.428-2.183,1.971,1.971,0,0,0-1.4-.586h0Zm0,4h0Z" transform="translate(-31.969 -224)"/>
</svg>
