<svg xmlns="http://www.w3.org/2000/svg" width="16" height="15.969" viewBox="0 0 16 15.969">
  <metadata><?xpacket begin="﻿" id="W5M0MpCehiHzreSzNTczkc9d"?>
<x:xmpmeta xmlns:x="adobe:ns:meta/" x:xmptk="Adobe XMP Core 5.6-c138 79.159824, 2016/09/14-01:09:01        ">
   <rdf:RDF xmlns:rdf="http://www.w3.org/1999/02/22-rdf-syntax-ns#">
      <rdf:Description rdf:about=""/>
   </rdf:RDF>
</x:xmpmeta>
                                                                                                    
                                                                                                    
                                                                                                    
                                                                                                    
                                                                                                    
                                                                                                    
                                                                                                    
                                                                                                    
                                                                                                    
                                                                                                    
                                                                                                    
                                                                                                    
                                                                                                    
                                                                                                    
                                                                                                    
                                                                                                    
                                                                                                    
                                                                                                    
                                                                                                    
                                                                                                    
                           
<?xpacket end="w"?></metadata>
<defs>
    <style>
      .cls-1 {
        fill-rule: evenodd;
      }
    </style>
  </defs>
  <path id="hash_2" class="cls-1" d="M111,329.885h-3.2l0.572-3.957H111a0.99,0.99,0,1,0,0-1.979h-2.341l0.39-2.7a1,1,0,0,0-1.981-.28l-0.429,2.977h-4.057l0.406-2.817a1,1,0,0,0-1.979-.28l-0.447,3.1H97a0.99,0.99,0,1,0,0,1.979h3.276L99.7,329.885H97a0.99,0.99,0,1,0,0,1.979h2.419l-0.41,2.84a1,1,0,0,0,1.979.28l0.451-3.12H105.5l-0.428,2.961a1,1,0,0,0,1.981.28l0.468-3.241H111A0.99,0.99,0,1,0,111,329.885Zm-9.276,0,0.572-3.957h4.057l-0.572,3.957h-4.057Z" transform="translate(-96 -320)"/>
</svg>
