<svg xmlns="http://www.w3.org/2000/svg" width="16" height="16" viewBox="0 0 16 16">
  <metadata><?xpacket begin="﻿" id="W5M0MpCehiHzreSzNTczkc9d"?>
<x:xmpmeta xmlns:x="adobe:ns:meta/" x:xmptk="Adobe XMP Core 5.6-c138 79.159824, 2016/09/14-01:09:01        ">
   <rdf:RDF xmlns:rdf="http://www.w3.org/1999/02/22-rdf-syntax-ns#">
      <rdf:Description rdf:about=""/>
   </rdf:RDF>
</x:xmpmeta>
                                                                                                    
                                                                                                    
                                                                                                    
                                                                                                    
                                                                                                    
                                                                                                    
                                                                                                    
                                                                                                    
                                                                                                    
                                                                                                    
                                                                                                    
                                                                                                    
                                                                                                    
                                                                                                    
                                                                                                    
                                                                                                    
                                                                                                    
                                                                                                    
                                                                                                    
                                                                                                    
                           
<?xpacket end="w"?></metadata>
<defs>
    <style>
      .cls-1 {
        fill-rule: evenodd;
      }
    </style>
  </defs>
  <path id="hash_1" class="cls-1" d="M75.837,322a0.986,0.986,0,0,1,.974,1.147L76.67,324H77a1,1,0,0,1,0,2H76.33l-0.66,4H77a1,1,0,0,1,0,2H75.33l-0.194,1.174a0.987,0.987,0,0,1-1.947-.321L73.33,332h-4l-0.194,1.174a0.987,0.987,0,0,1-1.947-.321L67.33,332H67a1,1,0,0,1,0-2h0.67l0.66-4H67a1,1,0,0,1,0-2h1.67l0.194-1.174a0.987,0.987,0,0,1,1.947.321L70.67,324h4l0.194-1.174A0.986,0.986,0,0,1,75.837,322m-6.167,8h4l0.66-4h-4l-0.66,4m6.167-10a2.974,2.974,0,0,0-2.82,2H72.657a2.988,2.988,0,0,0-5.639,0H67a3,3,0,0,0-1,5.829l-0.06.364a3,3,0,0,0-.74,5.206,2.988,2.988,0,0,0,5.782.6h0.361a2.988,2.988,0,0,0,5.639,0H77a3,3,0,0,0,1-5.829l0.06-.364a3,3,0,0,0,.74-5.206,2.987,2.987,0,0,0-2.962-2.6h0Z" transform="translate(-64 -320)"/>
</svg>
