<svg xmlns="http://www.w3.org/2000/svg" width="16" height="14" viewBox="0 0 16 14">
  <metadata><?xpacket begin="﻿" id="W5M0MpCehiHzreSzNTczkc9d"?>
<x:xmpmeta xmlns:x="adobe:ns:meta/" x:xmptk="Adobe XMP Core 5.6-c138 79.159824, 2016/09/14-01:09:01        ">
   <rdf:RDF xmlns:rdf="http://www.w3.org/1999/02/22-rdf-syntax-ns#">
      <rdf:Description rdf:about=""/>
   </rdf:RDF>
</x:xmpmeta>
                                                                                                    
                                                                                                    
                                                                                                    
                                                                                                    
                                                                                                    
                                                                                                    
                                                                                                    
                                                                                                    
                                                                                                    
                                                                                                    
                                                                                                    
                                                                                                    
                                                                                                    
                                                                                                    
                                                                                                    
                                                                                                    
                                                                                                    
                                                                                                    
                                                                                                    
                                                                                                    
                           
<?xpacket end="w"?></metadata>
<defs>
    <style>
      .cls-1 {
        fill-rule: evenodd;
      }
    </style>
  </defs>
  <path id="headphones_3" class="cls-1" d="M204,129h-8a4,4,0,0,0-4,4v5a1,1,0,0,0,1,1v1a1,1,0,0,0,1,1,2,2,0,0,0,2,2h1a2,2,0,0,0,2-2v-4a2,2,0,0,0-2-2h-1a2,2,0,0,0-2,2v-3h12v3a2,2,0,0,0-2-2h-1a2,2,0,0,0-2,2v4a2,2,0,0,0,2,2h1a2,2,0,0,0,2-2,1,1,0,0,0,1-1v-1a1,1,0,0,0,1-1v-5A4,4,0,0,0,204,129Zm-8,8h1v4h-1v-4Zm8,4h-1v-4h1v4Zm-8-10h8a1.993,1.993,0,0,1,1.722,1H194.278A1.993,1.993,0,0,1,196,131Z" transform="translate(-192 -129)"/>
</svg>
