<svg xmlns="http://www.w3.org/2000/svg" width="16" height="16" viewBox="0 0 16 16">
  <metadata><?xpacket begin="﻿" id="W5M0MpCehiHzreSzNTczkc9d"?>
<x:xmpmeta xmlns:x="adobe:ns:meta/" x:xmptk="Adobe XMP Core 5.6-c138 79.159824, 2016/09/14-01:09:01        ">
   <rdf:RDF xmlns:rdf="http://www.w3.org/1999/02/22-rdf-syntax-ns#">
      <rdf:Description rdf:about=""/>
   </rdf:RDF>
</x:xmpmeta>
                                                                                                    
                                                                                                    
                                                                                                    
                                                                                                    
                                                                                                    
                                                                                                    
                                                                                                    
                                                                                                    
                                                                                                    
                                                                                                    
                                                                                                    
                                                                                                    
                                                                                                    
                                                                                                    
                                                                                                    
                                                                                                    
                                                                                                    
                                                                                                    
                                                                                                    
                                                                                                    
                           
<?xpacket end="w"?></metadata>
<defs>
    <style>
      .cls-1 {
        fill-rule: evenodd;
      }
    </style>
  </defs>
  <path id="headphones_2" class="cls-1" d="M176,137a3.988,3.988,0,0,0-2.023-3.456,5.994,5.994,0,0,0-11.954,0A3.987,3.987,0,0,0,164,141a2,2,0,0,0,2-2v-4a1.993,1.993,0,0,0-1.863-1.986c0-.005,0-0.009,0-0.014h7.718s0,0.009,0,.014A1.993,1.993,0,0,0,170,135v4a2,2,0,0,0,.88,1.657A2,2,0,0,1,169,142h-2a1,1,0,0,0,0,2h2a4,4,0,0,0,3.892-3.108A4,4,0,0,0,176,137Zm-5.379-6h-5.242A3.935,3.935,0,0,1,170.621,131ZM164,139a2,2,0,0,1,0-4v4Zm8,0v-4A2,2,0,0,1,172,139Z" transform="translate(-160 -128)"/>
</svg>
