<svg xmlns="http://www.w3.org/2000/svg" width="16" height="12" viewBox="0 0 16 12">
  <metadata><?xpacket begin="﻿" id="W5M0MpCehiHzreSzNTczkc9d"?>
<x:xmpmeta xmlns:x="adobe:ns:meta/" x:xmptk="Adobe XMP Core 5.6-c138 79.159824, 2016/09/14-01:09:01        ">
   <rdf:RDF xmlns:rdf="http://www.w3.org/1999/02/22-rdf-syntax-ns#">
      <rdf:Description rdf:about=""/>
   </rdf:RDF>
</x:xmpmeta>
                                                                                                    
                                                                                                    
                                                                                                    
                                                                                                    
                                                                                                    
                                                                                                    
                                                                                                    
                                                                                                    
                                                                                                    
                                                                                                    
                                                                                                    
                                                                                                    
                                                                                                    
                                                                                                    
                                                                                                    
                                                                                                    
                                                                                                    
                                                                                                    
                                                                                                    
                                                                                                    
                           
<?xpacket end="w"?></metadata>
<defs>
    <style>
      .cls-1 {
        fill-rule: evenodd;
      }
    </style>
  </defs>
  <path id="headphones_1" class="cls-1" d="M141.787,134.441a5.992,5.992,0,0,0-11.575,0A3.988,3.988,0,0,0,132,142a2,2,0,0,0,2-2v-4a2,2,0,0,0-1.486-1.925,3.966,3.966,0,0,1,6.972,0A2,2,0,0,0,138,136v4a2,2,0,0,0,2,2A3.988,3.988,0,0,0,141.787,134.441ZM132,140a2,2,0,0,1,0-4v4Zm8,0v-4A2,2,0,0,1,140,140Z" transform="translate(-128 -130)"/>
</svg>
