<svg xmlns="http://www.w3.org/2000/svg" width="16" height="14" viewBox="0 0 16 14">
  <metadata><?xpacket begin="﻿" id="W5M0MpCehiHzreSzNTczkc9d"?>
<x:xmpmeta xmlns:x="adobe:ns:meta/" x:xmptk="Adobe XMP Core 5.6-c138 79.159824, 2016/09/14-01:09:01        ">
   <rdf:RDF xmlns:rdf="http://www.w3.org/1999/02/22-rdf-syntax-ns#">
      <rdf:Description rdf:about=""/>
   </rdf:RDF>
</x:xmpmeta>
                                                                                                    
                                                                                                    
                                                                                                    
                                                                                                    
                                                                                                    
                                                                                                    
                                                                                                    
                                                                                                    
                                                                                                    
                                                                                                    
                                                                                                    
                                                                                                    
                                                                                                    
                                                                                                    
                                                                                                    
                                                                                                    
                                                                                                    
                                                                                                    
                                                                                                    
                                                                                                    
                           
<?xpacket end="w"?></metadata>
<defs>
    <style>
      .cls-1 {
        fill-rule: evenodd;
      }
    </style>
  </defs>
  <path id="hearts" class="cls-1" d="M587,579a3,3,0,0,1,2.24,4.99c-0.55.62-5.24,5.01-5.24,5.01s-4.7-4.39-5.25-5.02A2.965,2.965,0,0,1,578,582a3,3,0,0,1,6,0,3,3,0,0,1,3-3m0-2a4.973,4.973,0,0,0-3,1,5,5,0,0,0-6.746,7.305c0.562,0.644,4.261,4.108,5.381,5.154a2,2,0,0,0,2.732,0c1.116-1.045,4.8-4.5,5.369-5.143A5,5,0,0,0,587,577h0Z" transform="translate(-576 -577)"/>
</svg>
