<svg xmlns="http://www.w3.org/2000/svg" width="16" height="16" viewBox="0 0 16 16">
  <metadata><?xpacket begin="﻿" id="W5M0MpCehiHzreSzNTczkc9d"?>
<x:xmpmeta xmlns:x="adobe:ns:meta/" x:xmptk="Adobe XMP Core 5.6-c138 79.159824, 2016/09/14-01:09:01        ">
   <rdf:RDF xmlns:rdf="http://www.w3.org/1999/02/22-rdf-syntax-ns#">
      <rdf:Description rdf:about=""/>
   </rdf:RDF>
</x:xmpmeta>
                                                                                                    
                                                                                                    
                                                                                                    
                                                                                                    
                                                                                                    
                                                                                                    
                                                                                                    
                                                                                                    
                                                                                                    
                                                                                                    
                                                                                                    
                                                                                                    
                                                                                                    
                                                                                                    
                                                                                                    
                                                                                                    
                                                                                                    
                                                                                                    
                                                                                                    
                                                                                                    
                           
<?xpacket end="w"?></metadata>
<defs>
    <style>
      .cls-1 {
        fill-rule: evenodd;
      }
    </style>
  </defs>
  <path id="help_1" class="cls-1" d="M648,192a8,8,0,1,0,8,8A8.009,8.009,0,0,0,648,192Zm3.433,10.019a3.878,3.878,0,0,0,0-4.038l1.454-1.454a5.975,5.975,0,0,1,0,6.946ZM646,200a2,2,0,1,1,2,2A2,2,0,0,1,646,200Zm5.473-4.887-1.454,1.454a3.878,3.878,0,0,0-4.038,0l-1.454-1.454A5.975,5.975,0,0,1,651.473,195.113Zm-8.36,1.414,1.454,1.454a3.878,3.878,0,0,0,0,4.038l-1.454,1.454A5.975,5.975,0,0,1,643.113,196.527Zm1.414,8.36,1.454-1.454a3.878,3.878,0,0,0,4.038,0l1.454,1.454A5.975,5.975,0,0,1,644.527,204.887Z" transform="translate(-640 -192)"/>
</svg>
