<svg xmlns="http://www.w3.org/2000/svg" width="15.688" height="16" viewBox="0 0 15.688 16">
  <metadata><?xpacket begin="﻿" id="W5M0MpCehiHzreSzNTczkc9d"?>
<x:xmpmeta xmlns:x="adobe:ns:meta/" x:xmptk="Adobe XMP Core 5.6-c138 79.159824, 2016/09/14-01:09:01        ">
   <rdf:RDF xmlns:rdf="http://www.w3.org/1999/02/22-rdf-syntax-ns#">
      <rdf:Description rdf:about=""/>
   </rdf:RDF>
</x:xmpmeta>
                                                                                                    
                                                                                                    
                                                                                                    
                                                                                                    
                                                                                                    
                                                                                                    
                                                                                                    
                                                                                                    
                                                                                                    
                                                                                                    
                                                                                                    
                                                                                                    
                                                                                                    
                                                                                                    
                                                                                                    
                                                                                                    
                                                                                                    
                                                                                                    
                                                                                                    
                                                                                                    
                           
<?xpacket end="w"?></metadata>
<defs>
    <style>
      .cls-1 {
        fill-rule: evenodd;
      }
    </style>
  </defs>
  <path id="home_1_2" class="cls-1" d="M431.01,613.46l-5.889-5a1.945,1.945,0,0,0-2.512,0l-5.889,5a2.02,2.02,0,0,0-.589,2.22,1.974,1.974,0,0,0,.864,1.05V622a1.987,1.987,0,0,0,1.963,2h9.815a1.987,1.987,0,0,0,1.962-2v-5.27a1.974,1.974,0,0,0,.864-1.05A2.018,2.018,0,0,0,431.01,613.46ZM428.773,615v7H426.81v-5h-5.889v5h-1.963v-7h-0.982l5.889-5,5.889,5h-0.981Z" transform="translate(-416.031 -608)"/>
</svg>
