<svg xmlns="http://www.w3.org/2000/svg" width="15.688" height="16" viewBox="0 0 15.688 16">
  <metadata><?xpacket begin="﻿" id="W5M0MpCehiHzreSzNTczkc9d"?>
<x:xmpmeta xmlns:x="adobe:ns:meta/" x:xmptk="Adobe XMP Core 5.6-c138 79.159824, 2016/09/14-01:09:01        ">
   <rdf:RDF xmlns:rdf="http://www.w3.org/1999/02/22-rdf-syntax-ns#">
      <rdf:Description rdf:about=""/>
   </rdf:RDF>
</x:xmpmeta>
                                                                                                    
                                                                                                    
                                                                                                    
                                                                                                    
                                                                                                    
                                                                                                    
                                                                                                    
                                                                                                    
                                                                                                    
                                                                                                    
                                                                                                    
                                                                                                    
                                                                                                    
                                                                                                    
                                                                                                    
                                                                                                    
                                                                                                    
                                                                                                    
                                                                                                    
                                                                                                    
                           
<?xpacket end="w"?></metadata>
<defs>
    <style>
      .cls-1 {
        fill-rule: evenodd;
      }
    </style>
  </defs>
  <path id="home_1_1" class="cls-1" d="M463.017,613.463l-5.89-5a1.938,1.938,0,0,0-2.514,0l-5.891,5a2.024,2.024,0,0,0-.589,2.218,1.991,1.991,0,0,0,.864,1.051V622a1.982,1.982,0,0,0,1.964,2h9.817a1.982,1.982,0,0,0,1.964-2v-5.268a1.991,1.991,0,0,0,.864-1.051A2.024,2.024,0,0,0,463.017,613.463ZM453.906,622v-4h3.927v4h-3.927Zm6.872-7v7H459.8v-4a1.982,1.982,0,0,0-1.964-2h-3.927a1.982,1.982,0,0,0-1.964,2v4h-0.981v-7h-0.982l5.891-5,5.89,5h-0.982Z" transform="translate(-448.031 -608)"/>
</svg>
