<svg xmlns="http://www.w3.org/2000/svg" width="16" height="16" viewBox="0 0 16 16">
  <metadata><?xpacket begin="﻿" id="W5M0MpCehiHzreSzNTczkc9d"?>
<x:xmpmeta xmlns:x="adobe:ns:meta/" x:xmptk="Adobe XMP Core 5.6-c138 79.159824, 2016/09/14-01:09:01        ">
   <rdf:RDF xmlns:rdf="http://www.w3.org/1999/02/22-rdf-syntax-ns#">
      <rdf:Description rdf:about=""/>
   </rdf:RDF>
</x:xmpmeta>
                                                                                                    
                                                                                                    
                                                                                                    
                                                                                                    
                                                                                                    
                                                                                                    
                                                                                                    
                                                                                                    
                                                                                                    
                                                                                                    
                                                                                                    
                                                                                                    
                                                                                                    
                                                                                                    
                                                                                                    
                                                                                                    
                                                                                                    
                                                                                                    
                                                                                                    
                                                                                                    
                           
<?xpacket end="w"?></metadata>
<defs>
    <style>
      .cls-1 {
        fill-rule: evenodd;
      }
    </style>
  </defs>
  <path id="home_4_1" class="cls-1" d="M623.109,612.336l-6-4a2,2,0,0,0-2.218,0l-6,4A2,2,0,0,0,608,614v8a2,2,0,0,0,2,2h12a2,2,0,0,0,2-2v-8A2,2,0,0,0,623.109,612.336ZM614,622v-4h4v4h-4Zm8,0h-2v-4a2,2,0,0,0-2-2h-4a2,2,0,0,0-2,2v4h-2v-8l6-4,6,4v8Z" transform="translate(-608 -608)"/>
</svg>
