<svg xmlns="http://www.w3.org/2000/svg" width="16" height="16" viewBox="0 0 16 16">
  <metadata><?xpacket begin="﻿" id="W5M0MpCehiHzreSzNTczkc9d"?>
<x:xmpmeta xmlns:x="adobe:ns:meta/" x:xmptk="Adobe XMP Core 5.6-c138 79.159824, 2016/09/14-01:09:01        ">
   <rdf:RDF xmlns:rdf="http://www.w3.org/1999/02/22-rdf-syntax-ns#">
      <rdf:Description rdf:about=""/>
   </rdf:RDF>
</x:xmpmeta>
                                                                                                    
                                                                                                    
                                                                                                    
                                                                                                    
                                                                                                    
                                                                                                    
                                                                                                    
                                                                                                    
                                                                                                    
                                                                                                    
                                                                                                    
                                                                                                    
                                                                                                    
                                                                                                    
                                                                                                    
                                                                                                    
                                                                                                    
                                                                                                    
                                                                                                    
                                                                                                    
                           
<?xpacket end="w"?></metadata>
<defs>
    <style>
      .cls-1 {
        fill-rule: evenodd;
      }
    </style>
  </defs>
  <path id="horse" class="cls-1" d="M270,578v2h-1a20.344,20.344,0,0,1,1,5c0,2-1,5-6,5s-6-3-6-5a20.344,20.344,0,0,1,1-5h-1v-2h3v2s-4,8,3,8,3-8,3-8v-2h3m0-2h-3a2,2,0,0,0-2,2v2a2,2,0,0,0,.211.894c0.653,1.321,1.266,3.628.716,4.514a3.429,3.429,0,0,1-3.855,0c-0.548-.886.076-3.23,0.717-4.512A2,2,0,0,0,263,580v-2a2,2,0,0,0-2-2h-3a2,2,0,0,0-2,2v2a1.993,1.993,0,0,0,.534,1.36A16.314,16.314,0,0,0,256,585c0,3.384,2.1,7,8,7s8-3.616,8-7a16.372,16.372,0,0,0-.534-3.64A1.993,1.993,0,0,0,272,580v-2a2,2,0,0,0-2-2h0Z" transform="translate(-256 -576)"/>
</svg>
