<svg xmlns="http://www.w3.org/2000/svg" width="15.906" height="16" viewBox="0 0 15.906 16">
  <metadata><?xpacket begin="﻿" id="W5M0MpCehiHzreSzNTczkc9d"?>
<x:xmpmeta xmlns:x="adobe:ns:meta/" x:xmptk="Adobe XMP Core 5.6-c138 79.159824, 2016/09/14-01:09:01        ">
   <rdf:RDF xmlns:rdf="http://www.w3.org/1999/02/22-rdf-syntax-ns#">
      <rdf:Description rdf:about=""/>
   </rdf:RDF>
</x:xmpmeta>
                                                                                                    
                                                                                                    
                                                                                                    
                                                                                                    
                                                                                                    
                                                                                                    
                                                                                                    
                                                                                                    
                                                                                                    
                                                                                                    
                                                                                                    
                                                                                                    
                                                                                                    
                                                                                                    
                                                                                                    
                                                                                                    
                                                                                                    
                                                                                                    
                                                                                                    
                                                                                                    
                           
<?xpacket end="w"?></metadata>
<defs>
    <style>
      .cls-1 {
        fill-rule: evenodd;
      }
    </style>
  </defs>
  <path id="icecream" class="cls-1" d="M78.536,577.465a4.949,4.949,0,0,0-7.029,0l-5.85,5.882a2.007,2.007,0,0,0,0,2.828l1.405,1.413-2.691,2.705a1,1,0,0,0,0,1.414,0.99,0.99,0,0,0,1.406,0L68.468,589l1.405,1.412a1.981,1.981,0,0,0,2.813,0l5.85-5.881A5.013,5.013,0,0,0,78.536,577.465Zm-1.407,5.654L71.279,589l-4.217-4.239,5.85-5.882a2.965,2.965,0,0,1,4.216,0A3.005,3.005,0,0,1,77.129,583.119Zm-2.814-2.825-3.978,4a1,1,0,0,0,0,1.414,0.99,0.99,0,0,0,1.406,0l3.978-4a1,1,0,0,0,0-1.414A0.991,0.991,0,0,0,74.316,580.294Z" transform="translate(-64.094 -576)"/>
</svg>
