<svg xmlns="http://www.w3.org/2000/svg" width="15.75" height="16" viewBox="0 0 15.75 16">
  <metadata><?xpacket begin="﻿" id="W5M0MpCehiHzreSzNTczkc9d"?>
<x:xmpmeta xmlns:x="adobe:ns:meta/" x:xmptk="Adobe XMP Core 5.6-c138 79.159824, 2016/09/14-01:09:01        ">
   <rdf:RDF xmlns:rdf="http://www.w3.org/1999/02/22-rdf-syntax-ns#">
      <rdf:Description rdf:about=""/>
   </rdf:RDF>
</x:xmpmeta>
                                                                                                    
                                                                                                    
                                                                                                    
                                                                                                    
                                                                                                    
                                                                                                    
                                                                                                    
                                                                                                    
                                                                                                    
                                                                                                    
                                                                                                    
                                                                                                    
                                                                                                    
                                                                                                    
                                                                                                    
                                                                                                    
                                                                                                    
                                                                                                    
                                                                                                    
                                                                                                    
                           
<?xpacket end="w"?></metadata>
<defs>
    <style>
      .cls-1 {
        fill-rule: evenodd;
      }
    </style>
  </defs>
  <path id="ico__04" data-name="ico_ 04" class="cls-1" d="M685.924,296.44a2.019,2.019,0,0,0-.236-0.49,1.928,1.928,0,0,0-1.359-.87l-0.492-.07-0.926-.14-0.413-.06-0.827-1.7a1.174,1.174,0,0,0-.109-0.19,1.947,1.947,0,0,0-3.308,0,1.174,1.174,0,0,0-.109.19l-0.827,1.7-0.413.06-0.926.14-0.492.07a1.928,1.928,0,0,0-1.359.87,2.009,2.009,0,0,0,.266,2.54l1.329,1.31-0.315,1.86a2.015,2.015,0,0,0,.788,1.96,1.942,1.942,0,0,0,1.152.38,1.978,1.978,0,0,0,.916-0.23l1.644-.88,1.644,0.88a1.978,1.978,0,0,0,.916.23,1.942,1.942,0,0,0,1.152-.38,2.015,2.015,0,0,0,.788-1.96l-0.315-1.86,1.329-1.31A2.023,2.023,0,0,0,685.924,296.44ZM682.468,302l-2.56-1.37-2.56,1.37,0.492-2.89-1.152-1.14-0.926-.91,2.866-.43,0.295-.6,0.985-2.03,0.985,2.03,0.295,0.6,2.866,0.43-0.926.91-1.152,1.14Zm5.219-9.63-0.985-3A1.983,1.983,0,0,0,684.89,288h-0.059A1.979,1.979,0,0,0,683,289.26l-0.3.74-1.142,2.92-0.531,1.34a2.089,2.089,0,0,0-.138.74v1.03l0.295,0.6,2.866,0.43-0.926.91a1.81,1.81,0,0,0,1.122-.56l1.438-1.46,1.516-1.54A2,2,0,0,0,687.687,292.37ZM682.862,296v-1l0.049-.13,1.92-4.87,0.985,3Zm-4.077-1.74-0.531-1.34L677.111,290l-0.295-.74a1.979,1.979,0,0,0-1.831-1.26h-0.06a1.983,1.983,0,0,0-1.811,1.37l-0.985,3a2,2,0,0,0,.483,2.04l1.516,1.54,1.438,1.46a1.807,1.807,0,0,0,1.122.56l-0.926-.91,2.866-.43,0.295-.6V295A2.089,2.089,0,0,0,678.785,294.26ZM676.954,296L674,293l0.985-3,1.92,4.87,0.049,0.13v1Zm7.877-6h-9.846v-2h9.846v2Z" transform="translate(-672.031 -288)"/>
</svg>
