<svg xmlns="http://www.w3.org/2000/svg" width="13.719" height="16" viewBox="0 0 13.719 16">
  <metadata><?xpacket begin="﻿" id="W5M0MpCehiHzreSzNTczkc9d"?>
<x:xmpmeta xmlns:x="adobe:ns:meta/" x:xmptk="Adobe XMP Core 5.6-c138 79.159824, 2016/09/14-01:09:01        ">
   <rdf:RDF xmlns:rdf="http://www.w3.org/1999/02/22-rdf-syntax-ns#">
      <rdf:Description rdf:about=""/>
   </rdf:RDF>
</x:xmpmeta>
                                                                                                    
                                                                                                    
                                                                                                    
                                                                                                    
                                                                                                    
                                                                                                    
                                                                                                    
                                                                                                    
                                                                                                    
                                                                                                    
                                                                                                    
                                                                                                    
                                                                                                    
                                                                                                    
                                                                                                    
                                                                                                    
                                                                                                    
                                                                                                    
                                                                                                    
                                                                                                    
                           
<?xpacket end="w"?></metadata>
<defs>
    <style>
      .cls-1 {
        fill-rule: evenodd;
      }
    </style>
  </defs>
  <path id="ico__377" data-name="ico_ 377" class="cls-1" d="M425.816,130v7h2.942l-4.9,5-4.9-5h2.942v-7h3.923m0-2h-3.923a1.981,1.981,0,0,0-1.962,2v5h-0.98a1.962,1.962,0,0,0-1.813,1.235,2.029,2.029,0,0,0,.426,2.179l4.9,5a1.934,1.934,0,0,0,2.774,0l4.9-5a2.029,2.029,0,0,0,.425-2.179A1.961,1.961,0,0,0,428.758,135h-0.981v-5a1.981,1.981,0,0,0-1.961-2h0Z" transform="translate(-417 -128)"/>
</svg>
