<svg xmlns="http://www.w3.org/2000/svg" width="15.813" height="16" viewBox="0 0 15.813 16">
  <metadata><?xpacket begin="﻿" id="W5M0MpCehiHzreSzNTczkc9d"?>
<x:xmpmeta xmlns:x="adobe:ns:meta/" x:xmptk="Adobe XMP Core 5.6-c138 79.159824, 2016/09/14-01:09:01        ">
   <rdf:RDF xmlns:rdf="http://www.w3.org/1999/02/22-rdf-syntax-ns#">
      <rdf:Description rdf:about=""/>
   </rdf:RDF>
</x:xmpmeta>
                                                                                                    
                                                                                                    
                                                                                                    
                                                                                                    
                                                                                                    
                                                                                                    
                                                                                                    
                                                                                                    
                                                                                                    
                                                                                                    
                                                                                                    
                                                                                                    
                                                                                                    
                                                                                                    
                                                                                                    
                                                                                                    
                                                                                                    
                                                                                                    
                                                                                                    
                                                                                                    
                           
<?xpacket end="w"?></metadata>
<defs>
    <style>
      .cls-1 {
        fill-rule: evenodd;
      }
    </style>
  </defs>
  <path id="key_1" class="cls-1" d="M235.017,128a4.975,4.975,0,0,0-4.945,5,5.469,5.469,0,0,0,.109,1.07l-5.459,5.52a1.99,1.99,0,0,0,0,2.82l0.989,1a1.943,1.943,0,0,0,2.789,0l0.643-.64a2.03,2.03,0,0,0,.929.23,1.961,1.961,0,0,0,1.4-.59l0.989-1a2.01,2.01,0,0,0,.356-2.35l1.157-1.17a5.175,5.175,0,0,0,1.048.11A5,5,0,0,0,235.017,128Zm0.989,7.82a2.709,2.709,0,0,1-.989.18,2.9,2.9,0,0,1-1.542-.44L232.05,137l-1.978,2,0.989,1-0.989,1-0.989-1-1.978,2-0.989-1,4.945-5,1.425-1.44a2.979,2.979,0,0,1-.436-1.56,2.814,2.814,0,0,1,.178-1,2.939,2.939,0,0,1,2.789-2A3,3,0,0,1,236.006,135.82ZM235.017,132a1,1,0,1,0,.989,1A1,1,0,0,0,235.017,132Z" transform="translate(-224.156 -128)"/>
</svg>
