<svg xmlns="http://www.w3.org/2000/svg" width="16.219" height="16.062" viewBox="0 0 16.219 16.062">
  <metadata><?xpacket begin="﻿" id="W5M0MpCehiHzreSzNTczkc9d"?>
<x:xmpmeta xmlns:x="adobe:ns:meta/" x:xmptk="Adobe XMP Core 5.6-c138 79.159824, 2016/09/14-01:09:01        ">
   <rdf:RDF xmlns:rdf="http://www.w3.org/1999/02/22-rdf-syntax-ns#">
      <rdf:Description rdf:about=""/>
   </rdf:RDF>
</x:xmpmeta>
                                                                                                    
                                                                                                    
                                                                                                    
                                                                                                    
                                                                                                    
                                                                                                    
                                                                                                    
                                                                                                    
                                                                                                    
                                                                                                    
                                                                                                    
                                                                                                    
                                                                                                    
                                                                                                    
                                                                                                    
                                                                                                    
                                                                                                    
                                                                                                    
                                                                                                    
                                                                                                    
                           
<?xpacket end="w"?></metadata>
<defs>
    <style>
      .cls-1 {
        fill-rule: evenodd;
      }
    </style>
  </defs>
  <path id="label_minus" class="cls-1" d="M110.913,203.922h-4.049a0.988,0.988,0,0,0-.881.524,0.9,0.9,0,0,0-.132.484,0.964,0.964,0,0,0,.193.585,1.021,1.021,0,0,0,.82.423h4.049A1.008,1.008,0,1,0,110.913,203.922Zm-7.953,1.955a6.055,6.055,0,1,1,6.941-5.987,5.951,5.951,0,0,1-.065.881,1,1,0,0,0,1,1.135h0a1.018,1.018,0,0,0,1.008-.877,8.1,8.1,0,1,0-9.155,6.846,1.01,1.01,0,0,0,1.137-1v-0.006A1,1,0,0,0,102.96,205.877Zm0.867-7a1.008,1.008,0,1,0,1.012,1.008A1.011,1.011,0,0,0,103.827,198.882Zm-0.809,3.924a3.022,3.022,0,0,1-2.229-2.916,1.012,1.012,0,0,0-2.024,0,5.047,5.047,0,0,0,3.8,4.881,1.014,1.014,0,0,0,1.264-.979A1.043,1.043,0,0,0,103.018,202.806Zm0.809-7.956a1.008,1.008,0,1,0,0,2.016,3.027,3.027,0,0,1,3.037,3.024,1.013,1.013,0,0,0,2.025,0A5.053,5.053,0,0,0,103.827,194.85Z" transform="translate(-95.719 -191.813)"/>
</svg>
