<svg xmlns="http://www.w3.org/2000/svg" width="16" height="16" viewBox="0 0 16 16">
  <metadata><?xpacket begin="﻿" id="W5M0MpCehiHzreSzNTczkc9d"?>
<x:xmpmeta xmlns:x="adobe:ns:meta/" x:xmptk="Adobe XMP Core 5.6-c138 79.159824, 2016/09/14-01:09:01        ">
   <rdf:RDF xmlns:rdf="http://www.w3.org/1999/02/22-rdf-syntax-ns#">
      <rdf:Description rdf:about=""/>
   </rdf:RDF>
</x:xmpmeta>
                                                                                                    
                                                                                                    
                                                                                                    
                                                                                                    
                                                                                                    
                                                                                                    
                                                                                                    
                                                                                                    
                                                                                                    
                                                                                                    
                                                                                                    
                                                                                                    
                                                                                                    
                                                                                                    
                                                                                                    
                                                                                                    
                                                                                                    
                                                                                                    
                                                                                                    
                                                                                                    
                           
<?xpacket end="w"?></metadata>
<defs>
    <style>
      .cls-1 {
        fill-rule: evenodd;
      }
    </style>
  </defs>
  <path id="label" class="cls-1" d="M32,200a8,8,0,1,0,8-8A8.009,8.009,0,0,0,32,200Zm14,0a6,6,0,1,1-6-6A6,6,0,0,1,46,200Zm-7,0a1,1,0,1,0,1-1A1,1,0,0,0,39,200Zm-3-1a1,1,0,0,0-1,1,5,5,0,0,0,5,5,1,1,0,1,0,0-2,3,3,0,0,1-3-3A1,1,0,0,0,36,199Zm3-3a1,1,0,0,0,1,1,3,3,0,0,1,3,3,1,1,0,1,0,2,0,5,5,0,0,0-5-5A1,1,0,0,0,39,196Z" transform="translate(-32 -192)"/>
</svg>
