<svg xmlns="http://www.w3.org/2000/svg" width="16.219" height="16.187" viewBox="0 0 16.219 16.187">
  <metadata><?xpacket begin="﻿" id="W5M0MpCehiHzreSzNTczkc9d"?>
<x:xmpmeta xmlns:x="adobe:ns:meta/" x:xmptk="Adobe XMP Core 5.6-c138 79.159824, 2016/09/14-01:09:01        ">
   <rdf:RDF xmlns:rdf="http://www.w3.org/1999/02/22-rdf-syntax-ns#">
      <rdf:Description rdf:about=""/>
   </rdf:RDF>
</x:xmpmeta>
                                                                                                    
                                                                                                    
                                                                                                    
                                                                                                    
                                                                                                    
                                                                                                    
                                                                                                    
                                                                                                    
                                                                                                    
                                                                                                    
                                                                                                    
                                                                                                    
                                                                                                    
                                                                                                    
                                                                                                    
                                                                                                    
                                                                                                    
                                                                                                    
                                                                                                    
                                                                                                    
                           
<?xpacket end="w"?></metadata>
<defs>
    <style>
      .cls-1 {
        fill-rule: evenodd;
      }
    </style>
  </defs>
  <path id="label_add" class="cls-1" d="M70.96,205.822a6.075,6.075,0,1,1,6.878-6.878,1,1,0,0,0,.993.867h0.006a1.011,1.011,0,0,0,1.008-1.137,8.1,8.1,0,1,0-9.154,9.154,1.01,1.01,0,0,0,1.136-1.008v-0.006A1,1,0,0,0,70.96,205.822Zm0.867-7.023a1.012,1.012,0,1,0,1.012,1.012A1.012,1.012,0,0,0,71.827,198.8Zm-0.808,3.94a3.033,3.033,0,0,1-2.228-2.928,1.012,1.012,0,0,0-2.024,0,5.065,5.065,0,0,0,3.8,4.9,1.016,1.016,0,0,0,1.264-.984A1.044,1.044,0,0,0,71.018,202.739Zm0.808-7.989a1.012,1.012,0,1,0,0,2.024A3.033,3.033,0,0,1,74.755,199a1.045,1.045,0,0,0,.99.809,1.016,1.016,0,0,0,.984-1.264A5.065,5.065,0,0,0,71.827,194.75Zm7.085,9.109H77.9v-1.012a1.02,1.02,0,0,0-.425-0.82,0.974,0.974,0,0,0-.587-0.192,0.891,0.891,0,0,0-.486.132,0.984,0.984,0,0,0-.526.88v1.012H74.863a0.987,0.987,0,0,0-.88.526,0.9,0.9,0,0,0-.132.486,0.971,0.971,0,0,0,.192.587,1.02,1.02,0,0,0,.82.425h1.012V206.9a1.012,1.012,0,1,0,2.024,0v-1.012h1.012A1.012,1.012,0,1,0,78.911,203.859Z" transform="translate(-63.719 -191.719)"/>
</svg>
