<svg xmlns="http://www.w3.org/2000/svg" width="15.844" height="16" viewBox="0 0 15.844 16">
  <metadata><?xpacket begin="﻿" id="W5M0MpCehiHzreSzNTczkc9d"?>
<x:xmpmeta xmlns:x="adobe:ns:meta/" x:xmptk="Adobe XMP Core 5.6-c138 79.159824, 2016/09/14-01:09:01        ">
   <rdf:RDF xmlns:rdf="http://www.w3.org/1999/02/22-rdf-syntax-ns#">
      <rdf:Description rdf:about=""/>
   </rdf:RDF>
</x:xmpmeta>
                                                                                                    
                                                                                                    
                                                                                                    
                                                                                                    
                                                                                                    
                                                                                                    
                                                                                                    
                                                                                                    
                                                                                                    
                                                                                                    
                                                                                                    
                                                                                                    
                                                                                                    
                                                                                                    
                                                                                                    
                                                                                                    
                                                                                                    
                                                                                                    
                                                                                                    
                                                                                                    
                           
<?xpacket end="w"?></metadata>
<defs>
    <style>
      .cls-1 {
        fill-rule: evenodd;
      }
    </style>
  </defs>
  <path id="laptop" class="cls-1" d="M655.824,141.515l-0.99-4a2.067,2.067,0,0,0-.21-0.51,2.029,2.029,0,0,0,.242-0.676l0.99-6a2.015,2.015,0,0,0-.442-1.622A1.975,1.975,0,0,0,653.9,128H642.021a1.974,1.974,0,0,0-1.511.707,2.015,2.015,0,0,0-.442,1.622l0.99,6a1.986,1.986,0,0,0,.242.676,1.993,1.993,0,0,0-.21.51l-0.99,4a2.017,2.017,0,0,0,.36,1.716,1.974,1.974,0,0,0,1.561.769H653.9a1.973,1.973,0,0,0,1.56-.769A2.014,2.014,0,0,0,655.824,141.515ZM653.9,130l-0.991,6h-9.9l-0.99-6H653.9Zm-11.882,12,0.99-4h9.9l0.991,4H642.021Zm6.931-3h-1.98a1,1,0,0,0,0,2h1.98A1,1,0,0,0,648.952,139Z" transform="translate(-640.031 -128)"/>
</svg>
