<svg xmlns="http://www.w3.org/2000/svg" width="16" height="15.937" viewBox="0 0 16 15.937">
  <metadata><?xpacket begin="﻿" id="W5M0MpCehiHzreSzNTczkc9d"?>
<x:xmpmeta xmlns:x="adobe:ns:meta/" x:xmptk="Adobe XMP Core 5.6-c138 79.159824, 2016/09/14-01:09:01        ">
   <rdf:RDF xmlns:rdf="http://www.w3.org/1999/02/22-rdf-syntax-ns#">
      <rdf:Description rdf:about=""/>
   </rdf:RDF>
</x:xmpmeta>
                                                                                                    
                                                                                                    
                                                                                                    
                                                                                                    
                                                                                                    
                                                                                                    
                                                                                                    
                                                                                                    
                                                                                                    
                                                                                                    
                                                                                                    
                                                                                                    
                                                                                                    
                                                                                                    
                                                                                                    
                                                                                                    
                                                                                                    
                                                                                                    
                                                                                                    
                                                                                                    
                           
<?xpacket end="w"?></metadata>
<defs>
    <style>
      .cls-1 {
        fill-rule: evenodd;
      }
    </style>
  </defs>
  <path id="layers_1" class="cls-1" d="M640.891,551.6l6,3.976a2.008,2.008,0,0,0,2.218,0l6-3.976a1.982,1.982,0,0,0,0-3.309l-6-3.976a2.008,2.008,0,0,0-2.218,0l-6,3.976A1.982,1.982,0,0,0,640.891,551.6ZM648,545.964l6,3.977-6,3.976-6-3.976Zm6.448,7.657-0.448.3-6,3.976-6-3.976-0.448-.3a0.995,0.995,0,1,0-1.106,1.654l0.954,0.63,5.49,3.638a2.013,2.013,0,0,0,2.22,0L654,556.3l1.554-1.027a0.99,0.99,0,0,0,.446-0.827h0A1,1,0,0,0,654.448,553.621Z" transform="translate(-640 -543.969)"/>
</svg>
