<svg xmlns="http://www.w3.org/2000/svg" width="16" height="16" viewBox="0 0 16 16">
  <metadata><?xpacket begin="﻿" id="W5M0MpCehiHzreSzNTczkc9d"?>
<x:xmpmeta xmlns:x="adobe:ns:meta/" x:xmptk="Adobe XMP Core 5.6-c138 79.159824, 2016/09/14-01:09:01        ">
   <rdf:RDF xmlns:rdf="http://www.w3.org/1999/02/22-rdf-syntax-ns#">
      <rdf:Description rdf:about=""/>
   </rdf:RDF>
</x:xmpmeta>
                                                                                                    
                                                                                                    
                                                                                                    
                                                                                                    
                                                                                                    
                                                                                                    
                                                                                                    
                                                                                                    
                                                                                                    
                                                                                                    
                                                                                                    
                                                                                                    
                                                                                                    
                                                                                                    
                                                                                                    
                                                                                                    
                                                                                                    
                                                                                                    
                                                                                                    
                                                                                                    
                           
<?xpacket end="w"?></metadata>
<defs>
    <style>
      .cls-1 {
        fill-rule: evenodd;
      }
    </style>
  </defs>
  <path id="layers_3" class="cls-1" d="M718,549v9H706v-9h12m0-2H706a2,2,0,0,0-2,2v9a2,2,0,0,0,2,2h12a2,2,0,0,0,2-2v-9a2,2,0,0,0-2-2h0Zm-3,8h-6a1,1,0,0,1-1-1v-2a1,1,0,0,1,2,0v1h4v-1a1,1,0,0,1,2,0v2A1,1,0,0,1,715,555Zm1-9h-8a1,1,0,0,1-1-1h0a1,1,0,0,1,1-1h8a1,1,0,0,1,1,1h0A1,1,0,0,1,716,546Z" transform="translate(-704 -544)"/>
</svg>
