<svg xmlns="http://www.w3.org/2000/svg" width="15.812" height="16" viewBox="0 0 15.812 16">
  <metadata><?xpacket begin="﻿" id="W5M0MpCehiHzreSzNTczkc9d"?>
<x:xmpmeta xmlns:x="adobe:ns:meta/" x:xmptk="Adobe XMP Core 5.6-c138 79.159824, 2016/09/14-01:09:01        ">
   <rdf:RDF xmlns:rdf="http://www.w3.org/1999/02/22-rdf-syntax-ns#">
      <rdf:Description rdf:about=""/>
   </rdf:RDF>
</x:xmpmeta>
                                                                                                    
                                                                                                    
                                                                                                    
                                                                                                    
                                                                                                    
                                                                                                    
                                                                                                    
                                                                                                    
                                                                                                    
                                                                                                    
                                                                                                    
                                                                                                    
                                                                                                    
                                                                                                    
                                                                                                    
                                                                                                    
                                                                                                    
                                                                                                    
                                                                                                    
                                                                                                    
                           
<?xpacket end="w"?></metadata>
<defs>
    <style>
      .cls-1 {
        fill-rule: evenodd;
      }
    </style>
  </defs>
  <path id="layers_2" class="cls-1" d="M685.886,552l-1.978,6H676l-1.978-6h11.868m0-2H674.018a1.971,1.971,0,0,0-1.6.831,2.016,2.016,0,0,0-.272,1.8l1.978,6A1.98,1.98,0,0,0,676,560h7.912a1.98,1.98,0,0,0,1.876-1.368l1.978-6a2.016,2.016,0,0,0-.272-1.8,1.971,1.971,0,0,0-1.6-.831h0Zm0,4h0Zm-0.989-5h-9.89a1,1,0,0,1-.989-1h0a1,1,0,0,1,.989-1h9.89a1,1,0,0,1,.989,1h0A1,1,0,0,1,684.9,549Zm-1.978-3h-5.934a1,1,0,0,1-.989-1h0a1,1,0,0,1,.989-1h5.934a1,1,0,0,1,.989,1h0A1,1,0,0,1,682.919,546Z" transform="translate(-672.063 -544)"/>
</svg>
