<svg xmlns="http://www.w3.org/2000/svg" width="14" height="16" viewBox="0 0 14 16">
  <metadata><?xpacket begin="﻿" id="W5M0MpCehiHzreSzNTczkc9d"?>
<x:xmpmeta xmlns:x="adobe:ns:meta/" x:xmptk="Adobe XMP Core 5.6-c138 79.159824, 2016/09/14-01:09:01        ">
   <rdf:RDF xmlns:rdf="http://www.w3.org/1999/02/22-rdf-syntax-ns#">
      <rdf:Description rdf:about=""/>
   </rdf:RDF>
</x:xmpmeta>
                                                                                                    
                                                                                                    
                                                                                                    
                                                                                                    
                                                                                                    
                                                                                                    
                                                                                                    
                                                                                                    
                                                                                                    
                                                                                                    
                                                                                                    
                                                                                                    
                                                                                                    
                                                                                                    
                                                                                                    
                                                                                                    
                                                                                                    
                                                                                                    
                                                                                                    
                                                                                                    
                           
<?xpacket end="w"?></metadata>
<defs>
    <style>
      .cls-1 {
        fill-rule: evenodd;
      }
    </style>
  </defs>
  <path id="location_2" class="cls-1" d="M104,224a7.008,7.008,0,0,0-7,7c0,6.282,6,8.755,6.257,8.857a2,2,0,0,0,1.486,0C105,239.755,111,237.282,111,231A7.008,7.008,0,0,0,104,224Zm0,14s-5-2-5-7a5,5,0,0,1,10,0C109,236,104,238,104,238Zm0-10a3,3,0,1,0,3,3A3,3,0,0,0,104,228Zm0,4a1,1,0,1,1,1-1A1,1,0,0,1,104,232Z" transform="translate(-97 -224)"/>
</svg>
