<svg xmlns="http://www.w3.org/2000/svg" width="16" height="16" viewBox="0 0 16 16">
  <metadata><?xpacket begin="﻿" id="W5M0MpCehiHzreSzNTczkc9d"?>
<x:xmpmeta xmlns:x="adobe:ns:meta/" x:xmptk="Adobe XMP Core 5.6-c138 79.159824, 2016/09/14-01:09:01        ">
   <rdf:RDF xmlns:rdf="http://www.w3.org/1999/02/22-rdf-syntax-ns#">
      <rdf:Description rdf:about=""/>
   </rdf:RDF>
</x:xmpmeta>
                                                                                                    
                                                                                                    
                                                                                                    
                                                                                                    
                                                                                                    
                                                                                                    
                                                                                                    
                                                                                                    
                                                                                                    
                                                                                                    
                                                                                                    
                                                                                                    
                                                                                                    
                                                                                                    
                                                                                                    
                                                                                                    
                                                                                                    
                                                                                                    
                                                                                                    
                                                                                                    
                           
<?xpacket end="w"?></metadata>
<defs>
    <style>
      .cls-1 {
        fill-rule: evenodd;
      }
    </style>
  </defs>
  <path id="location_4" class="cls-1" d="M396.245,232.49a1.007,1.007,0,0,0-.5,1.952c1.37,0.368,2.25.927,2.25,1.558,0,1.1-2.69,2-6,2s-6-.9-6-2c0-.631.88-1.19,2.25-1.558a1.007,1.007,0,0,0-.5-1.952c-2.147.565-3.755,1.671-3.755,3.51,0,2.95,4.13,4,8,4s8-1.05,8-4C400,234.161,398.392,233.055,396.245,232.49ZM391,231.858V236a1,1,0,0,0,2,0v-4.142A4,4,0,1,0,391,231.858ZM392,226a2,2,0,1,1-2,2A2,2,0,0,1,392,226Z" transform="translate(-384 -224)"/>
</svg>
