<svg xmlns="http://www.w3.org/2000/svg" width="16.156" height="15.844" viewBox="0 0 16.156 15.844">
  <metadata><?xpacket begin="﻿" id="W5M0MpCehiHzreSzNTczkc9d"?>
<x:xmpmeta xmlns:x="adobe:ns:meta/" x:xmptk="Adobe XMP Core 5.6-c138 79.159824, 2016/09/14-01:09:01        ">
   <rdf:RDF xmlns:rdf="http://www.w3.org/1999/02/22-rdf-syntax-ns#">
      <rdf:Description rdf:about=""/>
   </rdf:RDF>
</x:xmpmeta>
                                                                                                    
                                                                                                    
                                                                                                    
                                                                                                    
                                                                                                    
                                                                                                    
                                                                                                    
                                                                                                    
                                                                                                    
                                                                                                    
                                                                                                    
                                                                                                    
                                                                                                    
                                                                                                    
                                                                                                    
                                                                                                    
                                                                                                    
                                                                                                    
                                                                                                    
                                                                                                    
                           
<?xpacket end="w"?></metadata>
<defs>
    <style>
      .cls-1 {
        fill-rule: evenodd;
      }
    </style>
  </defs>
  <path id="location_1_add" class="cls-1" d="M166.807,229.069a1.98,1.98,0,1,0,2.025,1.98A2,2,0,0,0,166.807,229.069Zm8.1,6.931H173.9v-0.991a1.013,1.013,0,0,0-2.025,0V236h-1.013a0.99,0.99,0,1,0,0,1.98h1.013v0.99a1.013,1.013,0,0,0,2.025,0v-0.99h1.013A0.99,0.99,0,1,0,174.909,236Zm-8.1,1.98s-3.89-1.515-4.852-5.218a5.221,5.221,0,0,1,4.75-6.664,5.017,5.017,0,0,1,5.166,4.951,0.978,0.978,0,0,0,.3.7,1.024,1.024,0,0,0,.716.29,1,1,0,0,0,1.013-.99,7.022,7.022,0,0,0-7.424-6.921,7.214,7.214,0,0,0-6.532,8.921c1.094,4.752,5.884,6.673,6.117,6.772a2.085,2.085,0,0,0,.75.139,1.257,1.257,0,0,0,.2-0.02,0.993,0.993,0,0,0,.81-0.97A1,1,0,0,0,166.807,237.98Z" transform="translate(-159.75 -224.125)"/>
</svg>
