<svg xmlns="http://www.w3.org/2000/svg" width="14" height="16" viewBox="0 0 14 16">
  <metadata><?xpacket begin="﻿" id="W5M0MpCehiHzreSzNTczkc9d"?>
<x:xmpmeta xmlns:x="adobe:ns:meta/" x:xmptk="Adobe XMP Core 5.6-c138 79.159824, 2016/09/14-01:09:01        ">
   <rdf:RDF xmlns:rdf="http://www.w3.org/1999/02/22-rdf-syntax-ns#">
      <rdf:Description rdf:about=""/>
   </rdf:RDF>
</x:xmpmeta>
                                                                                                    
                                                                                                    
                                                                                                    
                                                                                                    
                                                                                                    
                                                                                                    
                                                                                                    
                                                                                                    
                                                                                                    
                                                                                                    
                                                                                                    
                                                                                                    
                                                                                                    
                                                                                                    
                                                                                                    
                                                                                                    
                                                                                                    
                                                                                                    
                                                                                                    
                                                                                                    
                           
<?xpacket end="w"?></metadata>
<defs>
    <style>
      .cls-1 {
        fill-rule: evenodd;
      }
    </style>
  </defs>
  <path id="location_3_profile" class="cls-1" d="M296,224a7.008,7.008,0,0,0-7,7c0,6.28,6,8.75,6.26,8.86a2.026,2.026,0,0,0,1.48,0c0.26-.11,6.26-2.58,6.26-8.86A7.008,7.008,0,0,0,296,224Zm0,14s-5-2-5-7a5,5,0,0,1,10,0C301,236,296,238,296,238Zm2-8a2,2,0,1,1-2-2A2.006,2.006,0,0,1,298,230Zm1,4s0,1-3,1-3-1-3-1,0-2,3-2S299,234,299,234Z" transform="translate(-289 -224)"/>
</svg>
