<svg xmlns="http://www.w3.org/2000/svg" width="16.156" height="15.844" viewBox="0 0 16.156 15.844">
  <metadata><?xpacket begin="﻿" id="W5M0MpCehiHzreSzNTczkc9d"?>
<x:xmpmeta xmlns:x="adobe:ns:meta/" x:xmptk="Adobe XMP Core 5.6-c138 79.159824, 2016/09/14-01:09:01        ">
   <rdf:RDF xmlns:rdf="http://www.w3.org/1999/02/22-rdf-syntax-ns#">
      <rdf:Description rdf:about=""/>
   </rdf:RDF>
</x:xmpmeta>
                                                                                                    
                                                                                                    
                                                                                                    
                                                                                                    
                                                                                                    
                                                                                                    
                                                                                                    
                                                                                                    
                                                                                                    
                                                                                                    
                                                                                                    
                                                                                                    
                                                                                                    
                                                                                                    
                                                                                                    
                                                                                                    
                                                                                                    
                                                                                                    
                                                                                                    
                                                                                                    
                           
<?xpacket end="w"?></metadata>
<defs>
    <style>
      .cls-1 {
        fill-rule: evenodd;
      }
    </style>
  </defs>
  <path id="location_1_minus" class="cls-1" d="M206.909,236h-4.051a0.991,0.991,0,1,0,0,1.981h4.051A0.991,0.991,0,1,0,206.909,236Zm-8.1-6.93a1.98,1.98,0,1,0,2.025,1.98A2,2,0,0,0,198.807,229.069Zm0,8.911s-3.89-1.515-4.852-5.218a5.221,5.221,0,0,1,4.75-6.664,5.017,5.017,0,0,1,5.166,4.951,6.8,6.8,0,0,1-.223,1.752,0.981,0.981,0,0,0,.982,1.218,1,1,0,0,0,.983-0.752,8.492,8.492,0,0,0,.283-2.218,7.022,7.022,0,0,0-7.424-6.921,7.214,7.214,0,0,0-6.532,8.921c1.094,4.752,5.884,6.673,6.117,6.772a2.085,2.085,0,0,0,.75.139,1.268,1.268,0,0,0,.2-0.02h0.01A0.989,0.989,0,0,0,198.807,237.98Z" transform="translate(-191.75 -224.125)"/>
</svg>
