<svg xmlns="http://www.w3.org/2000/svg" width="14" height="16" viewBox="0 0 14 16">
  <metadata><?xpacket begin="﻿" id="W5M0MpCehiHzreSzNTczkc9d"?>
<x:xmpmeta xmlns:x="adobe:ns:meta/" x:xmptk="Adobe XMP Core 5.6-c138 79.159824, 2016/09/14-01:09:01        ">
   <rdf:RDF xmlns:rdf="http://www.w3.org/1999/02/22-rdf-syntax-ns#">
      <rdf:Description rdf:about=""/>
   </rdf:RDF>
</x:xmpmeta>
                                                                                                    
                                                                                                    
                                                                                                    
                                                                                                    
                                                                                                    
                                                                                                    
                                                                                                    
                                                                                                    
                                                                                                    
                                                                                                    
                                                                                                    
                                                                                                    
                                                                                                    
                                                                                                    
                                                                                                    
                                                                                                    
                                                                                                    
                                                                                                    
                                                                                                    
                                                                                                    
                           
<?xpacket end="w"?></metadata>
<defs>
    <style>
      .cls-1 {
        fill-rule: evenodd;
      }
    </style>
  </defs>
  <path id="location_3_minus" class="cls-1" d="M264,224a7.008,7.008,0,0,0-7,7c0,6.28,6,8.75,6.26,8.86a2.026,2.026,0,0,0,1.48,0c0.26-.11,6.26-2.58,6.26-8.86A7.008,7.008,0,0,0,264,224Zm0,14s-5-2-5-7a5,5,0,0,1,10,0C269,236,264,238,264,238Zm2-6h-4a1,1,0,0,1-1-1h0a1,1,0,0,1,1-1h4a1,1,0,0,1,1,1h0A1,1,0,0,1,266,232Z" transform="translate(-257 -224)"/>
</svg>
