<svg xmlns="http://www.w3.org/2000/svg" width="14" height="15.844" viewBox="0 0 14 15.844">
  <metadata><?xpacket begin="﻿" id="W5M0MpCehiHzreSzNTczkc9d"?>
<x:xmpmeta xmlns:x="adobe:ns:meta/" x:xmptk="Adobe XMP Core 5.6-c138 79.159824, 2016/09/14-01:09:01        ">
   <rdf:RDF xmlns:rdf="http://www.w3.org/1999/02/22-rdf-syntax-ns#">
      <rdf:Description rdf:about=""/>
   </rdf:RDF>
</x:xmpmeta>
                                                                                                    
                                                                                                    
                                                                                                    
                                                                                                    
                                                                                                    
                                                                                                    
                                                                                                    
                                                                                                    
                                                                                                    
                                                                                                    
                                                                                                    
                                                                                                    
                                                                                                    
                                                                                                    
                                                                                                    
                                                                                                    
                                                                                                    
                                                                                                    
                                                                                                    
                                                                                                    
                           
<?xpacket end="w"?></metadata>
<defs>
    <style>
      .cls-1 {
        fill-rule: evenodd;
      }
    </style>
  </defs>
  <path id="lock_1" class="cls-1" d="M301,133.064h-7v-0.893a2.055,2.055,0,0,1,1.72-2.063,2,2,0,0,1,2.178,1.344,0.963,0.963,0,0,0,.925.62,0.994,0.994,0,0,0,.957-1.3,4,4,0,0,0-4.137-2.651A4.09,4.09,0,0,0,292,132.239v0.825h-1a1.992,1.992,0,0,0-2,1.984v6.942a1.992,1.992,0,0,0,2,1.984h10a1.992,1.992,0,0,0,2-1.984v-6.942A1.992,1.992,0,0,0,301,133.064Zm0,8.926H291v-6.942h10v6.942Zm-5.983-3.061c0,0.03-.017.055-0.017,0.086V141h2v-1.983a0.82,0.82,0,0,0-.018-0.086,1.482,1.482,0,0,0-.482-2.89h-1A1.483,1.483,0,0,0,295.017,138.929Z" transform="translate(-289 -128.125)"/>
</svg>
