<svg xmlns="http://www.w3.org/2000/svg" width="16" height="16" viewBox="0 0 16 16">
  <metadata><?xpacket begin="﻿" id="W5M0MpCehiHzreSzNTczkc9d"?>
<x:xmpmeta xmlns:x="adobe:ns:meta/" x:xmptk="Adobe XMP Core 5.6-c138 79.159824, 2016/09/14-01:09:01        ">
   <rdf:RDF xmlns:rdf="http://www.w3.org/1999/02/22-rdf-syntax-ns#">
      <rdf:Description rdf:about=""/>
   </rdf:RDF>
</x:xmpmeta>
                                                                                                    
                                                                                                    
                                                                                                    
                                                                                                    
                                                                                                    
                                                                                                    
                                                                                                    
                                                                                                    
                                                                                                    
                                                                                                    
                                                                                                    
                                                                                                    
                                                                                                    
                                                                                                    
                                                                                                    
                                                                                                    
                                                                                                    
                                                                                                    
                                                                                                    
                                                                                                    
                           
<?xpacket end="w"?></metadata>
<defs>
    <style>
      .cls-1 {
        fill-rule: evenodd;
      }
    </style>
  </defs>
  <path id="lock_1_add" class="cls-1" d="M231.14,557.939a6,6,0,1,1,6.788-6.8,1,1,0,0,0,1.979-.267,7.993,7.993,0,1,0-9.033,9.051A1,1,0,0,0,231.14,557.939ZM232,549a2,2,0,0,0-1,3.732V555h2v-2.271a2.131,2.131,0,0,0,.729-0.73A2,2,0,0,0,232,549Zm6.99,7h-1v-1a1.01,1.01,0,0,0-.419-0.81,0.959,0.959,0,0,0-.579-0.19,1,1,0,0,0-1,1v1h-1a1,1,0,0,0-1,1,0.96,0.96,0,0,0,.19.58,1.006,1.006,0,0,0,.809.42h1v1a1,1,0,1,0,2,0v-1h1A1,1,0,0,0,238.988,556Z" transform="translate(-224 -544)"/>
</svg>
