<svg xmlns="http://www.w3.org/2000/svg" width="14" height="16" viewBox="0 0 14 16">
  <metadata><?xpacket begin="﻿" id="W5M0MpCehiHzreSzNTczkc9d"?>
<x:xmpmeta xmlns:x="adobe:ns:meta/" x:xmptk="Adobe XMP Core 5.6-c138 79.159824, 2016/09/14-01:09:01        ">
   <rdf:RDF xmlns:rdf="http://www.w3.org/1999/02/22-rdf-syntax-ns#">
      <rdf:Description rdf:about=""/>
   </rdf:RDF>
</x:xmpmeta>
                                                                                                    
                                                                                                    
                                                                                                    
                                                                                                    
                                                                                                    
                                                                                                    
                                                                                                    
                                                                                                    
                                                                                                    
                                                                                                    
                                                                                                    
                                                                                                    
                                                                                                    
                                                                                                    
                                                                                                    
                                                                                                    
                                                                                                    
                                                                                                    
                                                                                                    
                                                                                                    
                           
<?xpacket end="w"?></metadata>
<defs>
    <style>
      .cls-1 {
        fill-rule: evenodd;
      }
    </style>
  </defs>
  <path id="lock_2" class="cls-1" d="M333,133h-1v-1a4,4,0,0,0-8,0v1h-1a2,2,0,0,0-2,2v7a2,2,0,0,0,2,2h10a2,2,0,0,0,2-2v-7A2,2,0,0,0,333,133Zm-7-1a2,2,0,0,1,4,0v1h-4v-1Zm7,10H323v-7h10v7Zm-5.983-3.086c0,0.029-.017.055-0.017,0.086v2h2v-2a0.77,0.77,0,0,0-.018-0.086A1.5,1.5,0,0,0,328.5,136h-1A1.5,1.5,0,0,0,327.017,138.914Z" transform="translate(-321 -128)"/>
</svg>
