<svg xmlns="http://www.w3.org/2000/svg" width="16" height="16" viewBox="0 0 16 16">
  <metadata><?xpacket begin="﻿" id="W5M0MpCehiHzreSzNTczkc9d"?>
<x:xmpmeta xmlns:x="adobe:ns:meta/" x:xmptk="Adobe XMP Core 5.6-c138 79.159824, 2016/09/14-01:09:01        ">
   <rdf:RDF xmlns:rdf="http://www.w3.org/1999/02/22-rdf-syntax-ns#">
      <rdf:Description rdf:about=""/>
   </rdf:RDF>
</x:xmpmeta>
                                                                                                    
                                                                                                    
                                                                                                    
                                                                                                    
                                                                                                    
                                                                                                    
                                                                                                    
                                                                                                    
                                                                                                    
                                                                                                    
                                                                                                    
                                                                                                    
                                                                                                    
                                                                                                    
                                                                                                    
                                                                                                    
                                                                                                    
                                                                                                    
                                                                                                    
                                                                                                    
                           
<?xpacket end="w"?></metadata>
<defs>
    <style>
      .cls-1 {
        fill-rule: evenodd;
      }
    </style>
  </defs>
  <path id="lock_1_minus" class="cls-1" d="M199.14,558.009a6.02,6.02,0,1,1,6.787-5.087,0.993,0.993,0,0,0,.985,1.132,1.011,1.011,0,0,0,1-.875,8.135,8.135,0,0,0,.079-1.133A8,8,0,1,0,198.874,560,1,1,0,0,0,199.14,558.009ZM200,549.034a2,2,0,0,0-1,3.738v2.286h2v-2.286A2,2,0,0,0,200,549.034Zm6.992,7.028h-4a1,1,0,0,0-1,1,0.969,0.969,0,0,0,.19.583,1,1,0,0,0,.809.422h4A1,1,0,0,0,206.99,556.062Z" transform="translate(-192 -544)"/>
</svg>
