<svg xmlns="http://www.w3.org/2000/svg" width="16" height="16" viewBox="0 0 16 16">
  <metadata><?xpacket begin="﻿" id="W5M0MpCehiHzreSzNTczkc9d"?>
<x:xmpmeta xmlns:x="adobe:ns:meta/" x:xmptk="Adobe XMP Core 5.6-c138 79.159824, 2016/09/14-01:09:01        ">
   <rdf:RDF xmlns:rdf="http://www.w3.org/1999/02/22-rdf-syntax-ns#">
      <rdf:Description rdf:about=""/>
   </rdf:RDF>
</x:xmpmeta>
                                                                                                    
                                                                                                    
                                                                                                    
                                                                                                    
                                                                                                    
                                                                                                    
                                                                                                    
                                                                                                    
                                                                                                    
                                                                                                    
                                                                                                    
                                                                                                    
                                                                                                    
                                                                                                    
                                                                                                    
                                                                                                    
                                                                                                    
                                                                                                    
                                                                                                    
                                                                                                    
                           
<?xpacket end="w"?></metadata>
<defs>
    <style>
      .cls-1 {
        fill-rule: evenodd;
      }
    </style>
  </defs>
  <path id="lock_1_exp" class="cls-1" d="M264.044,544.015a7.993,7.993,0,1,0,1.194,15.9,0.943,0.943,0,0,0,.815-0.928v-0.134a0.949,0.949,0,0,0-1.122-.913,5.76,5.76,0,0,1-.674.062,5.994,5.994,0,1,1,5.755-6.841,0.993,0.993,0,0,0,.986.85,1.006,1.006,0,0,0,1-1.135A8.038,8.038,0,0,0,264.044,544.015Zm1,10.99v-2.276a2.01,2.01,0,1,0-2.01,0v2.276h2.01Zm4.018-1a1,1,0,0,0-1,1v1a1,1,0,0,0,2.009,0v-1A1,1,0,0,0,269.067,554.005Zm0,4a1,1,0,1,0,1,1A1,1,0,0,0,269.067,558Z" transform="translate(-256 -544)"/>
</svg>
