<svg xmlns="http://www.w3.org/2000/svg" width="16" height="14" viewBox="0 0 16 14">
  <metadata><?xpacket begin="﻿" id="W5M0MpCehiHzreSzNTczkc9d"?>
<x:xmpmeta xmlns:x="adobe:ns:meta/" x:xmptk="Adobe XMP Core 5.6-c138 79.159824, 2016/09/14-01:09:01        ">
   <rdf:RDF xmlns:rdf="http://www.w3.org/1999/02/22-rdf-syntax-ns#">
      <rdf:Description rdf:about=""/>
   </rdf:RDF>
</x:xmpmeta>
                                                                                                    
                                                                                                    
                                                                                                    
                                                                                                    
                                                                                                    
                                                                                                    
                                                                                                    
                                                                                                    
                                                                                                    
                                                                                                    
                                                                                                    
                                                                                                    
                                                                                                    
                                                                                                    
                                                                                                    
                                                                                                    
                                                                                                    
                                                                                                    
                                                                                                    
                                                                                                    
                           
<?xpacket end="w"?></metadata>
<defs>
    <style>
      .cls-1 {
        fill-rule: evenodd;
      }
    </style>
  </defs>
  <path id="love_1" class="cls-1" d="M331,291a3,3,0,0,1,3,3c0,3.73-6,7-6,7s-6-3.27-6-7a3,3,0,0,1,6,0,3,3,0,0,1,3-3m0-2a4.973,4.973,0,0,0-3,1,5,5,0,0,0-8,4c0,4.78,6.322,8.363,7.043,8.756a2,2,0,0,0,1.914,0C329.678,302.363,336,298.78,336,294a5.006,5.006,0,0,0-5-5h0Z" transform="translate(-320 -289)"/>
</svg>
