<svg xmlns="http://www.w3.org/2000/svg" width="15.844" height="15.906" viewBox="0 0 15.844 15.906">
  <metadata><?xpacket begin="﻿" id="W5M0MpCehiHzreSzNTczkc9d"?>
<x:xmpmeta xmlns:x="adobe:ns:meta/" x:xmptk="Adobe XMP Core 5.6-c138 79.159824, 2016/09/14-01:09:01        ">
   <rdf:RDF xmlns:rdf="http://www.w3.org/1999/02/22-rdf-syntax-ns#">
      <rdf:Description rdf:about=""/>
   </rdf:RDF>
</x:xmpmeta>
                                                                                                    
                                                                                                    
                                                                                                    
                                                                                                    
                                                                                                    
                                                                                                    
                                                                                                    
                                                                                                    
                                                                                                    
                                                                                                    
                                                                                                    
                                                                                                    
                                                                                                    
                                                                                                    
                                                                                                    
                                                                                                    
                                                                                                    
                                                                                                    
                                                                                                    
                                                                                                    
                           
<?xpacket end="w"?></metadata>
<defs>
    <style>
      .cls-1 {
        fill-rule: evenodd;
      }
    </style>
  </defs>
  <path id="love_1_no" class="cls-1" d="M362.924,291.066a2.972,2.972,0,0,1,2.968,2.984,4.9,4.9,0,0,1-.99,2.745l1.405,1.413a7.006,7.006,0,0,0,1.563-4.158,4.941,4.941,0,0,0-7.914-3.978,4.949,4.949,0,0,0-2.72-.985l3.244,3.262A2.971,2.971,0,0,1,362.924,291.066ZM365,299.7l0,0-1.394-1.4,0,0-7.144-7.183h0l-1.563-1.571,0,0-1.166-1.173a0.986,0.986,0,0,0-1.4,0,1,1,0,0,0,0,1.406l0.96,0.965,0,0a5.175,5.175,0,0,0-.584.806,6.563,6.563,0,0,0-.435.974,5.134,5.134,0,0,0-.228,1.522c0,4.754,6.252,8.315,6.964,8.713a2.008,2.008,0,0,0,1.9,0c0.138-.08.485-0.278,0.959-0.587a10.072,10.072,0,0,0,.841-0.567,9.881,9.881,0,0,0,.792-0.6l0,0,2.681,2.695a0.985,0.985,0,0,0,1.4,0,1,1,0,0,0,0-1.406Zm-2.9-.1c-0.287.209-.564,0.408-0.811,0.577-0.337.229-.623,0.418-0.851,0.557-0.3.179-.475,0.279-0.475,0.279s-5.678-3.114-5.926-6.714a2.3,2.3,0,0,1-.009-0.249,2.76,2.76,0,0,1,.178-0.994,2.812,2.812,0,0,1,.494-0.895l0,0,7.4,7.44Z" transform="translate(-352.031 -288.094)"/>
</svg>
