<svg xmlns="http://www.w3.org/2000/svg" width="16" height="16" viewBox="0 0 16 16">
  <metadata><?xpacket begin="﻿" id="W5M0MpCehiHzreSzNTczkc9d"?>
<x:xmpmeta xmlns:x="adobe:ns:meta/" x:xmptk="Adobe XMP Core 5.6-c138 79.159824, 2016/09/14-01:09:01        ">
   <rdf:RDF xmlns:rdf="http://www.w3.org/1999/02/22-rdf-syntax-ns#">
      <rdf:Description rdf:about=""/>
   </rdf:RDF>
</x:xmpmeta>
                                                                                                    
                                                                                                    
                                                                                                    
                                                                                                    
                                                                                                    
                                                                                                    
                                                                                                    
                                                                                                    
                                                                                                    
                                                                                                    
                                                                                                    
                                                                                                    
                                                                                                    
                                                                                                    
                                                                                                    
                                                                                                    
                                                                                                    
                                                                                                    
                                                                                                    
                                                                                                    
                           
<?xpacket end="w"?></metadata>
<defs>
    <style>
      .cls-1 {
        fill-rule: evenodd;
      }
    </style>
  </defs>
  <path id="lucky_7" class="cls-1" d="M335.409,578.6l-2-2a2,2,0,0,0-2.794-.034A7.946,7.946,0,0,0,327.7,576a6.577,6.577,0,0,0-2.452.449,6.022,6.022,0,0,0-2.794-.438H322a2,2,0,0,0-2,2v5a2,2,0,0,0,2,2h2a2.015,2.015,0,0,0,.67-0.115A12.992,12.992,0,0,0,323,589.859,2,2,0,0,0,325,592h4a2,2,0,0,0,1.986-1.767,13.967,13.967,0,0,1,4.395-8.782A2,2,0,0,0,335.409,578.6ZM329,590h-4c0.248-3.469,4-8,4-8a3.78,3.78,0,0,0-2.133-.714A3.213,3.213,0,0,0,324,583.006h-2v-5h0.452c1.625,0,2.075.038,2.547,1A3.386,3.386,0,0,1,327.7,578a5.936,5.936,0,0,1,3.3,1.011l1-1,2,2A16.013,16.013,0,0,0,329,590Z" transform="translate(-320 -576)"/>
</svg>
