<svg xmlns="http://www.w3.org/2000/svg" width="16" height="16" viewBox="0 0 16 16">
  <metadata><?xpacket begin="﻿" id="W5M0MpCehiHzreSzNTczkc9d"?>
<x:xmpmeta xmlns:x="adobe:ns:meta/" x:xmptk="Adobe XMP Core 5.6-c138 79.159824, 2016/09/14-01:09:01        ">
   <rdf:RDF xmlns:rdf="http://www.w3.org/1999/02/22-rdf-syntax-ns#">
      <rdf:Description rdf:about=""/>
   </rdf:RDF>
</x:xmpmeta>
                                                                                                    
                                                                                                    
                                                                                                    
                                                                                                    
                                                                                                    
                                                                                                    
                                                                                                    
                                                                                                    
                                                                                                    
                                                                                                    
                                                                                                    
                                                                                                    
                                                                                                    
                                                                                                    
                                                                                                    
                                                                                                    
                                                                                                    
                                                                                                    
                                                                                                    
                                                                                                    
                           
<?xpacket end="w"?></metadata>
<defs>
    <style>
      .cls-1 {
        fill-rule: evenodd;
      }
    </style>
  </defs>
  <path id="magnet" class="cls-1" d="M750,320h-3a2.006,2.006,0,0,0-2,2v6a1,1,0,0,1-2,0v-6a2.006,2.006,0,0,0-2-2h-3a2.006,2.006,0,0,0-2,2v6a8,8,0,0,0,16,0v-6A2.006,2.006,0,0,0,750,320Zm-9,2v2h-3v-2h3Zm9,6a6,6,0,0,1-6,6,6.009,6.009,0,0,1-6-6v-2h3v2a3,3,0,0,0,6,0v-2h3v2Zm0-4h-3v-2h3v2Z" transform="translate(-736 -320)"/>
</svg>
