<svg xmlns="http://www.w3.org/2000/svg" width="16.156" height="15.562" viewBox="0 0 16.156 15.562">
  <metadata><?xpacket begin="﻿" id="W5M0MpCehiHzreSzNTczkc9d"?>
<x:xmpmeta xmlns:x="adobe:ns:meta/" x:xmptk="Adobe XMP Core 5.6-c138 79.159824, 2016/09/14-01:09:01        ">
   <rdf:RDF xmlns:rdf="http://www.w3.org/1999/02/22-rdf-syntax-ns#">
      <rdf:Description rdf:about=""/>
   </rdf:RDF>
</x:xmpmeta>
                                                                                                    
                                                                                                    
                                                                                                    
                                                                                                    
                                                                                                    
                                                                                                    
                                                                                                    
                                                                                                    
                                                                                                    
                                                                                                    
                                                                                                    
                                                                                                    
                                                                                                    
                                                                                                    
                                                                                                    
                                                                                                    
                                                                                                    
                                                                                                    
                                                                                                    
                                                                                                    
                           
<?xpacket end="w"?></metadata>
<defs>
    <style>
      .cls-1 {
        fill-rule: evenodd;
      }
    </style>
  </defs>
  <path id="mail_tag" class="cls-1" d="M111.948,519.569a7.566,7.566,0,0,0-1.6-4.352,8.222,8.222,0,0,0-8.12-2.963,7.77,7.77,0,0,0,1.662,15.414,8.194,8.194,0,0,0,3.535-.792,0.948,0.948,0,0,0,.23-1.547h0a1.007,1.007,0,0,0-1.116-.2,6.25,6.25,0,0,1-3.554.527,5.832,5.832,0,0,1,.905-11.619,6.132,6.132,0,0,1,3.633,1.178,5.8,5.8,0,0,1,1.614,1.752,5.625,5.625,0,0,1,.808,2.911,1.01,1.01,0,0,1-2.019,0,3.895,3.895,0,0,0-2.411-3.553,4.143,4.143,0,0,0-2.827-.172,3.909,3.909,0,1,0,2.827,7.278,3.8,3.8,0,0,0,1.6-1.226,3.081,3.081,0,0,0,1.817.593,1.43,1.43,0,0,0,.2-0.009,3,3,0,0,0,2.816-2.6c0-.1.01-0.205,0.01-0.312S111.948,519.666,111.948,519.569Zm-7.659,2.219a1.846,1.846,0,0,1-.4.039,1.948,1.948,0,1,1,0-3.894,1.846,1.846,0,0,1,.4.039A1.935,1.935,0,0,1,104.289,521.788Z" transform="translate(-95.813 -512.094)"/>
</svg>
