<svg xmlns="http://www.w3.org/2000/svg" width="16" height="16" viewBox="0 0 16 16">
  <metadata><?xpacket begin="﻿" id="W5M0MpCehiHzreSzNTczkc9d"?>
<x:xmpmeta xmlns:x="adobe:ns:meta/" x:xmptk="Adobe XMP Core 5.6-c138 79.159824, 2016/09/14-01:09:01        ">
   <rdf:RDF xmlns:rdf="http://www.w3.org/1999/02/22-rdf-syntax-ns#">
      <rdf:Description rdf:about=""/>
   </rdf:RDF>
</x:xmpmeta>
                                                                                                    
                                                                                                    
                                                                                                    
                                                                                                    
                                                                                                    
                                                                                                    
                                                                                                    
                                                                                                    
                                                                                                    
                                                                                                    
                                                                                                    
                                                                                                    
                                                                                                    
                                                                                                    
                                                                                                    
                                                                                                    
                                                                                                    
                                                                                                    
                                                                                                    
                                                                                                    
                           
<?xpacket end="w"?></metadata>
<defs>
    <style>
      .cls-1 {
        fill-rule: evenodd;
      }
    </style>
  </defs>
  <path id="mail_1" class="cls-1" d="M430,416H418a2.006,2.006,0,0,0-2,2v12a2.006,2.006,0,0,0,2,2h12a2.006,2.006,0,0,0,2-2V418A2.006,2.006,0,0,0,430,416Zm0,14H418v-4h2l1,2h6l1-2h2v4Zm-3-5.73a1.946,1.946,0,0,0-.79.84l-0.45.89h-3.52l-0.45-.89a1.946,1.946,0,0,0-.79-0.84V421h6v3.27Zm2-.27v-4a1,1,0,0,0-1-1h-8a1,1,0,0,0-1,1v4h-1v-6h12v6h-1Z" transform="translate(-416 -416)"/>
</svg>
