<svg xmlns="http://www.w3.org/2000/svg" width="16" height="15.938" viewBox="0 0 16 15.938">
  <metadata><?xpacket begin="﻿" id="W5M0MpCehiHzreSzNTczkc9d"?>
<x:xmpmeta xmlns:x="adobe:ns:meta/" x:xmptk="Adobe XMP Core 5.6-c138 79.159824, 2016/09/14-01:09:01        ">
   <rdf:RDF xmlns:rdf="http://www.w3.org/1999/02/22-rdf-syntax-ns#">
      <rdf:Description rdf:about=""/>
   </rdf:RDF>
</x:xmpmeta>
                                                                                                    
                                                                                                    
                                                                                                    
                                                                                                    
                                                                                                    
                                                                                                    
                                                                                                    
                                                                                                    
                                                                                                    
                                                                                                    
                                                                                                    
                                                                                                    
                                                                                                    
                                                                                                    
                                                                                                    
                                                                                                    
                                                                                                    
                                                                                                    
                                                                                                    
                                                                                                    
                           
<?xpacket end="w"?></metadata>
<defs>
    <style>
      .cls-1 {
        fill-rule: evenodd;
      }
    </style>
  </defs>
  <path id="map" class="cls-1" d="M431.53,224.185a1.012,1.012,0,0,0-.98-0.04l-3.63,1.8-5.528-1.831-0.007,0-0.065-.028-0.12-.03a1.231,1.231,0,0,0-.2-0.02,0.908,0.908,0,0,0-.23.03c-0.027.007-.048,0.023-0.074,0.032a0.993,0.993,0,0,0-.161.067c-0.03.016-.066,0.023-0.1,0.041l-3.89,1.931a0.972,0.972,0,0,0-.55.886v11.947a0.992,0.992,0,0,0,.47.846,1.014,1.014,0,0,0,.53.15,1.03,1.03,0,0,0,.45-0.11l3.63-1.8,5.6,1.862a1.027,1.027,0,0,0,.77-0.06l4-1.991a0.983,0.983,0,0,0,.55-0.886V225.031A0.993,0.993,0,0,0,431.53,224.185ZM418,227.639l2-1v9.717l-2,1v-9.717Zm4-1.224,4,1.324v9.846l-4-1.324v-9.846Zm8,9.946-2,1v-9.717l2-1v9.717Z" transform="translate(-416 -224.031)"/>
</svg>
