<svg xmlns="http://www.w3.org/2000/svg" width="16" height="15.969" viewBox="0 0 16 15.969">
  <metadata><?xpacket begin="﻿" id="W5M0MpCehiHzreSzNTczkc9d"?>
<x:xmpmeta xmlns:x="adobe:ns:meta/" x:xmptk="Adobe XMP Core 5.6-c138 79.159824, 2016/09/14-01:09:01        ">
   <rdf:RDF xmlns:rdf="http://www.w3.org/1999/02/22-rdf-syntax-ns#">
      <rdf:Description rdf:about=""/>
   </rdf:RDF>
</x:xmpmeta>
                                                                                                    
                                                                                                    
                                                                                                    
                                                                                                    
                                                                                                    
                                                                                                    
                                                                                                    
                                                                                                    
                                                                                                    
                                                                                                    
                                                                                                    
                                                                                                    
                                                                                                    
                                                                                                    
                                                                                                    
                                                                                                    
                                                                                                    
                                                                                                    
                                                                                                    
                                                                                                    
                           
<?xpacket end="w"?></metadata>
<defs>
    <style>
      .cls-1 {
        fill-rule: evenodd;
      }
    </style>
  </defs>
  <path id="map_add" class="cls-1" d="M463.53,224.193a1.007,1.007,0,0,0-.98-0.04l-3.63,1.805-5.53-1.835h-0.01l-0.06-.03-0.12-.03a1.231,1.231,0,0,0-.2-0.02,0.908,0.908,0,0,0-.23.03,0.488,0.488,0,0,0-.07.03,0.774,0.774,0,0,0-.16.07,1.037,1.037,0,0,0-.1.04l-3.89,1.934a0.975,0.975,0,0,0-.55.888V239a0.994,0.994,0,0,0,.47.847,1.014,1.014,0,0,0,.53.15,1.03,1.03,0,0,0,.45-0.11l3.63-1.805,1.6,0.536a1,1,0,1,0,.636-1.891l-1.318-.44v-9.863l4,1.327v3.271a1,1,0,0,0,1,1h0a1,1,0,0,0,1-1v-3.371l2-1v4.368a1,1,0,0,0,1,1h0a1,1,0,0,0,1-1V225.04A0.994,0.994,0,0,0,463.53,224.193ZM452,236.389l-2,1v-9.733l2-1v9.733Zm11-.379h-1v-1a1,1,0,0,0-2,0v1h-1A1,1,0,1,0,459,238h1v1a1,1,0,0,0,2,0v-1h1A1,1,0,1,0,463,236.01Z" transform="translate(-448 -224.031)"/>
</svg>
