<svg xmlns="http://www.w3.org/2000/svg" width="14" height="16" viewBox="0 0 14 16">
  <metadata><?xpacket begin="﻿" id="W5M0MpCehiHzreSzNTczkc9d"?>
<x:xmpmeta xmlns:x="adobe:ns:meta/" x:xmptk="Adobe XMP Core 5.6-c138 79.159824, 2016/09/14-01:09:01        ">
   <rdf:RDF xmlns:rdf="http://www.w3.org/1999/02/22-rdf-syntax-ns#">
      <rdf:Description rdf:about=""/>
   </rdf:RDF>
</x:xmpmeta>
                                                                                                    
                                                                                                    
                                                                                                    
                                                                                                    
                                                                                                    
                                                                                                    
                                                                                                    
                                                                                                    
                                                                                                    
                                                                                                    
                                                                                                    
                                                                                                    
                                                                                                    
                                                                                                    
                                                                                                    
                                                                                                    
                                                                                                    
                                                                                                    
                                                                                                    
                                                                                                    
                           
<?xpacket end="w"?></metadata>
<defs>
    <style>
      .cls-1 {
        fill-rule: evenodd;
      }
    </style>
  </defs>
  <path id="math_2" class="cls-1" d="M717,576H707a2,2,0,0,0-2,2v12a2,2,0,0,0,2,2h10a2,2,0,0,0,2-2V578A2,2,0,0,0,717,576Zm0,14H707V578h10v12Zm-8-8h6a1,1,0,0,0,0-2h-6A1,1,0,0,0,709,582Zm0,4a1,1,0,1,0-1-1A1,1,0,0,0,709,586Zm0,3a1,1,0,1,0-1-1A1,1,0,0,0,709,589Zm3-5a1,1,0,1,0,1,1A1,1,0,0,0,712,584Zm0,3a1,1,0,1,0,1,1A1,1,0,0,0,712,587Zm3-3a1,1,0,1,0,1,1A1,1,0,0,0,715,584Zm0,3a1,1,0,1,0,1,1A1,1,0,0,0,715,587Z" transform="translate(-705 -576)"/>
</svg>
