<svg xmlns="http://www.w3.org/2000/svg" width="16" height="16" viewBox="0 0 16 16">
  <metadata><?xpacket begin="﻿" id="W5M0MpCehiHzreSzNTczkc9d"?>
<x:xmpmeta xmlns:x="adobe:ns:meta/" x:xmptk="Adobe XMP Core 5.6-c138 79.159824, 2016/09/14-01:09:01        ">
   <rdf:RDF xmlns:rdf="http://www.w3.org/1999/02/22-rdf-syntax-ns#">
      <rdf:Description rdf:about=""/>
   </rdf:RDF>
</x:xmpmeta>
                                                                                                    
                                                                                                    
                                                                                                    
                                                                                                    
                                                                                                    
                                                                                                    
                                                                                                    
                                                                                                    
                                                                                                    
                                                                                                    
                                                                                                    
                                                                                                    
                                                                                                    
                                                                                                    
                                                                                                    
                                                                                                    
                                                                                                    
                                                                                                    
                                                                                                    
                                                                                                    
                           
<?xpacket end="w"?></metadata>
<defs>
    <style>
      .cls-1 {
        fill-rule: evenodd;
      }
    </style>
  </defs>
  <path id="math_3" class="cls-1" d="M750,576H738a2,2,0,0,0-2,2v12a2,2,0,0,0,2,2h12a2,2,0,0,0,2-2V578A2,2,0,0,0,750,576Zm0,14H738V578h12v12Zm-9-8h6a1,1,0,0,0,0-2h-6A1,1,0,0,0,741,582Zm0,4a1,1,0,1,0-1-1A1,1,0,0,0,741,586Zm0,3a1,1,0,1,0-1-1A1,1,0,0,0,741,589Zm3-5a1,1,0,1,0,1,1A1,1,0,0,0,744,584Zm0,3a1,1,0,1,0,1,1A1,1,0,0,0,744,587Zm3-3a1,1,0,1,0,1,1A1,1,0,0,0,747,584Zm0,3a1,1,0,1,0,1,1A1,1,0,0,0,747,587Z" transform="translate(-736 -576)"/>
</svg>
