<svg xmlns="http://www.w3.org/2000/svg" width="15.906" height="16" viewBox="0 0 15.906 16">
  <metadata><?xpacket begin="﻿" id="W5M0MpCehiHzreSzNTczkc9d"?>
<x:xmpmeta xmlns:x="adobe:ns:meta/" x:xmptk="Adobe XMP Core 5.6-c138 79.159824, 2016/09/14-01:09:01        ">
   <rdf:RDF xmlns:rdf="http://www.w3.org/1999/02/22-rdf-syntax-ns#">
      <rdf:Description rdf:about=""/>
   </rdf:RDF>
</x:xmpmeta>
                                                                                                    
                                                                                                    
                                                                                                    
                                                                                                    
                                                                                                    
                                                                                                    
                                                                                                    
                                                                                                    
                                                                                                    
                                                                                                    
                                                                                                    
                                                                                                    
                                                                                                    
                                                                                                    
                                                                                                    
                                                                                                    
                                                                                                    
                                                                                                    
                                                                                                    
                                                                                                    
                           
<?xpacket end="w"?></metadata>
<defs>
    <style>
      .cls-1 {
        fill-rule: evenodd;
      }
    </style>
  </defs>
  <path id="math_1" class="cls-1" d="M687,583h-5.968v-6a0.995,0.995,0,1,0-1.989,0v6h-5.967a1,1,0,0,0,0,2h5.967v6a0.995,0.995,0,1,0,1.989,0v-6H687A1,1,0,0,0,687,583Zm-13.924-3h0.994v1a0.995,0.995,0,1,0,1.989,0v-1h1a1,1,0,0,0,0-2h-1v-1a0.995,0.995,0,1,0-1.989,0v1h-0.994A1,1,0,0,0,673.075,580Zm9.946,0H687a1,1,0,0,0,0-2h-3.978A1,1,0,0,0,683.021,580Zm-5.265,6.293a0.989,0.989,0,0,0-1.406,0l-1.286,1.293-1.286-1.293a0.99,0.99,0,0,0-1.407,0,1,1,0,0,0,0,1.414L673.657,589l-1.286,1.293a1,1,0,0,0,0,1.414,0.991,0.991,0,0,0,1.407,0l1.286-1.293,1.286,1.293a0.99,0.99,0,0,0,1.406,0,1,1,0,0,0,0-1.414L676.47,589l1.286-1.293A1,1,0,0,0,677.756,586.293ZM687,590h-3.978a1,1,0,0,0,0,2H687A1,1,0,0,0,687,590Zm0-3h-3.978a1,1,0,0,0,0,2H687A1,1,0,0,0,687,587Z" transform="translate(-672.094 -576)"/>
</svg>
