<svg xmlns="http://www.w3.org/2000/svg" width="12" height="10" viewBox="0 0 12 10">
  <metadata><?xpacket begin="﻿" id="W5M0MpCehiHzreSzNTczkc9d"?>
<x:xmpmeta xmlns:x="adobe:ns:meta/" x:xmptk="Adobe XMP Core 5.6-c138 79.159824, 2016/09/14-01:09:01        ">
   <rdf:RDF xmlns:rdf="http://www.w3.org/1999/02/22-rdf-syntax-ns#">
      <rdf:Description rdf:about=""/>
   </rdf:RDF>
</x:xmpmeta>
                                                                                                    
                                                                                                    
                                                                                                    
                                                                                                    
                                                                                                    
                                                                                                    
                                                                                                    
                                                                                                    
                                                                                                    
                                                                                                    
                                                                                                    
                                                                                                    
                                                                                                    
                                                                                                    
                                                                                                    
                                                                                                    
                                                                                                    
                                                                                                    
                                                                                                    
                                                                                                    
                           
<?xpacket end="w"?></metadata>
<defs>
    <style>
      .cls-1 {
        fill-rule: evenodd;
      }
    </style>
  </defs>
  <path id="menu_1" class="cls-1" d="M685,613H675a1,1,0,0,1-1-1h0a1,1,0,0,1,1-1h10a1,1,0,0,1,1,1h0A1,1,0,0,1,685,613Zm0,4H675a1,1,0,0,1-1-1h0a1,1,0,0,1,1-1h10a1,1,0,0,1,1,1h0A1,1,0,0,1,685,617Zm0,4H675a1,1,0,0,1-1-1h0a1,1,0,0,1,1-1h10a1,1,0,0,1,1,1h0A1,1,0,0,1,685,621Z" transform="translate(-674 -611)"/>
</svg>
