<svg xmlns="http://www.w3.org/2000/svg" width="16" height="16" viewBox="0 0 16 16">
  <metadata><?xpacket begin="﻿" id="W5M0MpCehiHzreSzNTczkc9d"?>
<x:xmpmeta xmlns:x="adobe:ns:meta/" x:xmptk="Adobe XMP Core 5.6-c138 79.159824, 2016/09/14-01:09:01        ">
   <rdf:RDF xmlns:rdf="http://www.w3.org/1999/02/22-rdf-syntax-ns#">
      <rdf:Description rdf:about=""/>
   </rdf:RDF>
</x:xmpmeta>
                                                                                                    
                                                                                                    
                                                                                                    
                                                                                                    
                                                                                                    
                                                                                                    
                                                                                                    
                                                                                                    
                                                                                                    
                                                                                                    
                                                                                                    
                                                                                                    
                                                                                                    
                                                                                                    
                                                                                                    
                                                                                                    
                                                                                                    
                                                                                                    
                                                                                                    
                                                                                                    
                           
<?xpacket end="w"?></metadata>
<defs>
    <style>
      .cls-1 {
        fill-rule: evenodd;
      }
    </style>
  </defs>
  <path id="message_2_question" class="cls-1" d="M526,480H514a2,2,0,0,0-2,2v10a11.368,11.368,0,0,1,3.151,3.811,2,2,0,0,0,2.128-.273L519.128,494H526a2,2,0,0,0,2-2V482A2,2,0,0,0,526,480Zm0,12h-7.594L516,494v-2h-2V482h12v10Zm-6-3a1,1,0,1,0,1,1A1,1,0,0,0,520,489Zm-2-3a1,1,0,0,0,1-1h2v0.382l-1.447.723A1,1,0,0,0,520,488a0.991,0.991,0,0,0,.446-0.106l2-1A1,1,0,0,0,523,486v-2a1,1,0,0,0-1-1h-4a1,1,0,0,0-1,1v1A1,1,0,0,0,518,486Z" transform="translate(-512 -480)"/>
</svg>
