<svg xmlns="http://www.w3.org/2000/svg" width="16" height="12" viewBox="0 0 16 12">
  <metadata><?xpacket begin="﻿" id="W5M0MpCehiHzreSzNTczkc9d"?>
<x:xmpmeta xmlns:x="adobe:ns:meta/" x:xmptk="Adobe XMP Core 5.6-c138 79.159824, 2016/09/14-01:09:01        ">
   <rdf:RDF xmlns:rdf="http://www.w3.org/1999/02/22-rdf-syntax-ns#">
      <rdf:Description rdf:about=""/>
   </rdf:RDF>
</x:xmpmeta>
                                                                                                    
                                                                                                    
                                                                                                    
                                                                                                    
                                                                                                    
                                                                                                    
                                                                                                    
                                                                                                    
                                                                                                    
                                                                                                    
                                                                                                    
                                                                                                    
                                                                                                    
                                                                                                    
                                                                                                    
                                                                                                    
                                                                                                    
                                                                                                    
                                                                                                    
                                                                                                    
                           
<?xpacket end="w"?></metadata>
<defs>
    <style>
      .cls-1 {
        fill-rule: evenodd;
      }
    </style>
  </defs>
  <path id="message_1" class="cls-1" d="M46,484v8H34v-8H46m0-2H34a2,2,0,0,0-2,2v8a2,2,0,0,0,2,2H46a2,2,0,0,0,2-2v-8a2,2,0,0,0-2-2h0Zm-6,8a1,1,0,0,1-.6-0.2l-4-3a1,1,0,0,1,1.2-1.6l3.4,2.55,3.4-2.55a1,1,0,1,1,1.2,1.6l-4,3A1,1,0,0,1,40,490Z" transform="translate(-32 -482)"/>
</svg>
