<svg xmlns="http://www.w3.org/2000/svg" width="16" height="16" viewBox="0 0 16 16">
  <metadata><?xpacket begin="﻿" id="W5M0MpCehiHzreSzNTczkc9d"?>
<x:xmpmeta xmlns:x="adobe:ns:meta/" x:xmptk="Adobe XMP Core 5.6-c138 79.159824, 2016/09/14-01:09:01        ">
   <rdf:RDF xmlns:rdf="http://www.w3.org/1999/02/22-rdf-syntax-ns#">
      <rdf:Description rdf:about=""/>
   </rdf:RDF>
</x:xmpmeta>
                                                                                                    
                                                                                                    
                                                                                                    
                                                                                                    
                                                                                                    
                                                                                                    
                                                                                                    
                                                                                                    
                                                                                                    
                                                                                                    
                                                                                                    
                                                                                                    
                                                                                                    
                                                                                                    
                                                                                                    
                                                                                                    
                                                                                                    
                                                                                                    
                                                                                                    
                                                                                                    
                           
<?xpacket end="w"?></metadata>
<defs>
    <style>
      .cls-1 {
        fill-rule: evenodd;
      }
    </style>
  </defs>
  <path id="message_3_accept" class="cls-1" d="M622,480H610a2,2,0,0,0-2,2v10a2,2,0,0,0,2,2h3.172l1.414,1.414a2,2,0,0,0,2.828,0L618.828,494H622a2,2,0,0,0,2-2V482A2,2,0,0,0,622,480Zm0,12h-4l-2,2-2-2h-4V482h12v10Zm-7.707-2.293a1,1,0,0,0,1.414,0l4-4a1,1,0,0,0-1.414-1.414L615,487.586l-1.293-1.293a1,1,0,0,0-1.414,1.414Z" transform="translate(-608 -480)"/>
</svg>
