<svg xmlns="http://www.w3.org/2000/svg" width="16" height="16" viewBox="0 0 16 16">
  <metadata><?xpacket begin="﻿" id="W5M0MpCehiHzreSzNTczkc9d"?>
<x:xmpmeta xmlns:x="adobe:ns:meta/" x:xmptk="Adobe XMP Core 5.6-c138 79.159824, 2016/09/14-01:09:01        ">
   <rdf:RDF xmlns:rdf="http://www.w3.org/1999/02/22-rdf-syntax-ns#">
      <rdf:Description rdf:about=""/>
   </rdf:RDF>
</x:xmpmeta>
                                                                                                    
                                                                                                    
                                                                                                    
                                                                                                    
                                                                                                    
                                                                                                    
                                                                                                    
                                                                                                    
                                                                                                    
                                                                                                    
                                                                                                    
                                                                                                    
                                                                                                    
                                                                                                    
                                                                                                    
                                                                                                    
                                                                                                    
                                                                                                    
                                                                                                    
                                                                                                    
                           
<?xpacket end="w"?></metadata>
<defs>
    <style>
      .cls-1 {
        fill-rule: evenodd;
      }
    </style>
  </defs>
  <path id="message_2_accept" class="cls-1" d="M462,482v10h-7.594L452,494v-2h-2V482h12Zm0-2H450a2,2,0,0,0-2,2v10a11.368,11.368,0,0,1,3.151,3.811,2,2,0,0,0,2.128-.273L455.128,494H462a2,2,0,0,0,2-2V482a2,2,0,0,0-2-2h0Zm-7,10a1,1,0,0,1-.707-0.293l-2-2a1,1,0,0,1,1.414-1.414L455,487.586l3.293-3.293a1,1,0,0,1,1.414,1.414l-4,4A1,1,0,0,1,455,490Z" transform="translate(-448 -480)"/>
</svg>
