<svg xmlns="http://www.w3.org/2000/svg" width="16" height="14" viewBox="0 0 16 14">
  <metadata><?xpacket begin="﻿" id="W5M0MpCehiHzreSzNTczkc9d"?>
<x:xmpmeta xmlns:x="adobe:ns:meta/" x:xmptk="Adobe XMP Core 5.6-c138 79.159824, 2016/09/14-01:09:01        ">
   <rdf:RDF xmlns:rdf="http://www.w3.org/1999/02/22-rdf-syntax-ns#">
      <rdf:Description rdf:about=""/>
   </rdf:RDF>
</x:xmpmeta>
                                                                                                    
                                                                                                    
                                                                                                    
                                                                                                    
                                                                                                    
                                                                                                    
                                                                                                    
                                                                                                    
                                                                                                    
                                                                                                    
                                                                                                    
                                                                                                    
                                                                                                    
                                                                                                    
                                                                                                    
                                                                                                    
                                                                                                    
                                                                                                    
                                                                                                    
                                                                                                    
                           
<?xpacket end="w"?></metadata>
<defs>
    <style>
      .cls-1 {
        fill-rule: evenodd;
      }
    </style>
  </defs>
  <path id="message_2_exp" class="cls-1" d="M109,488a1,1,0,0,0-1,1v2a1,1,0,0,0,2,0v-2A1,1,0,0,0,109,488Zm0,5a1,1,0,1,0,1,1A1,1,0,0,0,109,493Zm1-12H98a2.006,2.006,0,0,0-2,2v8a2.006,2.006,0,0,0,2,2h7a1,1,0,0,0,0-2H98v-6.7l5.36,4.47a1.005,1.005,0,0,0,1.28,0L110,484.3V485a1,1,0,0,0,2,0v-2A2.006,2.006,0,0,0,110,481Zm-6,5.7L99.56,483h8.88Z" transform="translate(-96 -481)"/>
</svg>
