<svg xmlns="http://www.w3.org/2000/svg" width="16" height="12" viewBox="0 0 16 12">
  <metadata><?xpacket begin="﻿" id="W5M0MpCehiHzreSzNTczkc9d"?>
<x:xmpmeta xmlns:x="adobe:ns:meta/" x:xmptk="Adobe XMP Core 5.6-c138 79.159824, 2016/09/14-01:09:01        ">
   <rdf:RDF xmlns:rdf="http://www.w3.org/1999/02/22-rdf-syntax-ns#">
      <rdf:Description rdf:about=""/>
   </rdf:RDF>
</x:xmpmeta>
                                                                                                    
                                                                                                    
                                                                                                    
                                                                                                    
                                                                                                    
                                                                                                    
                                                                                                    
                                                                                                    
                                                                                                    
                                                                                                    
                                                                                                    
                                                                                                    
                                                                                                    
                                                                                                    
                                                                                                    
                                                                                                    
                                                                                                    
                                                                                                    
                                                                                                    
                                                                                                    
                           
<?xpacket end="w"?></metadata>
<defs>
    <style>
      .cls-1 {
        fill-rule: evenodd;
      }
    </style>
  </defs>
  <path id="message_3" class="cls-1" d="M206,482H194a2,2,0,0,0-2,2v8a2,2,0,0,0,2,2h12a2,2,0,0,0,2-2v-8A2,2,0,0,0,206,482Zm-1.562,2-3.452,2.876c-0.021.018-.047,0.025-0.066,0.044s-0.01.018-.017,0.025l-0.9.753-4.438-3.7h8.876ZM194,485.3l2.882,2.4L194,490.586V485.3Zm1.414,6.7,3.011-3.011,0.935,0.779a1,1,0,0,0,1.28,0l0.935-.779L204.586,492h-9.172ZM206,490.586l-2.882-2.882L206,485.3v5.284Z" transform="translate(-192 -482)"/>
</svg>
