<svg xmlns="http://www.w3.org/2000/svg" width="16" height="16" viewBox="0 0 16 16">
  <metadata><?xpacket begin="﻿" id="W5M0MpCehiHzreSzNTczkc9d"?>
<x:xmpmeta xmlns:x="adobe:ns:meta/" x:xmptk="Adobe XMP Core 5.6-c138 79.159824, 2016/09/14-01:09:01        ">
   <rdf:RDF xmlns:rdf="http://www.w3.org/1999/02/22-rdf-syntax-ns#">
      <rdf:Description rdf:about=""/>
   </rdf:RDF>
</x:xmpmeta>
                                                                                                    
                                                                                                    
                                                                                                    
                                                                                                    
                                                                                                    
                                                                                                    
                                                                                                    
                                                                                                    
                                                                                                    
                                                                                                    
                                                                                                    
                                                                                                    
                                                                                                    
                                                                                                    
                                                                                                    
                                                                                                    
                                                                                                    
                                                                                                    
                                                                                                    
                                                                                                    
                           
<?xpacket end="w"?></metadata>
<defs>
    <style>
      .cls-1 {
        fill-rule: evenodd;
      }
    </style>
  </defs>
  <path id="message_2_exp" class="cls-1" d="M558,482v10h-7.594L548,494v-2h-2V482h12m0-2H546a2,2,0,0,0-2,2v10a11.368,11.368,0,0,1,3.151,3.811,2,2,0,0,0,2.128-.273L551.128,494H558a2,2,0,0,0,2-2V482a2,2,0,0,0-2-2h0Zm-6,8h0a1,1,0,0,1-1-1v-3a1,1,0,0,1,1-1h0a1,1,0,0,1,1,1v3A1,1,0,0,1,552,488Zm0,3h0a1,1,0,0,1-1-1h0a1,1,0,0,1,1-1h0a1,1,0,0,1,1,1h0A1,1,0,0,1,552,491Z" transform="translate(-544 -480)"/>
</svg>
