<svg xmlns="http://www.w3.org/2000/svg" width="16" height="16" viewBox="0 0 16 16">
  <metadata><?xpacket begin="﻿" id="W5M0MpCehiHzreSzNTczkc9d"?>
<x:xmpmeta xmlns:x="adobe:ns:meta/" x:xmptk="Adobe XMP Core 5.6-c138 79.159824, 2016/09/14-01:09:01        ">
   <rdf:RDF xmlns:rdf="http://www.w3.org/1999/02/22-rdf-syntax-ns#">
      <rdf:Description rdf:about=""/>
   </rdf:RDF>
</x:xmpmeta>
                                                                                                    
                                                                                                    
                                                                                                    
                                                                                                    
                                                                                                    
                                                                                                    
                                                                                                    
                                                                                                    
                                                                                                    
                                                                                                    
                                                                                                    
                                                                                                    
                                                                                                    
                                                                                                    
                                                                                                    
                                                                                                    
                                                                                                    
                                                                                                    
                                                                                                    
                                                                                                    
                           
<?xpacket end="w"?></metadata>
<defs>
    <style>
      .cls-1 {
        fill-rule: evenodd;
      }
    </style>
  </defs>
  <path id="message_open_2" class="cls-1" d="M40,514l6,4v8H34v-8l6-4m0-2a2,2,0,0,0-1.109.336l-6,4A2,2,0,0,0,32,518v8a2,2,0,0,0,2,2H46a2,2,0,0,0,2-2v-8a2,2,0,0,0-.891-1.664l-6-4A2,2,0,0,0,40,512h0Zm0,12a1,1,0,0,1-.6-0.2l-4-3a1,1,0,1,1,1.2-1.6l3.4,2.55,3.4-2.55a1,1,0,1,1,1.2,1.6l-4,3A1,1,0,0,1,40,524Z" transform="translate(-32 -512)"/>
</svg>
