<svg xmlns="http://www.w3.org/2000/svg" width="16" height="16" viewBox="0 0 16 16">
  <metadata><?xpacket begin="﻿" id="W5M0MpCehiHzreSzNTczkc9d"?>
<x:xmpmeta xmlns:x="adobe:ns:meta/" x:xmptk="Adobe XMP Core 5.6-c138 79.159824, 2016/09/14-01:09:01        ">
   <rdf:RDF xmlns:rdf="http://www.w3.org/1999/02/22-rdf-syntax-ns#">
      <rdf:Description rdf:about=""/>
   </rdf:RDF>
</x:xmpmeta>
                                                                                                    
                                                                                                    
                                                                                                    
                                                                                                    
                                                                                                    
                                                                                                    
                                                                                                    
                                                                                                    
                                                                                                    
                                                                                                    
                                                                                                    
                                                                                                    
                                                                                                    
                                                                                                    
                                                                                                    
                                                                                                    
                                                                                                    
                                                                                                    
                                                                                                    
                                                                                                    
                           
<?xpacket end="w"?></metadata>
<defs>
    <style>
      .cls-1 {
        fill-rule: evenodd;
      }
    </style>
  </defs>
  <path id="message_open_3" class="cls-1" d="M79.109,516.336l-6-4a2,2,0,0,0-2.219,0l-6,4A2,2,0,0,0,64,518v8a2,2,0,0,0,2,2H78a2,2,0,0,0,2-2v-8A2,2,0,0,0,79.109,516.336ZM72,514l5.1,3.4L72,520.8l-5.1-3.4Zm-6,12v-6.8l5.445,3.63a1,1,0,0,0,1.109,0L78,519.2V526H66Z" transform="translate(-64 -512)"/>
</svg>
