<svg xmlns="http://www.w3.org/2000/svg" width="16" height="16" viewBox="0 0 16 16">
  <metadata><?xpacket begin="﻿" id="W5M0MpCehiHzreSzNTczkc9d"?>
<x:xmpmeta xmlns:x="adobe:ns:meta/" x:xmptk="Adobe XMP Core 5.6-c138 79.159824, 2016/09/14-01:09:01        ">
   <rdf:RDF xmlns:rdf="http://www.w3.org/1999/02/22-rdf-syntax-ns#">
      <rdf:Description rdf:about=""/>
   </rdf:RDF>
</x:xmpmeta>
                                                                                                    
                                                                                                    
                                                                                                    
                                                                                                    
                                                                                                    
                                                                                                    
                                                                                                    
                                                                                                    
                                                                                                    
                                                                                                    
                                                                                                    
                                                                                                    
                                                                                                    
                                                                                                    
                                                                                                    
                                                                                                    
                                                                                                    
                                                                                                    
                                                                                                    
                                                                                                    
                           
<?xpacket end="w"?></metadata>
<defs>
    <style>
      .cls-1 {
        fill-rule: evenodd;
      }
    </style>
  </defs>
  <path id="message_open_1" class="cls-1" d="M751,484.27V482a2.006,2.006,0,0,0-2-2H739a2.006,2.006,0,0,0-2,2v2.27a2.012,2.012,0,0,0-1,1.73v8a2.006,2.006,0,0,0,2,2h12a2.006,2.006,0,0,0,2-2v-8A2.012,2.012,0,0,0,751,484.27ZM739,482h10v3.531l-5,4.167-5-4.167V482Zm11,12H738v-6.7l5.36,4.466a1,1,0,0,0,1.28,0L750,487.3V494Zm-8-8h4a1,1,0,0,0,0-2h-4A1,1,0,0,0,742,486Z" transform="translate(-736 -480)"/>
</svg>
