<svg xmlns="http://www.w3.org/2000/svg" width="16" height="12" viewBox="0 0 16 12">
  <metadata><?xpacket begin="﻿" id="W5M0MpCehiHzreSzNTczkc9d"?>
<x:xmpmeta xmlns:x="adobe:ns:meta/" x:xmptk="Adobe XMP Core 5.6-c138 79.159824, 2016/09/14-01:09:01        ">
   <rdf:RDF xmlns:rdf="http://www.w3.org/1999/02/22-rdf-syntax-ns#">
      <rdf:Description rdf:about=""/>
   </rdf:RDF>
</x:xmpmeta>
                                                                                                    
                                                                                                    
                                                                                                    
                                                                                                    
                                                                                                    
                                                                                                    
                                                                                                    
                                                                                                    
                                                                                                    
                                                                                                    
                                                                                                    
                                                                                                    
                                                                                                    
                                                                                                    
                                                                                                    
                                                                                                    
                                                                                                    
                                                                                                    
                                                                                                    
                                                                                                    
                           
<?xpacket end="w"?></metadata>
<defs>
    <style>
      .cls-1 {
        fill-rule: evenodd;
      }
    </style>
  </defs>
  <path id="message_2_minus" class="cls-1" d="M142,482H130a2.006,2.006,0,0,0-2,2v8a2.006,2.006,0,0,0,2,2h5a1,1,0,0,0,0-2h-5v-6.7l5.36,4.467a1,1,0,0,0,1.28,0L142,485.3V489a1,1,0,0,0,2,0v-5A2.006,2.006,0,0,0,142,482Zm-6,5.7-4.438-3.7h8.876Zm7,4.3h-4a1,1,0,0,0,0,2h4A1,1,0,0,0,143,492Z" transform="translate(-128 -482)"/>
</svg>
