<svg xmlns="http://www.w3.org/2000/svg" width="16" height="16" viewBox="0 0 16 16">
  <metadata><?xpacket begin="﻿" id="W5M0MpCehiHzreSzNTczkc9d"?>
<x:xmpmeta xmlns:x="adobe:ns:meta/" x:xmptk="Adobe XMP Core 5.6-c138 79.159824, 2016/09/14-01:09:01        ">
   <rdf:RDF xmlns:rdf="http://www.w3.org/1999/02/22-rdf-syntax-ns#">
      <rdf:Description rdf:about=""/>
   </rdf:RDF>
</x:xmpmeta>
                                                                                                    
                                                                                                    
                                                                                                    
                                                                                                    
                                                                                                    
                                                                                                    
                                                                                                    
                                                                                                    
                                                                                                    
                                                                                                    
                                                                                                    
                                                                                                    
                                                                                                    
                                                                                                    
                                                                                                    
                                                                                                    
                                                                                                    
                                                                                                    
                                                                                                    
                                                                                                    
                           
<?xpacket end="w"?></metadata>
<defs>
    <style>
      .cls-1 {
        fill-rule: evenodd;
      }
    </style>
  </defs>
  <path id="messaging" class="cls-1" d="M238,485h-1v2h1v7l-2.41-2H230v-2h-0.51L228,491.24V492a2.024,2.024,0,0,0,.05.43A2,2,0,0,0,230,494h4.87l1.85,1.54A2.03,2.03,0,0,0,238,496a1.951,1.951,0,0,0,.85-0.19A2,2,0,0,0,240,494v-7A2.006,2.006,0,0,0,238,485Zm-8.87,4H234a2.006,2.006,0,0,0,2-2v-5a2.006,2.006,0,0,0-2-2h-8a2.006,2.006,0,0,0-2,2v7a2,2,0,0,0,1.15,1.81,1.951,1.951,0,0,0,.85.19,2.03,2.03,0,0,0,1.28-.46l0.72-.6ZM226,489v-7h8v5h-5.59l-0.41.34Z" transform="translate(-224 -480)"/>
</svg>
