<svg xmlns="http://www.w3.org/2000/svg" width="16" height="16" viewBox="0 0 16 16">
  <metadata><?xpacket begin="﻿" id="W5M0MpCehiHzreSzNTczkc9d"?>
<x:xmpmeta xmlns:x="adobe:ns:meta/" x:xmptk="Adobe XMP Core 5.6-c138 79.159824, 2016/09/14-01:09:01        ">
   <rdf:RDF xmlns:rdf="http://www.w3.org/1999/02/22-rdf-syntax-ns#">
      <rdf:Description rdf:about=""/>
   </rdf:RDF>
</x:xmpmeta>
                                                                                                    
                                                                                                    
                                                                                                    
                                                                                                    
                                                                                                    
                                                                                                    
                                                                                                    
                                                                                                    
                                                                                                    
                                                                                                    
                                                                                                    
                                                                                                    
                                                                                                    
                                                                                                    
                                                                                                    
                                                                                                    
                                                                                                    
                                                                                                    
                                                                                                    
                                                                                                    
                           
<?xpacket end="w"?></metadata>
<defs>
    <style>
      .cls-1 {
        fill-rule: evenodd;
      }
    </style>
  </defs>
  <path id="message_1_dots" class="cls-1" d="M325,488a1,1,0,1,0-1-1A1,1,0,0,0,325,488Zm3,0a1,1,0,1,0-1-1A1,1,0,0,0,328,488Zm3,0a1,1,0,1,0-1-1A1,1,0,0,0,331,488Zm3-8H322a2,2,0,0,0-2,2v12a2,2,0,0,0,3.109,1.664l2.5-1.664H334a2,2,0,0,0,2-2V482A2,2,0,0,0,334,480Zm0,12h-9l-3,2V482h12v10Z" transform="translate(-320 -480)"/>
</svg>
