<svg xmlns="http://www.w3.org/2000/svg" width="16" height="16" viewBox="0 0 16 16">
  <metadata><?xpacket begin="﻿" id="W5M0MpCehiHzreSzNTczkc9d"?>
<x:xmpmeta xmlns:x="adobe:ns:meta/" x:xmptk="Adobe XMP Core 5.6-c138 79.159824, 2016/09/14-01:09:01        ">
   <rdf:RDF xmlns:rdf="http://www.w3.org/1999/02/22-rdf-syntax-ns#">
      <rdf:Description rdf:about=""/>
   </rdf:RDF>
</x:xmpmeta>
                                                                                                    
                                                                                                    
                                                                                                    
                                                                                                    
                                                                                                    
                                                                                                    
                                                                                                    
                                                                                                    
                                                                                                    
                                                                                                    
                                                                                                    
                                                                                                    
                                                                                                    
                                                                                                    
                                                                                                    
                                                                                                    
                                                                                                    
                                                                                                    
                                                                                                    
                                                                                                    
                           
<?xpacket end="w"?></metadata>
<defs>
    <style>
      .cls-1 {
        fill-rule: evenodd;
      }
    </style>
  </defs>
  <path id="message_1_accept" class="cls-1" d="M263,490a1,1,0,0,1-.707-0.293l-2-2a1,1,0,0,1,1.414-1.414L263,487.586l3.293-3.293a1,1,0,0,1,1.414,1.414l-4,4A1,1,0,0,1,263,490Zm7-10H258a2,2,0,0,0-2,2v12a2,2,0,0,0,3.013,1.724L261.949,494H270a2,2,0,0,0,2-2V482A2,2,0,0,0,270,480Zm0,12h-8.594L258,494V482h12v10Z" transform="translate(-256 -480)"/>
</svg>
