<svg xmlns="http://www.w3.org/2000/svg" width="12" height="16" viewBox="0 0 12 16">
  <metadata><?xpacket begin="﻿" id="W5M0MpCehiHzreSzNTczkc9d"?>
<x:xmpmeta xmlns:x="adobe:ns:meta/" x:xmptk="Adobe XMP Core 5.6-c138 79.159824, 2016/09/14-01:09:01        ">
   <rdf:RDF xmlns:rdf="http://www.w3.org/1999/02/22-rdf-syntax-ns#">
      <rdf:Description rdf:about=""/>
   </rdf:RDF>
</x:xmpmeta>
                                                                                                    
                                                                                                    
                                                                                                    
                                                                                                    
                                                                                                    
                                                                                                    
                                                                                                    
                                                                                                    
                                                                                                    
                                                                                                    
                                                                                                    
                                                                                                    
                                                                                                    
                                                                                                    
                                                                                                    
                                                                                                    
                                                                                                    
                                                                                                    
                                                                                                    
                                                                                                    
                           
<?xpacket end="w"?></metadata>
<defs>
    <style>
      .cls-1 {
        fill-rule: evenodd;
      }
    </style>
  </defs>
  <path id="mic" class="cls-1" d="M712,170a3,3,0,0,0,3-3v-4a3,3,0,0,0-6,0v4A3,3,0,0,0,712,170Zm-1-7a1,1,0,0,1,2,0v4a1,1,0,0,1-2,0v-4Zm7,4a1,1,0,0,0-2,0,4,4,0,0,1-8,0,1,1,0,0,0-2,0,6.006,6.006,0,0,0,5,5.91V174h-2a1,1,0,0,0,0,2h6a1,1,0,0,0,0-2h-2v-1.09A6.006,6.006,0,0,0,718,167Z" transform="translate(-706 -160)"/>
</svg>
