<svg xmlns="http://www.w3.org/2000/svg" width="15.812" height="15.906" viewBox="0 0 15.812 15.906">
  <metadata><?xpacket begin="﻿" id="W5M0MpCehiHzreSzNTczkc9d"?>
<x:xmpmeta xmlns:x="adobe:ns:meta/" x:xmptk="Adobe XMP Core 5.6-c138 79.159824, 2016/09/14-01:09:01        ">
   <rdf:RDF xmlns:rdf="http://www.w3.org/1999/02/22-rdf-syntax-ns#">
      <rdf:Description rdf:about=""/>
   </rdf:RDF>
</x:xmpmeta>
                                                                                                    
                                                                                                    
                                                                                                    
                                                                                                    
                                                                                                    
                                                                                                    
                                                                                                    
                                                                                                    
                                                                                                    
                                                                                                    
                                                                                                    
                                                                                                    
                                                                                                    
                                                                                                    
                                                                                                    
                                                                                                    
                                                                                                    
                                                                                                    
                                                                                                    
                                                                                                    
                           
<?xpacket end="w"?></metadata>
<defs>
    <style>
      .cls-1 {
        fill-rule: evenodd;
      }
    </style>
  </defs>
  <path id="mic_no" class="cls-1" d="M743.954,162.076a0.994,0.994,0,0,1,.989.994v1.751l1.978,1.989v-3.74a2.968,2.968,0,0,0-5.411-1.7l1.474,1.481A1.006,1.006,0,0,1,743.954,162.076Zm5.935,4.973a0.989,0.989,0,1,0-1.978,0,4.012,4.012,0,0,1-.06.7l1.583,1.591A5.893,5.893,0,0,0,749.889,167.049Zm1.689,7.253-3.235-3.252,0,0-1.395-1.4,0,0-0.7-.707a0.008,0.008,0,0,0,0,0l-1.425-1.432a0.014,0.014,0,0,0,0,0l-1.858-1.868v-0.006l-1.978-1.989v0.006l-3.258-3.275a0.984,0.984,0,0,0-1.4,0,1,1,0,0,0,0,1.406l4.657,4.682v0.583a2.76,2.76,0,0,0,.178.994,2.962,2.962,0,0,0,1.8,1.811,2.739,2.739,0,0,0,.99.179,3,3,0,0,0,.524-0.05h0l0.8,0.805h0a3.457,3.457,0,0,1-1.157.229,0.953,0.953,0,0,1-.168.01,3.848,3.848,0,0,1-1.554-.328,4.012,4.012,0,0,1-2.4-3.65,1.222,1.222,0,0,0-.019-0.2,1,1,0,0,0-.772-0.776,1.206,1.206,0,0,0-.2-0.02,0.982,0.982,0,0,0-.989,1,5.966,5.966,0,0,0,4.946,5.878v1.084h-1.978a0.995,0.995,0,0,0,0,1.989h5.935a1,1,0,0,0,.574-0.179,1.039,1.039,0,0,0,.416-0.815,1.207,1.207,0,0,0-.02-0.2,1,1,0,0,0-.772-0.776,1.2,1.2,0,0,0-.2-0.02h-1.978v-1.084a4.927,4.927,0,0,0,.86-0.219,5.565,5.565,0,0,0,.97-0.418l0,0,3.4,3.421a0.986,0.986,0,0,0,1.4,0A1,1,0,0,0,751.578,174.3Z" transform="translate(-736.063 -160.094)"/>
</svg>
