<svg xmlns="http://www.w3.org/2000/svg" width="9.906" height="9.969" viewBox="0 0 9.906 9.969">
  <metadata><?xpacket begin="﻿" id="W5M0MpCehiHzreSzNTczkc9d"?>
<x:xmpmeta xmlns:x="adobe:ns:meta/" x:xmptk="Adobe XMP Core 5.6-c138 79.159824, 2016/09/14-01:09:01        ">
   <rdf:RDF xmlns:rdf="http://www.w3.org/1999/02/22-rdf-syntax-ns#">
      <rdf:Description rdf:about=""/>
   </rdf:RDF>
</x:xmpmeta>
                                                                                                    
                                                                                                    
                                                                                                    
                                                                                                    
                                                                                                    
                                                                                                    
                                                                                                    
                                                                                                    
                                                                                                    
                                                                                                    
                                                                                                    
                                                                                                    
                                                                                                    
                                                                                                    
                                                                                                    
                                                                                                    
                                                                                                    
                                                                                                    
                                                                                                    
                                                                                                    
                           
<?xpacket end="w"?></metadata>
<defs>
    <style>
      .cls-1 {
        fill-rule: evenodd;
      }
    </style>
  </defs>
  <path id="mini_arrow_90" class="cls-1" d="M524.6,742.306l-2.975-2.994a0.992,0.992,0,0,0-1.081-.216,1.012,1.012,0,0,0-.323.216l-2.975,2.994a1,1,0,0,0,0,1.411,0.987,0.987,0,0,0,1.4,0l1.282-1.291V747h-3.967a1,1,0,0,0,0,2h4.959a1,1,0,0,0,.992-1v-5.575l1.283,1.291a0.987,0.987,0,0,0,1.4,0A1,1,0,0,0,524.6,742.306Z" transform="translate(-514.969 -739.031)"/>
</svg>
