<svg xmlns="http://www.w3.org/2000/svg" width="9.844" height="9.906" viewBox="0 0 9.844 9.906">
  <metadata><?xpacket begin="﻿" id="W5M0MpCehiHzreSzNTczkc9d"?>
<x:xmpmeta xmlns:x="adobe:ns:meta/" x:xmptk="Adobe XMP Core 5.6-c138 79.159824, 2016/09/14-01:09:01        ">
   <rdf:RDF xmlns:rdf="http://www.w3.org/1999/02/22-rdf-syntax-ns#">
      <rdf:Description rdf:about=""/>
   </rdf:RDF>
</x:xmpmeta>
                                                                                                    
                                                                                                    
                                                                                                    
                                                                                                    
                                                                                                    
                                                                                                    
                                                                                                    
                                                                                                    
                                                                                                    
                                                                                                    
                                                                                                    
                                                                                                    
                                                                                                    
                                                                                                    
                                                                                                    
                                                                                                    
                                                                                                    
                                                                                                    
                                                                                                    
                                                                                                    
                           
<?xpacket end="w"?></metadata>
<defs>
    <style>
      .cls-1 {
        fill-rule: evenodd;
      }
    </style>
  </defs>
  <path id="mini_x_2" class="cls-1" d="M137.33,744l3.24-3.267a1,1,0,0,0,0-1.4,0.978,0.978,0,0,0-1.391,0l-3.241,3.267-3.24-3.267a0.978,0.978,0,0,0-1.391,0,1,1,0,0,0,0,1.4l3.24,3.267-3.24,3.266a1,1,0,0,0,0,1.4,0.979,0.979,0,0,0,1.391,0l3.24-3.267,3.241,3.267a0.979,0.979,0,0,0,1.391,0,1,1,0,0,0,0-1.4Z" transform="translate(-131.031 -739.063)"/>
</svg>
