<svg xmlns="http://www.w3.org/2000/svg" width="4" height="10" viewBox="0 0 4 10">
  <metadata><?xpacket begin="﻿" id="W5M0MpCehiHzreSzNTczkc9d"?>
<x:xmpmeta xmlns:x="adobe:ns:meta/" x:xmptk="Adobe XMP Core 5.6-c138 79.159824, 2016/09/14-01:09:01        ">
   <rdf:RDF xmlns:rdf="http://www.w3.org/1999/02/22-rdf-syntax-ns#">
      <rdf:Description rdf:about=""/>
   </rdf:RDF>
</x:xmpmeta>
                                                                                                    
                                                                                                    
                                                                                                    
                                                                                                    
                                                                                                    
                                                                                                    
                                                                                                    
                                                                                                    
                                                                                                    
                                                                                                    
                                                                                                    
                                                                                                    
                                                                                                    
                                                                                                    
                                                                                                    
                                                                                                    
                                                                                                    
                                                                                                    
                                                                                                    
                                                                                                    
                           
<?xpacket end="w"?></metadata>
<defs>
    <style>
      .cls-1 {
        fill-rule: evenodd;
      }
    </style>
  </defs>
  <path id="mini_info" class="cls-1" d="M392,741a1,1,0,1,0-1-1A1,1,0,0,0,392,741Zm1.106,6H393v-4a1,1,0,0,0-1-1h-1a1,1,0,0,0,0,2v3h-0.106a0.9,0.9,0,0,0-.894.894v0.211a0.9,0.9,0,0,0,.894.895h2.212a0.9,0.9,0,0,0,.894-0.895v-0.211A0.9,0.9,0,0,0,393.106,747Z" transform="translate(-390 -739)"/>
</svg>
