<svg xmlns="http://www.w3.org/2000/svg" width="10" height="7.907" viewBox="0 0 10 7.907">
  <metadata><?xpacket begin="﻿" id="W5M0MpCehiHzreSzNTczkc9d"?>
<x:xmpmeta xmlns:x="adobe:ns:meta/" x:xmptk="Adobe XMP Core 5.6-c138 79.159824, 2016/09/14-01:09:01        ">
   <rdf:RDF xmlns:rdf="http://www.w3.org/1999/02/22-rdf-syntax-ns#">
      <rdf:Description rdf:about=""/>
   </rdf:RDF>
</x:xmpmeta>
                                                                                                    
                                                                                                    
                                                                                                    
                                                                                                    
                                                                                                    
                                                                                                    
                                                                                                    
                                                                                                    
                                                                                                    
                                                                                                    
                                                                                                    
                                                                                                    
                                                                                                    
                                                                                                    
                                                                                                    
                                                                                                    
                                                                                                    
                                                                                                    
                                                                                                    
                                                                                                    
                           
<?xpacket end="w"?></metadata>
<defs>
    <style>
      .cls-1 {
        fill-rule: evenodd;
      }
    </style>
  </defs>
  <path id="mini_arrow_2" class="cls-1" d="M493,744.026c0-.034,0-0.066,0-0.1a0.985,0.985,0,0,0-.049-0.246c-0.011-.033-0.02-0.065-0.034-0.1a0.976,0.976,0,0,0-.2-0.294l-3-2.971a1.007,1.007,0,0,0-1.415,0,0.982,0.982,0,0,0,0,1.4L489.59,743H484a0.99,0.99,0,1,0,0,1.98h5.589L488.3,746.26a0.982,0.982,0,0,0,0,1.4,1.008,1.008,0,0,0,1.415,0l3-2.971c0.009-.009.012-0.021,0.02-0.03a0.959,0.959,0,0,0,.2-0.291s0,0,0,0a0.2,0.2,0,0,1,.007-0.026A0.982,0.982,0,0,0,493,744.026Z" transform="translate(-483 -740.031)"/>
</svg>
