<svg xmlns="http://www.w3.org/2000/svg" width="12" height="10" viewBox="0 0 12 10">
  <metadata><?xpacket begin="﻿" id="W5M0MpCehiHzreSzNTczkc9d"?>
<x:xmpmeta xmlns:x="adobe:ns:meta/" x:xmptk="Adobe XMP Core 5.6-c138 79.159824, 2016/09/14-01:09:01        ">
   <rdf:RDF xmlns:rdf="http://www.w3.org/1999/02/22-rdf-syntax-ns#">
      <rdf:Description rdf:about=""/>
   </rdf:RDF>
</x:xmpmeta>
                                                                                                    
                                                                                                    
                                                                                                    
                                                                                                    
                                                                                                    
                                                                                                    
                                                                                                    
                                                                                                    
                                                                                                    
                                                                                                    
                                                                                                    
                                                                                                    
                                                                                                    
                                                                                                    
                                                                                                    
                                                                                                    
                                                                                                    
                                                                                                    
                                                                                                    
                                                                                                    
                           
<?xpacket end="w"?></metadata>
<defs>
    <style>
      .cls-1 {
        fill-rule: evenodd;
      }
    </style>
  </defs>
  <path id="mini_pause" class="cls-1" d="M268,741v6h-2v-6h2m0-2h-2a2,2,0,0,0-2,2v6a2,2,0,0,0,2,2h2a2,2,0,0,0,2-2v-6a2,2,0,0,0-2-2h0Zm-6,2v6h-2v-6h2m0-2h-2a2,2,0,0,0-2,2v6a2,2,0,0,0,2,2h2a2,2,0,0,0,2-2v-6a2,2,0,0,0-2-2h0Z" transform="translate(-258 -739)"/>
</svg>
