<svg xmlns="http://www.w3.org/2000/svg" width="16" height="14" viewBox="0 0 16 14">
  <metadata><?xpacket begin="﻿" id="W5M0MpCehiHzreSzNTczkc9d"?>
<x:xmpmeta xmlns:x="adobe:ns:meta/" x:xmptk="Adobe XMP Core 5.6-c138 79.159824, 2016/09/14-01:09:01        ">
   <rdf:RDF xmlns:rdf="http://www.w3.org/1999/02/22-rdf-syntax-ns#">
      <rdf:Description rdf:about=""/>
   </rdf:RDF>
</x:xmpmeta>
                                                                                                    
                                                                                                    
                                                                                                    
                                                                                                    
                                                                                                    
                                                                                                    
                                                                                                    
                                                                                                    
                                                                                                    
                                                                                                    
                                                                                                    
                                                                                                    
                                                                                                    
                                                                                                    
                                                                                                    
                                                                                                    
                                                                                                    
                                                                                                    
                                                                                                    
                                                                                                    
                           
<?xpacket end="w"?></metadata>
<defs>
    <style>
      .cls-1 {
        fill-rule: evenodd;
      }
    </style>
  </defs>
  <path id="money_1" class="cls-1" d="M716,518.03V518a2.006,2.006,0,0,0-2-2h-1v-1a2.006,2.006,0,0,0-2-2h-5a2.006,2.006,0,0,0-2,2v1a2.006,2.006,0,0,0,2,2h1v1a2.006,2.006,0,0,0-2,2v1a2,2,0,0,0,1.02,1.74,2.112,2.112,0,0,0-.02.26v1a2.006,2.006,0,0,0,2,2h5a1.95,1.95,0,0,0,.99-0.26,4.436,4.436,0,0,0,1.51.26A4.5,4.5,0,0,0,716,518.03ZM706,516v-1h5v1h-5Zm3,2h5v0.26a4.28,4.28,0,0,0-1.32.74H709v-1Zm-2,3h4.26a4.16,4.16,0,0,0-.23,1H707v-1Zm1,4v-1h3.26a4.07,4.07,0,0,0,.5,1H708Zm7.5,0a2.734,2.734,0,0,1-.5-0.05,2.478,2.478,0,0,1-1.76-1.39,2.357,2.357,0,0,1-.24-1.06,2.734,2.734,0,0,1,.05-0.5,2.527,2.527,0,0,1,.45-1,2.513,2.513,0,0,1,2-1,1.77,1.77,0,0,1,.23.01A2.5,2.5,0,0,1,715.5,525Z" transform="translate(-704 -513)"/>
</svg>
