<svg xmlns="http://www.w3.org/2000/svg" width="16" height="16" viewBox="0 0 16 16">
  <metadata><?xpacket begin="﻿" id="W5M0MpCehiHzreSzNTczkc9d"?>
<x:xmpmeta xmlns:x="adobe:ns:meta/" x:xmptk="Adobe XMP Core 5.6-c138 79.159824, 2016/09/14-01:09:01        ">
   <rdf:RDF xmlns:rdf="http://www.w3.org/1999/02/22-rdf-syntax-ns#">
      <rdf:Description rdf:about=""/>
   </rdf:RDF>
</x:xmpmeta>
                                                                                                    
                                                                                                    
                                                                                                    
                                                                                                    
                                                                                                    
                                                                                                    
                                                                                                    
                                                                                                    
                                                                                                    
                                                                                                    
                                                                                                    
                                                                                                    
                                                                                                    
                                                                                                    
                                                                                                    
                                                                                                    
                                                                                                    
                                                                                                    
                                                                                                    
                                                                                                    
                           
<?xpacket end="w"?></metadata>
<defs>
    <style>
      .cls-1 {
        fill-rule: evenodd;
      }
    </style>
  </defs>
  <path id="monitor_minus" class="cls-1" d="M558,128H546a2.006,2.006,0,0,0-2,2v8a2.006,2.006,0,0,0,2,2h3v2h-2a1,1,0,0,0,0,2h4a1,1,0,0,0,0-2v-2a1,1,0,0,0,0-2h-5v-8h12v7a1,1,0,0,0,2,0v-7A2.006,2.006,0,0,0,558,128Zm1,12h-4a1,1,0,0,0,0,2h4A1,1,0,0,0,559,140Z" transform="translate(-544 -128)"/>
</svg>
