<svg xmlns="http://www.w3.org/2000/svg" width="16" height="16" viewBox="0 0 16 16">
  <metadata><?xpacket begin="﻿" id="W5M0MpCehiHzreSzNTczkc9d"?>
<x:xmpmeta xmlns:x="adobe:ns:meta/" x:xmptk="Adobe XMP Core 5.6-c138 79.159824, 2016/09/14-01:09:01        ">
   <rdf:RDF xmlns:rdf="http://www.w3.org/1999/02/22-rdf-syntax-ns#">
      <rdf:Description rdf:about=""/>
   </rdf:RDF>
</x:xmpmeta>
                                                                                                    
                                                                                                    
                                                                                                    
                                                                                                    
                                                                                                    
                                                                                                    
                                                                                                    
                                                                                                    
                                                                                                    
                                                                                                    
                                                                                                    
                                                                                                    
                                                                                                    
                                                                                                    
                                                                                                    
                                                                                                    
                                                                                                    
                                                                                                    
                                                                                                    
                                                                                                    
                           
<?xpacket end="w"?></metadata>
<defs>
    <style>
      .cls-1 {
        fill-rule: evenodd;
      }
    </style>
  </defs>
  <path id="moon_1" class="cls-1" d="M424,256a8,8,0,1,0,8,8A8.009,8.009,0,0,0,424,256Zm4.728,11.685a1.191,1.191,0,0,0-.314-0.6,1.8,1.8,0,0,0-2.475.353,1.859,1.859,0,0,0-.438,2.364A6.007,6.007,0,1,1,428.728,267.685Zm-7.539-7.5a1.287,1.287,0,1,0,1.906-.094A1.352,1.352,0,0,0,421.189,260.189Zm0.079,6.889a0.625,0.625,0,1,0,.576.959A0.894,0.894,0,0,0,421.268,267.078Zm7.5-5.241a0.948,0.948,0,1,0-.1,1.575A1.164,1.164,0,0,0,428.772,261.837Z" transform="translate(-416 -256)"/>
</svg>
