<svg xmlns="http://www.w3.org/2000/svg" width="16" height="16" viewBox="0 0 16 16">
  <metadata><?xpacket begin="﻿" id="W5M0MpCehiHzreSzNTczkc9d"?>
<x:xmpmeta xmlns:x="adobe:ns:meta/" x:xmptk="Adobe XMP Core 5.6-c138 79.159824, 2016/09/14-01:09:01        ">
   <rdf:RDF xmlns:rdf="http://www.w3.org/1999/02/22-rdf-syntax-ns#">
      <rdf:Description rdf:about=""/>
   </rdf:RDF>
</x:xmpmeta>
                                                                                                    
                                                                                                    
                                                                                                    
                                                                                                    
                                                                                                    
                                                                                                    
                                                                                                    
                                                                                                    
                                                                                                    
                                                                                                    
                                                                                                    
                                                                                                    
                                                                                                    
                                                                                                    
                                                                                                    
                                                                                                    
                                                                                                    
                                                                                                    
                                                                                                    
                                                                                                    
                           
<?xpacket end="w"?></metadata>
<defs>
    <style>
      .cls-1 {
        fill-rule: evenodd;
      }
    </style>
  </defs>
  <path id="move_1" class="cls-1" d="M46.945,714.005a1,1,0,0,0-1,1v1.585l-4.568-4.583,4.6-4.611L46,709.021a1,1,0,0,0,1,.987h0.013A1,1,0,0,0,47.991,709l-0.05-4a1,1,0,0,0-.621-0.913,0.986,0.986,0,0,0-.647-0.027l-3.7-.047H42.961a1,1,0,0,0-.013,2l1.573,0.02-4.548,4.562L35.4,706.011h1.58a1,1,0,0,0,0-2H33a0.986,0.986,0,0,0-.95,1.271L32,709a1,1,0,0,0,.983,1.012H33a1,1,0,0,0,1-.987l0.02-1.577,4.548,4.562L34,716.589V715A1,1,0,1,0,32,715v4a1,1,0,0,0,.616.922A0.984,0.984,0,0,0,33,720h3.984a1,1,0,0,0,0-2H35.4l4.568-4.583L44.541,718h-1.58a1,1,0,0,0,0,2h3.984a0.984,0.984,0,0,0,.38-0.077A1,1,0,0,0,47.941,719v-4A1,1,0,0,0,46.945,714.005Z" transform="translate(-32 -704)"/>
</svg>
