<svg xmlns="http://www.w3.org/2000/svg" width="15.969" height="15.969" viewBox="0 0 15.969 15.969">
  <metadata><?xpacket begin="﻿" id="W5M0MpCehiHzreSzNTczkc9d"?>
<x:xmpmeta xmlns:x="adobe:ns:meta/" x:xmptk="Adobe XMP Core 5.6-c138 79.159824, 2016/09/14-01:09:01        ">
   <rdf:RDF xmlns:rdf="http://www.w3.org/1999/02/22-rdf-syntax-ns#">
      <rdf:Description rdf:about=""/>
   </rdf:RDF>
</x:xmpmeta>
                                                                                                    
                                                                                                    
                                                                                                    
                                                                                                    
                                                                                                    
                                                                                                    
                                                                                                    
                                                                                                    
                                                                                                    
                                                                                                    
                                                                                                    
                                                                                                    
                                                                                                    
                                                                                                    
                                                                                                    
                                                                                                    
                                                                                                    
                                                                                                    
                                                                                                    
                                                                                                    
                           
<?xpacket end="w"?></metadata>
<defs>
    <style>
      .cls-1 {
        fill-rule: evenodd;
      }
    </style>
  </defs>
  <path id="move_2" class="cls-1" d="M79.994,711.948a0.977,0.977,0,0,0-.048-0.248,0.888,0.888,0,0,0-.035-0.1,0.985,0.985,0,0,0-.2-0.3l-2-2A1,1,0,0,0,76.3,710.72l0.293,0.292H73.011v-3.579l0.293,0.293a1,1,0,1,0,1.413-1.413l-2-2a1,1,0,0,0-1.413,0l-2,2a1,1,0,0,0,1.413,1.413l0.293-.293v3.579h-3.58l0.293-.292a1,1,0,0,0-1.413-1.413l-2,2a1,1,0,0,0-.216,1.088,1,1,0,0,0,.216.325l2,2a1,1,0,0,0,1.413-1.413l-0.293-.293h3.58V716.6L70.72,716.3a1,1,0,0,0-1.413,1.413l2,2c0.009,0.01.021,0.012,0.031,0.021a0.971,0.971,0,0,0,.293.2h0c0.009,0,.018,0,0.026.007a0.99,0.99,0,0,0,.316.061c0.034,0,.066,0,0.1,0a0.959,0.959,0,0,0,.249-0.049,0.868,0.868,0,0,0,.1-0.034,0.991,0.991,0,0,0,.3-0.2l2-2A1,1,0,1,0,73.3,716.3l-0.293.293V713.01H76.6L76.3,713.3a1,1,0,0,0,1.413,1.413l2-2c0.009-.009.012-0.021,0.02-0.031a0.975,0.975,0,0,0,.2-0.293,0.025,0.025,0,0,0,0,0c0-.008,0-0.017.007-0.026A0.989,0.989,0,0,0,80,712.049,0.962,0.962,0,0,0,79.994,711.948Z" transform="translate(-64.031 -704.031)"/>
</svg>
