<svg xmlns="http://www.w3.org/2000/svg" width="15.969" height="5.907" viewBox="0 0 15.969 5.907">
  <metadata><?xpacket begin="﻿" id="W5M0MpCehiHzreSzNTczkc9d"?>
<x:xmpmeta xmlns:x="adobe:ns:meta/" x:xmptk="Adobe XMP Core 5.6-c138 79.159824, 2016/09/14-01:09:01        ">
   <rdf:RDF xmlns:rdf="http://www.w3.org/1999/02/22-rdf-syntax-ns#">
      <rdf:Description rdf:about=""/>
   </rdf:RDF>
</x:xmpmeta>
                                                                                                    
                                                                                                    
                                                                                                    
                                                                                                    
                                                                                                    
                                                                                                    
                                                                                                    
                                                                                                    
                                                                                                    
                                                                                                    
                                                                                                    
                                                                                                    
                                                                                                    
                                                                                                    
                                                                                                    
                                                                                                    
                                                                                                    
                                                                                                    
                                                                                                    
                                                                                                    
                           
<?xpacket end="w"?></metadata>
<defs>
    <style>
      .cls-1 {
        fill-rule: evenodd;
      }
    </style>
  </defs>
  <path id="move_3" class="cls-1" d="M112,712.012a0.837,0.837,0,0,0,0-.1,0.949,0.949,0,0,0-.048-0.246,0.85,0.85,0,0,0-.035-0.1,0.973,0.973,0,0,0-.2-0.294l-2-1.976a1.007,1.007,0,0,0-1.413,0,0.98,0.98,0,0,0,0,1.4l0.293,0.29H99.433l0.293-.29a0.98,0.98,0,0,0,0-1.4,1.006,1.006,0,0,0-1.413,0l-2,1.976a0.985,0.985,0,0,0,0,1.4l2,1.975a1.005,1.005,0,0,0,1.413,0,0.98,0.98,0,0,0,0-1.4l-0.293-.289H108.6l-0.293.289a0.98,0.98,0,0,0,0,1.4,1.006,1.006,0,0,0,1.413,0l2-1.976c0.009-.009.011-0.021,0.02-0.03a0.964,0.964,0,0,0,.2-0.29,0,0,0,0,0,0,0c0-.009,0-0.018.007-0.026A0.976,0.976,0,0,0,112,712.012Z" transform="translate(-96.031 -709.031)"/>
</svg>
