<svg xmlns="http://www.w3.org/2000/svg" width="16" height="15.937" viewBox="0 0 16 15.937">
  <metadata><?xpacket begin="﻿" id="W5M0MpCehiHzreSzNTczkc9d"?>
<x:xmpmeta xmlns:x="adobe:ns:meta/" x:xmptk="Adobe XMP Core 5.6-c138 79.159824, 2016/09/14-01:09:01        ">
   <rdf:RDF xmlns:rdf="http://www.w3.org/1999/02/22-rdf-syntax-ns#">
      <rdf:Description rdf:about=""/>
   </rdf:RDF>
</x:xmpmeta>
                                                                                                    
                                                                                                    
                                                                                                    
                                                                                                    
                                                                                                    
                                                                                                    
                                                                                                    
                                                                                                    
                                                                                                    
                                                                                                    
                                                                                                    
                                                                                                    
                                                                                                    
                                                                                                    
                                                                                                    
                                                                                                    
                                                                                                    
                                                                                                    
                                                                                                    
                                                                                                    
                           
<?xpacket end="w"?></metadata>
<defs>
    <style>
      .cls-1 {
        fill-rule: evenodd;
      }
    </style>
  </defs>
  <path id="music_2" class="cls-1" d="M336,193.034a1,1,0,0,0-1.217-.974l-9,2a1,1,0,0,0-.783.973v6.337a3.464,3.464,0,0,0-1.5-.35,3.492,3.492,0,1,0,3.5,3.492,3.323,3.323,0,0,0-.034-0.333,0.922,0.922,0,0,0,.034-0.166V199.82l7-1.552v2.1a3.464,3.464,0,0,0-1.5-.35,3.492,3.492,0,1,0,3.5,3.492,3.3,3.3,0,0,0-.034-0.332,0.951,0.951,0,0,0,.034-0.167v-9.977ZM323.5,206a1.5,1.5,0,1,1,1.5-1.5A1.5,1.5,0,0,1,323.5,206Zm3.5-8.227V195.83l7-1.552v1.947Zm5.5,7.229a1.5,1.5,0,1,1,1.5-1.5A1.5,1.5,0,0,1,332.5,205.006Z" transform="translate(-320 -192.063)"/>
</svg>
