<svg xmlns="http://www.w3.org/2000/svg" width="15.969" height="16" viewBox="0 0 15.969 16">
  <metadata><?xpacket begin="﻿" id="W5M0MpCehiHzreSzNTczkc9d"?>
<x:xmpmeta xmlns:x="adobe:ns:meta/" x:xmptk="Adobe XMP Core 5.6-c138 79.159824, 2016/09/14-01:09:01        ">
   <rdf:RDF xmlns:rdf="http://www.w3.org/1999/02/22-rdf-syntax-ns#">
      <rdf:Description rdf:about=""/>
   </rdf:RDF>
</x:xmpmeta>
                                                                                                    
                                                                                                    
                                                                                                    
                                                                                                    
                                                                                                    
                                                                                                    
                                                                                                    
                                                                                                    
                                                                                                    
                                                                                                    
                                                                                                    
                                                                                                    
                                                                                                    
                                                                                                    
                                                                                                    
                                                                                                    
                                                                                                    
                                                                                                    
                                                                                                    
                                                                                                    
                           
<?xpacket end="w"?></metadata>
<defs>
    <style>
      .cls-1 {
        fill-rule: evenodd;
      }
    </style>
  </defs>
  <path id="music_1_add" class="cls-1" d="M398.992,204h-1v-1a1,1,0,1,0-2,0v1h-1a1,1,0,0,0,0,2h1v1a1,1,0,1,0,2,0v-1h1A1,1,0,0,0,398.992,204Zm-3-5a1,1,0,1,0,2,0v-6.006a1.007,1.007,0,0,0-.38-0.791,0.993,0.993,0,0,0-.859-0.18l-7.988,2a1,1,0,0,0-.759.971v7.187a2.986,2.986,0,0,0-3.844,3.778,2.94,2.94,0,0,0,1.893,1.9A3.007,3.007,0,0,0,390.005,205v-5.225l5.992-1.5v0.721ZM387.01,206a1,1,0,1,1,1-1A1,1,0,0,1,387.01,206Zm3-8.288v-1.942l5.992-1.5v1.942Z" transform="translate(-384.031 -192)"/>
</svg>
