<svg xmlns="http://www.w3.org/2000/svg" width="14" height="15.937" viewBox="0 0 14 15.937">
  <metadata><?xpacket begin="﻿" id="W5M0MpCehiHzreSzNTczkc9d"?>
<x:xmpmeta xmlns:x="adobe:ns:meta/" x:xmptk="Adobe XMP Core 5.6-c138 79.159824, 2016/09/14-01:09:01        ">
   <rdf:RDF xmlns:rdf="http://www.w3.org/1999/02/22-rdf-syntax-ns#">
      <rdf:Description rdf:about=""/>
   </rdf:RDF>
</x:xmpmeta>
                                                                                                    
                                                                                                    
                                                                                                    
                                                                                                    
                                                                                                    
                                                                                                    
                                                                                                    
                                                                                                    
                                                                                                    
                                                                                                    
                                                                                                    
                                                                                                    
                                                                                                    
                                                                                                    
                                                                                                    
                                                                                                    
                                                                                                    
                                                                                                    
                                                                                                    
                                                                                                    
                           
<?xpacket end="w"?></metadata>
<defs>
    <style>
      .cls-1 {
        fill-rule: evenodd;
      }
    </style>
  </defs>
  <path id="music_1" class="cls-1" d="M366.615,192.252a0.994,0.994,0,0,0-.858-0.182l-8,2a1,1,0,0,0-.757.968V202.2a2.984,2.984,0,1,0,2,2.809V199.8l6-1.5v1.9a2.966,2.966,0,0,0-1-.184,2.992,2.992,0,1,0,3,2.992v-9.974A0.994,0.994,0,0,0,366.615,192.252ZM356,206a1,1,0,1,1,1-1A1,1,0,0,1,356,206Zm3-8.259v-1.934l6-1.5v1.934Zm5,6.264a1,1,0,1,1,1-1A1,1,0,0,1,364,204.009Z" transform="translate(-353 -192.063)"/>
</svg>
