<svg xmlns="http://www.w3.org/2000/svg" width="16" height="15.937" viewBox="0 0 16 15.937">
  <metadata><?xpacket begin="﻿" id="W5M0MpCehiHzreSzNTczkc9d"?>
<x:xmpmeta xmlns:x="adobe:ns:meta/" x:xmptk="Adobe XMP Core 5.6-c138 79.159824, 2016/09/14-01:09:01        ">
   <rdf:RDF xmlns:rdf="http://www.w3.org/1999/02/22-rdf-syntax-ns#">
      <rdf:Description rdf:about=""/>
   </rdf:RDF>
</x:xmpmeta>
                                                                                                    
                                                                                                    
                                                                                                    
                                                                                                    
                                                                                                    
                                                                                                    
                                                                                                    
                                                                                                    
                                                                                                    
                                                                                                    
                                                                                                    
                                                                                                    
                                                                                                    
                                                                                                    
                                                                                                    
                                                                                                    
                                                                                                    
                                                                                                    
                                                                                                    
                                                                                                    
                           
<?xpacket end="w"?></metadata>
<defs>
    <style>
      .cls-1 {
        fill-rule: evenodd;
      }
    </style>
  </defs>
  <path id="music_1_minus" class="cls-1" d="M427,200.021a3,3,0,0,0-2.82,1.994H429a1,1,0,0,0,1-1V193.04a0.991,0.991,0,0,0-1.24-.967l-8,1.994a0.993,0.993,0,0,0-.76.968v7.16a2.986,2.986,0,1,0,2,2.812V199.8l6-1.495V200.2A3.029,3.029,0,0,0,427,200.021ZM419,206a1,1,0,1,1,1-1A1,1,0,0,1,419,206Zm3-8.257v-1.934l6-1.5v1.934Zm9,6.263h-4A1,1,0,1,0,427,206h4A1,1,0,1,0,431,204.01Z" transform="translate(-416 -192.063)"/>
</svg>
