<svg xmlns="http://www.w3.org/2000/svg" width="14" height="16" viewBox="0 0 14 16">
  <metadata><?xpacket begin="﻿" id="W5M0MpCehiHzreSzNTczkc9d"?>
<x:xmpmeta xmlns:x="adobe:ns:meta/" x:xmptk="Adobe XMP Core 5.6-c138 79.159824, 2016/09/14-01:09:01        ">
   <rdf:RDF xmlns:rdf="http://www.w3.org/1999/02/22-rdf-syntax-ns#">
      <rdf:Description rdf:about=""/>
   </rdf:RDF>
</x:xmpmeta>
                                                                                                    
                                                                                                    
                                                                                                    
                                                                                                    
                                                                                                    
                                                                                                    
                                                                                                    
                                                                                                    
                                                                                                    
                                                                                                    
                                                                                                    
                                                                                                    
                                                                                                    
                                                                                                    
                                                                                                    
                                                                                                    
                                                                                                    
                                                                                                    
                                                                                                    
                                                                                                    
                           
<?xpacket end="w"?></metadata>
<defs>
    <style>
      .cls-1 {
        fill-rule: evenodd;
      }
    </style>
  </defs>
  <path id="news" class="cls-1" d="M717,418v12h-2l-1-1-2,1-2-1-1,1h-2V418h10m0-2H707a2,2,0,0,0-2,2v12a2,2,0,0,0,2,2h2a2,2,0,0,0,1.395-.567l0.711,0.356a2,2,0,0,0,1.788,0l0.711-.356A2,2,0,0,0,715,432h2a2,2,0,0,0,2-2V418a2,2,0,0,0-2-2h0Zm-3,14,0-8h-4a1,1,0,0,1-1-1h0a1,1,0,0,1,1-1h4a1,1,0,0,1,1,1h0A1,1,0,0,1,714,422Zm-2,3h-2a1,1,0,0,1-1-1h0a1,1,0,0,1,1-1h2a1,1,0,0,1,1,1h0A1,1,0,0,1,712,425Z" transform="translate(-705 -416)"/>
</svg>
