<svg xmlns="http://www.w3.org/2000/svg" width="16" height="16" viewBox="0 0 16 16">
  <metadata><?xpacket begin="﻿" id="W5M0MpCehiHzreSzNTczkc9d"?>
<x:xmpmeta xmlns:x="adobe:ns:meta/" x:xmptk="Adobe XMP Core 5.6-c138 79.159824, 2016/09/14-01:09:01        ">
   <rdf:RDF xmlns:rdf="http://www.w3.org/1999/02/22-rdf-syntax-ns#">
      <rdf:Description rdf:about=""/>
   </rdf:RDF>
</x:xmpmeta>
                                                                                                    
                                                                                                    
                                                                                                    
                                                                                                    
                                                                                                    
                                                                                                    
                                                                                                    
                                                                                                    
                                                                                                    
                                                                                                    
                                                                                                    
                                                                                                    
                                                                                                    
                                                                                                    
                                                                                                    
                                                                                                    
                                                                                                    
                                                                                                    
                                                                                                    
                                                                                                    
                           
<?xpacket end="w"?></metadata>
<defs>
    <style>
      .cls-1 {
        fill-rule: evenodd;
      }
    </style>
  </defs>
  <path id="news_2_minus" class="cls-1" d="M238,448h-8a2.006,2.006,0,0,0-2,2v11a1,1,0,0,1-2,0v-8a1,1,0,0,0-2,0v8a2.992,2.992,0,0,0,1.71,2.7,2.947,2.947,0,0,0,1.29.3h4a1,1,0,0,0,0-2h-1V450h8v7a1,1,0,0,0,2,0v-7A2.006,2.006,0,0,0,238,448Zm1,12h-4a1,1,0,0,0,0,2h4A1,1,0,0,0,239,460Zm-6-6h2a1,1,0,0,0,0-2h-2A1,1,0,0,0,233,454Zm3,2a1,1,0,0,0-1-1h-2a1,1,0,0,0,0,2h2A1,1,0,0,0,236,456Z" transform="translate(-224 -448)"/>
</svg>
