<svg xmlns="http://www.w3.org/2000/svg" width="16" height="16" viewBox="0 0 16 16">
  <metadata><?xpacket begin="﻿" id="W5M0MpCehiHzreSzNTczkc9d"?>
<x:xmpmeta xmlns:x="adobe:ns:meta/" x:xmptk="Adobe XMP Core 5.6-c138 79.159824, 2016/09/14-01:09:01        ">
   <rdf:RDF xmlns:rdf="http://www.w3.org/1999/02/22-rdf-syntax-ns#">
      <rdf:Description rdf:about=""/>
   </rdf:RDF>
</x:xmpmeta>
                                                                                                    
                                                                                                    
                                                                                                    
                                                                                                    
                                                                                                    
                                                                                                    
                                                                                                    
                                                                                                    
                                                                                                    
                                                                                                    
                                                                                                    
                                                                                                    
                                                                                                    
                                                                                                    
                                                                                                    
                                                                                                    
                                                                                                    
                                                                                                    
                                                                                                    
                                                                                                    
                           
<?xpacket end="w"?></metadata>
<defs>
    <style>
      .cls-1 {
        fill-rule: evenodd;
      }
    </style>
  </defs>
  <path id="no_3" class="cls-1" d="M744,32a8,8,0,1,0,8,8A8.009,8.009,0,0,0,744,32Zm6,8a5.991,5.991,0,0,1-.209,1.548l-7.339-7.339A5.98,5.98,0,0,1,750,40Zm-12,0a5.99,5.99,0,0,1,.209-1.548l7.339,7.339A5.981,5.981,0,0,1,738,40Zm9.473,4.887-8.36-8.36a6.016,6.016,0,0,1,1.414-1.414l8.36,8.36A6.016,6.016,0,0,1,747.473,44.887Z" transform="translate(-736 -32)"/>
</svg>
