<svg xmlns="http://www.w3.org/2000/svg" width="16" height="16" viewBox="0 0 16 16">
  <metadata><?xpacket begin="﻿" id="W5M0MpCehiHzreSzNTczkc9d"?>
<x:xmpmeta xmlns:x="adobe:ns:meta/" x:xmptk="Adobe XMP Core 5.6-c138 79.159824, 2016/09/14-01:09:01        ">
   <rdf:RDF xmlns:rdf="http://www.w3.org/1999/02/22-rdf-syntax-ns#">
      <rdf:Description rdf:about=""/>
   </rdf:RDF>
</x:xmpmeta>
                                                                                                    
                                                                                                    
                                                                                                    
                                                                                                    
                                                                                                    
                                                                                                    
                                                                                                    
                                                                                                    
                                                                                                    
                                                                                                    
                                                                                                    
                                                                                                    
                                                                                                    
                                                                                                    
                                                                                                    
                                                                                                    
                                                                                                    
                                                                                                    
                                                                                                    
                                                                                                    
                           
<?xpacket end="w"?></metadata>
<defs>
    <style>
      .cls-1 {
        fill-rule: evenodd;
      }
    </style>
  </defs>
  <path id="no_cr" class="cls-1" d="M200,32a8,8,0,1,0,8,8A8.009,8.009,0,0,0,200,32Zm0,14a6,6,0,1,1,6-6A6,6,0,0,1,200,46Zm2.828-8.828a1,1,0,0,0-1.414,0L200,38.586l-1.414-1.414a1,1,0,0,0-1.414,1.414L198.586,40l-1.414,1.414a1,1,0,0,0,1.414,1.414L200,41.414l1.414,1.414a1,1,0,0,0,1.414-1.414L201.414,40l1.414-1.414A1,1,0,0,0,202.828,37.172Z" transform="translate(-192 -32)"/>
</svg>
