<svg xmlns="http://www.w3.org/2000/svg" width="16" height="16" viewBox="0 0 16 16">
  <metadata><?xpacket begin="﻿" id="W5M0MpCehiHzreSzNTczkc9d"?>
<x:xmpmeta xmlns:x="adobe:ns:meta/" x:xmptk="Adobe XMP Core 5.6-c138 79.159824, 2016/09/14-01:09:01        ">
   <rdf:RDF xmlns:rdf="http://www.w3.org/1999/02/22-rdf-syntax-ns#">
      <rdf:Description rdf:about=""/>
   </rdf:RDF>
</x:xmpmeta>
                                                                                                    
                                                                                                    
                                                                                                    
                                                                                                    
                                                                                                    
                                                                                                    
                                                                                                    
                                                                                                    
                                                                                                    
                                                                                                    
                                                                                                    
                                                                                                    
                                                                                                    
                                                                                                    
                                                                                                    
                                                                                                    
                                                                                                    
                                                                                                    
                                                                                                    
                                                                                                    
                           
<?xpacket end="w"?></metadata>
<defs>
    <style>
      .cls-1 {
        fill-rule: evenodd;
      }
    </style>
  </defs>
  <path id="no_sq" class="cls-1" d="M78,32H66a2,2,0,0,0-2,2V46a2,2,0,0,0,2,2H78a2,2,0,0,0,2-2V34A2,2,0,0,0,78,32Zm0,14H66V34H78V46Zm-8.828-3.172a1,1,0,0,0,1.414,0L72,41.414l1.414,1.414a1,1,0,1,0,1.414-1.414L73.414,40l1.414-1.414a1,1,0,1,0-1.414-1.414L72,38.586l-1.414-1.414a1,1,0,0,0-1.414,1.414L70.586,40l-1.414,1.414A1,1,0,0,0,69.172,42.828Z" transform="translate(-64 -32)"/>
</svg>
