<svg xmlns="http://www.w3.org/2000/svg" width="16" height="16" viewBox="0 0 16 16">
  <metadata><?xpacket begin="﻿" id="W5M0MpCehiHzreSzNTczkc9d"?>
<x:xmpmeta xmlns:x="adobe:ns:meta/" x:xmptk="Adobe XMP Core 5.6-c138 79.159824, 2016/09/14-01:09:01        ">
   <rdf:RDF xmlns:rdf="http://www.w3.org/1999/02/22-rdf-syntax-ns#">
      <rdf:Description rdf:about=""/>
   </rdf:RDF>
</x:xmpmeta>
                                                                                                    
                                                                                                    
                                                                                                    
                                                                                                    
                                                                                                    
                                                                                                    
                                                                                                    
                                                                                                    
                                                                                                    
                                                                                                    
                                                                                                    
                                                                                                    
                                                                                                    
                                                                                                    
                                                                                                    
                                                                                                    
                                                                                                    
                                                                                                    
                                                                                                    
                                                                                                    
                           
<?xpacket end="w"?></metadata>
<defs>
    <style>
      .cls-1 {
        fill-rule: evenodd;
      }
    </style>
  </defs>
  <path id="notification" class="cls-1" d="M462,199.171a6.144,6.144,0,0,0-5-6.061V193a1,1,0,0,0-2,0v0.09a6.006,6.006,0,0,0-5,5.91v0.171A3,3,0,0,0,451,205h2a3,3,0,0,0,6,0h2A3,3,0,0,0,462,199.171ZM456,206a1,1,0,0,1-1-1h2A1,1,0,0,1,456,206Zm5-3H451a1,1,0,0,1,0-2h1v-2a4,4,0,0,1,4-4c0.13,0,.261.006,0.393,0.019A3.949,3.949,0,0,1,460,199v2h1A1,1,0,0,1,461,203Z" transform="translate(-448 -192)"/>
</svg>
