<svg xmlns="http://www.w3.org/2000/svg" width="15.844" height="15.906" viewBox="0 0 15.844 15.906">
  <metadata><?xpacket begin="﻿" id="W5M0MpCehiHzreSzNTczkc9d"?>
<x:xmpmeta xmlns:x="adobe:ns:meta/" x:xmptk="Adobe XMP Core 5.6-c138 79.159824, 2016/09/14-01:09:01        ">
   <rdf:RDF xmlns:rdf="http://www.w3.org/1999/02/22-rdf-syntax-ns#">
      <rdf:Description rdf:about=""/>
   </rdf:RDF>
</x:xmpmeta>
                                                                                                    
                                                                                                    
                                                                                                    
                                                                                                    
                                                                                                    
                                                                                                    
                                                                                                    
                                                                                                    
                                                                                                    
                                                                                                    
                                                                                                    
                                                                                                    
                                                                                                    
                                                                                                    
                                                                                                    
                                                                                                    
                                                                                                    
                                                                                                    
                                                                                                    
                                                                                                    
                           
<?xpacket end="w"?></metadata>
<defs>
    <style>
      .cls-1 {
        fill-rule: evenodd;
      }
    </style>
  </defs>
  <path id="notification_no" class="cls-1" d="M487.955,195.065c0.128,0,.257.01,0.386,0.02a3.923,3.923,0,0,1,3.571,3.959V199.8l3.611,3.631a3.071,3.071,0,0,0,.346-1.4,2.994,2.994,0,0,0-1.979-2.814,6.1,6.1,0,0,0-4.946-6.028v-0.109a0.99,0.99,0,1,0-1.979,0v0.089a5.589,5.589,0,0,0-1.276.378l1.573,1.582A3.969,3.969,0,0,1,487.955,195.065Zm6.1,9.7h0.005l-1.732-1.741h-0.006l-6.951-6.989,0,0-1.395-1.4,0,0-2.246-2.258a0.984,0.984,0,0,0-1.4,0,1,1,0,0,0,0,1.406l2.414,2.426,0,0a4.428,4.428,0,0,0-.415.975,5.451,5.451,0,0,0-.267,1.143,5.639,5.639,0,0,0-.04.717v0.169a2.987,2.987,0,0,0,.989,5.8h1.979a2.966,2.966,0,0,0,5.847.726,2.935,2.935,0,0,0,.089-0.726H491.5l2.678,2.693a0.986,0.986,0,0,0,1.4,0,1,1,0,0,0,0-1.407Zm-5.13.466a0.991,0.991,0,0,1-1.959-.219h1.979A1.484,1.484,0,0,1,488.924,205.23Zm-5.916-2.208a0.995,0.995,0,0,1,0-1.989H484v-1.989a0.97,0.97,0,0,1,.01-0.17,3.541,3.541,0,0,1,.227-1.163,0.015,0.015,0,0,1,0,0l5.287,5.315h-6.516Z" transform="translate(-480.031 -192.094)"/>
</svg>
