<svg xmlns="http://www.w3.org/2000/svg" width="12" height="16" viewBox="0 0 12 16">
  <metadata><?xpacket begin="﻿" id="W5M0MpCehiHzreSzNTczkc9d"?>
<x:xmpmeta xmlns:x="adobe:ns:meta/" x:xmptk="Adobe XMP Core 5.6-c138 79.159824, 2016/09/14-01:09:01        ">
   <rdf:RDF xmlns:rdf="http://www.w3.org/1999/02/22-rdf-syntax-ns#">
      <rdf:Description rdf:about=""/>
   </rdf:RDF>
</x:xmpmeta>
                                                                                                    
                                                                                                    
                                                                                                    
                                                                                                    
                                                                                                    
                                                                                                    
                                                                                                    
                                                                                                    
                                                                                                    
                                                                                                    
                                                                                                    
                                                                                                    
                                                                                                    
                                                                                                    
                                                                                                    
                                                                                                    
                                                                                                    
                                                                                                    
                                                                                                    
                                                                                                    
                           
<?xpacket end="w"?></metadata>
<defs>
    <style>
      .cls-1 {
        fill-rule: evenodd;
      }
    </style>
  </defs>
  <path id="paint_brush" class="cls-1" d="M588,544h-8a2.006,2.006,0,0,0-2,2v6a3.992,3.992,0,0,0,3.01,3.87,0.57,0.57,0,0,0-.01.13v1.18a2.817,2.817,0,0,0,2.82,2.82h0.36a2.817,2.817,0,0,0,2.82-2.82V556a0.57,0.57,0,0,0-.01-0.13A3.992,3.992,0,0,0,590,552v-6A2.006,2.006,0,0,0,588,544Zm-3,13.18a0.824,0.824,0,0,1-.82.82h-0.36a0.824,0.824,0,0,1-.82-0.82V556h2v1.18Zm1-3.18h-4a2.006,2.006,0,0,1-2-2h8A2.006,2.006,0,0,1,586,554Zm2-4h-8v-3.5a0.5,0.5,0,0,1,1,0V548a1,1,0,0,0,2,0v-1.5a0.5,0.5,0,0,1,1,0V547a1,1,0,0,0,2,0v-0.5a0.5,0.5,0,0,1,.5-0.5h1a0.5,0.5,0,0,1,.5.5V550Z" transform="translate(-578 -544)"/>
</svg>
