<svg xmlns="http://www.w3.org/2000/svg" width="15.937" height="16" viewBox="0 0 15.937 16">
  <metadata><?xpacket begin="﻿" id="W5M0MpCehiHzreSzNTczkc9d"?>
<x:xmpmeta xmlns:x="adobe:ns:meta/" x:xmptk="Adobe XMP Core 5.6-c138 79.159824, 2016/09/14-01:09:01        ">
   <rdf:RDF xmlns:rdf="http://www.w3.org/1999/02/22-rdf-syntax-ns#">
      <rdf:Description rdf:about=""/>
   </rdf:RDF>
</x:xmpmeta>
                                                                                                    
                                                                                                    
                                                                                                    
                                                                                                    
                                                                                                    
                                                                                                    
                                                                                                    
                                                                                                    
                                                                                                    
                                                                                                    
                                                                                                    
                                                                                                    
                                                                                                    
                                                                                                    
                                                                                                    
                                                                                                    
                                                                                                    
                                                                                                    
                                                                                                    
                                                                                                    
                           
<?xpacket end="w"?></metadata>
<defs>
    <style>
      .cls-1 {
        fill-rule: evenodd;
      }
    </style>
  </defs>
  <path id="paint_1" class="cls-1" d="M526.706,551.288a0.3,0.3,0,0,0-.029-0.02c-0.008-.007-0.011-0.018-0.019-0.026l-7.952-7c-0.015-.013-0.035-0.015-0.05-0.027a0.953,0.953,0,0,0-.247-0.134,1.054,1.054,0,0,0-.12-0.051,1.025,1.025,0,0,0-.309-0.016,0.821,0.821,0,0,0-.1,0s-0.008,0-.012,0h-0.013c-1.353.272-5.769,1.364-5.769,3.982a3.5,3.5,0,0,0,1.623,2.8l-1.5,2.715a1,1,0,0,0,.232,1.254l5.965,5a0.99,0.99,0,0,0,1.339-.062l5.974-6.013A8.314,8.314,0,0,1,526,556a0.994,0.994,0,1,0,1.988,0C527.992,552.746,526.921,551.5,526.706,551.288Zm-12.631-3.295c0-.371.808-0.9,1.928-1.35l-1.317,2.385A1.43,1.43,0,0,1,514.075,547.993Zm4.909,9.653-4.634-3.888,1.1-1.985a18.8,18.8,0,0,0,4.453,1.212,1,1,0,0,0,.282-1.98A17.024,17.024,0,0,1,516.424,550l1.9-3.439,6.227,5.484Z" transform="translate(-512.063 -544)"/>
</svg>
