<svg xmlns="http://www.w3.org/2000/svg" width="14" height="16" viewBox="0 0 14 16">
  <metadata><?xpacket begin="﻿" id="W5M0MpCehiHzreSzNTczkc9d"?>
<x:xmpmeta xmlns:x="adobe:ns:meta/" x:xmptk="Adobe XMP Core 5.6-c138 79.159824, 2016/09/14-01:09:01        ">
   <rdf:RDF xmlns:rdf="http://www.w3.org/1999/02/22-rdf-syntax-ns#">
      <rdf:Description rdf:about=""/>
   </rdf:RDF>
</x:xmpmeta>
                                                                                                    
                                                                                                    
                                                                                                    
                                                                                                    
                                                                                                    
                                                                                                    
                                                                                                    
                                                                                                    
                                                                                                    
                                                                                                    
                                                                                                    
                                                                                                    
                                                                                                    
                                                                                                    
                                                                                                    
                                                                                                    
                                                                                                    
                                                                                                    
                                                                                                    
                                                                                                    
                           
<?xpacket end="w"?></metadata>
<defs>
    <style>
      .cls-1 {
        fill-rule: evenodd;
      }
    </style>
  </defs>
  <path id="paint_2" class="cls-1" d="M552,544c-1.64,0-7,.25-7,3.5v9c0,3.25,5.36,3.5,7,3.5s7-.25,7-3.5v-9C559,544.25,553.64,544,552,544Zm0,2c2.76,0,5,.67,5,1.5s-2.24,1.5-5,1.5-5-.67-5-1.5S549.24,546,552,546Zm5,10.5c0,0.83-2.24,1.5-5,1.5s-5-.67-5-1.5v-6.36a8.308,8.308,0,0,0,1.609.516,0.5,0.5,0,0,1,.391.487V554a1,1,0,0,0,2,0v-2.509a0.5,0.5,0,0,1,.514-0.5h0a0.5,0.5,0,0,1,.484.5V552a1,1,0,0,0,2,0v-0.678a0.5,0.5,0,0,1,.429-0.493A9.681,9.681,0,0,0,557,550.14v6.36Z" transform="translate(-545 -544)"/>
</svg>
