<svg xmlns="http://www.w3.org/2000/svg" width="13.907" height="16" viewBox="0 0 13.907 16">
  <metadata><?xpacket begin="﻿" id="W5M0MpCehiHzreSzNTczkc9d"?>
<x:xmpmeta xmlns:x="adobe:ns:meta/" x:xmptk="Adobe XMP Core 5.6-c138 79.159824, 2016/09/14-01:09:01        ">
   <rdf:RDF xmlns:rdf="http://www.w3.org/1999/02/22-rdf-syntax-ns#">
      <rdf:Description rdf:about=""/>
   </rdf:RDF>
</x:xmpmeta>
                                                                                                    
                                                                                                    
                                                                                                    
                                                                                                    
                                                                                                    
                                                                                                    
                                                                                                    
                                                                                                    
                                                                                                    
                                                                                                    
                                                                                                    
                                                                                                    
                                                                                                    
                                                                                                    
                                                                                                    
                                                                                                    
                                                                                                    
                                                                                                    
                                                                                                    
                                                                                                    
                           
<?xpacket end="w"?></metadata>
<defs>
    <style>
      .cls-1 {
        fill-rule: evenodd;
      }
    </style>
  </defs>
  <path id="pants_2" class="cls-1" d="M108.966,642l-0.995,12h-1.99l-0.995-9H103l-1,9h-1.99l-1-12h9.951m0-2H99.015a1.984,1.984,0,0,0-1.465.646,2.005,2.005,0,0,0-.519,1.52l1,12A1.994,1.994,0,0,0,100.01,656H102a1.994,1.994,0,0,0,1.978-1.779l0.012-.11,0.013,0.11A1.994,1.994,0,0,0,105.981,656h1.99a1.994,1.994,0,0,0,1.983-1.834l1-12a2.006,2.006,0,0,0-.519-1.52,1.983,1.983,0,0,0-1.464-.646h0Zm0,4h0Z" transform="translate(-97.031 -640)"/>
</svg>
