<svg xmlns="http://www.w3.org/2000/svg" width="15.906" height="16" viewBox="0 0 15.906 16">
  <metadata><?xpacket begin="﻿" id="W5M0MpCehiHzreSzNTczkc9d"?>
<x:xmpmeta xmlns:x="adobe:ns:meta/" x:xmptk="Adobe XMP Core 5.6-c138 79.159824, 2016/09/14-01:09:01        ">
   <rdf:RDF xmlns:rdf="http://www.w3.org/1999/02/22-rdf-syntax-ns#">
      <rdf:Description rdf:about=""/>
   </rdf:RDF>
</x:xmpmeta>
                                                                                                    
                                                                                                    
                                                                                                    
                                                                                                    
                                                                                                    
                                                                                                    
                                                                                                    
                                                                                                    
                                                                                                    
                                                                                                    
                                                                                                    
                                                                                                    
                                                                                                    
                                                                                                    
                                                                                                    
                                                                                                    
                                                                                                    
                                                                                                    
                                                                                                    
                                                                                                    
                           
<?xpacket end="w"?></metadata>
<defs>
    <style>
      .cls-1 {
        fill-rule: evenodd;
      }
    </style>
  </defs>
  <path id="pants_1" class="cls-1" d="M44.971,642l1,12H41.984l-1-9H39l-1,9H34.019l1-12h9.956m0-2H35.014a2,2,0,0,0-1.984,1.834l-1,12A2,2,0,0,0,34.019,656H38a1.994,1.994,0,0,0,1.979-1.779l0.012-.11L40,654.221A1.994,1.994,0,0,0,41.984,656h3.983a2,2,0,0,0,1.984-2.166l-1-12A1.994,1.994,0,0,0,44.971,640h0Z" transform="translate(-32.031 -640)"/>
</svg>
