<svg xmlns="http://www.w3.org/2000/svg" width="16" height="16" viewBox="0 0 16 16">
  <metadata><?xpacket begin="﻿" id="W5M0MpCehiHzreSzNTczkc9d"?>
<x:xmpmeta xmlns:x="adobe:ns:meta/" x:xmptk="Adobe XMP Core 5.6-c138 79.159824, 2016/09/14-01:09:01        ">
   <rdf:RDF xmlns:rdf="http://www.w3.org/1999/02/22-rdf-syntax-ns#">
      <rdf:Description rdf:about=""/>
   </rdf:RDF>
</x:xmpmeta>
                                                                                                    
                                                                                                    
                                                                                                    
                                                                                                    
                                                                                                    
                                                                                                    
                                                                                                    
                                                                                                    
                                                                                                    
                                                                                                    
                                                                                                    
                                                                                                    
                                                                                                    
                                                                                                    
                                                                                                    
                                                                                                    
                                                                                                    
                                                                                                    
                                                                                                    
                                                                                                    
                           
<?xpacket end="w"?></metadata>
<defs>
    <style>
      .cls-1 {
        fill-rule: evenodd;
      }
    </style>
  </defs>
  <path id="paper_3_minus" class="cls-1" d="M167,462h-5V451h1a2.006,2.006,0,0,0,2,2h4a2.006,2.006,0,0,0,2-2h1v6a1,1,0,0,0,2,0v-6a2.006,2.006,0,0,0-2-2h-1.27a2,2,0,0,0-1.73-1h-4a2,2,0,0,0-1.73,1H162a2.006,2.006,0,0,0-2,2v11a2.006,2.006,0,0,0,2,2h5A1,1,0,0,0,167,462Zm-2-12h4v1h-4v-1Zm0,7h4a1,1,0,0,0,1-1h0a1,1,0,0,0-1-1h-4a1,1,0,0,0-1,1h0A1,1,0,0,0,165,457Zm0,3h2a1,1,0,0,0,1-1h0a1,1,0,0,0-1-1h-2a1,1,0,0,0-1,1h0A1,1,0,0,0,165,460Zm10,0h-4a1,1,0,0,0,0,2h4A1,1,0,0,0,175,460Z" transform="translate(-160 -448)"/>
</svg>
