<svg xmlns="http://www.w3.org/2000/svg" width="16" height="16" viewBox="0 0 16 16">
  <metadata><?xpacket begin="﻿" id="W5M0MpCehiHzreSzNTczkc9d"?>
<x:xmpmeta xmlns:x="adobe:ns:meta/" x:xmptk="Adobe XMP Core 5.6-c138 79.159824, 2016/09/14-01:09:01        ">
   <rdf:RDF xmlns:rdf="http://www.w3.org/1999/02/22-rdf-syntax-ns#">
      <rdf:Description rdf:about=""/>
   </rdf:RDF>
</x:xmpmeta>
                                                                                                    
                                                                                                    
                                                                                                    
                                                                                                    
                                                                                                    
                                                                                                    
                                                                                                    
                                                                                                    
                                                                                                    
                                                                                                    
                                                                                                    
                                                                                                    
                                                                                                    
                                                                                                    
                                                                                                    
                                                                                                    
                                                                                                    
                                                                                                    
                                                                                                    
                                                                                                    
                           
<?xpacket end="w"?></metadata>
<defs>
    <style>
      .cls-1 {
        fill-rule: evenodd;
      }
    </style>
  </defs>
  <path id="paper_2_minus" class="cls-1" d="M239.99,423.8a7.994,7.994,0,0,0-7.79-7.79A1.275,1.275,0,0,0,232,416h-6a2.006,2.006,0,0,0-2,2v12a2.006,2.006,0,0,0,2,2h5a1,1,0,0,0,0-2h-5V418h6v6h6v1a1,1,0,0,0,2,0v-1A1.275,1.275,0,0,0,239.99,423.8ZM234,422v-3.65a5.952,5.952,0,0,1,3.65,3.65H234Zm5,6h-4a1,1,0,0,0,0,2h4A1,1,0,0,0,239,428Z" transform="translate(-224 -416)"/>
</svg>
