<svg xmlns="http://www.w3.org/2000/svg" width="16" height="16" viewBox="0 0 16 16">
  <metadata><?xpacket begin="﻿" id="W5M0MpCehiHzreSzNTczkc9d"?>
<x:xmpmeta xmlns:x="adobe:ns:meta/" x:xmptk="Adobe XMP Core 5.6-c138 79.159824, 2016/09/14-01:09:01        ">
   <rdf:RDF xmlns:rdf="http://www.w3.org/1999/02/22-rdf-syntax-ns#">
      <rdf:Description rdf:about=""/>
   </rdf:RDF>
</x:xmpmeta>
                                                                                                    
                                                                                                    
                                                                                                    
                                                                                                    
                                                                                                    
                                                                                                    
                                                                                                    
                                                                                                    
                                                                                                    
                                                                                                    
                                                                                                    
                                                                                                    
                                                                                                    
                                                                                                    
                                                                                                    
                                                                                                    
                                                                                                    
                                                                                                    
                                                                                                    
                                                                                                    
                           
<?xpacket end="w"?></metadata>
<defs>
    <style>
      .cls-1 {
        fill-rule: evenodd;
      }
    </style>
  </defs>
  <path id="paper_1_minus" class="cls-1" d="M327,430h-5V418h5v5h5v2a1,1,0,0,0,2,0v-4a5,5,0,0,0-5-5h-7a2.006,2.006,0,0,0-2,2v12a2.006,2.006,0,0,0,2,2h5A1,1,0,0,0,327,430Zm2-12a3.009,3.009,0,0,1,3,3h-3v-3Zm6,10h-4a1,1,0,0,0,0,2h4A1,1,0,0,0,335,428Z" transform="translate(-320 -416)"/>
</svg>
