<svg xmlns="http://www.w3.org/2000/svg" width="14" height="16" viewBox="0 0 14 16">
  <metadata><?xpacket begin="﻿" id="W5M0MpCehiHzreSzNTczkc9d"?>
<x:xmpmeta xmlns:x="adobe:ns:meta/" x:xmptk="Adobe XMP Core 5.6-c138 79.159824, 2016/09/14-01:09:01        ">
   <rdf:RDF xmlns:rdf="http://www.w3.org/1999/02/22-rdf-syntax-ns#">
      <rdf:Description rdf:about=""/>
   </rdf:RDF>
</x:xmpmeta>
                                                                                                    
                                                                                                    
                                                                                                    
                                                                                                    
                                                                                                    
                                                                                                    
                                                                                                    
                                                                                                    
                                                                                                    
                                                                                                    
                                                                                                    
                                                                                                    
                                                                                                    
                                                                                                    
                                                                                                    
                                                                                                    
                                                                                                    
                                                                                                    
                                                                                                    
                                                                                                    
                           
<?xpacket end="w"?></metadata>
<defs>
    <style>
      .cls-1 {
        fill-rule: evenodd;
      }
    </style>
  </defs>
  <path id="paper_1_pinned" class="cls-1" d="M394,416h-7a2,2,0,0,0-2,2v12a2,2,0,0,0,2,2h10a2,2,0,0,0,2-2v-9A5,5,0,0,0,394,416Zm3,5h-3v-3A3.009,3.009,0,0,1,397,421Zm-7,9v-2.5a0.5,0.5,0,0,1,1,0V430h-1Zm7,0h-4v-2.5a2.5,2.5,0,0,0-2-2.45,2.525,2.525,0,0,0-1,0,2.5,2.5,0,0,0-2,2.45V430h-1V418h5v5h5v7Z" transform="translate(-385 -416)"/>
</svg>
