<svg xmlns="http://www.w3.org/2000/svg" width="14" height="16" viewBox="0 0 14 16">
  <metadata><?xpacket begin="﻿" id="W5M0MpCehiHzreSzNTczkc9d"?>
<x:xmpmeta xmlns:x="adobe:ns:meta/" x:xmptk="Adobe XMP Core 5.6-c138 79.159824, 2016/09/14-01:09:01        ">
   <rdf:RDF xmlns:rdf="http://www.w3.org/1999/02/22-rdf-syntax-ns#">
      <rdf:Description rdf:about=""/>
   </rdf:RDF>
</x:xmpmeta>
                                                                                                    
                                                                                                    
                                                                                                    
                                                                                                    
                                                                                                    
                                                                                                    
                                                                                                    
                                                                                                    
                                                                                                    
                                                                                                    
                                                                                                    
                                                                                                    
                                                                                                    
                                                                                                    
                                                                                                    
                                                                                                    
                                                                                                    
                                                                                                    
                                                                                                    
                                                                                                    
                           
<?xpacket end="w"?></metadata>
<defs>
    <style>
      .cls-1 {
        fill-rule: evenodd;
      }
    </style>
  </defs>
  <path id="paper_3" class="cls-1" d="M77,449H75.73A2,2,0,0,0,74,448H70a2,2,0,0,0-1.73,1H67a2.006,2.006,0,0,0-2,2v11a2.006,2.006,0,0,0,2,2H77a2.006,2.006,0,0,0,2-2V451A2.006,2.006,0,0,0,77,449Zm-3,2H70v-1h4v1Zm3,11H67V451h1a2.006,2.006,0,0,0,2,2h4a2.006,2.006,0,0,0,2-2h1v11Zm-7-5h4a1,1,0,0,0,1-1h0a1,1,0,0,0-1-1H70a1,1,0,0,0-1,1h0A1,1,0,0,0,70,457Zm0,3h2a1,1,0,0,0,1-1h0a1,1,0,0,0-1-1H70a1,1,0,0,0-1,1h0A1,1,0,0,0,70,460Z" transform="translate(-65 -448)"/>
</svg>
