<svg xmlns="http://www.w3.org/2000/svg" width="14" height="16" viewBox="0 0 14 16">
  <metadata><?xpacket begin="﻿" id="W5M0MpCehiHzreSzNTczkc9d"?>
<x:xmpmeta xmlns:x="adobe:ns:meta/" x:xmptk="Adobe XMP Core 5.6-c138 79.159824, 2016/09/14-01:09:01        ">
   <rdf:RDF xmlns:rdf="http://www.w3.org/1999/02/22-rdf-syntax-ns#">
      <rdf:Description rdf:about=""/>
   </rdf:RDF>
</x:xmpmeta>
                                                                                                    
                                                                                                    
                                                                                                    
                                                                                                    
                                                                                                    
                                                                                                    
                                                                                                    
                                                                                                    
                                                                                                    
                                                                                                    
                                                                                                    
                                                                                                    
                                                                                                    
                                                                                                    
                                                                                                    
                                                                                                    
                                                                                                    
                                                                                                    
                                                                                                    
                                                                                                    
                           
<?xpacket end="w"?></metadata>
<defs>
    <style>
      .cls-1 {
        fill-rule: evenodd;
      }
    </style>
  </defs>
  <path id="paper_specs_" data-name="paper_specs  " class="cls-1" d="M488,456a1,1,0,0,0-1,1v2a1,1,0,0,0,2,0v-2A1,1,0,0,0,488,456Zm3,1a1,1,0,0,0-1,1v1a1,1,0,0,0,2,0v-1A1,1,0,0,0,491,457Zm-6-3a1,1,0,0,0-1,1v4a1,1,0,0,0,2,0v-4A1,1,0,0,0,485,454Zm5-6h-7a2,2,0,0,0-2,2v12a2,2,0,0,0,2,2h10a2,2,0,0,0,2-2v-9A5,5,0,0,0,490,448Zm3,5h-3v-2.9c0-.034,0-0.067,0-0.1A3.009,3.009,0,0,1,493,453Zm0,9H483V450h5v5h5v7Z" transform="translate(-481 -448)"/>
</svg>
