<svg xmlns="http://www.w3.org/2000/svg" width="14" height="16" viewBox="0 0 14 16">
  <metadata><?xpacket begin="﻿" id="W5M0MpCehiHzreSzNTczkc9d"?>
<x:xmpmeta xmlns:x="adobe:ns:meta/" x:xmptk="Adobe XMP Core 5.6-c138 79.159824, 2016/09/14-01:09:01        ">
   <rdf:RDF xmlns:rdf="http://www.w3.org/1999/02/22-rdf-syntax-ns#">
      <rdf:Description rdf:about=""/>
   </rdf:RDF>
</x:xmpmeta>
                                                                                                    
                                                                                                    
                                                                                                    
                                                                                                    
                                                                                                    
                                                                                                    
                                                                                                    
                                                                                                    
                                                                                                    
                                                                                                    
                                                                                                    
                                                                                                    
                                                                                                    
                                                                                                    
                                                                                                    
                                                                                                    
                                                                                                    
                                                                                                    
                                                                                                    
                                                                                                    
                           
<?xpacket end="w"?></metadata>
<defs>
    <style>
      .cls-1 {
        fill-rule: evenodd;
      }
    </style>
  </defs>
  <path id="paper_3_exp" class="cls-1" d="M109,449h-1.27a2,2,0,0,0-1.73-1h-4a2,2,0,0,0-1.73,1H99a2.006,2.006,0,0,0-2,2v11a2.006,2.006,0,0,0,2,2h7a1,1,0,0,0,0-2H99V451h1a2.006,2.006,0,0,0,2,2h4a2.006,2.006,0,0,0,2-2h1v3a1,1,0,0,0,2,0v-3A2.006,2.006,0,0,0,109,449Zm-3,2h-4v-1h4v1Zm-4,6h4a1,1,0,0,0,1-1h0a1,1,0,0,0-1-1h-4a1,1,0,0,0-1,1h0A1,1,0,0,0,102,457Zm8,0a1,1,0,0,0-1,1v2a1,1,0,0,0,2,0v-2A1,1,0,0,0,110,457Zm0,5a1,1,0,0,0-.41,1.91,0.946,0.946,0,0,0,.41.09,1,1,0,0,0,1-1,0.946,0.946,0,0,0-.09-0.41A1,1,0,0,0,110,462Zm-8-2h2a1,1,0,0,0,1-1h0a1,1,0,0,0-1-1h-2a1,1,0,0,0-1,1h0A1,1,0,0,0,102,460Z" transform="translate(-97 -448)"/>
</svg>
