<svg xmlns="http://www.w3.org/2000/svg" width="16" height="16" viewBox="0 0 16 16">
  <metadata><?xpacket begin="﻿" id="W5M0MpCehiHzreSzNTczkc9d"?>
<x:xmpmeta xmlns:x="adobe:ns:meta/" x:xmptk="Adobe XMP Core 5.6-c138 79.159824, 2016/09/14-01:09:01        ">
   <rdf:RDF xmlns:rdf="http://www.w3.org/1999/02/22-rdf-syntax-ns#">
      <rdf:Description rdf:about=""/>
   </rdf:RDF>
</x:xmpmeta>
                                                                                                    
                                                                                                    
                                                                                                    
                                                                                                    
                                                                                                    
                                                                                                    
                                                                                                    
                                                                                                    
                                                                                                    
                                                                                                    
                                                                                                    
                                                                                                    
                                                                                                    
                                                                                                    
                                                                                                    
                                                                                                    
                                                                                                    
                                                                                                    
                                                                                                    
                                                                                                    
                           
<?xpacket end="w"?></metadata>
<defs>
    <style>
      .cls-1 {
        fill-rule: evenodd;
      }
    </style>
  </defs>
  <path id="pc_1" class="cls-1" d="M590,128h-7a2.006,2.006,0,0,0-2,2v1a1,1,0,0,0,2,0v-1h7v11h-1a1,1,0,0,0,0,2h1a2.006,2.006,0,0,0,2-2V130A2.006,2.006,0,0,0,590,128Zm-1,4a1,1,0,0,0-2,0,0.993,0.993,0,0,0,.05.3,1,1,0,0,0,.65.65,0.993,0.993,0,0,0,.3.05A1,1,0,0,0,589,132Zm-4,1h-7a2,2,0,0,0-2,2v4a2,2,0,0,0,2,2h1v1h-1.1a0.9,0.9,0,0,0-.9.9V143.1a0.9,0.9,0,0,0,.9.905H585.1a0.9,0.9,0,0,0,.9-0.905V142.9a0.9,0.9,0,0,0-.9-0.9H584v-1h1a2,2,0,0,0,2-2v-4A2,2,0,0,0,585,133Zm-3,9h-1v-1h1v1Zm3-3h-7v-4h7v4Z" transform="translate(-576 -128)"/>
</svg>
