<svg xmlns="http://www.w3.org/2000/svg" width="16" height="16" viewBox="0 0 16 16">
  <metadata><?xpacket begin="﻿" id="W5M0MpCehiHzreSzNTczkc9d"?>
<x:xmpmeta xmlns:x="adobe:ns:meta/" x:xmptk="Adobe XMP Core 5.6-c138 79.159824, 2016/09/14-01:09:01        ">
   <rdf:RDF xmlns:rdf="http://www.w3.org/1999/02/22-rdf-syntax-ns#">
      <rdf:Description rdf:about=""/>
   </rdf:RDF>
</x:xmpmeta>
                                                                                                    
                                                                                                    
                                                                                                    
                                                                                                    
                                                                                                    
                                                                                                    
                                                                                                    
                                                                                                    
                                                                                                    
                                                                                                    
                                                                                                    
                                                                                                    
                                                                                                    
                                                                                                    
                                                                                                    
                                                                                                    
                                                                                                    
                                                                                                    
                                                                                                    
                                                                                                    
                           
<?xpacket end="w"?></metadata>
<defs>
    <style>
      .cls-1 {
        fill-rule: evenodd;
      }
    </style>
  </defs>
  <path id="pc_2" class="cls-1" d="M622,128h-7a2.006,2.006,0,0,0-2,2v1a1,1,0,0,0,2,0v-1h7v11h-1a1,1,0,0,0,0,2h1a2.006,2.006,0,0,0,2-2V130A2.006,2.006,0,0,0,622,128Zm-2.3,4.95a0.993,0.993,0,0,0,.3.05,1,1,0,1,0-1-1,0.993,0.993,0,0,0,.05.3A1,1,0,0,0,619.7,132.95ZM618,141a2,2,0,0,0,2-2v-4a2,2,0,0,0-2-2h-8a2,2,0,0,0-2,2v4a2,2,0,0,0,2,2h1v1h-1.047a0.953,0.953,0,0,0-.953.953v0.093a0.954,0.954,0,0,0,.953.954h8.093a0.954,0.954,0,0,0,.954-0.954v-0.093a0.954,0.954,0,0,0-.954-0.953H617v-1h1Zm-8-2v-4h8v4h-8Zm5,3h-2v-1h2v1Z" transform="translate(-608 -128)"/>
</svg>
