<svg xmlns="http://www.w3.org/2000/svg" width="16" height="16" viewBox="0 0 16 16">
  <metadata><?xpacket begin="﻿" id="W5M0MpCehiHzreSzNTczkc9d"?>
<x:xmpmeta xmlns:x="adobe:ns:meta/" x:xmptk="Adobe XMP Core 5.6-c138 79.159824, 2016/09/14-01:09:01        ">
   <rdf:RDF xmlns:rdf="http://www.w3.org/1999/02/22-rdf-syntax-ns#">
      <rdf:Description rdf:about=""/>
   </rdf:RDF>
</x:xmpmeta>
                                                                                                    
                                                                                                    
                                                                                                    
                                                                                                    
                                                                                                    
                                                                                                    
                                                                                                    
                                                                                                    
                                                                                                    
                                                                                                    
                                                                                                    
                                                                                                    
                                                                                                    
                                                                                                    
                                                                                                    
                                                                                                    
                                                                                                    
                                                                                                    
                                                                                                    
                                                                                                    
                           
<?xpacket end="w"?></metadata>
<defs>
    <style>
      .cls-1 {
        fill-rule: evenodd;
      }
    </style>
  </defs>
  <path id="pen_2" class="cls-1" d="M78.993,432H65.007a1,1,0,0,1-1-1V417a1,1,0,0,1,1-1H71a1,1,0,0,1,0,2h-5v12H77.994v-5a1,1,0,1,1,2,0v6A1,1,0,0,1,78.993,432Zm-2-14,1,1L71,426H70v-1l6.993-7h0Zm0-2a1.989,1.989,0,0,0-1.413.586l-6.993,7A2,2,0,0,0,68,425v1a2,2,0,0,0,2,2h1a2,2,0,0,0,1.413-.586l6.993-7a2,2,0,0,0,0-2.828l-1-1A1.989,1.989,0,0,0,76.995,416h0Z" transform="translate(-64 -416)"/>
</svg>
