<svg xmlns="http://www.w3.org/2000/svg" width="16" height="16" viewBox="0 0 16 16">
  <metadata><?xpacket begin="﻿" id="W5M0MpCehiHzreSzNTczkc9d"?>
<x:xmpmeta xmlns:x="adobe:ns:meta/" x:xmptk="Adobe XMP Core 5.6-c138 79.159824, 2016/09/14-01:09:01        ">
   <rdf:RDF xmlns:rdf="http://www.w3.org/1999/02/22-rdf-syntax-ns#">
      <rdf:Description rdf:about=""/>
   </rdf:RDF>
</x:xmpmeta>
                                                                                                    
                                                                                                    
                                                                                                    
                                                                                                    
                                                                                                    
                                                                                                    
                                                                                                    
                                                                                                    
                                                                                                    
                                                                                                    
                                                                                                    
                                                                                                    
                                                                                                    
                                                                                                    
                                                                                                    
                                                                                                    
                                                                                                    
                                                                                                    
                                                                                                    
                                                                                                    
                           
<?xpacket end="w"?></metadata>
<defs>
    <style>
      .cls-1 {
        fill-rule: evenodd;
      }
    </style>
  </defs>
  <path id="pen_1" class="cls-1" d="M44,418l2,2L36,430h-2v-2L44,418m0-2a1.989,1.989,0,0,0-1.413.586l-9.99,10A2,2,0,0,0,32.008,428v2a2,2,0,0,0,2,2h2a2,2,0,0,0,1.413-.586l9.99-10a2,2,0,0,0,0-2.828l-2-2A1.989,1.989,0,0,0,44,416h0Zm1,7a1,1,0,0,1-.706-0.293l-3-3a1,1,0,0,1,1.413-1.414l3,3A1,1,0,0,1,44.995,423Z" transform="translate(-32 -416)"/>
</svg>
