<svg xmlns="http://www.w3.org/2000/svg" width="16" height="16" viewBox="0 0 16 16">
  <metadata><?xpacket begin="﻿" id="W5M0MpCehiHzreSzNTczkc9d"?>
<x:xmpmeta xmlns:x="adobe:ns:meta/" x:xmptk="Adobe XMP Core 5.6-c138 79.159824, 2016/09/14-01:09:01        ">
   <rdf:RDF xmlns:rdf="http://www.w3.org/1999/02/22-rdf-syntax-ns#">
      <rdf:Description rdf:about=""/>
   </rdf:RDF>
</x:xmpmeta>
                                                                                                    
                                                                                                    
                                                                                                    
                                                                                                    
                                                                                                    
                                                                                                    
                                                                                                    
                                                                                                    
                                                                                                    
                                                                                                    
                                                                                                    
                                                                                                    
                                                                                                    
                                                                                                    
                                                                                                    
                                                                                                    
                                                                                                    
                                                                                                    
                                                                                                    
                                                                                                    
                           
<?xpacket end="w"?></metadata>
<defs>
    <style>
      .cls-1 {
        fill-rule: evenodd;
      }
    </style>
  </defs>
  <path id="pen_2_plus" class="cls-1" d="M103,430H98V418H103a1,1,0,0,0,0-2H97a1,1,0,0,0-1,1v14a1,1,0,0,0,1,1H103A1,1,0,0,0,103,430Zm8.4-12.41-1-1a1.975,1.975,0,0,0-2.816,0l-6.991,7A1.966,1.966,0,0,0,100,425v1a2,2,0,0,0,2,2h1a1.963,1.963,0,0,0,1.408-.59l6.991-7A1.976,1.976,0,0,0,111.4,417.59ZM103,426h-1v-1l6.991-7,1,1Zm7.99,2h-1v-1a1,1,0,1,0-2,0v1h-1a1,1,0,0,0,0,2h1v1a1,1,0,1,0,2,0v-1h1A1,1,0,0,0,110.987,428Z" transform="translate(-96 -416)"/>
</svg>
