<svg xmlns="http://www.w3.org/2000/svg" width="16" height="16" viewBox="0 0 16 16">
  <metadata><?xpacket begin="﻿" id="W5M0MpCehiHzreSzNTczkc9d"?>
<x:xmpmeta xmlns:x="adobe:ns:meta/" x:xmptk="Adobe XMP Core 5.6-c138 79.159824, 2016/09/14-01:09:01        ">
   <rdf:RDF xmlns:rdf="http://www.w3.org/1999/02/22-rdf-syntax-ns#">
      <rdf:Description rdf:about=""/>
   </rdf:RDF>
</x:xmpmeta>
                                                                                                    
                                                                                                    
                                                                                                    
                                                                                                    
                                                                                                    
                                                                                                    
                                                                                                    
                                                                                                    
                                                                                                    
                                                                                                    
                                                                                                    
                                                                                                    
                                                                                                    
                                                                                                    
                                                                                                    
                                                                                                    
                                                                                                    
                                                                                                    
                                                                                                    
                                                                                                    
                           
<?xpacket end="w"?></metadata>
<defs>
    <style>
      .cls-1 {
        fill-rule: evenodd;
      }
    </style>
  </defs>
  <path id="phone" class="cls-1" d="M687.9,651.63l-0.77,2.32a2,2,0,0,1-1.086,1.2,10.007,10.007,0,0,1-10.763-1.742c-0.127-.114-0.242-0.228-0.34-0.326a9.5,9.5,0,0,1-1.5-1.9,8.069,8.069,0,0,1-.388-0.721A9.793,9.793,0,0,1,672,646a9.9,9.9,0,0,1,.852-4.042,2.006,2.006,0,0,1,1.2-1.086l2.321-.77a2,2,0,0,1,2.528,1.266l1,3a2,2,0,0,1-1,2.421l-0.728.364a3.962,3.962,0,0,0,1.014,1.68,3.911,3.911,0,0,0,1.667,1l0.364-.727a2,2,0,0,1,2.422-1l3,1A2,2,0,0,1,687.9,651.63ZM686,651l-3-1-1,2a6.009,6.009,0,0,1-6-6l2-1-1-3-2.321.77A7.92,7.92,0,0,0,674,646a7.84,7.84,0,0,0,.85,3.58,6.023,6.023,0,0,0,.3.56,7.548,7.548,0,0,0,1.191,1.51c0.09,0.09.18,0.18,0.28,0.27a8,8,0,0,0,8.611,1.4Z" transform="translate(-672 -640)"/>
</svg>
