<svg xmlns="http://www.w3.org/2000/svg" width="16" height="16" viewBox="0 0 16 16">
  <metadata><?xpacket begin="﻿" id="W5M0MpCehiHzreSzNTczkc9d"?>
<x:xmpmeta xmlns:x="adobe:ns:meta/" x:xmptk="Adobe XMP Core 5.6-c138 79.159824, 2016/09/14-01:09:01        ">
   <rdf:RDF xmlns:rdf="http://www.w3.org/1999/02/22-rdf-syntax-ns#">
      <rdf:Description rdf:about=""/>
   </rdf:RDF>
</x:xmpmeta>
                                                                                                    
                                                                                                    
                                                                                                    
                                                                                                    
                                                                                                    
                                                                                                    
                                                                                                    
                                                                                                    
                                                                                                    
                                                                                                    
                                                                                                    
                                                                                                    
                                                                                                    
                                                                                                    
                                                                                                    
                                                                                                    
                                                                                                    
                                                                                                    
                                                                                                    
                                                                                                    
                           
<?xpacket end="w"?></metadata>
<defs>
    <style>
      .cls-1 {
        fill-rule: evenodd;
      }
    </style>
  </defs>
  <path id="phone_no" class="cls-1" d="M708,645.988l2-1-1-3-2.321.77a7.93,7.93,0,0,0-.68,3.232,7.743,7.743,0,0,0,.64,3.121l-1.511,1.511c-0.02-.05-0.05-0.11-0.08-0.17A9.768,9.768,0,0,1,704,645.988a9.964,9.964,0,0,1,.851-4.042,2.018,2.018,0,0,1,1.2-1.091l2.321-.77a1.975,1.975,0,0,1,.63-0.1,2,2,0,0,1,1.9,1.371l0.871,2.621-3.562,3.562A5.646,5.646,0,0,1,708,645.988Zm-1.748,6.336,0,0,1.43-1.431,0,0,1.431-1.43,0,0,1.441-1.44,0,0,7.745-7.744a1,1,0,0,1,1.415,1.415l-7.745,7.744,0,0a4.026,4.026,0,0,0,.881.381l0.36-.721a1.985,1.985,0,0,1,1.6-1.1,1.21,1.21,0,0,1,.19-0.01,1.975,1.975,0,0,1,.63.1l0.38,0.13,2.622,0.87a2,2,0,0,1,1.271,2.531l-0.771,2.321a2.016,2.016,0,0,1-1.09,1.2,9.971,9.971,0,0,1-4.043.85,9.817,9.817,0,0,1-4.622-1.14,5.762,5.762,0,0,1-.891-0.53,6.414,6.414,0,0,1-.811-0.591l0,0-1.971,1.97a1,1,0,0,1-1.414-1.414Zm2.848-.013a6.535,6.535,0,0,0,.841.56,5.548,5.548,0,0,0,.94.48,7.967,7.967,0,0,0,6.354-.04l0.771-2.321-3-1-1,2a5.608,5.608,0,0,1-1.551-.211,5.388,5.388,0,0,1-1.04-.38,5.225,5.225,0,0,1-.881-0.52l0,0-1.431,1.431Z" transform="translate(-704 -640)"/>
</svg>
