<svg xmlns="http://www.w3.org/2000/svg" width="16" height="14" viewBox="0 0 16 14">
  <metadata><?xpacket begin="﻿" id="W5M0MpCehiHzreSzNTczkc9d"?>
<x:xmpmeta xmlns:x="adobe:ns:meta/" x:xmptk="Adobe XMP Core 5.6-c138 79.159824, 2016/09/14-01:09:01        ">
   <rdf:RDF xmlns:rdf="http://www.w3.org/1999/02/22-rdf-syntax-ns#">
      <rdf:Description rdf:about=""/>
   </rdf:RDF>
</x:xmpmeta>
                                                                                                    
                                                                                                    
                                                                                                    
                                                                                                    
                                                                                                    
                                                                                                    
                                                                                                    
                                                                                                    
                                                                                                    
                                                                                                    
                                                                                                    
                                                                                                    
                                                                                                    
                                                                                                    
                                                                                                    
                                                                                                    
                                                                                                    
                                                                                                    
                                                                                                    
                                                                                                    
                           
<?xpacket end="w"?></metadata>
<defs>
    <style>
      .cls-1 {
        fill-rule: evenodd;
      }
    </style>
  </defs>
  <path id="pic_1_minus" class="cls-1" d="M334,161H322a2.006,2.006,0,0,0-2,2v8a2.006,2.006,0,0,0,2,2h5a1,1,0,0,0,1-1h0a1,1,0,0,0-1-1h-5v-8h12v7a1,1,0,0,0,1,1h0a1,1,0,0,0,1-1v-7A2.006,2.006,0,0,0,334,161Zm-11,9,3-5,3,4,2-2,2,3H323Zm8-5a1,1,0,1,1-1-1A1,1,0,0,1,331,165Zm5,9h0a1,1,0,0,1-1,1h-4a1,1,0,0,1-1-1h0a1,1,0,0,1,1-1h4A1,1,0,0,1,336,174Z" transform="translate(-320 -161)"/>
</svg>
