<svg xmlns="http://www.w3.org/2000/svg" width="16" height="16" viewBox="0 0 16 16">
  <metadata><?xpacket begin="﻿" id="W5M0MpCehiHzreSzNTczkc9d"?>
<x:xmpmeta xmlns:x="adobe:ns:meta/" x:xmptk="Adobe XMP Core 5.6-c138 79.159824, 2016/09/14-01:09:01        ">
   <rdf:RDF xmlns:rdf="http://www.w3.org/1999/02/22-rdf-syntax-ns#">
      <rdf:Description rdf:about=""/>
   </rdf:RDF>
</x:xmpmeta>
                                                                                                    
                                                                                                    
                                                                                                    
                                                                                                    
                                                                                                    
                                                                                                    
                                                                                                    
                                                                                                    
                                                                                                    
                                                                                                    
                                                                                                    
                                                                                                    
                                                                                                    
                                                                                                    
                                                                                                    
                                                                                                    
                                                                                                    
                                                                                                    
                                                                                                    
                                                                                                    
                           
<?xpacket end="w"?></metadata>
<defs>
    <style>
      .cls-1 {
        fill-rule: evenodd;
      }
    </style>
  </defs>
  <path id="pic_stand_2" class="cls-1" d="M142,161h-5a1,1,0,0,0-2,0h-5a2,2,0,0,0-2,2v8a2,2,0,0,0,2,2h0.586l-1.293,1.293a1,1,0,1,0,1.414,1.414L133.414,173H135v1a1,1,0,0,0,2,0v-1h1.586l2.707,2.707a1,1,0,0,0,1.414-1.414L141.414,173H142a2,2,0,0,0,2-2v-8A2,2,0,0,0,142,161Zm0,10H130v-8h12v8Zm-3-4-2,1-3-3-2,4h8Z" transform="translate(-128 -160)"/>
</svg>
