<svg xmlns="http://www.w3.org/2000/svg" width="16" height="16" viewBox="0 0 16 16">
  <metadata><?xpacket begin="﻿" id="W5M0MpCehiHzreSzNTczkc9d"?>
<x:xmpmeta xmlns:x="adobe:ns:meta/" x:xmptk="Adobe XMP Core 5.6-c138 79.159824, 2016/09/14-01:09:01        ">
   <rdf:RDF xmlns:rdf="http://www.w3.org/1999/02/22-rdf-syntax-ns#">
      <rdf:Description rdf:about=""/>
   </rdf:RDF>
</x:xmpmeta>
                                                                                                    
                                                                                                    
                                                                                                    
                                                                                                    
                                                                                                    
                                                                                                    
                                                                                                    
                                                                                                    
                                                                                                    
                                                                                                    
                                                                                                    
                                                                                                    
                                                                                                    
                                                                                                    
                                                                                                    
                                                                                                    
                                                                                                    
                                                                                                    
                                                                                                    
                                                                                                    
                           
<?xpacket end="w"?></metadata>
<defs>
    <style>
      .cls-1 {
        fill-rule: evenodd;
      }
    </style>
  </defs>
  <path id="pic_1_add" class="cls-1" d="M302,160H290a2.006,2.006,0,0,0-2,2v8a2.006,2.006,0,0,0,2,2h5a1,1,0,0,0,0-2h-5v-8h12v5a1,1,0,0,0,2,0v-5A2.006,2.006,0,0,0,302,160Zm-8,4-3,5h7.88a1.135,1.135,0,0,0,.944-1.764L299,166l-2,2Zm5,0a1,1,0,1,0-1,1A1,1,0,0,0,299,164Zm4,8h-1v-1a1,1,0,0,0-2,0v1h-1a1,1,0,0,0,0,2h1v1a1,1,0,0,0,2,0v-1h1A1,1,0,0,0,303,172Z" transform="translate(-288 -160)"/>
</svg>
