<svg xmlns="http://www.w3.org/2000/svg" width="16" height="16" viewBox="0 0 16 16">
  <metadata><?xpacket begin="﻿" id="W5M0MpCehiHzreSzNTczkc9d"?>
<x:xmpmeta xmlns:x="adobe:ns:meta/" x:xmptk="Adobe XMP Core 5.6-c138 79.159824, 2016/09/14-01:09:01        ">
   <rdf:RDF xmlns:rdf="http://www.w3.org/1999/02/22-rdf-syntax-ns#">
      <rdf:Description rdf:about=""/>
   </rdf:RDF>
</x:xmpmeta>
                                                                                                    
                                                                                                    
                                                                                                    
                                                                                                    
                                                                                                    
                                                                                                    
                                                                                                    
                                                                                                    
                                                                                                    
                                                                                                    
                                                                                                    
                                                                                                    
                                                                                                    
                                                                                                    
                                                                                                    
                                                                                                    
                                                                                                    
                                                                                                    
                                                                                                    
                                                                                                    
                           
<?xpacket end="w"?></metadata>
<defs>
    <style>
      .cls-1 {
        fill-rule: evenodd;
      }
    </style>
  </defs>
  <path id="pic_stand_1" class="cls-1" d="M110,161h-5a1,1,0,0,0-2,0H98a2,2,0,0,0-2,2v8a2,2,0,0,0,2,2h0.586l-1.293,1.293a1,1,0,1,0,1.414,1.414L101.414,173H103v1a1,1,0,0,0,2,0v-1h1.586l2.707,2.707a1,1,0,0,0,1.414-1.414L109.414,173H110a2,2,0,0,0,2-2v-8A2,2,0,0,0,110,161Zm0,10H98v-8h12v8Zm-3-4-2,2-3-4-3,5h10Zm-1-1a1,1,0,1,0-1-1A1,1,0,0,0,106,166Z" transform="translate(-96 -160)"/>
</svg>
