<svg xmlns="http://www.w3.org/2000/svg" width="14.438" height="16" viewBox="0 0 14.438 16">
  <metadata><?xpacket begin="﻿" id="W5M0MpCehiHzreSzNTczkc9d"?>
<x:xmpmeta xmlns:x="adobe:ns:meta/" x:xmptk="Adobe XMP Core 5.6-c138 79.159824, 2016/09/14-01:09:01        ">
   <rdf:RDF xmlns:rdf="http://www.w3.org/1999/02/22-rdf-syntax-ns#">
      <rdf:Description rdf:about=""/>
   </rdf:RDF>
</x:xmpmeta>
                                                                                                    
                                                                                                    
                                                                                                    
                                                                                                    
                                                                                                    
                                                                                                    
                                                                                                    
                                                                                                    
                                                                                                    
                                                                                                    
                                                                                                    
                                                                                                    
                                                                                                    
                                                                                                    
                                                                                                    
                                                                                                    
                                                                                                    
                                                                                                    
                                                                                                    
                                                                                                    
                           
<?xpacket end="w"?></metadata>
<defs>
    <style>
      .cls-1 {
        fill-rule: evenodd;
      }
    </style>
  </defs>
  <path id="pikes" class="cls-1" d="M648,578s11,10,1,10l1,2h-4l1-2c-10,0,1-10,1-10m0-2a1.992,1.992,0,0,0-1.345.52c-2.157,1.961-7.02,6.921-5.59,10.62a4.2,4.2,0,0,0,2.969,2.494A2,2,0,0,0,646,592h4a2,2,0,0,0,1.966-2.366,4.2,4.2,0,0,0,2.969-2.494c1.43-3.7-3.433-8.659-5.59-10.62A1.992,1.992,0,0,0,648,576h0Z" transform="translate(-640.781 -576)"/>
</svg>
