<svg xmlns="http://www.w3.org/2000/svg" width="15.812" height="15.906" viewBox="0 0 15.812 15.906">
  <metadata><?xpacket begin="﻿" id="W5M0MpCehiHzreSzNTczkc9d"?>
<x:xmpmeta xmlns:x="adobe:ns:meta/" x:xmptk="Adobe XMP Core 5.6-c138 79.159824, 2016/09/14-01:09:01        ">
   <rdf:RDF xmlns:rdf="http://www.w3.org/1999/02/22-rdf-syntax-ns#">
      <rdf:Description rdf:about=""/>
   </rdf:RDF>
</x:xmpmeta>
                                                                                                    
                                                                                                    
                                                                                                    
                                                                                                    
                                                                                                    
                                                                                                    
                                                                                                    
                                                                                                    
                                                                                                    
                                                                                                    
                                                                                                    
                                                                                                    
                                                                                                    
                                                                                                    
                                                                                                    
                                                                                                    
                                                                                                    
                                                                                                    
                                                                                                    
                                                                                                    
                           
<?xpacket end="w"?></metadata>
<defs>
    <style>
      .cls-1 {
        fill-rule: evenodd;
      }
    </style>
  </defs>
  <path id="pin" class="cls-1" d="M623.579,326.336l-5.936-5.968a0.985,0.985,0,0,0-1.4,0,1,1,0,0,0,0,1.407l0.11,0.11-6.193,3.891-0.433-.435a0.985,0.985,0,0,0-1.4,0,1,1,0,0,0,0,1.407l0.989,0.994,2.763,2.778-3.752,3.773a1,1,0,0,0,0,1.406,0.985,0.985,0,0,0,1.4,0l3.753-3.772,2.763,2.777,0.989,1a0.986,0.986,0,0,0,1.4,0,1,1,0,0,0,0-1.406l-0.433-.436,3.87-6.225,0.11,0.11a0.984,0.984,0,0,0,1.4,0A1,1,0,0,0,623.579,326.336Zm-6.815,6.078L611.6,327.22l6.192-3.891,2.844,2.859Z" transform="translate(-608.063 -320.094)"/>
</svg>
