<svg xmlns="http://www.w3.org/2000/svg" width="15.844" height="15.906" viewBox="0 0 15.844 15.906">
  <metadata><?xpacket begin="﻿" id="W5M0MpCehiHzreSzNTczkc9d"?>
<x:xmpmeta xmlns:x="adobe:ns:meta/" x:xmptk="Adobe XMP Core 5.6-c138 79.159824, 2016/09/14-01:09:01        ">
   <rdf:RDF xmlns:rdf="http://www.w3.org/1999/02/22-rdf-syntax-ns#">
      <rdf:Description rdf:about=""/>
   </rdf:RDF>
</x:xmpmeta>
                                                                                                    
                                                                                                    
                                                                                                    
                                                                                                    
                                                                                                    
                                                                                                    
                                                                                                    
                                                                                                    
                                                                                                    
                                                                                                    
                                                                                                    
                                                                                                    
                                                                                                    
                                                                                                    
                                                                                                    
                                                                                                    
                                                                                                    
                                                                                                    
                                                                                                    
                                                                                                    
                           
<?xpacket end="w"?></metadata>
<defs>
    <style>
      .cls-1 {
        fill-rule: evenodd;
      }
    </style>
  </defs>
  <path id="pin_minus" class="cls-1" d="M655.578,326.334l-5.934-5.967a0.993,0.993,0,0,0-1.4,0,1.007,1.007,0,0,0,0,1.412l0.109,0.109-6.191,3.889-0.425-.438a0.993,0.993,0,0,0-1.4,0,1.007,1.007,0,0,0,0,1.412l0.989,1,2.77,2.774-3.759,3.769a1,1,0,0,0,1.4,1.413l3.748-3.779,0.781,0.788a0.99,0.99,0,0,0,1.692-.7h0a1,1,0,0,0-.29-0.7l-4.062-4.084,6.191-3.889,2.839,2.854-1.438,2.316a1,1,0,0,0,.839,1.523h0a0.989,0.989,0,0,0,.84-0.468l1.193-1.919,0.108,0.11A1,1,0,0,0,655.578,326.334Zm0.287,6.672a1,1,0,0,1-.989,1H650.92a0.994,0.994,0,0,1-.989-1,0.994,0.994,0,0,1,.989-0.994h3.956A0.994,0.994,0,0,1,655.865,333.006Z" transform="translate(-640.031 -320.094)"/>
</svg>
