<svg xmlns="http://www.w3.org/2000/svg" width="15.844" height="15.906" viewBox="0 0 15.844 15.906">
  <metadata><?xpacket begin="﻿" id="W5M0MpCehiHzreSzNTczkc9d"?>
<x:xmpmeta xmlns:x="adobe:ns:meta/" x:xmptk="Adobe XMP Core 5.6-c138 79.159824, 2016/09/14-01:09:01        ">
   <rdf:RDF xmlns:rdf="http://www.w3.org/1999/02/22-rdf-syntax-ns#">
      <rdf:Description rdf:about=""/>
   </rdf:RDF>
</x:xmpmeta>
                                                                                                    
                                                                                                    
                                                                                                    
                                                                                                    
                                                                                                    
                                                                                                    
                                                                                                    
                                                                                                    
                                                                                                    
                                                                                                    
                                                                                                    
                                                                                                    
                                                                                                    
                                                                                                    
                                                                                                    
                                                                                                    
                                                                                                    
                                                                                                    
                                                                                                    
                                                                                                    
                           
<?xpacket end="w"?></metadata>
<defs>
    <style>
      .cls-1 {
        fill-rule: evenodd;
      }
    </style>
  </defs>
  <path id="pin_add" class="cls-1" d="M684.631,326.184l-0.159.257a1.045,1.045,0,0,0-.027,1.057,1.034,1.034,0,0,0,.906.536,0.841,0.841,0,0,0,.714-0.4l0.109,0.11a1,1,0,0,0,1.4-1.412l-5.934-5.967a0.993,0.993,0,0,0-1.4,0,1.007,1.007,0,0,0,0,1.412l0.109,0.109-6.191,3.889-0.425-.438a0.993,0.993,0,0,0-1.4,0,1.007,1.007,0,0,0,0,1.412l0.989,1,2.77,2.774-3.759,3.769a1,1,0,0,0,1.4,1.412l3.748-3.779,0.781,0.786a0.99,0.99,0,0,0,1.692-.706,1,1,0,0,0-.287-0.7l-4.065-4.087,6.191-3.889Zm2.245,5.828h-0.989v-1a1,1,0,0,0-.989-0.994,0.836,0.836,0,0,0-.356.07,1,1,0,0,0-.633.924v1H682.92a0.994,0.994,0,0,0-.989.994,0.994,0.994,0,0,0,.989,1h0.989V335a0.989,0.989,0,1,0,1.978,0V334h0.989A0.995,0.995,0,0,0,686.876,332.012Z" transform="translate(-672.031 -320.094)"/>
</svg>
