<svg xmlns="http://www.w3.org/2000/svg" width="11" height="15.844" viewBox="0 0 11 15.844">
  <metadata><?xpacket begin="﻿" id="W5M0MpCehiHzreSzNTczkc9d"?>
<x:xmpmeta xmlns:x="adobe:ns:meta/" x:xmptk="Adobe XMP Core 5.6-c138 79.159824, 2016/09/14-01:09:01        ">
   <rdf:RDF xmlns:rdf="http://www.w3.org/1999/02/22-rdf-syntax-ns#">
      <rdf:Description rdf:about=""/>
   </rdf:RDF>
</x:xmpmeta>
                                                                                                    
                                                                                                    
                                                                                                    
                                                                                                    
                                                                                                    
                                                                                                    
                                                                                                    
                                                                                                    
                                                                                                    
                                                                                                    
                                                                                                    
                                                                                                    
                                                                                                    
                                                                                                    
                                                                                                    
                                                                                                    
                                                                                                    
                                                                                                    
                                                                                                    
                                                                                                    
                           
<?xpacket end="w"?></metadata>
<defs>
    <style>
      .cls-1 {
        fill-rule: evenodd;
      }
    </style>
  </defs>
  <path id="pinned_3" class="cls-1" d="M555,321.107v9.309a3.537,3.537,0,0,1-2.765,3.491A3.5,3.5,0,0,1,548,330.515v-6.35a2.046,2.046,0,0,1,1.494-2,2.022,2.022,0,0,1,2.246.937,1.92,1.92,0,0,1,.26.981v6.437a0.5,0.5,0,0,1-1,0v-6.437a1,1,0,0,0-2,0v6.294a2.582,2.582,0,0,0,2.241,2.606A2.493,2.493,0,0,0,554,330.515v-6.437c0-.129-0.01-0.268-0.02-0.4a3.987,3.987,0,0,0-4.332-3.551A4.107,4.107,0,0,0,546,324.272v6.243a5.4,5.4,0,0,0,2,4.2,5.532,5.532,0,0,0,7,0,5.4,5.4,0,0,0,2-4.2v-9.408a1,1,0,0,0-1-.991h0A1,1,0,0,0,555,321.107Z" transform="translate(-546 -320.125)"/>
</svg>
