<svg xmlns="http://www.w3.org/2000/svg" width="15.938" height="16" viewBox="0 0 15.938 16">
  <metadata><?xpacket begin="﻿" id="W5M0MpCehiHzreSzNTczkc9d"?>
<x:xmpmeta xmlns:x="adobe:ns:meta/" x:xmptk="Adobe XMP Core 5.6-c138 79.159824, 2016/09/14-01:09:01        ">
   <rdf:RDF xmlns:rdf="http://www.w3.org/1999/02/22-rdf-syntax-ns#">
      <rdf:Description rdf:about=""/>
   </rdf:RDF>
</x:xmpmeta>
                                                                                                    
                                                                                                    
                                                                                                    
                                                                                                    
                                                                                                    
                                                                                                    
                                                                                                    
                                                                                                    
                                                                                                    
                                                                                                    
                                                                                                    
                                                                                                    
                                                                                                    
                                                                                                    
                                                                                                    
                                                                                                    
                                                                                                    
                                                                                                    
                                                                                                    
                                                                                                    
                           
<?xpacket end="w"?></metadata>
<defs>
    <style>
      .cls-1 {
        fill-rule: evenodd;
      }
    </style>
  </defs>
  <path id="pizza" class="cls-1" d="M39.034,576a2.989,2.989,0,0,0-2.916,3.639c0,0.007-.009.012-0.012,0.019l-3.984,11a1,1,0,0,0,.232,1.049,0.993,0.993,0,0,0,.7.293,0.981,0.981,0,0,0,.34-0.061l10.956-4a0.183,0.183,0,0,0,.019-0.011A2.974,2.974,0,0,0,48,585,8.992,8.992,0,0,0,39.034,576ZM36.3,584.982A3.529,3.529,0,0,0,39.034,586c1.992,0-1-1-1-2a1.979,1.979,0,0,0-.912-1.306l0.4-1.117a2.944,2.944,0,0,0,1.5.423,2.944,2.944,0,0,1,1.371.35,0.563,0.563,0,0,0-.375.65,2.936,2.936,0,0,0,1.977,1.854c0,0.05.015,0.1,0.015,0.146a2.977,2.977,0,0,0,.421,1.51l-3.455,1.261a0.982,0.982,0,0,0-.95-0.771,1,1,0,0,0-1,1,0.979,0.979,0,0,0,.113.44l-2.431.888ZM45.01,586a1,1,0,0,1-1-1,5,5,0,0,0-4.98-5,1,1,0,0,1,0-2,6.994,6.994,0,0,1,6.972,7A1,1,0,0,1,45.01,586Z" transform="translate(-32.063 -576)"/>
</svg>
