<svg xmlns="http://www.w3.org/2000/svg" width="15.906" height="16" viewBox="0 0 15.906 16">
  <metadata><?xpacket begin="﻿" id="W5M0MpCehiHzreSzNTczkc9d"?>
<x:xmpmeta xmlns:x="adobe:ns:meta/" x:xmptk="Adobe XMP Core 5.6-c138 79.159824, 2016/09/14-01:09:01        ">
   <rdf:RDF xmlns:rdf="http://www.w3.org/1999/02/22-rdf-syntax-ns#">
      <rdf:Description rdf:about=""/>
   </rdf:RDF>
</x:xmpmeta>
                                                                                                    
                                                                                                    
                                                                                                    
                                                                                                    
                                                                                                    
                                                                                                    
                                                                                                    
                                                                                                    
                                                                                                    
                                                                                                    
                                                                                                    
                                                                                                    
                                                                                                    
                                                                                                    
                                                                                                    
                                                                                                    
                                                                                                    
                                                                                                    
                                                                                                    
                                                                                                    
                           
<?xpacket end="w"?></metadata>
<defs>
    <style>
      .cls-1 {
        fill-rule: evenodd;
      }
    </style>
  </defs>
  <path id="plane" class="cls-1" d="M750,224h-1.987a3.992,3.992,0,0,0-3.179,1.6c-0.01.02-.03,0.04-0.039,0.06l-0.2.285-6.872-.768a1.443,1.443,0,0,0-1.5.881,1.464,1.464,0,0,0,.407,1.7l4.246,3.561h0L739.72,233h-2.633a1,1,0,0,0-.447,1.89l1.947,0.98a2.5,2.5,0,0,0,.189.52,2.1,2.1,0,0,0,1.421,1.09l0.973,1.97a0.992,0.992,0,0,0,.884.55,0.894,0.894,0,0,0,.229-0.03,0.994,0.994,0,0,0,.765-0.97v-2.65l1.669-1.17,3.557,4.3a1.452,1.452,0,0,0,2.553-1.1l-0.775-6.94,0.288-.2c0.02-.01.04-0.03,0.06-0.04a4.037,4.037,0,0,0,1.59-3.2v-2A2,2,0,0,0,750,224Zm-1.987,2H750v2a2.019,2.019,0,0,1-.794,1.6l-6.557,4.6-1.59,1.11-0.3.21a0.149,0.149,0,0,1-.09.02,0.158,0.158,0,0,1-.129-0.24l0.209-.3,1.1-1.6,4.57-6.6A2,2,0,0,1,748.015,226Zm-8.746,1.361,4.035,0.452-1.279,1.857,0,0Zm9.382,9.439-2.295-2.77,1.848-1.29Z" transform="translate(-736.094 -224)"/>
</svg>
