<svg xmlns="http://www.w3.org/2000/svg" width="16" height="16" viewBox="0 0 16 16">
  <metadata><?xpacket begin="﻿" id="W5M0MpCehiHzreSzNTczkc9d"?>
<x:xmpmeta xmlns:x="adobe:ns:meta/" x:xmptk="Adobe XMP Core 5.6-c138 79.159824, 2016/09/14-01:09:01        ">
   <rdf:RDF xmlns:rdf="http://www.w3.org/1999/02/22-rdf-syntax-ns#">
      <rdf:Description rdf:about=""/>
   </rdf:RDF>
</x:xmpmeta>
                                                                                                    
                                                                                                    
                                                                                                    
                                                                                                    
                                                                                                    
                                                                                                    
                                                                                                    
                                                                                                    
                                                                                                    
                                                                                                    
                                                                                                    
                                                                                                    
                                                                                                    
                                                                                                    
                                                                                                    
                                                                                                    
                                                                                                    
                                                                                                    
                                                                                                    
                                                                                                    
                           
<?xpacket end="w"?></metadata>
<defs>
    <style>
      .cls-1 {
        fill-rule: evenodd;
      }
    </style>
  </defs>
  <path id="play_video" class="cls-1" d="M528,164v-2a2,2,0,0,0-2-2c-0.055,0-.111,0-0.166.007l-12,1A2,2,0,0,0,512,163v2a1.989,1.989,0,0,0,.279,1,1.973,1.973,0,0,0-.279,1v7a2,2,0,0,0,2,2h12a2,2,0,0,0,2-2v-7a1.988,1.988,0,0,0-.689-1.5A1.991,1.991,0,0,0,528,164Zm-2-2v2l-1.846.154-1.846-1.846Zm-7.385,2.615-1.846-1.846,3.693-.308,1.846,1.847ZM514,163l0.923-.077,1.846,1.846L514,165v-2Zm12,11H514v-7h12v7Zm-8-6v5l4.75-2.5Z" transform="translate(-512 -160)"/>
</svg>
