<svg xmlns="http://www.w3.org/2000/svg" width="13.781" height="15.625" viewBox="0 0 13.781 15.625">
  <metadata><?xpacket begin="﻿" id="W5M0MpCehiHzreSzNTczkc9d"?>
<x:xmpmeta xmlns:x="adobe:ns:meta/" x:xmptk="Adobe XMP Core 5.6-c138 79.159824, 2016/09/14-01:09:01        ">
   <rdf:RDF xmlns:rdf="http://www.w3.org/1999/02/22-rdf-syntax-ns#">
      <rdf:Description rdf:about=""/>
   </rdf:RDF>
</x:xmpmeta>
                                                                                                    
                                                                                                    
                                                                                                    
                                                                                                    
                                                                                                    
                                                                                                    
                                                                                                    
                                                                                                    
                                                                                                    
                                                                                                    
                                                                                                    
                                                                                                    
                                                                                                    
                                                                                                    
                                                                                                    
                                                                                                    
                                                                                                    
                                                                                                    
                                                                                                    
                                                                                                    
                           
<?xpacket end="w"?></metadata>
<defs>
    <style>
      .cls-1 {
        fill-rule: evenodd;
      }
    </style>
  </defs>
  <path id="power" class="cls-1" d="M140.572,323.385a0.974,0.974,0,0,0-1.594.752v0.01a1.012,1.012,0,0,0,.354.752,4.92,4.92,0,1,1-6.613,0,1.013,1.013,0,0,0,.355-0.752,0.969,0.969,0,0,0-.984-0.967,0.99,0.99,0,0,0-.67.254,6.824,6.824,0,0,0-2.223,6.016,6.895,6.895,0,0,0,13.717-.937A6.787,6.787,0,0,0,140.572,323.385Zm-4.546,5.128h0a0.983,0.983,0,0,1-.984-0.977V320.7a0.982,0.982,0,0,1,.984-0.977h0a0.983,0.983,0,0,1,.984.977v6.836A0.984,0.984,0,0,1,136.026,328.513Z" transform="translate(-129.125 -319.719)"/>
</svg>
