<svg xmlns="http://www.w3.org/2000/svg" width="16" height="16" viewBox="0 0 16 16">
  <metadata><?xpacket begin="﻿" id="W5M0MpCehiHzreSzNTczkc9d"?>
<x:xmpmeta xmlns:x="adobe:ns:meta/" x:xmptk="Adobe XMP Core 5.6-c138 79.159824, 2016/09/14-01:09:01        ">
   <rdf:RDF xmlns:rdf="http://www.w3.org/1999/02/22-rdf-syntax-ns#">
      <rdf:Description rdf:about=""/>
   </rdf:RDF>
</x:xmpmeta>
                                                                                                    
                                                                                                    
                                                                                                    
                                                                                                    
                                                                                                    
                                                                                                    
                                                                                                    
                                                                                                    
                                                                                                    
                                                                                                    
                                                                                                    
                                                                                                    
                                                                                                    
                                                                                                    
                                                                                                    
                                                                                                    
                                                                                                    
                                                                                                    
                                                                                                    
                                                                                                    
                           
<?xpacket end="w"?></metadata>
<defs>
    <style>
      .cls-1 {
        fill-rule: evenodd;
      }
    </style>
  </defs>
  <path id="print" class="cls-1" d="M654,99h-1V98a2.006,2.006,0,0,0-2-2h-6a2.006,2.006,0,0,0-2,2v1h-1a2.006,2.006,0,0,0-2,2v6a2.006,2.006,0,0,0,2,2h1v1a2.006,2.006,0,0,0,2,2h6a2.006,2.006,0,0,0,2-2v-1h1a2.006,2.006,0,0,0,2-2v-6A2.006,2.006,0,0,0,654,99Zm-9-1h6v1h-6V98Zm6,12h-6v-3h6v3Zm3-3h-1a2.006,2.006,0,0,0-2-2h-6a2.006,2.006,0,0,0-2,2h-1v-6h12v6Zm-2-5a1,1,0,1,0,1,1A1,1,0,0,0,652,102Z" transform="translate(-640 -96)"/>
</svg>
