<svg xmlns="http://www.w3.org/2000/svg" width="16" height="16" viewBox="0 0 16 16">
  <metadata><?xpacket begin="﻿" id="W5M0MpCehiHzreSzNTczkc9d"?>
<x:xmpmeta xmlns:x="adobe:ns:meta/" x:xmptk="Adobe XMP Core 5.6-c138 79.159824, 2016/09/14-01:09:01        ">
   <rdf:RDF xmlns:rdf="http://www.w3.org/1999/02/22-rdf-syntax-ns#">
      <rdf:Description rdf:about=""/>
   </rdf:RDF>
</x:xmpmeta>
                                                                                                    
                                                                                                    
                                                                                                    
                                                                                                    
                                                                                                    
                                                                                                    
                                                                                                    
                                                                                                    
                                                                                                    
                                                                                                    
                                                                                                    
                                                                                                    
                                                                                                    
                                                                                                    
                                                                                                    
                                                                                                    
                                                                                                    
                                                                                                    
                                                                                                    
                                                                                                    
                           
<?xpacket end="w"?></metadata>
<defs>
    <style>
      .cls-1 {
        fill-rule: evenodd;
      }
    </style>
  </defs>
  <path id="prize_1" class="cls-1" d="M591,290h-2a2,2,0,0,0-2-2h-6a2,2,0,0,0-2,2h-2a1,1,0,0,0-1,1v3c0,0.965.749,2.71,3.4,2.952A5.017,5.017,0,0,0,583,299.9V302h-2a1,1,0,0,0,0,2h6a1,1,0,0,0,0-2h-2v-2.1a5.017,5.017,0,0,0,3.6-2.947c2.649-.242,3.4-1.987,3.4-2.952v-3A1,1,0,0,0,591,290Zm-13,3.971V292h1v2.882A1.125,1.125,0,0,1,578,293.971ZM584,298a3,3,0,0,1-3-3v-5h6v5A3,3,0,0,1,584,298Zm5-3.118V292h1v1.971A1.125,1.125,0,0,1,589,294.882Z" transform="translate(-576 -288)"/>
</svg>
