<svg xmlns="http://www.w3.org/2000/svg" width="15.75" height="16" viewBox="0 0 15.75 16">
  <metadata><?xpacket begin="﻿" id="W5M0MpCehiHzreSzNTczkc9d"?>
<x:xmpmeta xmlns:x="adobe:ns:meta/" x:xmptk="Adobe XMP Core 5.6-c138 79.159824, 2016/09/14-01:09:01        ">
   <rdf:RDF xmlns:rdf="http://www.w3.org/1999/02/22-rdf-syntax-ns#">
      <rdf:Description rdf:about=""/>
   </rdf:RDF>
</x:xmpmeta>
                                                                                                    
                                                                                                    
                                                                                                    
                                                                                                    
                                                                                                    
                                                                                                    
                                                                                                    
                                                                                                    
                                                                                                    
                                                                                                    
                                                                                                    
                                                                                                    
                                                                                                    
                                                                                                    
                                                                                                    
                                                                                                    
                                                                                                    
                                                                                                    
                                                                                                    
                                                                                                    
                           
<?xpacket end="w"?></metadata>
<defs>
    <style>
      .cls-1 {
        fill-rule: evenodd;
      }
    </style>
  </defs>
  <path id="prize_3" class="cls-1" d="M655.687,292.37l-0.985-3A1.983,1.983,0,0,0,652.89,288h-9.964a1.983,1.983,0,0,0-1.812,1.37l-0.985,3a2,2,0,0,0,.483,2.04l2.717,2.76a4.923,4.923,0,1,0,9.158,0l2.717-2.76A2,2,0,0,0,655.687,292.37ZM645.505,291l-0.394-1H650.7l-0.393,1h-4.806Zm4.018,2-0.443,1.14a4.976,4.976,0,0,0-2.344,0L646.293,293h3.23Zm-5.1,2.46L642,293l0.541-1.64,0.444-1.36,1.093,2.78,0.876,2.22A4.7,4.7,0,0,0,644.422,295.46Zm3.486,6.54a2.973,2.973,0,0,1-2.954-3,2.717,2.717,0,0,1,.187-1.02,2.9,2.9,0,0,1,1.772-1.8,2.84,2.84,0,0,1,1.99,0,2.9,2.9,0,0,1,1.772,1.8,2.717,2.717,0,0,1,.187,1.02A2.973,2.973,0,0,1,647.908,302Zm3.486-6.54a4.7,4.7,0,0,0-.532-0.46l0.876-2.22,1.093-2.78,0.443,1.36,0.542,1.64Z" transform="translate(-640.031 -288)"/>
</svg>
