<svg xmlns="http://www.w3.org/2000/svg" width="15.719" height="16" viewBox="0 0 15.719 16">
  <metadata><?xpacket begin="﻿" id="W5M0MpCehiHzreSzNTczkc9d"?>
<x:xmpmeta xmlns:x="adobe:ns:meta/" x:xmptk="Adobe XMP Core 5.6-c138 79.159824, 2016/09/14-01:09:01        ">
   <rdf:RDF xmlns:rdf="http://www.w3.org/1999/02/22-rdf-syntax-ns#">
      <rdf:Description rdf:about=""/>
   </rdf:RDF>
</x:xmpmeta>
                                                                                                    
                                                                                                    
                                                                                                    
                                                                                                    
                                                                                                    
                                                                                                    
                                                                                                    
                                                                                                    
                                                                                                    
                                                                                                    
                                                                                                    
                                                                                                    
                                                                                                    
                                                                                                    
                                                                                                    
                                                                                                    
                                                                                                    
                                                                                                    
                                                                                                    
                                                                                                    
                           
<?xpacket end="w"?></metadata>
<defs>
    <style>
      .cls-1 {
        fill-rule: evenodd;
      }
    </style>
  </defs>
  <path id="prize_5" class="cls-1" d="M710.9,294v2a0.983,0.983,0,1,0,1.965,0v-4a0.988,0.988,0,0,0-.609-0.92,0.972,0.972,0,0,0-1.071.21l-0.983,1a1.021,1.021,0,0,0,0,1.42A1,1,0,0,0,710.9,294Zm8.263,4.59-1.965-2a5.9,5.9,0,1,0-10.631,0l-1.965,2a2.013,2.013,0,0,0-.433,2.18,1.975,1.975,0,0,0,1.818,1.23h0.747l0.442,0.89a1.964,1.964,0,0,0,1.444,1.08,1.68,1.68,0,0,0,.315.03,1.913,1.913,0,0,0,1.385-.59l1.562-1.59,1.563,1.59a1.913,1.913,0,0,0,1.385.59,1.67,1.67,0,0,0,.314-0.03,1.966,1.966,0,0,0,1.445-1.08l0.442-.89h0.747a1.974,1.974,0,0,0,1.817-1.23A2.01,2.01,0,0,0,719.161,298.59ZM711.88,290a4,4,0,0,1,3.331,6.11,3.885,3.885,0,0,1-6.661,0A4,4,0,0,1,711.88,290Zm-2.947,12-0.983-2h-1.965l1.729-1.76a5.828,5.828,0,0,0,2.329,1.46,4.892,4.892,0,0,0,.933.22l-0.481.49Zm6.877-2-0.982,2-1.562-1.59-0.482-.49a4.884,4.884,0,0,0,.934-0.22,5.818,5.818,0,0,0,2.328-1.46l1.73,1.76H715.81Z" transform="translate(-704.031 -288)"/>
</svg>
