<svg xmlns="http://www.w3.org/2000/svg" width="12" height="16" viewBox="0 0 12 16">
  <metadata><?xpacket begin="﻿" id="W5M0MpCehiHzreSzNTczkc9d"?>
<x:xmpmeta xmlns:x="adobe:ns:meta/" x:xmptk="Adobe XMP Core 5.6-c138 79.159824, 2016/09/14-01:09:01        ">
   <rdf:RDF xmlns:rdf="http://www.w3.org/1999/02/22-rdf-syntax-ns#">
      <rdf:Description rdf:about=""/>
   </rdf:RDF>
</x:xmpmeta>
                                                                                                    
                                                                                                    
                                                                                                    
                                                                                                    
                                                                                                    
                                                                                                    
                                                                                                    
                                                                                                    
                                                                                                    
                                                                                                    
                                                                                                    
                                                                                                    
                                                                                                    
                                                                                                    
                                                                                                    
                                                                                                    
                                                                                                    
                                                                                                    
                                                                                                    
                                                                                                    
                           
<?xpacket end="w"?></metadata>
<defs>
    <style>
      .cls-1 {
        fill-rule: evenodd;
      }
    </style>
  </defs>
  <path id="prize_2" class="cls-1" d="M616,288a5.992,5.992,0,0,0-4,10.46V302a2,2,0,0,0,.95,1.7,1.989,1.989,0,0,0,1.94.09l1.11-.55,1.11,0.55a1.989,1.989,0,0,0,1.94-.09A2,2,0,0,0,620,302v-3.54A5.992,5.992,0,0,0,616,288Zm2,14-2-1-2,1v-2.35a5.889,5.889,0,0,0,4,0V302Zm1.19-5.6A3.99,3.99,0,1,1,620,294,3.963,3.963,0,0,1,619.19,296.4Zm-2.81-5.32a1,1,0,0,0-1.09.21l-1,1a1.008,1.008,0,0,0,0,1.42,1.024,1.024,0,0,0,.71.29v2a1,1,0,0,0,2,0v-4A0.987,0.987,0,0,0,616.38,291.08Z" transform="translate(-610 -288)"/>
</svg>
