<svg xmlns="http://www.w3.org/2000/svg" width="16" height="16" viewBox="0 0 16 16">
  <metadata><?xpacket begin="﻿" id="W5M0MpCehiHzreSzNTczkc9d"?>
<x:xmpmeta xmlns:x="adobe:ns:meta/" x:xmptk="Adobe XMP Core 5.6-c138 79.159824, 2016/09/14-01:09:01        ">
   <rdf:RDF xmlns:rdf="http://www.w3.org/1999/02/22-rdf-syntax-ns#">
      <rdf:Description rdf:about=""/>
   </rdf:RDF>
</x:xmpmeta>
                                                                                                    
                                                                                                    
                                                                                                    
                                                                                                    
                                                                                                    
                                                                                                    
                                                                                                    
                                                                                                    
                                                                                                    
                                                                                                    
                                                                                                    
                                                                                                    
                                                                                                    
                                                                                                    
                                                                                                    
                                                                                                    
                                                                                                    
                                                                                                    
                                                                                                    
                                                                                                    
                           
<?xpacket end="w"?></metadata>
<defs>
    <style>
      .cls-1 {
        fill-rule: evenodd;
      }
    </style>
  </defs>
  <path id="processor_1" class="cls-1" d="M751,105a1,1,0,0,0,0-2h-1v-1h1a1,1,0,0,0,0-2h-1a2,2,0,0,0-2-2V97a1,1,0,0,0-2,0v1h-1V97a1,1,0,0,0-2,0v1h-1V97a1,1,0,0,0-2,0v1a2,2,0,0,0-2,2h-1a1,1,0,0,0,0,2h1v1h-1a1,1,0,0,0,0,2h1v1h-1a1,1,0,0,0,0,2h1a2,2,0,0,0,2,2v1a1,1,0,0,0,2,0v-1h1v1a1,1,0,0,0,2,0v-1h1v1a1,1,0,0,0,2,0v-1a2,2,0,0,0,2-2h1a1,1,0,0,0,0-2h-1v-1h1Zm-3,3h-8v-8h8v8Zm-6-2h4v-4h-4v4Z" transform="translate(-736 -96)"/>
</svg>
