<svg xmlns="http://www.w3.org/2000/svg" width="14" height="16" viewBox="0 0 14 16">
  <metadata><?xpacket begin="﻿" id="W5M0MpCehiHzreSzNTczkc9d"?>
<x:xmpmeta xmlns:x="adobe:ns:meta/" x:xmptk="Adobe XMP Core 5.6-c138 79.159824, 2016/09/14-01:09:01        ">
   <rdf:RDF xmlns:rdf="http://www.w3.org/1999/02/22-rdf-syntax-ns#">
      <rdf:Description rdf:about=""/>
   </rdf:RDF>
</x:xmpmeta>
                                                                                                    
                                                                                                    
                                                                                                    
                                                                                                    
                                                                                                    
                                                                                                    
                                                                                                    
                                                                                                    
                                                                                                    
                                                                                                    
                                                                                                    
                                                                                                    
                                                                                                    
                                                                                                    
                                                                                                    
                                                                                                    
                                                                                                    
                                                                                                    
                                                                                                    
                                                                                                    
                           
<?xpacket end="w"?></metadata>
<defs>
    <style>
      .cls-1 {
        fill-rule: evenodd;
      }
    </style>
  </defs>
  <path id="processor_2" class="cls-1" d="M46,135a1,1,0,0,0,0-2H45v-1h1a1,1,0,0,0,0-2H45v-1a1,1,0,0,0-1-1H36a1,1,0,0,0-1,1v1H34a1,1,0,0,0,0,2h1v1H34a1,1,0,0,0,0,2h1v2H34a1,1,0,0,0,0,2h1v1H34a1,1,0,0,0,0,2h1v1a1,1,0,0,0,1,1h8a1,1,0,0,0,1-1v-1h1a1,1,0,0,0,0-2H45v-1h1a1,1,0,0,0,0-2H45v-2h1Zm-9-5h6v12H37V130Zm3,2a1,1,0,0,0-1,1v6a1,1,0,0,0,2,0v-6A1,1,0,0,0,40,132Z" transform="translate(-33 -128)"/>
</svg>
