<svg xmlns="http://www.w3.org/2000/svg" width="16" height="16" viewBox="0 0 16 16">
  <metadata><?xpacket begin="﻿" id="W5M0MpCehiHzreSzNTczkc9d"?>
<x:xmpmeta xmlns:x="adobe:ns:meta/" x:xmptk="Adobe XMP Core 5.6-c138 79.159824, 2016/09/14-01:09:01        ">
   <rdf:RDF xmlns:rdf="http://www.w3.org/1999/02/22-rdf-syntax-ns#">
      <rdf:Description rdf:about=""/>
   </rdf:RDF>
</x:xmpmeta>
                                                                                                    
                                                                                                    
                                                                                                    
                                                                                                    
                                                                                                    
                                                                                                    
                                                                                                    
                                                                                                    
                                                                                                    
                                                                                                    
                                                                                                    
                                                                                                    
                                                                                                    
                                                                                                    
                                                                                                    
                                                                                                    
                                                                                                    
                                                                                                    
                                                                                                    
                                                                                                    
                           
<?xpacket end="w"?></metadata>
<defs>
    <style>
      .cls-1 {
        fill-rule: evenodd;
      }
    </style>
  </defs>
  <path id="profile_cr_minus" class="cls-1" d="M202.99,362.73a4.566,4.566,0,0,0,.48-0.673,4,4,0,1,0-6.439.673,7.212,7.212,0,0,0-1.669,1.1,6.006,6.006,0,1,1,10.647-3.787,6.07,6.07,0,0,1-.064.878,0.992,0.992,0,0,0,.985,1.131,1.012,1.012,0,0,0,1-.871,8,8,0,1,0-13.874,4.216,8.144,8.144,0,0,0,1.54,1.336c0.07,0.051.15,0.1,0.23,0.151a7.734,7.734,0,0,0,3.052,1.116,1.007,1.007,0,0,0,1.137-1v0a1,1,0,0,0-.861-0.987,5.812,5.812,0,0,1-2.269-.833C199.291,363.216,201.024,364.949,202.99,362.73Zm-4.979-2.682a2,2,0,1,1,2,2.009A2.01,2.01,0,0,1,198.011,360.048Zm9,4.018h-4a1,1,0,0,0-1,1.005,0.964,0.964,0,0,0,.19.582,1,1,0,0,0,.81.422h4A1,1,0,0,0,207.009,364.066Z" transform="translate(-192 -352)"/>
</svg>
