<svg xmlns="http://www.w3.org/2000/svg" width="16" height="16" viewBox="0 0 16 16">
  <metadata><?xpacket begin="﻿" id="W5M0MpCehiHzreSzNTczkc9d"?>
<x:xmpmeta xmlns:x="adobe:ns:meta/" x:xmptk="Adobe XMP Core 5.6-c138 79.159824, 2016/09/14-01:09:01        ">
   <rdf:RDF xmlns:rdf="http://www.w3.org/1999/02/22-rdf-syntax-ns#">
      <rdf:Description rdf:about=""/>
   </rdf:RDF>
</x:xmpmeta>
                                                                                                    
                                                                                                    
                                                                                                    
                                                                                                    
                                                                                                    
                                                                                                    
                                                                                                    
                                                                                                    
                                                                                                    
                                                                                                    
                                                                                                    
                                                                                                    
                                                                                                    
                                                                                                    
                                                                                                    
                                                                                                    
                                                                                                    
                                                                                                    
                                                                                                    
                                                                                                    
                           
<?xpacket end="w"?></metadata>
<defs>
    <style>
      .cls-1 {
        fill-rule: evenodd;
      }
    </style>
  </defs>
  <path id="profile_sq_minus" class="cls-1" d="M302,352H290a2.006,2.006,0,0,0-2,2v12a2,2,0,0,0,1.11,1.79,1.914,1.914,0,0,0,.89.21h5a1,1,0,0,0,0-2h-3a5.01,5.01,0,0,1,4-2,3.982,3.982,0,0,0,2.98-1.33,4,4,0,1,0-5.96,0A6.94,6.94,0,0,0,290,365.4V354h12v7a1,1,0,0,0,2,0v-7A2.006,2.006,0,0,0,302,352Zm-8,8a2,2,0,1,1,2,2A2.006,2.006,0,0,1,294,360Zm9,4h-4a1,1,0,0,0,0,2h4A1,1,0,0,0,303,364Z" transform="translate(-288 -352)"/>
</svg>
