<svg xmlns="http://www.w3.org/2000/svg" width="16" height="16" viewBox="0 0 16 16">
  <metadata><?xpacket begin="﻿" id="W5M0MpCehiHzreSzNTczkc9d"?>
<x:xmpmeta xmlns:x="adobe:ns:meta/" x:xmptk="Adobe XMP Core 5.6-c138 79.159824, 2016/09/14-01:09:01        ">
   <rdf:RDF xmlns:rdf="http://www.w3.org/1999/02/22-rdf-syntax-ns#">
      <rdf:Description rdf:about=""/>
   </rdf:RDF>
</x:xmpmeta>
                                                                                                    
                                                                                                    
                                                                                                    
                                                                                                    
                                                                                                    
                                                                                                    
                                                                                                    
                                                                                                    
                                                                                                    
                                                                                                    
                                                                                                    
                                                                                                    
                                                                                                    
                                                                                                    
                                                                                                    
                                                                                                    
                                                                                                    
                                                                                                    
                                                                                                    
                                                                                                    
                           
<?xpacket end="w"?></metadata>
<defs>
    <style>
      .cls-1 {
        fill-rule: evenodd;
      }
    </style>
  </defs>
  <path id="profiles_2" class="cls-1" d="M592,363a5,5,0,0,0-2.2-4.145,4,4,0,1,0-5.8-5.5,4,4,0,1,0-5.8,5.5A5,5,0,0,0,576,363c0,0.6.269,2.325,3.161,2.847C579.513,366.781,580.617,368,584,368s4.487-1.219,4.839-2.153C591.731,365.325,592,363.6,592,363Zm-3-7a2,2,0,0,1-1.027,1.735,3.985,3.985,0,0,0-2.192-3.3A1.963,1.963,0,0,1,587,354,2.006,2.006,0,0,1,589,356Zm-5,4a2,2,0,1,1,2-2A2,2,0,0,1,584,360Zm-3-6a1.963,1.963,0,0,1,1.219.437,3.983,3.983,0,0,0-2.192,3.3A1.992,1.992,0,0,1,581,354Zm-1.842,9.812C578.018,363.519,578,363,578,363a2.987,2.987,0,0,1,2.579-2.958,4.012,4.012,0,0,0,.628.813A5.011,5.011,0,0,0,579.158,363.812ZM584,366c-3,0-3-1-3-1a3,3,0,0,1,6,0S587,366,584,366Zm4.842-2.188a5.011,5.011,0,0,0-2.049-2.957,4.012,4.012,0,0,0,.628-0.813A2.987,2.987,0,0,1,590,363S589.982,363.519,588.842,363.812Z" transform="translate(-576 -352)"/>
</svg>
