<svg xmlns="http://www.w3.org/2000/svg" width="16" height="15.875" viewBox="0 0 16 15.875">
  <metadata><?xpacket begin="﻿" id="W5M0MpCehiHzreSzNTczkc9d"?>
<x:xmpmeta xmlns:x="adobe:ns:meta/" x:xmptk="Adobe XMP Core 5.6-c138 79.159824, 2016/09/14-01:09:01        ">
   <rdf:RDF xmlns:rdf="http://www.w3.org/1999/02/22-rdf-syntax-ns#">
      <rdf:Description rdf:about=""/>
   </rdf:RDF>
</x:xmpmeta>
                                                                                                    
                                                                                                    
                                                                                                    
                                                                                                    
                                                                                                    
                                                                                                    
                                                                                                    
                                                                                                    
                                                                                                    
                                                                                                    
                                                                                                    
                                                                                                    
                                                                                                    
                                                                                                    
                                                                                                    
                                                                                                    
                                                                                                    
                                                                                                    
                                                                                                    
                                                                                                    
                           
<?xpacket end="w"?></metadata>
<defs>
    <style>
      .cls-1 {
        fill-rule: evenodd;
      }
    </style>
  </defs>
  <path id="profiles_2_add" class="cls-1" d="M623,364h-1v-0.991a1,1,0,0,0-2,0V364h-1a0.991,0.991,0,1,0,0,1.982h1v0.992a1,1,0,0,0,2,0V365.98h1A0.991,0.991,0,1,0,623,364Zm-7-1.983a3.994,3.994,0,0,0,3.47-2.032,3.949,3.949,0,0,0,3.492-4.469,82.674,82.674,0,0,1-10.5-3.377,4.009,4.009,0,0,0-3.413,3.327A3.952,3.952,0,0,0,610.2,358.9a4.923,4.923,0,0,0-2.2,4.105c0,0.594.27,2.309,3.16,2.825,0.309,0.815,1.213,1.854,3.752,2.085a0.99,0.99,0,1,0,.156-1.974c-2.068-.18-2.068-0.954-2.068-0.954A2.983,2.983,0,0,1,616,362.015Zm3-7.93a2,2,0,0,1,2,1.982,1.976,1.976,0,0,1-1.027,1.72,3.948,3.948,0,0,0-2.194-3.27A1.987,1.987,0,0,1,619,354.085Zm-3,1.982a1.983,1.983,0,1,1-2,1.983A1.991,1.991,0,0,1,616,356.067Zm-3-1.982a1.989,1.989,0,0,1,1.221.432,3.948,3.948,0,0,0-2.194,3.27,1.976,1.976,0,0,1-1.027-1.72A2,2,0,0,1,613,354.085Zm-1.842,9.726c-1.14-.29-1.158-0.8-1.158-0.8a2.97,2.97,0,0,1,2.579-2.933,4,4,0,0,0,.644.82A4.967,4.967,0,0,0,611.158,363.811Z" transform="translate(-608 -352.094)"/>
</svg>
