<svg xmlns="http://www.w3.org/2000/svg" width="16" height="16" viewBox="0 0 16 16">
  <metadata><?xpacket begin="﻿" id="W5M0MpCehiHzreSzNTczkc9d"?>
<x:xmpmeta xmlns:x="adobe:ns:meta/" x:xmptk="Adobe XMP Core 5.6-c138 79.159824, 2016/09/14-01:09:01        ">
   <rdf:RDF xmlns:rdf="http://www.w3.org/1999/02/22-rdf-syntax-ns#">
      <rdf:Description rdf:about=""/>
   </rdf:RDF>
</x:xmpmeta>
                                                                                                    
                                                                                                    
                                                                                                    
                                                                                                    
                                                                                                    
                                                                                                    
                                                                                                    
                                                                                                    
                                                                                                    
                                                                                                    
                                                                                                    
                                                                                                    
                                                                                                    
                                                                                                    
                                                                                                    
                                                                                                    
                                                                                                    
                                                                                                    
                                                                                                    
                                                                                                    
                           
<?xpacket end="w"?></metadata>
<defs>
    <style>
      .cls-1 {
        fill-rule: evenodd;
      }
    </style>
  </defs>
  <path id="profile_cr" class="cls-1" d="M136,352a8,8,0,0,0-4.215,14.794s0.008,0.008.013,0.011l0.008,0,0.007,0a7.985,7.985,0,0,0,8.389-.009A8,8,0,0,0,136,352Zm0,14a5.9,5.9,0,0,1-3.14-.89,5,5,0,0,1,6.28,0A5.9,5.9,0,0,1,136,366Zm-2-6a2,2,0,1,1,2,2A2,2,0,0,1,134,360Zm6.631,3.794a1.966,1.966,0,0,0-.239-0.244,7.031,7.031,0,0,0-1.444-.869,4,4,0,1,0-5.9,0,7.031,7.031,0,0,0-1.444.869,1.966,1.966,0,0,0-.239.244A6,6,0,1,1,140.631,363.794Z" transform="translate(-128 -352)"/>
</svg>
