<svg xmlns="http://www.w3.org/2000/svg" width="16" height="12" viewBox="0 0 16 12">
  <metadata><?xpacket begin="﻿" id="W5M0MpCehiHzreSzNTczkc9d"?>
<x:xmpmeta xmlns:x="adobe:ns:meta/" x:xmptk="Adobe XMP Core 5.6-c138 79.159824, 2016/09/14-01:09:01        ">
   <rdf:RDF xmlns:rdf="http://www.w3.org/1999/02/22-rdf-syntax-ns#">
      <rdf:Description rdf:about=""/>
   </rdf:RDF>
</x:xmpmeta>
                                                                                                    
                                                                                                    
                                                                                                    
                                                                                                    
                                                                                                    
                                                                                                    
                                                                                                    
                                                                                                    
                                                                                                    
                                                                                                    
                                                                                                    
                                                                                                    
                                                                                                    
                                                                                                    
                                                                                                    
                                                                                                    
                                                                                                    
                                                                                                    
                                                                                                    
                                                                                                    
                           
<?xpacket end="w"?></metadata>
<defs>
    <style>
      .cls-1 {
        fill-rule: evenodd;
      }
    </style>
  </defs>
  <path id="profile_card" class="cls-1" d="M46,354H34a2,2,0,0,0-2,2v8a2,2,0,0,0,2,2H46a2,2,0,0,0,2-2v-8A2,2,0,0,0,46,354Zm0,10H34v-8H46v8Zm-6-5a2,2,0,1,0-2,2A2.006,2.006,0,0,0,40,359Zm-2,2a2.968,2.968,0,0,0-2.82,2h5.64A2.968,2.968,0,0,0,38,361Zm6-4H42a1,1,0,0,0-1,1h0a1,1,0,0,0,1,1h2a1,1,0,0,0,1-1h0A1,1,0,0,0,44,357Zm0,3H43a1,1,0,0,0-1,1h0a1,1,0,0,0,1,1h1a1,1,0,0,0,1-1h0A1,1,0,0,0,44,360Z" transform="translate(-32 -354)"/>
</svg>
