<svg xmlns="http://www.w3.org/2000/svg" width="14" height="16" viewBox="0 0 14 16">
  <metadata><?xpacket begin="﻿" id="W5M0MpCehiHzreSzNTczkc9d"?>
<x:xmpmeta xmlns:x="adobe:ns:meta/" x:xmptk="Adobe XMP Core 5.6-c138 79.159824, 2016/09/14-01:09:01        ">
   <rdf:RDF xmlns:rdf="http://www.w3.org/1999/02/22-rdf-syntax-ns#">
      <rdf:Description rdf:about=""/>
   </rdf:RDF>
</x:xmpmeta>
                                                                                                    
                                                                                                    
                                                                                                    
                                                                                                    
                                                                                                    
                                                                                                    
                                                                                                    
                                                                                                    
                                                                                                    
                                                                                                    
                                                                                                    
                                                                                                    
                                                                                                    
                                                                                                    
                                                                                                    
                                                                                                    
                                                                                                    
                                                                                                    
                                                                                                    
                                                                                                    
                           
<?xpacket end="w"?></metadata>
<defs>
    <style>
      .cls-1 {
        fill-rule: evenodd;
      }
    </style>
  </defs>
  <path id="profile_close_1" class="cls-1" d="M333.968,361.969a10.045,10.045,0,0,0-2.526-1.355,4.98,4.98,0,0,0-2.855-8.576,4.584,4.584,0,0,0-1.178,0,4.981,4.981,0,0,0-2.856,8.576,10.039,10.039,0,0,0-2.525,1.355,2.52,2.52,0,0,0,0,4.062,10.035,10.035,0,0,0,11.94,0A2.522,2.522,0,0,0,333.968,361.969ZM324.991,357a2.99,2.99,0,0,1,2.7-2.98,2.428,2.428,0,0,1,.622,0A3,3,0,1,1,324.991,357Zm7.783,7.424a8.025,8.025,0,0,1-9.552,0,0.523,0.523,0,0,1,0-.849,8.029,8.029,0,0,1,9.552,0A0.524,0.524,0,0,1,332.774,364.424Z" transform="translate(-321 -352)"/>
</svg>
