<svg xmlns="http://www.w3.org/2000/svg" width="16" height="16" viewBox="0 0 16 16">
  <metadata><?xpacket begin="﻿" id="W5M0MpCehiHzreSzNTczkc9d"?>
<x:xmpmeta xmlns:x="adobe:ns:meta/" x:xmptk="Adobe XMP Core 5.6-c138 79.159824, 2016/09/14-01:09:01        ">
   <rdf:RDF xmlns:rdf="http://www.w3.org/1999/02/22-rdf-syntax-ns#">
      <rdf:Description rdf:about=""/>
   </rdf:RDF>
</x:xmpmeta>
                                                                                                    
                                                                                                    
                                                                                                    
                                                                                                    
                                                                                                    
                                                                                                    
                                                                                                    
                                                                                                    
                                                                                                    
                                                                                                    
                                                                                                    
                                                                                                    
                                                                                                    
                                                                                                    
                                                                                                    
                                                                                                    
                                                                                                    
                                                                                                    
                                                                                                    
                                                                                                    
                           
<?xpacket end="w"?></metadata>
<defs>
    <style>
      .cls-1 {
        fill-rule: evenodd;
      }
    </style>
  </defs>
  <path id="profile_cr_add" class="cls-1" d="M167.136,365.935a5.811,5.811,0,0,1-2.268-.829,3.87,3.87,0,0,1,.68-0.46,0.123,0.123,0,0,1,.08-0.04c1.555-1.11,3.538.085,5.329-1.929h-0.01a4.1,4.1,0,0,0,.719-1.12,3.976,3.976,0,0,0,.14-2.789,5.01,5.01,0,0,0-.289-0.67,4,4,0,0,0-7.039,0,4.087,4.087,0,0,0-.3.71A3.944,3.944,0,0,0,164,360a4.046,4.046,0,0,0,1.049,2.679c-0.25.12-.51,0.25-0.749,0.39a5.3,5.3,0,0,0-.8.58,1.6,1.6,0,0,0-.13.14,0.021,0.021,0,0,1-.01-0.02,5.914,5.914,0,0,1-1.27-4.813,6,6,0,0,1,11.846.186,0.993,0.993,0,0,0,.981.858h0a1,1,0,0,0,1-1.135A8.03,8.03,0,0,0,174,354.719a6.12,6.12,0,0,0-.72-0.72,7.969,7.969,0,0,0-10.557,0,6.12,6.12,0,0,0-.72.72,7.969,7.969,0,0,0,0,10.557c0.04,0.04.07,0.08,0.1,0.11a7.876,7.876,0,0,0,1.69,1.4c0,0.01,0,.01.01,0.01s0,0.01.01,0.01a7.807,7.807,0,0,0,3.055,1.109A1,1,0,0,0,167.136,365.935ZM168,358a2,2,0,1,1-2,2A2.006,2.006,0,0,1,168,358Zm6,6c0-1,.1-2-1-2s-1,1-1,2c-1,0-2-.1-2,1s1,1,2,1c0,1-.1,2,1,2s1-1,1-2h1a1,1,0,0,0,1-1C176,363.894,175,364,174,364Z" transform="translate(-160 -352)"/>
</svg>
