<svg xmlns="http://www.w3.org/2000/svg" width="16" height="16" viewBox="0 0 16 16">
  <metadata><?xpacket begin="﻿" id="W5M0MpCehiHzreSzNTczkc9d"?>
<x:xmpmeta xmlns:x="adobe:ns:meta/" x:xmptk="Adobe XMP Core 5.6-c138 79.159824, 2016/09/14-01:09:01        ">
   <rdf:RDF xmlns:rdf="http://www.w3.org/1999/02/22-rdf-syntax-ns#">
      <rdf:Description rdf:about=""/>
   </rdf:RDF>
</x:xmpmeta>
                                                                                                    
                                                                                                    
                                                                                                    
                                                                                                    
                                                                                                    
                                                                                                    
                                                                                                    
                                                                                                    
                                                                                                    
                                                                                                    
                                                                                                    
                                                                                                    
                                                                                                    
                                                                                                    
                                                                                                    
                                                                                                    
                                                                                                    
                                                                                                    
                                                                                                    
                                                                                                    
                           
<?xpacket end="w"?></metadata>
<defs>
    <style>
      .cls-1 {
        fill-rule: evenodd;
      }
    </style>
  </defs>
  <path id="profile_sq" class="cls-1" d="M238,352H226a2.006,2.006,0,0,0-2,2v12a2.006,2.006,0,0,0,2,2h12a2.006,2.006,0,0,0,2-2V354A2.006,2.006,0,0,0,238,352Zm-10,14a5,5,0,0,1,8,0h-8Zm2-6a2,2,0,1,1,2,2A2.006,2.006,0,0,1,230,360Zm8,6h-0.017a1.978,1.978,0,0,0-.385-1.2,7.025,7.025,0,0,0-2.632-2.125l0,0a4,4,0,1,0-5.94,0l0,0A7.017,7.017,0,0,0,226.4,364.8a1.978,1.978,0,0,0-.385,1.2H226V354h12v12Z" transform="translate(-224 -352)"/>
</svg>
