<svg xmlns="http://www.w3.org/2000/svg" width="16" height="16" viewBox="0 0 16 16">
  <metadata><?xpacket begin="﻿" id="W5M0MpCehiHzreSzNTczkc9d"?>
<x:xmpmeta xmlns:x="adobe:ns:meta/" x:xmptk="Adobe XMP Core 5.6-c138 79.159824, 2016/09/14-01:09:01        ">
   <rdf:RDF xmlns:rdf="http://www.w3.org/1999/02/22-rdf-syntax-ns#">
      <rdf:Description rdf:about=""/>
   </rdf:RDF>
</x:xmpmeta>
                                                                                                    
                                                                                                    
                                                                                                    
                                                                                                    
                                                                                                    
                                                                                                    
                                                                                                    
                                                                                                    
                                                                                                    
                                                                                                    
                                                                                                    
                                                                                                    
                                                                                                    
                                                                                                    
                                                                                                    
                                                                                                    
                                                                                                    
                                                                                                    
                                                                                                    
                                                                                                    
                           
<?xpacket end="w"?></metadata>
<defs>
    <style>
      .cls-1 {
        fill-rule: evenodd;
      }
    </style>
  </defs>
  <path id="profile_sq_add" class="cls-1" d="M270,352H258a2.006,2.006,0,0,0-2,2v12a2.006,2.006,0,0,0,2,2h5a1,1,0,0,0,1-1h0a1,1,0,0,0-1-1h-3a5.01,5.01,0,0,1,4-2,3.944,3.944,0,0,0,2.97-1.33,3.112,3.112,0,0,0,.23-0.28,4.007,4.007,0,0,0,.53-0.97,1.917,1.917,0,0,0,.11-0.31,3.681,3.681,0,0,0,.16-1.069,4,4,0,1,0-8-.041,3.679,3.679,0,0,0,.16,1.11,1.917,1.917,0,0,0,.11.31,4.007,4.007,0,0,0,.53.97,3.112,3.112,0,0,0,.23.28,7.031,7.031,0,0,0-2.63,2.13,1.993,1.993,0,0,0-.38,1.2H258V354h12v5a1,1,0,0,0,1,1h0a1,1,0,0,0,1-1v-5A2.006,2.006,0,0,0,270,352Zm-6,6a2,2,0,1,1-2,2A2.006,2.006,0,0,1,264,358Zm7,6h-1v-1a1,1,0,0,0-2,0v1h-1a1,1,0,0,0,0,2h1v1a1,1,0,0,0,2,0v-1h1A1,1,0,0,0,271,364Z" transform="translate(-256 -352)"/>
</svg>
