<svg xmlns="http://www.w3.org/2000/svg" width="16" height="16" viewBox="0 0 16 16">
  <metadata><?xpacket begin="﻿" id="W5M0MpCehiHzreSzNTczkc9d"?>
<x:xmpmeta xmlns:x="adobe:ns:meta/" x:xmptk="Adobe XMP Core 5.6-c138 79.159824, 2016/09/14-01:09:01        ">
   <rdf:RDF xmlns:rdf="http://www.w3.org/1999/02/22-rdf-syntax-ns#">
      <rdf:Description rdf:about=""/>
   </rdf:RDF>
</x:xmpmeta>
                                                                                                    
                                                                                                    
                                                                                                    
                                                                                                    
                                                                                                    
                                                                                                    
                                                                                                    
                                                                                                    
                                                                                                    
                                                                                                    
                                                                                                    
                                                                                                    
                                                                                                    
                                                                                                    
                                                                                                    
                                                                                                    
                                                                                                    
                                                                                                    
                                                                                                    
                                                                                                    
                           
<?xpacket end="w"?></metadata>
<defs>
    <style>
      .cls-1 {
        fill-rule: evenodd;
      }
    </style>
  </defs>
  <path id="profile_close_1_minus" class="cls-1" d="M390.978,366.01a8.1,8.1,0,0,1-4.755-1.59,0.514,0.514,0,0,1,0-.84,7.947,7.947,0,0,1,4.765-1.58,4.991,4.991,0,0,0,.993-0.1c0.114-.023.218-0.069,0.328-0.1a4.982,4.982,0,0,0,.6-0.186c0.12-.05.228-0.12,0.343-0.179a5.221,5.221,0,0,0,.5-0.271c0.093-.062.173-0.139,0.262-0.206a5.267,5.267,0,0,0,.431-0.339l-0.009-.009a5.013,5.013,0,1,0-7.424-.611h0c0.024,0.033.056,0.059,0.08,0.091a5.165,5.165,0,0,0,.46.52l-0.01.009a9.7,9.7,0,0,0-2.512,1.35,2.529,2.529,0,0,0,0,4.06,9.93,9.93,0,0,0,5.936,1.97,1.01,1.01,0,0,0,1.031-1A0.991,0.991,0,0,0,390.978,366.01ZM387.985,357a3,3,0,1,1,3,3A3,3,0,0,1,387.985,357ZM399,364h-4a1,1,0,1,0,0,2h4A1,1,0,1,0,399,364Z" transform="translate(-384 -352)"/>
</svg>
