<svg xmlns="http://www.w3.org/2000/svg" width="16" height="16" viewBox="0 0 16 16">
  <metadata><?xpacket begin="﻿" id="W5M0MpCehiHzreSzNTczkc9d"?>
<x:xmpmeta xmlns:x="adobe:ns:meta/" x:xmptk="Adobe XMP Core 5.6-c138 79.159824, 2016/09/14-01:09:01        ">
   <rdf:RDF xmlns:rdf="http://www.w3.org/1999/02/22-rdf-syntax-ns#">
      <rdf:Description rdf:about=""/>
   </rdf:RDF>
</x:xmpmeta>
                                                                                                    
                                                                                                    
                                                                                                    
                                                                                                    
                                                                                                    
                                                                                                    
                                                                                                    
                                                                                                    
                                                                                                    
                                                                                                    
                                                                                                    
                                                                                                    
                                                                                                    
                                                                                                    
                                                                                                    
                                                                                                    
                                                                                                    
                                                                                                    
                                                                                                    
                                                                                                    
                           
<?xpacket end="w"?></metadata>
<defs>
    <style>
      .cls-1 {
        fill-rule: evenodd;
      }
    </style>
  </defs>
  <path id="profiles_1_add" class="cls-1" d="M556,361a1,1,0,0,0-1-1,2,2,0,1,1,2-2,1,1,0,0,0,2,0,4,4,0,0,0-4-4,3.8,3.8,0,0,0-1.55.32,2.087,2.087,0,0,0-.3.14,2.714,2.714,0,0,0-.38.22,4,4,0,1,0-6.57,4.17A5.033,5.033,0,0,0,544,363c0,0.7.36,3,5,3a7.87,7.87,0,0,0,1-.05V367a1,1,0,0,0,2,0v-2a2.993,2.993,0,0,1,1.93-2.8A2.908,2.908,0,0,1,555,362,1,1,0,0,0,556,361Zm-7-7a2,2,0,1,1-2,2A2.006,2.006,0,0,1,549,354Zm0,10c-3,0-3-1-3-1a3,3,0,0,1,5.53-1.61,5.129,5.129,0,0,0-1.42,2.55A8.826,8.826,0,0,1,549,364Zm10,0h-1v-1a1,1,0,0,0-2,0v1h-1a1,1,0,0,0,0,2h1v1a1,1,0,0,0,2,0v-1h1A1,1,0,0,0,559,364Z" transform="translate(-544 -352)"/>
</svg>
