<svg xmlns="http://www.w3.org/2000/svg" width="16" height="16" viewBox="0 0 16 16">
  <metadata><?xpacket begin="﻿" id="W5M0MpCehiHzreSzNTczkc9d"?>
<x:xmpmeta xmlns:x="adobe:ns:meta/" x:xmptk="Adobe XMP Core 5.6-c138 79.159824, 2016/09/14-01:09:01        ">
   <rdf:RDF xmlns:rdf="http://www.w3.org/1999/02/22-rdf-syntax-ns#">
      <rdf:Description rdf:about=""/>
   </rdf:RDF>
</x:xmpmeta>
                                                                                                    
                                                                                                    
                                                                                                    
                                                                                                    
                                                                                                    
                                                                                                    
                                                                                                    
                                                                                                    
                                                                                                    
                                                                                                    
                                                                                                    
                                                                                                    
                                                                                                    
                                                                                                    
                                                                                                    
                                                                                                    
                                                                                                    
                                                                                                    
                                                                                                    
                                                                                                    
                           
<?xpacket end="w"?></metadata>
<defs>
    <style>
      .cls-1 {
        fill-rule: evenodd;
      }
    </style>
  </defs>
  <path id="profile_close_3" class="cls-1" d="M459.757,360.264a5,5,0,1,0-7.514,0A6.009,6.009,0,0,0,448,366a2,2,0,0,0,2,2h12a2,2,0,0,0,2-2A6.009,6.009,0,0,0,459.757,360.264ZM456,354a3,3,0,1,1-3,3A3,3,0,0,1,456,354Zm4,12H450a4,4,0,0,1,4-4h4a4,4,0,0,1,4,4h-2Z" transform="translate(-448 -352)"/>
</svg>
