<svg xmlns="http://www.w3.org/2000/svg" width="16" height="15.812" viewBox="0 0 16 15.812">
  <metadata><?xpacket begin="﻿" id="W5M0MpCehiHzreSzNTczkc9d"?>
<x:xmpmeta xmlns:x="adobe:ns:meta/" x:xmptk="Adobe XMP Core 5.6-c138 79.159824, 2016/09/14-01:09:01        ">
   <rdf:RDF xmlns:rdf="http://www.w3.org/1999/02/22-rdf-syntax-ns#">
      <rdf:Description rdf:about=""/>
   </rdf:RDF>
</x:xmpmeta>
                                                                                                    
                                                                                                    
                                                                                                    
                                                                                                    
                                                                                                    
                                                                                                    
                                                                                                    
                                                                                                    
                                                                                                    
                                                                                                    
                                                                                                    
                                                                                                    
                                                                                                    
                                                                                                    
                                                                                                    
                                                                                                    
                                                                                                    
                                                                                                    
                                                                                                    
                                                                                                    
                           
<?xpacket end="w"?></metadata>
<defs>
    <style>
      .cls-1 {
        fill-rule: evenodd;
      }
    </style>
  </defs>
  <path id="profiles_2_minus" class="cls-1" d="M648,362.011a3.992,3.992,0,0,0,3.47-2.032,3.945,3.945,0,0,0,3.49-4.47,83.721,83.721,0,0,1-10.5-3.37,4.015,4.015,0,0,0-3.42,3.321,3.963,3.963,0,0,0,1.16,3.439A4.922,4.922,0,0,0,640,363c0,0.594.27,2.309,3.16,2.824,0.31,0.813,1.21,1.854,3.75,2.082a1,1,0,0,0,1.09-.981,1.006,1.006,0,0,0-.93-0.992c-2.07-.178-2.07-0.951-2.07-0.951A2.983,2.983,0,0,1,648,362.011Zm3-7.929a1.974,1.974,0,0,1,.97,3.707,3.939,3.939,0,0,0-2.19-3.271A1.966,1.966,0,0,1,651,354.082Zm-3,1.982a1.983,1.983,0,1,1-2,1.983A2,2,0,0,1,648,356.064Zm-3-1.982a1.966,1.966,0,0,1,1.22.436,3.939,3.939,0,0,0-2.19,3.271A1.974,1.974,0,0,1,645,354.082Zm-1.84,9.723c-1.14-.287-1.16-0.8-1.16-0.8a2.97,2.97,0,0,1,2.58-2.934,4.225,4.225,0,0,0,.64.822A4.944,4.944,0,0,0,643.16,363.805ZM655,363.994h-4a0.991,0.991,0,1,0,0,1.982h4A0.991,0.991,0,1,0,655,363.994Z" transform="translate(-640 -352.094)"/>
</svg>
