<svg xmlns="http://www.w3.org/2000/svg" width="16" height="16" viewBox="0 0 16 16">
  <metadata><?xpacket begin="﻿" id="W5M0MpCehiHzreSzNTczkc9d"?>
<x:xmpmeta xmlns:x="adobe:ns:meta/" x:xmptk="Adobe XMP Core 5.6-c138 79.159824, 2016/09/14-01:09:01        ">
   <rdf:RDF xmlns:rdf="http://www.w3.org/1999/02/22-rdf-syntax-ns#">
      <rdf:Description rdf:about=""/>
   </rdf:RDF>
</x:xmpmeta>
                                                                                                    
                                                                                                    
                                                                                                    
                                                                                                    
                                                                                                    
                                                                                                    
                                                                                                    
                                                                                                    
                                                                                                    
                                                                                                    
                                                                                                    
                                                                                                    
                                                                                                    
                                                                                                    
                                                                                                    
                                                                                                    
                                                                                                    
                                                                                                    
                                                                                                    
                                                                                                    
                           
<?xpacket end="w"?></metadata>
<defs>
    <style>
      .cls-1 {
        fill-rule: evenodd;
      }
    </style>
  </defs>
  <path id="profiles_1" class="cls-1" d="M493.8,360.85a4,4,0,0,0-5.03-6.17,4,4,0,1,0-6.57,4.17A5.033,5.033,0,0,0,480,363c0,0.7.36,3,5,3a11.064,11.064,0,0,0,1.2-.06c0.38,0.92,1.53,2.06,4.8,2.06,4.64,0,5-2.3,5-3A5.033,5.033,0,0,0,493.8,360.85ZM491,356a2,2,0,1,1-2,2A2.006,2.006,0,0,1,491,356Zm-8,0a2,2,0,1,1,2,2A2.006,2.006,0,0,1,483,356Zm-1,7a3,3,0,0,1,5.53-1.61,5.129,5.129,0,0,0-1.42,2.55A8.826,8.826,0,0,1,485,364C482,364,482,363,482,363Zm9,3a4.409,4.409,0,0,1-2.74-.58A0.618,0.618,0,0,1,488,365a2.993,2.993,0,0,1,1.93-2.8A2.908,2.908,0,0,1,491,362a3,3,0,0,1,3,3S494,366,491,366Z" transform="translate(-480 -352)"/>
</svg>
