<svg xmlns="http://www.w3.org/2000/svg" width="16" height="16" viewBox="0 0 16 16">
  <metadata><?xpacket begin="﻿" id="W5M0MpCehiHzreSzNTczkc9d"?>
<x:xmpmeta xmlns:x="adobe:ns:meta/" x:xmptk="Adobe XMP Core 5.6-c138 79.159824, 2016/09/14-01:09:01        ">
   <rdf:RDF xmlns:rdf="http://www.w3.org/1999/02/22-rdf-syntax-ns#">
      <rdf:Description rdf:about=""/>
   </rdf:RDF>
</x:xmpmeta>
                                                                                                    
                                                                                                    
                                                                                                    
                                                                                                    
                                                                                                    
                                                                                                    
                                                                                                    
                                                                                                    
                                                                                                    
                                                                                                    
                                                                                                    
                                                                                                    
                                                                                                    
                                                                                                    
                                                                                                    
                                                                                                    
                                                                                                    
                                                                                                    
                                                                                                    
                                                                                                    
                           
<?xpacket end="w"?></metadata>
<defs>
    <style>
      .cls-1 {
        fill-rule: evenodd;
      }
    </style>
  </defs>
  <path id="puzzle" class="cls-1" d="M525,101.69V101a2.006,2.006,0,0,0-2-2h-0.7a3.311,3.311,0,0,0-.47-1.24,4.03,4.03,0,0,0-6.66,0A3.311,3.311,0,0,0,514.7,99H514a2.006,2.006,0,0,0-2,2v3a1.064,1.064,0,0,0,.11.45,0.985,0.985,0,0,0,.953.546,1.028,1.028,0,0,0,.387-0.106,3.162,3.162,0,0,1,.55-0.21,0.761,0.761,0,0,1,.8.16,1.177,1.177,0,0,1,0,1.32,0.761,0.761,0,0,1-.8.16,3.162,3.162,0,0,1-.55-0.21,1.01,1.01,0,0,0-.387-0.106,0.984,0.984,0,0,0-.953.546,1.064,1.064,0,0,0-.11.45v3a2.006,2.006,0,0,0,2,2h9a2.006,2.006,0,0,0,2-2v-0.69A3.919,3.919,0,0,0,525,101.69Zm-0.67,5.67A3.059,3.059,0,0,1,523,107v3h-9v-1.65c0.11,0.01.22,0.02,0.33,0.02a2.639,2.639,0,0,0,2.03-.95,3.18,3.18,0,0,0,0-3.84,2.579,2.579,0,0,0-2.36-.91V101h3c-1-2,.25-3,1.5-3s2.5,1,1.5,3h3v3a3.059,3.059,0,0,1,1.33-.36C526.56,103.64,526.56,107.36,524.33,107.36Z" transform="translate(-512 -96)"/>
</svg>
