<svg xmlns="http://www.w3.org/2000/svg" width="15.844" height="16" viewBox="0 0 15.844 16">
  <metadata><?xpacket begin="﻿" id="W5M0MpCehiHzreSzNTczkc9d"?>
<x:xmpmeta xmlns:x="adobe:ns:meta/" x:xmptk="Adobe XMP Core 5.6-c138 79.159824, 2016/09/14-01:09:01        ">
   <rdf:RDF xmlns:rdf="http://www.w3.org/1999/02/22-rdf-syntax-ns#">
      <rdf:Description rdf:about=""/>
   </rdf:RDF>
</x:xmpmeta>
                                                                                                    
                                                                                                    
                                                                                                    
                                                                                                    
                                                                                                    
                                                                                                    
                                                                                                    
                                                                                                    
                                                                                                    
                                                                                                    
                                                                                                    
                                                                                                    
                                                                                                    
                                                                                                    
                                                                                                    
                                                                                                    
                                                                                                    
                                                                                                    
                                                                                                    
                                                                                                    
                           
<?xpacket end="w"?></metadata>
<defs>
    <style>
      .cls-1 {
        fill-rule: evenodd;
      }
    </style>
  </defs>
  <path id="ram" class="cls-1" d="M74.827,130l2.968,3-0.989,1H74.827l-0.989,1v2l-0.989,1H70.87l-0.989,1v2l-0.989,1-2.968-3v-2l6.925-7h1.978m0-2H72.849a1.968,1.968,0,0,0-1.4.586l-6.925,7a2.011,2.011,0,0,0-.58,1.414v2a2.011,2.011,0,0,0,.58,1.414l2.968,3a1.963,1.963,0,0,0,2.8,0l0.989-1a2.011,2.011,0,0,0,.58-1.414v-1h0.989a1.968,1.968,0,0,0,1.4-.586l0.989-1A2.011,2.011,0,0,0,75.816,137v-1h0.989a1.968,1.968,0,0,0,1.4-.586l0.989-1a2.015,2.015,0,0,0,0-2.828l-2.968-3a1.968,1.968,0,0,0-1.4-.586h0Zm0,5-5.936,5a0.982,0.982,0,0,1-.7-0.293,1.007,1.007,0,0,1,0-1.414l3.957-4a0.981,0.981,0,0,1,1.4,0,1.007,1.007,0,0,1,0,1.414l-3.957,4A0.982,0.982,0,0,1,68.891,138Z" transform="translate(-63.938 -128)"/>
</svg>
