<svg xmlns="http://www.w3.org/2000/svg" width="16" height="15.75" viewBox="0 0 16 15.75">
  <metadata><?xpacket begin="﻿" id="W5M0MpCehiHzreSzNTczkc9d"?>
<x:xmpmeta xmlns:x="adobe:ns:meta/" x:xmptk="Adobe XMP Core 5.6-c138 79.159824, 2016/09/14-01:09:01        ">
   <rdf:RDF xmlns:rdf="http://www.w3.org/1999/02/22-rdf-syntax-ns#">
      <rdf:Description rdf:about=""/>
   </rdf:RDF>
</x:xmpmeta>
                                                                                                    
                                                                                                    
                                                                                                    
                                                                                                    
                                                                                                    
                                                                                                    
                                                                                                    
                                                                                                    
                                                                                                    
                                                                                                    
                                                                                                    
                                                                                                    
                                                                                                    
                                                                                                    
                                                                                                    
                                                                                                    
                                                                                                    
                                                                                                    
                                                                                                    
                                                                                                    
                           
<?xpacket end="w"?></metadata>
<defs>
    <style>
      .cls-1 {
        fill-rule: evenodd;
      }
    </style>
  </defs>
  <path id="refresh_1" class="cls-1" d="M334.911,712.011a0.986,0.986,0,0,0-.979.845,6,6,0,0,1-7.224,4.919,5.9,5.9,0,0,1-3.18-1.83H325a0.984,0.984,0,1,0,0-1.967h-4a0.991,0.991,0,0,0-1,.983V718.9a1,1,0,0,0,2,0V717.2a8.027,8.027,0,0,0,13.909-4.069A0.993,0.993,0,0,0,334.911,712.011Zm0.08-7.869a0.994,0.994,0,0,0-1,.983v1.692a8.059,8.059,0,0,0-7.094-2.606,7.975,7.975,0,0,0-6.815,6.69,1,1,0,0,0,1.98.272,6.017,6.017,0,0,1,10.391-3.1H331a0.984,0.984,0,1,0,0,1.967h4a1.01,1.01,0,0,0,.67-0.255,0.982,0.982,0,0,0,.33-0.728v-3.935A0.994,0.994,0,0,0,334.991,704.142Z" transform="translate(-320 -704.125)"/>
</svg>
