<svg xmlns="http://www.w3.org/2000/svg" width="15.906" height="14" viewBox="0 0 15.906 14">
  <metadata><?xpacket begin="﻿" id="W5M0MpCehiHzreSzNTczkc9d"?>
<x:xmpmeta xmlns:x="adobe:ns:meta/" x:xmptk="Adobe XMP Core 5.6-c138 79.159824, 2016/09/14-01:09:01        ">
   <rdf:RDF xmlns:rdf="http://www.w3.org/1999/02/22-rdf-syntax-ns#">
      <rdf:Description rdf:about=""/>
   </rdf:RDF>
</x:xmpmeta>
                                                                                                    
                                                                                                    
                                                                                                    
                                                                                                    
                                                                                                    
                                                                                                    
                                                                                                    
                                                                                                    
                                                                                                    
                                                                                                    
                                                                                                    
                                                                                                    
                                                                                                    
                                                                                                    
                                                                                                    
                                                                                                    
                                                                                                    
                                                                                                    
                                                                                                    
                                                                                                    
                           
<?xpacket end="w"?></metadata>
<defs>
    <style>
      .cls-1 {
        fill-rule: evenodd;
      }
    </style>
  </defs>
  <path id="refresh_3" class="cls-1" d="M389.053,713a0.99,0.99,0,0,1-.7-0.293l-1.286-1.293-1.286,1.293a0.992,0.992,0,0,1-1.407,0,1,1,0,0,1,0-1.414l1.99-2a0.989,0.989,0,0,1,1.406,0l1.989,2a1,1,0,0,1,0,1.414A0.99,0.99,0,0,1,389.053,713Zm3.978,6a6.982,6.982,0,0,1-6.962-7,0.995,0.995,0,1,1,1.989,0,4.987,4.987,0,0,0,4.973,5A4.987,4.987,0,0,0,398,712a4.983,4.983,0,0,0-1.456-3.536A4.928,4.928,0,0,0,393.031,707a1,1,0,0,1,0-2,6.889,6.889,0,0,1,4.923,2.051,7.023,7.023,0,0,1,0,9.9A6.9,6.9,0,0,1,393.031,719Z" transform="translate(-384.094 -705)"/>
</svg>
