<svg xmlns="http://www.w3.org/2000/svg" width="16" height="16" viewBox="0 0 16 16">
  <metadata><?xpacket begin="﻿" id="W5M0MpCehiHzreSzNTczkc9d"?>
<x:xmpmeta xmlns:x="adobe:ns:meta/" x:xmptk="Adobe XMP Core 5.6-c138 79.159824, 2016/09/14-01:09:01        ">
   <rdf:RDF xmlns:rdf="http://www.w3.org/1999/02/22-rdf-syntax-ns#">
      <rdf:Description rdf:about=""/>
   </rdf:RDF>
</x:xmpmeta>
                                                                                                    
                                                                                                    
                                                                                                    
                                                                                                    
                                                                                                    
                                                                                                    
                                                                                                    
                                                                                                    
                                                                                                    
                                                                                                    
                                                                                                    
                                                                                                    
                                                                                                    
                                                                                                    
                                                                                                    
                                                                                                    
                                                                                                    
                                                                                                    
                                                                                                    
                                                                                                    
                           
<?xpacket end="w"?></metadata>
<defs>
    <style>
      .cls-1 {
        fill-rule: evenodd;
      }
    </style>
  </defs>
  <path id="save_1_minus" class="cls-1" d="M431.41,99.59l-3-3A1.966,1.966,0,0,0,427,96h-9a2.006,2.006,0,0,0-2,2v12a2.006,2.006,0,0,0,2,2h5a1,1,0,0,0,0-2h-2v-3h4a1,1,0,0,0,0-2h-4a2.006,2.006,0,0,0-2,2v3h-1V98h1v2a2.006,2.006,0,0,0,2,2h3a2.006,2.006,0,0,0,2-2V98h1l3,3v4a1,1,0,0,0,2,0v-4A1.966,1.966,0,0,0,431.41,99.59ZM421,100V98h2v2h-2Zm10,8h-4a1,1,0,0,0,0,2h4A1,1,0,0,0,431,108Z" transform="translate(-416 -96)"/>
</svg>
