<svg xmlns="http://www.w3.org/2000/svg" width="15.937" height="16" viewBox="0 0 15.937 16">
  <metadata><?xpacket begin="﻿" id="W5M0MpCehiHzreSzNTczkc9d"?>
<x:xmpmeta xmlns:x="adobe:ns:meta/" x:xmptk="Adobe XMP Core 5.6-c138 79.159824, 2016/09/14-01:09:01        ">
   <rdf:RDF xmlns:rdf="http://www.w3.org/1999/02/22-rdf-syntax-ns#">
      <rdf:Description rdf:about=""/>
   </rdf:RDF>
</x:xmpmeta>
                                                                                                    
                                                                                                    
                                                                                                    
                                                                                                    
                                                                                                    
                                                                                                    
                                                                                                    
                                                                                                    
                                                                                                    
                                                                                                    
                                                                                                    
                                                                                                    
                                                                                                    
                                                                                                    
                                                                                                    
                                                                                                    
                                                                                                    
                                                                                                    
                                                                                                    
                                                                                                    
                           
<?xpacket end="w"?></metadata>
<defs>
    <style>
      .cls-1 {
        fill-rule: evenodd;
      }
    </style>
  </defs>
  <path id="scale_1_down" class="cls-1" d="M110.9,681a1,1,0,0,0-.994,1v4H103.94v-4a2,2,0,0,0-1.989-2H97.973v-6h3.978a1,1,0,0,0,0-2H97.973a2,2,0,0,0-1.989,2v12a2,2,0,0,0,1.989,2h11.935a2,2,0,0,0,1.989-2v-4A1,1,0,0,0,110.9,681Zm-8.951,5H97.973v-4h3.978v4Zm8.951-9H108.33l3.276-3.293a1,1,0,0,0,0-1.414,0.991,0.991,0,0,0-1.407,0l-3.275,3.293V673a0.995,0.995,0,1,0-1.989,0v5a1,1,0,0,0,.994,1H110.9A1,1,0,0,0,110.9,677Z" transform="translate(-95.969 -672)"/>
</svg>
