<svg xmlns="http://www.w3.org/2000/svg" width="16" height="16" viewBox="0 0 16 16">
  <metadata><?xpacket begin="﻿" id="W5M0MpCehiHzreSzNTczkc9d"?>
<x:xmpmeta xmlns:x="adobe:ns:meta/" x:xmptk="Adobe XMP Core 5.6-c138 79.159824, 2016/09/14-01:09:01        ">
   <rdf:RDF xmlns:rdf="http://www.w3.org/1999/02/22-rdf-syntax-ns#">
      <rdf:Description rdf:about=""/>
   </rdf:RDF>
</x:xmpmeta>
                                                                                                    
                                                                                                    
                                                                                                    
                                                                                                    
                                                                                                    
                                                                                                    
                                                                                                    
                                                                                                    
                                                                                                    
                                                                                                    
                                                                                                    
                                                                                                    
                                                                                                    
                                                                                                    
                                                                                                    
                                                                                                    
                                                                                                    
                                                                                                    
                                                                                                    
                                                                                                    
                           
<?xpacket end="w"?></metadata>
<defs>
    <style>
      .cls-1 {
        fill-rule: evenodd;
      }
    </style>
  </defs>
  <path id="scale_1_up" class="cls-1" d="M79,681a1,1,0,0,0-1,1v4H72v-4a2.006,2.006,0,0,0-2-2H66v-6h4a1,1,0,1,0,0-2H66a2.006,2.006,0,0,0-2,2v12a2.006,2.006,0,0,0,2,2H78a2.006,2.006,0,0,0,2-2v-4A1,1,0,0,0,79,681Zm-9,5H66v-4h4v4Zm9.923-13.382A1,1,0,0,0,79,672H74a1,1,0,0,0,0,2h2.586l-3.293,3.293a1,1,0,1,0,1.414,1.414L78,675.414V678a1,1,0,0,0,2,0v-5A1,1,0,0,0,79.923,672.618Z" transform="translate(-64 -672)"/>
</svg>
