<svg xmlns="http://www.w3.org/2000/svg" width="16" height="16" viewBox="0 0 16 16">
  <metadata><?xpacket begin="﻿" id="W5M0MpCehiHzreSzNTczkc9d"?>
<x:xmpmeta xmlns:x="adobe:ns:meta/" x:xmptk="Adobe XMP Core 5.6-c138 79.159824, 2016/09/14-01:09:01        ">
   <rdf:RDF xmlns:rdf="http://www.w3.org/1999/02/22-rdf-syntax-ns#">
      <rdf:Description rdf:about=""/>
   </rdf:RDF>
</x:xmpmeta>
                                                                                                    
                                                                                                    
                                                                                                    
                                                                                                    
                                                                                                    
                                                                                                    
                                                                                                    
                                                                                                    
                                                                                                    
                                                                                                    
                                                                                                    
                                                                                                    
                                                                                                    
                                                                                                    
                                                                                                    
                                                                                                    
                                                                                                    
                                                                                                    
                                                                                                    
                                                                                                    
                           
<?xpacket end="w"?></metadata>
<defs>
    <style>
      .cls-1 {
        fill-rule: evenodd;
      }
    </style>
  </defs>
  <path id="selection_b_4" class="cls-1" d="M358,675a1,1,0,0,0,1-1,1,1,0,0,0,0-2,2.006,2.006,0,0,0-2,2A1,1,0,0,0,358,675Zm7-1a1,1,0,0,0,2,0,2.006,2.006,0,0,0-2-2A1,1,0,0,0,365,674Zm1,5a1,1,0,0,0-1,1,1,1,0,0,0,0,2,2.006,2.006,0,0,0,2-2A1,1,0,0,0,366,679Zm-4-7a1,1,0,1,0,1,1A1,1,0,0,0,362,672Zm4,4a1,1,0,1,0,1,1A1,1,0,0,0,366,676Zm-4,4h-1a2.006,2.006,0,0,0-2-2v-1a1,1,0,0,0-2,0v1h-4a2.006,2.006,0,0,0-2,2v6a2.006,2.006,0,0,0,2,2h6a2.006,2.006,0,0,0,2-2v-4h1A1,1,0,0,0,362,680Zm-3,6h-6v-6h6v6Z" transform="translate(-351 -672)"/>
</svg>
