<svg xmlns="http://www.w3.org/2000/svg" width="16" height="16" viewBox="0 0 16 16">
  <metadata><?xpacket begin="﻿" id="W5M0MpCehiHzreSzNTczkc9d"?>
<x:xmpmeta xmlns:x="adobe:ns:meta/" x:xmptk="Adobe XMP Core 5.6-c138 79.159824, 2016/09/14-01:09:01        ">
   <rdf:RDF xmlns:rdf="http://www.w3.org/1999/02/22-rdf-syntax-ns#">
      <rdf:Description rdf:about=""/>
   </rdf:RDF>
</x:xmpmeta>
                                                                                                    
                                                                                                    
                                                                                                    
                                                                                                    
                                                                                                    
                                                                                                    
                                                                                                    
                                                                                                    
                                                                                                    
                                                                                                    
                                                                                                    
                                                                                                    
                                                                                                    
                                                                                                    
                                                                                                    
                                                                                                    
                                                                                                    
                                                                                                    
                                                                                                    
                                                                                                    
                           
<?xpacket end="w"?></metadata>
<defs>
    <style>
      .cls-1 {
        fill-rule: evenodd;
      }
    </style>
  </defs>
  <path id="selection_b_3" class="cls-1" d="M264,678h-6a2.006,2.006,0,0,0-2,2v6a2.006,2.006,0,0,0,2,2h6a2.006,2.006,0,0,0,2-2v-6A2.006,2.006,0,0,0,264,678Zm0,8h-6v-6h6v6Zm0-14a2.006,2.006,0,0,0-2,2v1a1,1,0,0,0,1,1h0a1,1,0,0,0,1-1v-1h1a1,1,0,0,0,1-1h0a1,1,0,0,0-1-1h-1Zm6,8h-1a1,1,0,0,0-1,1h0a1,1,0,0,0,1,1h1a2.006,2.006,0,0,0,2-2v-1a1,1,0,0,0-1-1h0a1,1,0,0,0-1,1v1Zm0-8h-1a1,1,0,0,0-1,1h0a1,1,0,0,0,1,1h1v1a1,1,0,0,0,1,1h0a1,1,0,0,0,1-1v-1A2.006,2.006,0,0,0,270,672Z" transform="translate(-256 -672)"/>
</svg>
