<svg xmlns="http://www.w3.org/2000/svg" width="16" height="16" viewBox="0 0 16 16">
  <metadata><?xpacket begin="﻿" id="W5M0MpCehiHzreSzNTczkc9d"?>
<x:xmpmeta xmlns:x="adobe:ns:meta/" x:xmptk="Adobe XMP Core 5.6-c138 79.159824, 2016/09/14-01:09:01        ">
   <rdf:RDF xmlns:rdf="http://www.w3.org/1999/02/22-rdf-syntax-ns#">
      <rdf:Description rdf:about=""/>
   </rdf:RDF>
</x:xmpmeta>
                                                                                                    
                                                                                                    
                                                                                                    
                                                                                                    
                                                                                                    
                                                                                                    
                                                                                                    
                                                                                                    
                                                                                                    
                                                                                                    
                                                                                                    
                                                                                                    
                                                                                                    
                                                                                                    
                                                                                                    
                                                                                                    
                                                                                                    
                                                                                                    
                                                                                                    
                                                                                                    
                           
<?xpacket end="w"?></metadata>
<defs>
    <style>
      .cls-1 {
        fill-rule: evenodd;
      }
    </style>
  </defs>
  <path id="selection_2" class="cls-1" d="M227,672h-2a1,1,0,0,0-1,1v2a1,1,0,0,0,2,0v-1h1A1,1,0,0,0,227,672Zm12,0h-2a1,1,0,0,0,0,2h1v1a1,1,0,0,0,2,0v-2A1,1,0,0,0,239,672Zm0,12a1,1,0,0,0-1,1v1h-1a1,1,0,0,0,0,2h2a1,1,0,0,0,1-1v-2A1,1,0,0,0,239,684Zm-12,2h-1v-1a1,1,0,0,0-2,0v2a1,1,0,0,0,1,1h2A1,1,0,0,0,227,686Zm-2-4a1,1,0,0,0,1-1v-2a1,1,0,0,0-2,0v2A1,1,0,0,0,225,682Zm14-4a1,1,0,0,0-1,1v2a1,1,0,0,0,2,0v-2A1,1,0,0,0,239,678Zm-6-6h-2a1,1,0,0,0,0,2h2A1,1,0,0,0,233,672Zm0,14h-2a1,1,0,0,0,0,2h2A1,1,0,0,0,233,686Z" transform="translate(-224 -672)"/>
</svg>
