<svg xmlns="http://www.w3.org/2000/svg" width="16" height="16" viewBox="0 0 16 16">
  <metadata><?xpacket begin="﻿" id="W5M0MpCehiHzreSzNTczkc9d"?>
<x:xmpmeta xmlns:x="adobe:ns:meta/" x:xmptk="Adobe XMP Core 5.6-c138 79.159824, 2016/09/14-01:09:01        ">
   <rdf:RDF xmlns:rdf="http://www.w3.org/1999/02/22-rdf-syntax-ns#">
      <rdf:Description rdf:about=""/>
   </rdf:RDF>
</x:xmpmeta>
                                                                                                    
                                                                                                    
                                                                                                    
                                                                                                    
                                                                                                    
                                                                                                    
                                                                                                    
                                                                                                    
                                                                                                    
                                                                                                    
                                                                                                    
                                                                                                    
                                                                                                    
                                                                                                    
                                                                                                    
                                                                                                    
                                                                                                    
                                                                                                    
                                                                                                    
                                                                                                    
                           
<?xpacket end="w"?></metadata>
<defs>
    <style>
      .cls-1 {
        fill-rule: evenodd;
      }
    </style>
  </defs>
  <path id="selection_1" class="cls-1" d="M134,686h-4v-4a1,1,0,0,0-2,0v4a2.006,2.006,0,0,0,2,2h4A1,1,0,0,0,134,686Zm0-14h-4a2.006,2.006,0,0,0-2,2v4a1,1,0,0,0,2,0v-4h4A1,1,0,0,0,134,672Zm9,9a1,1,0,0,0-1,1v4h-4a1,1,0,0,0,0,2h4a2.006,2.006,0,0,0,2-2v-4A1,1,0,0,0,143,681Zm-1-9h-4a1,1,0,0,0,0,2h4v4a1,1,0,0,0,2,0v-4A2.006,2.006,0,0,0,142,672Z" transform="translate(-128 -672)"/>
</svg>
