<svg xmlns="http://www.w3.org/2000/svg" width="16" height="16" viewBox="0 0 16 16">
  <metadata><?xpacket begin="﻿" id="W5M0MpCehiHzreSzNTczkc9d"?>
<x:xmpmeta xmlns:x="adobe:ns:meta/" x:xmptk="Adobe XMP Core 5.6-c138 79.159824, 2016/09/14-01:09:01        ">
   <rdf:RDF xmlns:rdf="http://www.w3.org/1999/02/22-rdf-syntax-ns#">
      <rdf:Description rdf:about=""/>
   </rdf:RDF>
</x:xmpmeta>
                                                                                                    
                                                                                                    
                                                                                                    
                                                                                                    
                                                                                                    
                                                                                                    
                                                                                                    
                                                                                                    
                                                                                                    
                                                                                                    
                                                                                                    
                                                                                                    
                                                                                                    
                                                                                                    
                                                                                                    
                                                                                                    
                                                                                                    
                                                                                                    
                                                                                                    
                                                                                                    
                           
<?xpacket end="w"?></metadata>
<defs>
    <style>
      .cls-1 {
        fill-rule: evenodd;
      }
    </style>
  </defs>
  <path id="settings_sq" class="cls-1" d="M526,66V78H514V66h12m0-2H514a2,2,0,0,0-2,2V78a2,2,0,0,0,2,2h12a2,2,0,0,0,2-2V66a2,2,0,0,0-2-2h0Zm-8,12h0a1,1,0,0,1-1-1V69a1,1,0,0,1,1-1h0a1,1,0,0,1,1,1v6A1,1,0,0,1,518,76Zm4,0h0a1,1,0,0,1-1-1V69a1,1,0,0,1,1-1h0a1,1,0,0,1,1,1v6A1,1,0,0,1,522,76Zm-2-5h-4V69h4v2Zm4,4h-4V73h4v2Z" transform="translate(-512 -64)"/>
</svg>
