<svg xmlns="http://www.w3.org/2000/svg" width="16" height="16" viewBox="0 0 16 16">
  <metadata><?xpacket begin="﻿" id="W5M0MpCehiHzreSzNTczkc9d"?>
<x:xmpmeta xmlns:x="adobe:ns:meta/" x:xmptk="Adobe XMP Core 5.6-c138 79.159824, 2016/09/14-01:09:01        ">
   <rdf:RDF xmlns:rdf="http://www.w3.org/1999/02/22-rdf-syntax-ns#">
      <rdf:Description rdf:about=""/>
   </rdf:RDF>
</x:xmpmeta>
                                                                                                    
                                                                                                    
                                                                                                    
                                                                                                    
                                                                                                    
                                                                                                    
                                                                                                    
                                                                                                    
                                                                                                    
                                                                                                    
                                                                                                    
                                                                                                    
                                                                                                    
                                                                                                    
                                                                                                    
                                                                                                    
                                                                                                    
                                                                                                    
                                                                                                    
                                                                                                    
                           
<?xpacket end="w"?></metadata>
<defs>
    <style>
      .cls-1 {
        fill-rule: evenodd;
      }
    </style>
  </defs>
  <path id="settings_1" class="cls-1" d="M481,69h1v1a2.006,2.006,0,0,0,2,2h2a2.006,2.006,0,0,0,2-2V69h7a1,1,0,0,0,0-2h-7V66a2.006,2.006,0,0,0-2-2h-2a2.006,2.006,0,0,0-2,2v1h-1A1,1,0,0,0,481,69Zm3-3h2v4h-2V66Zm11,9h-1V74a2.006,2.006,0,0,0-2-2h-2a2.006,2.006,0,0,0-2,2v1h-7a1,1,0,1,0,0,2h7v1a2.006,2.006,0,0,0,2,2h2a2.006,2.006,0,0,0,2-2V77h1A1,1,0,1,0,495,75Zm-3,3h-2V74h2v4Z" transform="translate(-480 -64)"/>
</svg>
