<svg xmlns="http://www.w3.org/2000/svg" width="16" height="16" viewBox="0 0 16 16">
  <metadata><?xpacket begin="﻿" id="W5M0MpCehiHzreSzNTczkc9d"?>
<x:xmpmeta xmlns:x="adobe:ns:meta/" x:xmptk="Adobe XMP Core 5.6-c138 79.159824, 2016/09/14-01:09:01        ">
   <rdf:RDF xmlns:rdf="http://www.w3.org/1999/02/22-rdf-syntax-ns#">
      <rdf:Description rdf:about=""/>
   </rdf:RDF>
</x:xmpmeta>
                                                                                                    
                                                                                                    
                                                                                                    
                                                                                                    
                                                                                                    
                                                                                                    
                                                                                                    
                                                                                                    
                                                                                                    
                                                                                                    
                                                                                                    
                                                                                                    
                                                                                                    
                                                                                                    
                                                                                                    
                                                                                                    
                                                                                                    
                                                                                                    
                                                                                                    
                                                                                                    
                           
<?xpacket end="w"?></metadata>
<defs>
    <style>
      .cls-1 {
        fill-rule: evenodd;
      }
    </style>
  </defs>
  <path id="settings_2" class="cls-1" d="M545,68h7.187a2.978,2.978,0,0,0,5.626,0H559a1,1,0,0,0,0-2h-1.187a2.978,2.978,0,0,0-5.626,0H545A1,1,0,0,0,545,68Zm10-2a1,1,0,1,1-1,1A1,1,0,0,1,555,66Zm4,10h-1.187a2.978,2.978,0,0,0-5.626,0H545a1,1,0,1,0,0,2h7.187a2.978,2.978,0,0,0,5.626,0H559A1,1,0,1,0,559,76Zm-4,2a1,1,0,1,1,1-1A1,1,0,0,1,555,78Zm4-7h-7.187a2.978,2.978,0,0,0-5.626,0H545a1,1,0,1,0,0,2h1.187a2.98,2.98,0,0,0,5.641-.035A0.945,0.945,0,0,0,552,73h7A1,1,0,1,0,559,71Zm-10,2a1,1,0,1,1,1-1A1,1,0,0,1,549,73Z" transform="translate(-544 -64)"/>
</svg>
