<svg xmlns="http://www.w3.org/2000/svg" width="15.782" height="16" viewBox="0 0 15.782 16">
  <metadata><?xpacket begin="﻿" id="W5M0MpCehiHzreSzNTczkc9d"?>
<x:xmpmeta xmlns:x="adobe:ns:meta/" x:xmptk="Adobe XMP Core 5.6-c138 79.159824, 2016/09/14-01:09:01        ">
   <rdf:RDF xmlns:rdf="http://www.w3.org/1999/02/22-rdf-syntax-ns#">
      <rdf:Description rdf:about=""/>
   </rdf:RDF>
</x:xmpmeta>
                                                                                                    
                                                                                                    
                                                                                                    
                                                                                                    
                                                                                                    
                                                                                                    
                                                                                                    
                                                                                                    
                                                                                                    
                                                                                                    
                                                                                                    
                                                                                                    
                                                                                                    
                                                                                                    
                                                                                                    
                                                                                                    
                                                                                                    
                                                                                                    
                                                                                                    
                                                                                                    
                           
<?xpacket end="w"?></metadata>
<defs>
    <style>
      .cls-1 {
        fill-rule: evenodd;
      }
    </style>
  </defs>
  <path class="cls-1" d="M750.339,649.1l-2.96-1a1.934,1.934,0,0,0-.624-0.1,1.971,1.971,0,0,0-1.765,1.106l-0.359.727a3.852,3.852,0,0,1-1.644-1,3.982,3.982,0,0,1-1-1.68l0.718-.364a2.01,2.01,0,0,0,.989-2.421l-0.986-3a1.962,1.962,0,0,0-2.494-1.266l-2.288.77a1.989,1.989,0,0,0-1.182,1.086A10.006,10.006,0,0,0,735.9,646a9.9,9.9,0,0,0,1.041,4.463,8.045,8.045,0,0,0,.383.72,9.508,9.508,0,0,0,1.478,1.9c0.1,0.1.21,0.212,0.336,0.326A9.765,9.765,0,0,0,745.769,656a9.65,9.65,0,0,0,3.987-.852,1.992,1.992,0,0,0,1.072-1.2l0.759-2.32A2.006,2.006,0,0,0,750.339,649.1Zm-1.384,4.217a7.725,7.725,0,0,1-3.186.68,7.815,7.815,0,0,1-5.308-2.08c-0.1-.09-0.187-0.18-0.276-0.27a7.5,7.5,0,0,1-1.174-1.51,5.987,5.987,0,0,1-.3-0.56,7.922,7.922,0,0,1-.839-3.58,8.014,8.014,0,0,1,.671-3.23l2.289-.77,0.986,3-1.973,1a5.983,5.983,0,0,0,1.737,4.24,5.824,5.824,0,0,0,4.183,1.76l0.986-2,2.96,1ZM744.782,642a5.459,5.459,0,0,1,4.933,5,0.987,0.987,0,1,0,1.973,0,7.425,7.425,0,0,0-6.906-7A1,1,0,0,0,744.782,642Zm0,3a2771.729,2771.729,0,0,1,1.973,2,0.993,0.993,0,0,0,.987-1,1.947,1.947,0,0,0-1.973-2A0.993,0.993,0,0,0,744.782,645Z" transform="translate(-735.906 -640)"/>
</svg>
