<svg xmlns="http://www.w3.org/2000/svg" width="15.812" height="15.906" viewBox="0 0 15.812 15.906">
  <metadata><?xpacket begin="﻿" id="W5M0MpCehiHzreSzNTczkc9d"?>
<x:xmpmeta xmlns:x="adobe:ns:meta/" x:xmptk="Adobe XMP Core 5.6-c138 79.159824, 2016/09/14-01:09:01        ">
   <rdf:RDF xmlns:rdf="http://www.w3.org/1999/02/22-rdf-syntax-ns#">
      <rdf:Description rdf:about=""/>
   </rdf:RDF>
</x:xmpmeta>
                                                                                                    
                                                                                                    
                                                                                                    
                                                                                                    
                                                                                                    
                                                                                                    
                                                                                                    
                                                                                                    
                                                                                                    
                                                                                                    
                                                                                                    
                                                                                                    
                                                                                                    
                                                                                                    
                                                                                                    
                                                                                                    
                                                                                                    
                                                                                                    
                                                                                                    
                                                                                                    
                           
<?xpacket end="w"?></metadata>
<defs>
    <style>
      .cls-1 {
        fill-rule: evenodd;
      }
    </style>
  </defs>
  <path class="cls-1" d="M457.933,130.073v3.739l4.472,4.5a1.966,1.966,0,0,0,.326-2.039,1.987,1.987,0,0,0-1.83-1.223h-0.989v-4.973a1.99,1.99,0,0,0-1.979-1.99h-3.957a1.99,1.99,0,0,0-1.276.468l1.514,1.522h3.719Zm5.646,12.226-2.562-2.576,0,0-1.395-1.4,0,0-1.279-1.286h0.006l-0.416-.418v0.006l-3.957-3.978v-0.006L452,130.649v0.006l-2.269-2.28a0.984,0.984,0,0,0-1.4,0,1,1,0,0,0,0,1.406L452,133.468v1.578h-0.99a0.839,0.839,0,0,0-.217.019,1.976,1.976,0,0,0-1.177,3.372l4.946,4.973a1.951,1.951,0,0,0,2.79,0l0.87-.875,0.7-.706,0.695-.7,2.562,2.576a0.986,0.986,0,0,0,1.4,0A1,1,0,0,0,463.579,142.3Zm-5.359-2.569-0.692.7-1.573,1.582-4.947-4.973h2.968v-1.578l4.247,4.27Z" transform="translate(-448.063 -128.094)"/>
</svg>
