<svg xmlns="http://www.w3.org/2000/svg" width="15.937" height="14" viewBox="0 0 15.937 14">
  <metadata><?xpacket begin="﻿" id="W5M0MpCehiHzreSzNTczkc9d"?>
<x:xmpmeta xmlns:x="adobe:ns:meta/" x:xmptk="Adobe XMP Core 5.6-c138 79.159824, 2016/09/14-01:09:01        ">
   <rdf:RDF xmlns:rdf="http://www.w3.org/1999/02/22-rdf-syntax-ns#">
      <rdf:Description rdf:about=""/>
   </rdf:RDF>
</x:xmpmeta>
                                                                                                    
                                                                                                    
                                                                                                    
                                                                                                    
                                                                                                    
                                                                                                    
                                                                                                    
                                                                                                    
                                                                                                    
                                                                                                    
                                                                                                    
                                                                                                    
                                                                                                    
                                                                                                    
                                                                                                    
                                                                                                    
                                                                                                    
                                                                                                    
                                                                                                    
                                                                                                    
                           
<?xpacket end="w"?></metadata>
<defs>
    <style>
      .cls-1 {
        fill-rule: evenodd;
      }
    </style>
  </defs>
  <path class="cls-1" d="M749.614,713.293a0.99,0.99,0,0,0-1.407,0,1,1,0,0,0,0,1.414L748.5,715h-1.166l-7.664-7.707a0.988,0.988,0,0,0-.7-0.293h-1.989a1,1,0,0,0,0,2h1.577l7.664,7.707a1,1,0,0,0,.7.293H748.5l-0.292.293a1,1,0,0,0,0,1.414,0.991,0.991,0,0,0,1.407,0l1.988-2a1,1,0,0,0,0-1.414Zm-10.189.83-0.867.877h-1.581a1,1,0,0,0,0,2h1.989a1.025,1.025,0,0,0,.706-0.29l1.165-1.171a1.007,1.007,0,0,0,0-1.418A0.994,0.994,0,0,0,739.425,714.123Zm7.038-4.246,0.866-.877H748.5l-0.3.29a1.014,1.014,0,0,0,0,1.42,1.006,1.006,0,0,0,1.413,0l1.988-2a1.01,1.01,0,0,0,0-1.42l-1.988-2a1,1,0,1,0-1.413,1.42l0.3,0.29h-1.581a1.025,1.025,0,0,0-.707.29l-1.164,1.171a1.007,1.007,0,0,0,0,1.418A0.994,0.994,0,0,0,746.463,709.877Z" transform="translate(-735.969 -705)"/>
</svg>
