<svg xmlns="http://www.w3.org/2000/svg" width="16" height="16" viewBox="0 0 16 16">
  <metadata><?xpacket begin="﻿" id="W5M0MpCehiHzreSzNTczkc9d"?>
<x:xmpmeta xmlns:x="adobe:ns:meta/" x:xmptk="Adobe XMP Core 5.6-c138 79.159824, 2016/09/14-01:09:01        ">
   <rdf:RDF xmlns:rdf="http://www.w3.org/1999/02/22-rdf-syntax-ns#">
      <rdf:Description rdf:about=""/>
   </rdf:RDF>
</x:xmpmeta>
                                                                                                    
                                                                                                    
                                                                                                    
                                                                                                    
                                                                                                    
                                                                                                    
                                                                                                    
                                                                                                    
                                                                                                    
                                                                                                    
                                                                                                    
                                                                                                    
                                                                                                    
                                                                                                    
                                                                                                    
                                                                                                    
                                                                                                    
                                                                                                    
                                                                                                    
                                                                                                    
                           
<?xpacket end="w"?></metadata>
<defs>
    <style>
      .cls-1 {
        fill-rule: evenodd;
      }
    </style>
  </defs>
  <path id="share_1" class="cls-1" d="M333,330a2.989,2.989,0,0,0-2.077.843l-4.96-2.48a1.8,1.8,0,0,0,0-.727l4.96-2.48A2.994,2.994,0,1,0,330,323a2.9,2.9,0,0,0,.037.363l-4.96,2.48a3,3,0,1,0,0,4.313l4.96,2.48A2.914,2.914,0,0,0,330,333,3,3,0,1,0,333,330Zm0-8a1,1,0,1,1-1,1A1,1,0,0,1,333,322Zm-10,7a1,1,0,1,1,1-1A1,1,0,0,1,323,329Zm10,5a1,1,0,1,1,1-1A1,1,0,0,1,333,334Z" transform="translate(-320 -320)"/>
</svg>
