<svg xmlns="http://www.w3.org/2000/svg" width="16" height="10" viewBox="0 0 16 10">
  <metadata><?xpacket begin="﻿" id="W5M0MpCehiHzreSzNTczkc9d"?>
<x:xmpmeta xmlns:x="adobe:ns:meta/" x:xmptk="Adobe XMP Core 5.6-c138 79.159824, 2016/09/14-01:09:01        ">
   <rdf:RDF xmlns:rdf="http://www.w3.org/1999/02/22-rdf-syntax-ns#">
      <rdf:Description rdf:about=""/>
   </rdf:RDF>
</x:xmpmeta>
                                                                                                    
                                                                                                    
                                                                                                    
                                                                                                    
                                                                                                    
                                                                                                    
                                                                                                    
                                                                                                    
                                                                                                    
                                                                                                    
                                                                                                    
                                                                                                    
                                                                                                    
                                                                                                    
                                                                                                    
                                                                                                    
                                                                                                    
                                                                                                    
                                                                                                    
                                                                                                    
                           
<?xpacket end="w"?></metadata>
<defs>
    <style>
      .cls-1 {
        fill-rule: evenodd;
      }
    </style>
  </defs>
  <path id="share_chain_5" class="cls-1" d="M517,331h-3v-6h3a1,1,0,0,0,0-2h-4a1,1,0,0,0-1,1v8a1,1,0,0,0,1,1h4A1,1,0,0,0,517,331Zm10-8h-4a1,1,0,0,0,0,2h3v6h-3a1,1,0,0,0,0,2h4a1,1,0,0,0,1-1v-8A1,1,0,0,0,527,323Zm-11,5a1,1,0,0,0,1,1h6a1,1,0,0,0,0-2h-6A1,1,0,0,0,516,328Z" transform="translate(-512 -323)"/>
</svg>
