<svg xmlns="http://www.w3.org/2000/svg" width="16" height="16" viewBox="0 0 16 16">
  <metadata><?xpacket begin="﻿" id="W5M0MpCehiHzreSzNTczkc9d"?>
<x:xmpmeta xmlns:x="adobe:ns:meta/" x:xmptk="Adobe XMP Core 5.6-c138 79.159824, 2016/09/14-01:09:01        ">
   <rdf:RDF xmlns:rdf="http://www.w3.org/1999/02/22-rdf-syntax-ns#">
      <rdf:Description rdf:about=""/>
   </rdf:RDF>
</x:xmpmeta>
                                                                                                    
                                                                                                    
                                                                                                    
                                                                                                    
                                                                                                    
                                                                                                    
                                                                                                    
                                                                                                    
                                                                                                    
                                                                                                    
                                                                                                    
                                                                                                    
                                                                                                    
                                                                                                    
                                                                                                    
                                                                                                    
                                                                                                    
                                                                                                    
                                                                                                    
                                                                                                    
                           
<?xpacket end="w"?></metadata>
<defs>
    <style>
      .cls-1 {
        fill-rule: evenodd;
      }
    </style>
  </defs>
  <path id="share_2_u_sq" class="cls-1" d="M431,681a1,1,0,0,0-1,1v4H418V674h4a1,1,0,0,0,0-2h-4a2.006,2.006,0,0,0-2,2v12a2.006,2.006,0,0,0,2,2h12a2.006,2.006,0,0,0,2-2v-4A1,1,0,0,0,431,681Zm0.993-8.036a1.021,1.021,0,0,0-.069-0.347l0,0c0-.009-0.011-0.015-0.015-0.024a0.971,0.971,0,0,0-.178-0.265,1.207,1.207,0,0,0-.285-0.209,0.758,0.758,0,0,0-.1-0.046A1,1,0,0,0,431,672h-5a1,1,0,0,0,0,2h2.586l-8.293,8.293a1,1,0,1,0,1.414,1.414L430,675.414V678a1,1,0,0,0,2,0v-5C432,672.987,431.993,672.976,431.993,672.964Z" transform="translate(-416 -672)"/>
</svg>
