<svg xmlns="http://www.w3.org/2000/svg" width="15.812" height="15.906" viewBox="0 0 15.812 15.906">
  <metadata><?xpacket begin="﻿" id="W5M0MpCehiHzreSzNTczkc9d"?>
<x:xmpmeta xmlns:x="adobe:ns:meta/" x:xmptk="Adobe XMP Core 5.6-c138 79.159824, 2016/09/14-01:09:01        ">
   <rdf:RDF xmlns:rdf="http://www.w3.org/1999/02/22-rdf-syntax-ns#">
      <rdf:Description rdf:about=""/>
   </rdf:RDF>
</x:xmpmeta>
                                                                                                    
                                                                                                    
                                                                                                    
                                                                                                    
                                                                                                    
                                                                                                    
                                                                                                    
                                                                                                    
                                                                                                    
                                                                                                    
                                                                                                    
                                                                                                    
                                                                                                    
                                                                                                    
                                                                                                    
                                                                                                    
                                                                                                    
                                                                                                    
                                                                                                    
                                                                                                    
                           
<?xpacket end="w"?></metadata>
<defs>
    <style>
      .cls-1 {
        fill-rule: evenodd;
      }
    </style>
  </defs>
  <path id="share_chain_1" class="cls-1" d="M261.976,335.99a0.983,0.983,0,0,1-.7-0.291l-4.946-4.973a1,1,0,0,1,0-1.406l2.967-2.984a0.984,0.984,0,0,1,1.4,0,1,1,0,0,1,0,1.406l-2.268,2.281,3.547,3.566,2.269-2.28a0.983,0.983,0,0,1,1.4,0,1,1,0,0,1,0,1.406l-2.967,2.984A0.987,0.987,0,0,1,261.976,335.99Zm0-4.973a0.983,0.983,0,0,1-.7-0.291,1,1,0,0,1,0-1.406l3.957-3.979a0.986,0.986,0,0,1,1.4,0,1,1,0,0,1,0,1.407l-3.957,3.978A0.987,0.987,0,0,1,261.976,331.017Zm5.936-.994a0.984,0.984,0,0,1-.7-0.292,1,1,0,0,1,0-1.406l2.269-2.281-3.548-3.566-2.268,2.28a0.984,0.984,0,0,1-1.4,0,1,1,0,0,1,0-1.406l2.968-2.984a0.986,0.986,0,0,1,1.4,0l4.946,4.973a1,1,0,0,1,0,1.407l-2.968,2.983A0.98,0.98,0,0,1,267.912,330.023Z" transform="translate(-256.063 -320.094)"/>
</svg>
