<svg xmlns="http://www.w3.org/2000/svg" width="15" height="16.031" viewBox="0 0 15 16.031">
  <metadata><?xpacket begin="﻿" id="W5M0MpCehiHzreSzNTczkc9d"?>
<x:xmpmeta xmlns:x="adobe:ns:meta/" x:xmptk="Adobe XMP Core 5.6-c138 79.159824, 2016/09/14-01:09:01        ">
   <rdf:RDF xmlns:rdf="http://www.w3.org/1999/02/22-rdf-syntax-ns#">
      <rdf:Description rdf:about=""/>
   </rdf:RDF>
</x:xmpmeta>
                                                                                                    
                                                                                                    
                                                                                                    
                                                                                                    
                                                                                                    
                                                                                                    
                                                                                                    
                                                                                                    
                                                                                                    
                                                                                                    
                                                                                                    
                                                                                                    
                                                                                                    
                                                                                                    
                                                                                                    
                                                                                                    
                                                                                                    
                                                                                                    
                                                                                                    
                                                                                                    
                           
<?xpacket end="w"?></metadata>
<defs>
    <style>
      .cls-1 {
        fill-rule: evenodd;
      }
    </style>
  </defs>
  <path id="share_chain_2" class="cls-1" d="M359.784,331.3l-1.873,2a2.114,2.114,0,0,1-1.616.7,2.363,2.363,0,0,1-1.661-.787,2.542,2.542,0,0,1-.08-3.5l1.872-2a1.049,1.049,0,0,0,0-1.415,0.894,0.894,0,0,0-1.324,0l-1.872,2a4.65,4.65,0,0,0,.08,6.334A4.174,4.174,0,0,0,356.25,336l0.1,0a3.923,3.923,0,0,0,2.884-1.288l1.873-2a1.051,1.051,0,0,0,0-1.415A0.894,0.894,0,0,0,359.784,331.3Zm2.26-6.006a0.894,0.894,0,0,0-1.324,0l-3.745,4a1.049,1.049,0,0,0,0,1.415,0.894,0.894,0,0,0,1.324,0l3.745-4A1.049,1.049,0,0,0,362.044,325.29Zm3.664-3.918a3.959,3.959,0,0,0-5.924-.086l-1.873,2a1.049,1.049,0,0,0,0,1.415,0.894,0.894,0,0,0,1.324,0l1.873-2a2.169,2.169,0,0,1,3.276.086,2.542,2.542,0,0,1,.081,3.5l-1.873,2a1.051,1.051,0,0,0,0,1.415,0.894,0.894,0,0,0,1.324,0l1.873-2A4.649,4.649,0,0,0,365.708,321.372Z" transform="translate(-352 -319.969)"/>
</svg>
