<svg xmlns="http://www.w3.org/2000/svg" width="16" height="10" viewBox="0 0 16 10">
  <metadata><?xpacket begin="﻿" id="W5M0MpCehiHzreSzNTczkc9d"?>
<x:xmpmeta xmlns:x="adobe:ns:meta/" x:xmptk="Adobe XMP Core 5.6-c138 79.159824, 2016/09/14-01:09:01        ">
   <rdf:RDF xmlns:rdf="http://www.w3.org/1999/02/22-rdf-syntax-ns#">
      <rdf:Description rdf:about=""/>
   </rdf:RDF>
</x:xmpmeta>
                                                                                                    
                                                                                                    
                                                                                                    
                                                                                                    
                                                                                                    
                                                                                                    
                                                                                                    
                                                                                                    
                                                                                                    
                                                                                                    
                                                                                                    
                                                                                                    
                                                                                                    
                                                                                                    
                                                                                                    
                                                                                                    
                                                                                                    
                                                                                                    
                                                                                                    
                                                                                                    
                           
<?xpacket end="w"?></metadata>
<defs>
    <style>
      .cls-1 {
        fill-rule: evenodd;
      }
    </style>
  </defs>
  <path id="share_chain_4" class="cls-1" d="M485,331a3,3,0,0,1,0-6,1,1,0,0,0,0-2,5,5,0,0,0,0,10A1,1,0,0,0,485,331Zm6-8a1,1,0,0,0,0,2,3,3,0,0,1,0,6,1,1,0,0,0,0,2A5,5,0,0,0,491,323Zm-7,5a1,1,0,0,0,1,1h6a1,1,0,0,0,0-2h-6A1,1,0,0,0,484,328Z" transform="translate(-480 -323)"/>
</svg>
