<svg xmlns="http://www.w3.org/2000/svg" width="15.938" height="15.594" viewBox="0 0 15.938 15.594">
  <metadata><?xpacket begin="﻿" id="W5M0MpCehiHzreSzNTczkc9d"?>
<x:xmpmeta xmlns:x="adobe:ns:meta/" x:xmptk="Adobe XMP Core 5.6-c138 79.159824, 2016/09/14-01:09:01        ">
   <rdf:RDF xmlns:rdf="http://www.w3.org/1999/02/22-rdf-syntax-ns#">
      <rdf:Description rdf:about=""/>
   </rdf:RDF>
</x:xmpmeta>
                                                                                                    
                                                                                                    
                                                                                                    
                                                                                                    
                                                                                                    
                                                                                                    
                                                                                                    
                                                                                                    
                                                                                                    
                                                                                                    
                                                                                                    
                                                                                                    
                                                                                                    
                                                                                                    
                                                                                                    
                                                                                                    
                                                                                                    
                                                                                                    
                                                                                                    
                                                                                                    
                           
<?xpacket end="w"?></metadata>
<defs>
    <style>
      .cls-1 {
        fill-rule: evenodd;
      }
    </style>
  </defs>
  <path id="share_chain_3" class="cls-1" d="M424.29,331.133l-2,1.951A2.454,2.454,0,0,1,418.8,333a2.506,2.506,0,0,1-.784-1.73,2.263,2.263,0,0,1,.7-1.684l2-1.951a0.962,0.962,0,0,0,0-1.38,1.014,1.014,0,0,0-1.411,0l-2,1.951a4.164,4.164,0,0,0-1.282,3.111,4.435,4.435,0,0,0,1.367,3.063,4.621,4.621,0,0,0,3.234,1.34,4.377,4.377,0,0,0,3.079-1.256l2-1.951a0.962,0.962,0,0,0,0-1.38A1.014,1.014,0,0,0,424.29,331.133Zm-3.99.4a1.012,1.012,0,0,0,1.41,0l5.986-5.853a0.96,0.96,0,0,0,0-1.38,1.014,1.014,0,0,0-1.411,0l-5.985,5.854A0.959,0.959,0,0,0,420.3,331.537Zm10.3-10.076a4.489,4.489,0,0,0-6.313-.084l-2,1.952a0.959,0.959,0,0,0,0,1.379,1.013,1.013,0,0,0,1.41,0l2-1.951a2.454,2.454,0,0,1,3.491.084,2.515,2.515,0,0,1,.785,1.73,2.263,2.263,0,0,1-.7,1.684l-2,1.951a0.96,0.96,0,0,0,0,1.38,1.013,1.013,0,0,0,1.411,0l2-1.951a4.172,4.172,0,0,0,1.282-3.111A4.432,4.432,0,0,0,430.6,321.461Z" transform="translate(-416.031 -320.125)"/>
</svg>
