<svg xmlns="http://www.w3.org/2000/svg" width="16" height="15.906" viewBox="0 0 16 15.906">
  <metadata><?xpacket begin="﻿" id="W5M0MpCehiHzreSzNTczkc9d"?>
<x:xmpmeta xmlns:x="adobe:ns:meta/" x:xmptk="Adobe XMP Core 5.6-c138 79.159824, 2016/09/14-01:09:01        ">
   <rdf:RDF xmlns:rdf="http://www.w3.org/1999/02/22-rdf-syntax-ns#">
      <rdf:Description rdf:about=""/>
   </rdf:RDF>
</x:xmpmeta>
                                                                                                    
                                                                                                    
                                                                                                    
                                                                                                    
                                                                                                    
                                                                                                    
                                                                                                    
                                                                                                    
                                                                                                    
                                                                                                    
                                                                                                    
                                                                                                    
                                                                                                    
                                                                                                    
                                                                                                    
                                                                                                    
                                                                                                    
                                                                                                    
                                                                                                    
                                                                                                    
                           
<?xpacket end="w"?></metadata>
<defs>
    <style>
      .cls-1 {
        fill-rule: evenodd;
      }
    </style>
  </defs>
  <path id="share_1_sq" class="cls-1" d="M397,680.037a1,1,0,0,0-1,.994V686H386v-9.946h2a0.995,0.995,0,1,0,0-1.989h-2a2,2,0,0,0-2,1.989V686a2,2,0,0,0,2,1.989h10a2,2,0,0,0,2-1.989v-4.973A1,1,0,0,0,397,680.037ZM400,675.1a0.821,0.821,0,0,0,0-.1,0.955,0.955,0,0,0-.048-0.248c-0.011-.033-0.021-0.065-0.035-0.1a1,1,0,0,0-.2-0.3l-2-1.989a1.006,1.006,0,0,0-1.415,0,0.99,0.99,0,0,0,0,1.407l0.382,0.38c-8.575.634-8.678,8.777-8.678,8.862a1,1,0,0,0,1,.993h0a1,1,0,0,0,1-.99,6.942,6.942,0,0,1,6.466-6.843l-0.171.17a0.989,0.989,0,0,0,0,1.406,1.006,1.006,0,0,0,1.415,0l2-1.989c0.009-.009.012-0.021,0.021-0.031a0.961,0.961,0,0,0,.2-0.292,0,0,0,0,0,0,0c0-.009,0-0.018.007-0.026A0.984,0.984,0,0,0,400,675.1Z" transform="translate(-384 -672.094)"/>
</svg>
