<svg xmlns="http://www.w3.org/2000/svg" width="15.937" height="16" viewBox="0 0 15.937 16">
  <metadata><?xpacket begin="﻿" id="W5M0MpCehiHzreSzNTczkc9d"?>
<x:xmpmeta xmlns:x="adobe:ns:meta/" x:xmptk="Adobe XMP Core 5.6-c138 79.159824, 2016/09/14-01:09:01        ">
   <rdf:RDF xmlns:rdf="http://www.w3.org/1999/02/22-rdf-syntax-ns#">
      <rdf:Description rdf:about=""/>
   </rdf:RDF>
</x:xmpmeta>
                                                                                                    
                                                                                                    
                                                                                                    
                                                                                                    
                                                                                                    
                                                                                                    
                                                                                                    
                                                                                                    
                                                                                                    
                                                                                                    
                                                                                                    
                                                                                                    
                                                                                                    
                                                                                                    
                                                                                                    
                                                                                                    
                                                                                                    
                                                                                                    
                                                                                                    
                                                                                                    
                           
<?xpacket end="w"?></metadata>
<defs>
    <style>
      .cls-1 {
        fill-rule: evenodd;
      }
    </style>
  </defs>
  <path id="share_2_d_sq" class="cls-1" d="M485.951,678a0.995,0.995,0,1,0-1.989,0v5c0,0.013.007,0.023,0.007,0.036a0.979,0.979,0,0,0,.069.347v0c0,0.009.011,0.016,0.015,0.024a0.968,0.968,0,0,0,.178.266,0.818,0.818,0,0,0,.075.069,0.973,0.973,0,0,0,.208.14,0.81,0.81,0,0,0,.094.045,0.968,0.968,0,0,0,.347.071h4.973a1,1,0,0,0,0-2h-2.571l8.248-8.293a1,1,0,0,0,0-1.414,0.991,0.991,0,0,0-1.407,0l-8.248,8.293V678Zm8.951-1a1,1,0,0,0-.994,1v8H481.972V674h6.963a1,1,0,0,0,0-2h-6.963a2,2,0,0,0-1.989,2v12a2,2,0,0,0,1.989,2h11.936a2,2,0,0,0,1.989-2v-8A1,1,0,0,0,494.9,677Z" transform="translate(-479.969 -672)"/>
</svg>
