<svg xmlns="http://www.w3.org/2000/svg" width="14" height="15.906" viewBox="0 0 14 15.906">
  <metadata><?xpacket begin="﻿" id="W5M0MpCehiHzreSzNTczkc9d"?>
<x:xmpmeta xmlns:x="adobe:ns:meta/" x:xmptk="Adobe XMP Core 5.6-c138 79.159824, 2016/09/14-01:09:01        ">
   <rdf:RDF xmlns:rdf="http://www.w3.org/1999/02/22-rdf-syntax-ns#">
      <rdf:Description rdf:about=""/>
   </rdf:RDF>
</x:xmpmeta>
                                                                                                    
                                                                                                    
                                                                                                    
                                                                                                    
                                                                                                    
                                                                                                    
                                                                                                    
                                                                                                    
                                                                                                    
                                                                                                    
                                                                                                    
                                                                                                    
                                                                                                    
                                                                                                    
                                                                                                    
                                                                                                    
                                                                                                    
                                                                                                    
                                                                                                    
                                                                                                    
                           
<?xpacket end="w"?></metadata>
<defs>
    <style>
      .cls-1 {
        fill-rule: evenodd;
      }
    </style>
  </defs>
  <path id="share_arrows" class="cls-1" d="M290,328.034a1,1,0,0,0,1-1V325.05h8.586l-1.293,1.286a0.989,0.989,0,0,0,0,1.406,1,1,0,0,0,1.414,0l3-2.984c0.009-.009.012-0.021,0.02-0.03a0.982,0.982,0,0,0,.2-0.292,0.008,0.008,0,0,1,0,0c0-.008,0-0.017.006-0.026a0.979,0.979,0,0,0,.062-0.314c0-.034,0-0.066,0-0.1a0.984,0.984,0,0,0-.049-0.247,0.88,0.88,0,0,0-.035-0.1,0.959,0.959,0,0,0-.2-0.3l-3-2.984a1,1,0,0,0-1.414,0,0.99,0.99,0,0,0,0,1.407l1.293,1.286H290a1,1,0,0,0-1,.994v2.984A1,1,0,0,0,290,328.034Zm12,0a1,1,0,0,0-1,.994v1.989h-8.586l1.293-1.286a0.989,0.989,0,0,0,0-1.406,1,1,0,0,0-1.414,0l-3,2.984c-0.009.009-.012,0.021-0.02,0.03a0.982,0.982,0,0,0-.2.292,0.006,0.006,0,0,1,0,0c0,0.008,0,.018-0.006.026a0.984,0.984,0,0,0-.062.313,0.889,0.889,0,0,0,.006.1,0.918,0.918,0,0,0,.048.244,0.829,0.829,0,0,0,.035.1,0.978,0.978,0,0,0,.2.295l3,2.984a1,1,0,0,0,1.414,0,0.989,0.989,0,0,0,0-1.406l-1.293-1.286H302a1,1,0,0,0,1-1v-2.984A1,1,0,0,0,302,328.034Z" transform="translate(-289 -320.094)"/>
</svg>
