<svg xmlns="http://www.w3.org/2000/svg" width="16" height="16" viewBox="0 0 16 16">
  <metadata><?xpacket begin="﻿" id="W5M0MpCehiHzreSzNTczkc9d"?>
<x:xmpmeta xmlns:x="adobe:ns:meta/" x:xmptk="Adobe XMP Core 5.6-c138 79.159824, 2016/09/14-01:09:01        ">
   <rdf:RDF xmlns:rdf="http://www.w3.org/1999/02/22-rdf-syntax-ns#">
      <rdf:Description rdf:about=""/>
   </rdf:RDF>
</x:xmpmeta>
                                                                                                    
                                                                                                    
                                                                                                    
                                                                                                    
                                                                                                    
                                                                                                    
                                                                                                    
                                                                                                    
                                                                                                    
                                                                                                    
                                                                                                    
                                                                                                    
                                                                                                    
                                                                                                    
                                                                                                    
                                                                                                    
                                                                                                    
                                                                                                    
                                                                                                    
                                                                                                    
                           
<?xpacket end="w"?></metadata>
<defs>
    <style>
      .cls-1 {
        fill-rule: evenodd;
      }
    </style>
  </defs>
  <path id="shield_accept" class="cls-1" d="M526.894,291.211l-6-3a2,2,0,0,0-1.788,0l-6,3A2,2,0,0,0,512,293a11.406,11.406,0,0,0,7.367,10.9,1.994,1.994,0,0,0,1.265,0A11.4,11.4,0,0,0,528,293,2,2,0,0,0,526.894,291.211ZM520,302a9.391,9.391,0,0,1-6-9l6-3,6,3A9.391,9.391,0,0,1,520,302Zm-1-3a1,1,0,0,1-.707-0.293l-2-2a1,1,0,0,1,1.414-1.414L519,296.586l3.293-3.293a1,1,0,0,1,1.414,1.414l-4,4A1,1,0,0,1,519,299Z" transform="translate(-512 -288)"/>
</svg>
