<svg xmlns="http://www.w3.org/2000/svg" width="16" height="16" viewBox="0 0 16 16">
  <metadata><?xpacket begin="﻿" id="W5M0MpCehiHzreSzNTczkc9d"?>
<x:xmpmeta xmlns:x="adobe:ns:meta/" x:xmptk="Adobe XMP Core 5.6-c138 79.159824, 2016/09/14-01:09:01        ">
   <rdf:RDF xmlns:rdf="http://www.w3.org/1999/02/22-rdf-syntax-ns#">
      <rdf:Description rdf:about=""/>
   </rdf:RDF>
</x:xmpmeta>
                                                                                                    
                                                                                                    
                                                                                                    
                                                                                                    
                                                                                                    
                                                                                                    
                                                                                                    
                                                                                                    
                                                                                                    
                                                                                                    
                                                                                                    
                                                                                                    
                                                                                                    
                                                                                                    
                                                                                                    
                                                                                                    
                                                                                                    
                                                                                                    
                                                                                                    
                                                                                                    
                           
<?xpacket end="w"?></metadata>
<defs>
    <style>
      .cls-1 {
        fill-rule: evenodd;
      }
    </style>
  </defs>
  <path id="shield_no" class="cls-1" d="M494.894,291.211l-6-3a2,2,0,0,0-1.788,0l-6,3A2,2,0,0,0,480,293a11.4,11.4,0,0,0,7.368,10.9,1.99,1.99,0,0,0,1.264,0A11.4,11.4,0,0,0,496,293,2,2,0,0,0,494.894,291.211ZM488,302a9.391,9.391,0,0,1-6-9l6-3,6,3A9.391,9.391,0,0,1,488,302Zm-1.293-8.707a1,1,0,0,0-1.414,1.414L486.586,296l-1.293,1.293a1,1,0,1,0,1.414,1.414L488,297.414l1.293,1.293a1,1,0,0,0,1.414-1.414L489.414,296l1.293-1.293a1,1,0,0,0-1.414-1.414L488,294.586Z" transform="translate(-480 -288)"/>
</svg>
