<svg xmlns="http://www.w3.org/2000/svg" width="15.937" height="14" viewBox="0 0 15.937 14">
  <metadata><?xpacket begin="﻿" id="W5M0MpCehiHzreSzNTczkc9d"?>
<x:xmpmeta xmlns:x="adobe:ns:meta/" x:xmptk="Adobe XMP Core 5.6-c138 79.159824, 2016/09/14-01:09:01        ">
   <rdf:RDF xmlns:rdf="http://www.w3.org/1999/02/22-rdf-syntax-ns#">
      <rdf:Description rdf:about=""/>
   </rdf:RDF>
</x:xmpmeta>
                                                                                                    
                                                                                                    
                                                                                                    
                                                                                                    
                                                                                                    
                                                                                                    
                                                                                                    
                                                                                                    
                                                                                                    
                                                                                                    
                                                                                                    
                                                                                                    
                                                                                                    
                                                                                                    
                                                                                                    
                                                                                                    
                                                                                                    
                                                                                                    
                                                                                                    
                                                                                                    
                           
<?xpacket end="w"?></metadata>
<defs>
    <style>
      .cls-1 {
        fill-rule: evenodd;
      }
    </style>
  </defs>
  <path id="ship" class="cls-1" d="M559.548,230.878A1.986,1.986,0,0,0,557.9,230h-0.5l-2.684-3.6a0.993,0.993,0,0,0-.8-0.4h-2.983a1,1,0,0,0-1-1h-0.994a1,1,0,0,0-.994,1H545.97a0.994,0.994,0,0,0-.964.757l-1,4a0.987,0.987,0,0,0,0,.243h-0.025v1h0a2,2,0,0,0,.033.392l1,5a1.992,1.992,0,0,0,1.95,1.608h8.948a1.989,1.989,0,0,0,1.846-1.257l1.989-5A2.01,2.01,0,0,0,559.548,230.878ZM553.427,228l1.492,2h-8.67l0.5-2h6.68Zm2.486,9h-8.948l-1-5H557.9Zm-6.96-4a1,1,0,1,0,.994,1A1,1,0,0,0,548.953,233Zm2.983,0a1,1,0,1,0,.994,1A1,1,0,0,0,551.936,233Zm2.983,0a1,1,0,1,0,.994,1A1,1,0,0,0,554.919,233Z" transform="translate(-543.969 -225)"/>
</svg>
