<svg xmlns="http://www.w3.org/2000/svg" width="16" height="16" viewBox="0 0 16 16">
  <metadata><?xpacket begin="﻿" id="W5M0MpCehiHzreSzNTczkc9d"?>
<x:xmpmeta xmlns:x="adobe:ns:meta/" x:xmptk="Adobe XMP Core 5.6-c138 79.159824, 2016/09/14-01:09:01        ">
   <rdf:RDF xmlns:rdf="http://www.w3.org/1999/02/22-rdf-syntax-ns#">
      <rdf:Description rdf:about=""/>
   </rdf:RDF>
</x:xmpmeta>
                                                                                                    
                                                                                                    
                                                                                                    
                                                                                                    
                                                                                                    
                                                                                                    
                                                                                                    
                                                                                                    
                                                                                                    
                                                                                                    
                                                                                                    
                                                                                                    
                                                                                                    
                                                                                                    
                                                                                                    
                                                                                                    
                                                                                                    
                                                                                                    
                                                                                                    
                                                                                                    
                           
<?xpacket end="w"?></metadata>
<defs>
    <style>
      .cls-1 {
        fill-rule: evenodd;
      }
    </style>
  </defs>
  <path id="shirt_1" class="cls-1" d="M75,642s3,2,3,3v1l-2,1v7H68v-7l-2-1v-1c0-1,3-3,3-3a10.073,10.073,0,0,0,3,1,10.073,10.073,0,0,0,3-1m0-2a2,2,0,0,0-.893.21h0a8.908,8.908,0,0,1-2.125.79,9.5,9.5,0,0,1-2.087-.789,2,2,0,0,0-2,.125C64,642.93,64,644.434,64,645v1a2,2,0,0,0,1.106,1.789L66,648.236V654a2,2,0,0,0,2,2h8a2,2,0,0,0,2-2v-5.764l0.894-.447A2,2,0,0,0,80,646v-1c0-.566,0-2.07-3.891-4.664A2,2,0,0,0,75,640h0Z" transform="translate(-64 -640)"/>
</svg>
