<svg xmlns="http://www.w3.org/2000/svg" width="16" height="16" viewBox="0 0 16 16">
  <metadata><?xpacket begin="﻿" id="W5M0MpCehiHzreSzNTczkc9d"?>
<x:xmpmeta xmlns:x="adobe:ns:meta/" x:xmptk="Adobe XMP Core 5.6-c138 79.159824, 2016/09/14-01:09:01        ">
   <rdf:RDF xmlns:rdf="http://www.w3.org/1999/02/22-rdf-syntax-ns#">
      <rdf:Description rdf:about=""/>
   </rdf:RDF>
</x:xmpmeta>
                                                                                                    
                                                                                                    
                                                                                                    
                                                                                                    
                                                                                                    
                                                                                                    
                                                                                                    
                                                                                                    
                                                                                                    
                                                                                                    
                                                                                                    
                                                                                                    
                                                                                                    
                                                                                                    
                                                                                                    
                                                                                                    
                                                                                                    
                                                                                                    
                                                                                                    
                                                                                                    
                           
<?xpacket end="w"?></metadata>
<defs>
    <style>
      .cls-1 {
        fill-rule: evenodd;
      }
    </style>
  </defs>
  <path id="shirt_2" class="cls-1" d="M175.109,642.336l-3-2a2,2,0,0,0-2-.126,8.908,8.908,0,0,1-2.125.79,9.494,9.494,0,0,1-2.088-.789,2,2,0,0,0-2,.125l-3,2A2,2,0,0,0,160,644v8a2,2,0,0,0,2,2h1a2,2,0,0,0,2,2h6a2,2,0,0,0,2-2h1a2,2,0,0,0,2-2v-8A2,2,0,0,0,175.109,642.336ZM174,652h-1v-7h-2v9h-6v-9h-2v7h-1v-8l3-2a10.073,10.073,0,0,0,3,1,10.073,10.073,0,0,0,3-1l3,2v8Z" transform="translate(-160 -640)"/>
</svg>
