<svg xmlns="http://www.w3.org/2000/svg" width="15.688" height="16" viewBox="0 0 15.688 16">
  <metadata><?xpacket begin="﻿" id="W5M0MpCehiHzreSzNTczkc9d"?>
<x:xmpmeta xmlns:x="adobe:ns:meta/" x:xmptk="Adobe XMP Core 5.6-c138 79.159824, 2016/09/14-01:09:01        ">
   <rdf:RDF xmlns:rdf="http://www.w3.org/1999/02/22-rdf-syntax-ns#">
      <rdf:Description rdf:about=""/>
   </rdf:RDF>
</x:xmpmeta>
                                                                                                    
                                                                                                    
                                                                                                    
                                                                                                    
                                                                                                    
                                                                                                    
                                                                                                    
                                                                                                    
                                                                                                    
                                                                                                    
                                                                                                    
                                                                                                    
                                                                                                    
                                                                                                    
                                                                                                    
                                                                                                    
                                                                                                    
                                                                                                    
                                                                                                    
                                                                                                    
                           
<?xpacket end="w"?></metadata>
<defs>
    <style>
      .cls-1 {
        fill-rule: evenodd;
      }
    </style>
  </defs>
  <path id="shop_1" class="cls-1" d="M175.511,517.11l-1.963-4a1.96,1.96,0,0,0-1.757-1.11h-7.852a1.959,1.959,0,0,0-1.756,1.11l-1.963,4a2.019,2.019,0,0,0,.373,2.3l0.284,0.29a1.186,1.186,0,0,0,.118.11V526a1.987,1.987,0,0,0,1.963,2h9.815a1.987,1.987,0,0,0,1.962-2v-6.19a1.085,1.085,0,0,0,.118-0.11l0.285-.29A2.019,2.019,0,0,0,175.511,517.11ZM163.939,514h7.852l1.512,3.08,0.451,0.92-0.285.29a2.338,2.338,0,0,1-3.356,0l-0.285-.29-0.284.29a2.339,2.339,0,0,1-3.357,0L165.9,518l-0.284.29a2.339,2.339,0,0,1-3.357,0l-0.285-.29,0.452-.92Zm8.834,12h-2.945v-4H165.9v4h-2.944v-5.11a4.545,4.545,0,0,0,.981.11,4.254,4.254,0,0,0,1.963-.48,4.254,4.254,0,0,0,3.926,0,4.257,4.257,0,0,0,1.963.48,4.554,4.554,0,0,0,.982-0.11V526Z" transform="translate(-160.031 -512)"/>
</svg>
