<svg xmlns="http://www.w3.org/2000/svg" width="16" height="10" viewBox="0 0 16 10">
  <metadata><?xpacket begin="﻿" id="W5M0MpCehiHzreSzNTczkc9d"?>
<x:xmpmeta xmlns:x="adobe:ns:meta/" x:xmptk="Adobe XMP Core 5.6-c138 79.159824, 2016/09/14-01:09:01        ">
   <rdf:RDF xmlns:rdf="http://www.w3.org/1999/02/22-rdf-syntax-ns#">
      <rdf:Description rdf:about=""/>
   </rdf:RDF>
</x:xmpmeta>
                                                                                                    
                                                                                                    
                                                                                                    
                                                                                                    
                                                                                                    
                                                                                                    
                                                                                                    
                                                                                                    
                                                                                                    
                                                                                                    
                                                                                                    
                                                                                                    
                                                                                                    
                                                                                                    
                                                                                                    
                                                                                                    
                                                                                                    
                                                                                                    
                                                                                                    
                                                                                                    
                           
<?xpacket end="w"?></metadata>
<defs>
    <style>
      .cls-1 {
        fill-rule: evenodd;
      }
    </style>
  </defs>
  <path id="shos" class="cls-1" d="M234,644h-1.268a2,2,0,0,0-2.948-.588,3.512,3.512,0,0,1-2.242.753,5.728,5.728,0,0,1-1.141-.125A2,2,0,0,0,224,646v5a2,2,0,0,0,2,2h12a2,2,0,0,0,2-2C240,644.909,236.241,644,234,644Zm-8,7v-5a7.7,7.7,0,0,0,1.542.165A5.522,5.522,0,0,0,231,645v2a1,1,0,0,0,2,0v-1h1v2a1,1,0,0,0,2,0v-1.6c1.194,0.588,2,1.918,2,4.6H226Z" transform="translate(-224 -643)"/>
</svg>
