<svg xmlns="http://www.w3.org/2000/svg" width="16" height="16" viewBox="0 0 16 16">
  <metadata><?xpacket begin="﻿" id="W5M0MpCehiHzreSzNTczkc9d"?>
<x:xmpmeta xmlns:x="adobe:ns:meta/" x:xmptk="Adobe XMP Core 5.6-c138 79.159824, 2016/09/14-01:09:01        ">
   <rdf:RDF xmlns:rdf="http://www.w3.org/1999/02/22-rdf-syntax-ns#">
      <rdf:Description rdf:about=""/>
   </rdf:RDF>
</x:xmpmeta>
                                                                                                    
                                                                                                    
                                                                                                    
                                                                                                    
                                                                                                    
                                                                                                    
                                                                                                    
                                                                                                    
                                                                                                    
                                                                                                    
                                                                                                    
                                                                                                    
                                                                                                    
                                                                                                    
                                                                                                    
                                                                                                    
                                                                                                    
                                                                                                    
                                                                                                    
                                                                                                    
                           
<?xpacket end="w"?></metadata>
<defs>
    <style>
      .cls-1 {
        fill-rule: evenodd;
      }
    </style>
  </defs>
  <path id="site_text" class="cls-1" d="M526,448H514a2,2,0,0,0-2,2v12a2,2,0,0,0,2,2h12a2,2,0,0,0,2-2V450A2,2,0,0,0,526,448Zm-12,2h2v2h-2v-2Zm12,12H514v-8h12v8Zm0-10h-8v-2h8v2Zm-3,5h-6a1,1,0,0,1-1-1h0a1,1,0,0,1,1-1h6a1,1,0,0,1,1,1h0A1,1,0,0,1,523,457Zm-4,3h-2a1,1,0,0,1-1-1h0a1,1,0,0,1,1-1h2a1,1,0,0,1,1,1h0A1,1,0,0,1,519,460Z" transform="translate(-512 -448)"/>
</svg>
