<svg xmlns="http://www.w3.org/2000/svg" width="16" height="10" viewBox="0 0 16 10">
  <metadata><?xpacket begin="﻿" id="W5M0MpCehiHzreSzNTczkc9d"?>
<x:xmpmeta xmlns:x="adobe:ns:meta/" x:xmptk="Adobe XMP Core 5.6-c138 79.159824, 2016/09/14-01:09:01        ">
   <rdf:RDF xmlns:rdf="http://www.w3.org/1999/02/22-rdf-syntax-ns#">
      <rdf:Description rdf:about=""/>
   </rdf:RDF>
</x:xmpmeta>
                                                                                                    
                                                                                                    
                                                                                                    
                                                                                                    
                                                                                                    
                                                                                                    
                                                                                                    
                                                                                                    
                                                                                                    
                                                                                                    
                                                                                                    
                                                                                                    
                                                                                                    
                                                                                                    
                                                                                                    
                                                                                                    
                                                                                                    
                                                                                                    
                                                                                                    
                                                                                                    
                           
<?xpacket end="w"?></metadata>
<defs>
    <style>
      .cls-1 {
        fill-rule: evenodd;
      }
    </style>
  </defs>
  <path id="sleep_2" class="cls-1" d="M399.985,647.852A1.994,1.994,0,0,0,398,646h-7a1,1,0,0,0-1-1h-3a1,1,0,0,0-1,1v-2a1,1,0,0,0-2,0v8a1,1,0,0,0,2,0v-1h12v1.074a0.926,0.926,0,0,0,.926.926h0.148a0.927,0.927,0,0,0,.926-0.926v-4.148C400,647.9,399.987,647.877,399.985,647.852ZM398,649H386v-1h12v1Z" transform="translate(-384 -643)"/>
</svg>
