<svg xmlns="http://www.w3.org/2000/svg" width="16" height="16" viewBox="0 0 16 16">
  <metadata><?xpacket begin="﻿" id="W5M0MpCehiHzreSzNTczkc9d"?>
<x:xmpmeta xmlns:x="adobe:ns:meta/" x:xmptk="Adobe XMP Core 5.6-c138 79.159824, 2016/09/14-01:09:01        ">
   <rdf:RDF xmlns:rdf="http://www.w3.org/1999/02/22-rdf-syntax-ns#">
      <rdf:Description rdf:about=""/>
   </rdf:RDF>
</x:xmpmeta>
                                                                                                    
                                                                                                    
                                                                                                    
                                                                                                    
                                                                                                    
                                                                                                    
                                                                                                    
                                                                                                    
                                                                                                    
                                                                                                    
                                                                                                    
                                                                                                    
                                                                                                    
                                                                                                    
                                                                                                    
                                                                                                    
                                                                                                    
                                                                                                    
                                                                                                    
                                                                                                    
                           
<?xpacket end="w"?></metadata>
<defs>
    <style>
      .cls-1 {
        fill-rule: evenodd;
      }
    </style>
  </defs>
  <path id="smartphone_add" class="cls-1" d="M71,622H66V610h8v5a1,1,0,0,0,2,0v-5a2.006,2.006,0,0,0-2-2H66a2.006,2.006,0,0,0-2,2v12a2.006,2.006,0,0,0,2,2h5A1,1,0,1,0,71,622Zm-2-2a1,1,0,1,0,1-1A1,1,0,0,0,69,620Zm10,0H78v-1a1,1,0,0,0-2,0v1H75a1,1,0,0,0,0,2h1v1a1,1,0,0,0,2,0v-1h1A1,1,0,1,0,79,620Z" transform="translate(-64 -608)"/>
</svg>
