<svg xmlns="http://www.w3.org/2000/svg" width="15.906" height="15.875" viewBox="0 0 15.906 15.875">
  <metadata><?xpacket begin="﻿" id="W5M0MpCehiHzreSzNTczkc9d"?>
<x:xmpmeta xmlns:x="adobe:ns:meta/" x:xmptk="Adobe XMP Core 5.6-c138 79.159824, 2016/09/14-01:09:01        ">
   <rdf:RDF xmlns:rdf="http://www.w3.org/1999/02/22-rdf-syntax-ns#">
      <rdf:Description rdf:about=""/>
   </rdf:RDF>
</x:xmpmeta>
                                                                                                    
                                                                                                    
                                                                                                    
                                                                                                    
                                                                                                    
                                                                                                    
                                                                                                    
                                                                                                    
                                                                                                    
                                                                                                    
                                                                                                    
                                                                                                    
                                                                                                    
                                                                                                    
                                                                                                    
                                                                                                    
                                                                                                    
                                                                                                    
                                                                                                    
                                                                                                    
                           
<?xpacket end="w"?></metadata>
<defs>
    <style>
      .cls-1 {
        fill-rule: evenodd;
      }
    </style>
  </defs>
  <path id="smile_sad_4" class="cls-1" d="M263.934,383.968a7.944,7.944,0,1,0,7.953,7.944A7.946,7.946,0,0,0,263.934,383.968Zm0,13.9a5.958,5.958,0,1,1,5.964-5.958A5.966,5.966,0,0,1,263.934,397.87Zm2.982-7.944a0.993,0.993,0,1,0,.994.993A0.994,0.994,0,0,0,266.916,389.926Zm-4.971.993a0.994,0.994,0,1,0-.994.993A0.994,0.994,0,0,0,261.945,390.919Zm1.989,1.986c-2.949,0-2.983,1.905-2.983,1.986a0.993,0.993,0,0,0,.994.993h3.977a0.993,0.993,0,0,0,.994-0.993C266.916,394.81,266.882,392.905,263.934,392.905Z" transform="translate(-255.969 -383.969)"/>
</svg>
