<svg xmlns="http://www.w3.org/2000/svg" width="16" height="16" viewBox="0 0 16 16">
  <metadata><?xpacket begin="﻿" id="W5M0MpCehiHzreSzNTczkc9d"?>
<x:xmpmeta xmlns:x="adobe:ns:meta/" x:xmptk="Adobe XMP Core 5.6-c138 79.159824, 2016/09/14-01:09:01        ">
   <rdf:RDF xmlns:rdf="http://www.w3.org/1999/02/22-rdf-syntax-ns#">
      <rdf:Description rdf:about=""/>
   </rdf:RDF>
</x:xmpmeta>
                                                                                                    
                                                                                                    
                                                                                                    
                                                                                                    
                                                                                                    
                                                                                                    
                                                                                                    
                                                                                                    
                                                                                                    
                                                                                                    
                                                                                                    
                                                                                                    
                                                                                                    
                                                                                                    
                                                                                                    
                                                                                                    
                                                                                                    
                                                                                                    
                                                                                                    
                                                                                                    
                           
<?xpacket end="w"?></metadata>
<defs>
    <style>
      .cls-1 {
        fill-rule: evenodd;
      }
    </style>
  </defs>
  <path id="smile_happy_1" class="cls-1" d="M72,384a8,8,0,1,0,8,8A8,8,0,0,0,72,384Zm0,14a6,6,0,1,1,6-6A6,6,0,0,1,72,398Zm-2-7a1,1,0,1,0-1,1A1,1,0,0,0,70,391Zm5-1a1,1,0,1,0,1,1A1,1,0,0,0,75,390Zm-0.773,3a0.974,0.974,0,0,0-.732.326,1.993,1.993,0,0,1-2.988,0A0.974,0.974,0,0,0,69.773,393a1,1,0,0,0-.741,1.682,4,4,0,0,0,5.935,0A1,1,0,0,0,74.227,393Z" transform="translate(-64 -384)"/>
</svg>
