<svg xmlns="http://www.w3.org/2000/svg" width="16" height="16" viewBox="0 0 16 16">
  <metadata><?xpacket begin="﻿" id="W5M0MpCehiHzreSzNTczkc9d"?>
<x:xmpmeta xmlns:x="adobe:ns:meta/" x:xmptk="Adobe XMP Core 5.6-c138 79.159824, 2016/09/14-01:09:01        ">
   <rdf:RDF xmlns:rdf="http://www.w3.org/1999/02/22-rdf-syntax-ns#">
      <rdf:Description rdf:about=""/>
   </rdf:RDF>
</x:xmpmeta>
                                                                                                    
                                                                                                    
                                                                                                    
                                                                                                    
                                                                                                    
                                                                                                    
                                                                                                    
                                                                                                    
                                                                                                    
                                                                                                    
                                                                                                    
                                                                                                    
                                                                                                    
                                                                                                    
                                                                                                    
                                                                                                    
                                                                                                    
                                                                                                    
                                                                                                    
                                                                                                    
                           
<?xpacket end="w"?></metadata>
<defs>
    <style>
      .cls-1 {
        fill-rule: evenodd;
      }
    </style>
  </defs>
  <path id="smile_empers" class="cls-1" d="M200,384a8,8,0,1,0,8,8A8,8,0,0,0,200,384Zm0,14a6,6,0,1,1,6-6A6,6,0,0,1,200,398Zm-3-8a1,1,0,1,0,1,1A1,1,0,0,0,197,390Zm6,0a1,1,0,1,0,1,1A1,1,0,0,0,203,390Zm-3,2a2,2,0,1,0,2,2A2,2,0,0,0,200,392Z" transform="translate(-192 -384)"/>
</svg>
