<svg xmlns="http://www.w3.org/2000/svg" width="16" height="16" viewBox="0 0 16 16">
  <metadata><?xpacket begin="﻿" id="W5M0MpCehiHzreSzNTczkc9d"?>
<x:xmpmeta xmlns:x="adobe:ns:meta/" x:xmptk="Adobe XMP Core 5.6-c138 79.159824, 2016/09/14-01:09:01        ">
   <rdf:RDF xmlns:rdf="http://www.w3.org/1999/02/22-rdf-syntax-ns#">
      <rdf:Description rdf:about=""/>
   </rdf:RDF>
</x:xmpmeta>
                                                                                                    
                                                                                                    
                                                                                                    
                                                                                                    
                                                                                                    
                                                                                                    
                                                                                                    
                                                                                                    
                                                                                                    
                                                                                                    
                                                                                                    
                                                                                                    
                                                                                                    
                                                                                                    
                                                                                                    
                                                                                                    
                                                                                                    
                                                                                                    
                                                                                                    
                                                                                                    
                           
<?xpacket end="w"?></metadata>
<defs>
    <style>
      .cls-1 {
        fill-rule: evenodd;
      }
    </style>
  </defs>
  <path id="smile_meh_2" class="cls-1" d="M360,384a8,8,0,1,0,8,8A8,8,0,0,0,360,384Zm0,14a6,6,0,1,1,6-6A6,6,0,0,1,360,398Zm-3-6a1,1,0,1,0-1-1A1,1,0,0,0,357,392Zm6-2a1,1,0,1,0,1,1A1,1,0,0,0,363,390Zm-0.293,3.293a1,1,0,0,0-1.154-.188l-1.553.777-1.553-.777a1,1,0,0,0-1.154.188l-1,1a1,1,0,0,0,1.414,1.414l0.49-.49,1.356,0.677a1,1,0,0,0,.894,0l1.356-.677,0.49,0.49a1,1,0,0,0,1.414-1.414Z" transform="translate(-352 -384)"/>
</svg>
