<svg xmlns="http://www.w3.org/2000/svg" width="16" height="16" viewBox="0 0 16 16">
  <metadata><?xpacket begin="﻿" id="W5M0MpCehiHzreSzNTczkc9d"?>
<x:xmpmeta xmlns:x="adobe:ns:meta/" x:xmptk="Adobe XMP Core 5.6-c138 79.159824, 2016/09/14-01:09:01        ">
   <rdf:RDF xmlns:rdf="http://www.w3.org/1999/02/22-rdf-syntax-ns#">
      <rdf:Description rdf:about=""/>
   </rdf:RDF>
</x:xmpmeta>
                                                                                                    
                                                                                                    
                                                                                                    
                                                                                                    
                                                                                                    
                                                                                                    
                                                                                                    
                                                                                                    
                                                                                                    
                                                                                                    
                                                                                                    
                                                                                                    
                                                                                                    
                                                                                                    
                                                                                                    
                                                                                                    
                                                                                                    
                                                                                                    
                                                                                                    
                                                                                                    
                           
<?xpacket end="w"?></metadata>
<defs>
    <style>
      .cls-1 {
        fill-rule: evenodd;
      }
    </style>
  </defs>
  <path id="smile_happy_3" class="cls-1" d="M232,384a8,8,0,1,0,8,8A8,8,0,0,0,232,384Zm0,14a6,6,0,1,1,6-6A6,6,0,0,1,232,398Zm-2-7a1,1,0,1,0-1,1A1,1,0,0,0,230,391Zm5-1a1,1,0,1,0,1,1A1,1,0,0,0,235,390Zm-1,3h-4a1,1,0,0,0-1,1c0,0.082.034,2,3,2s3-1.918,3-2A1,1,0,0,0,234,393Z" transform="translate(-224 -384)"/>
</svg>
