<svg xmlns="http://www.w3.org/2000/svg" width="15.906" height="15.875" viewBox="0 0 15.906 15.875">
  <metadata><?xpacket begin="﻿" id="W5M0MpCehiHzreSzNTczkc9d"?>
<x:xmpmeta xmlns:x="adobe:ns:meta/" x:xmptk="Adobe XMP Core 5.6-c138 79.159824, 2016/09/14-01:09:01        ">
   <rdf:RDF xmlns:rdf="http://www.w3.org/1999/02/22-rdf-syntax-ns#">
      <rdf:Description rdf:about=""/>
   </rdf:RDF>
</x:xmpmeta>
                                                                                                    
                                                                                                    
                                                                                                    
                                                                                                    
                                                                                                    
                                                                                                    
                                                                                                    
                                                                                                    
                                                                                                    
                                                                                                    
                                                                                                    
                                                                                                    
                                                                                                    
                                                                                                    
                                                                                                    
                                                                                                    
                                                                                                    
                                                                                                    
                                                                                                    
                                                                                                    
                           
<?xpacket end="w"?></metadata>
<defs>
    <style>
      .cls-1 {
        fill-rule: evenodd;
      }
    </style>
  </defs>
  <path id="smile_sad_2" class="cls-1" d="M135.934,383.968a7.944,7.944,0,1,0,7.953,7.944A7.946,7.946,0,0,0,135.934,383.968Zm0,13.9a5.958,5.958,0,1,1,5.964-5.958A5.966,5.966,0,0,1,135.934,397.87Zm2.982-7.944a0.993,0.993,0,1,0,.994.993A0.994,0.994,0,0,0,138.916,389.926Zm-2.982,2.979a3.965,3.965,0,0,0-2.95,1.309,1,1,0,0,0,.736,1.67,0.97,0.97,0,0,0,.728-0.324,1.984,1.984,0,0,1,2.971,0,0.97,0.97,0,0,0,.728.324,1,1,0,0,0,.737-1.67A3.968,3.968,0,0,0,135.934,392.905Zm-1.989-1.986a0.994,0.994,0,1,0-.994.993A0.994,0.994,0,0,0,133.945,390.919Z" transform="translate(-127.969 -383.969)"/>
</svg>
