<svg xmlns="http://www.w3.org/2000/svg" width="15.906" height="15.875" viewBox="0 0 15.906 15.875">
  <metadata><?xpacket begin="﻿" id="W5M0MpCehiHzreSzNTczkc9d"?>
<x:xmpmeta xmlns:x="adobe:ns:meta/" x:xmptk="Adobe XMP Core 5.6-c138 79.159824, 2016/09/14-01:09:01        ">
   <rdf:RDF xmlns:rdf="http://www.w3.org/1999/02/22-rdf-syntax-ns#">
      <rdf:Description rdf:about=""/>
   </rdf:RDF>
</x:xmpmeta>
                                                                                                    
                                                                                                    
                                                                                                    
                                                                                                    
                                                                                                    
                                                                                                    
                                                                                                    
                                                                                                    
                                                                                                    
                                                                                                    
                                                                                                    
                                                                                                    
                                                                                                    
                                                                                                    
                                                                                                    
                                                                                                    
                                                                                                    
                                                                                                    
                                                                                                    
                                                                                                    
                           
<?xpacket end="w"?></metadata>
<defs>
    <style>
      .cls-1 {
        fill-rule: evenodd;
      }
    </style>
  </defs>
  <path id="smile_sad_3" class="cls-1" d="M167.934,383.968a7.944,7.944,0,1,0,7.953,7.944A7.946,7.946,0,0,0,167.934,383.968Zm0,13.9a5.958,5.958,0,1,1,5.964-5.958A5.966,5.966,0,0,1,167.934,397.87Zm2.982-7.944a0.993,0.993,0,1,0,.994.993A0.994,0.994,0,0,0,170.916,389.926Zm-5.965,0a0.993,0.993,0,1,0,.994.993A0.994,0.994,0,0,0,164.951,389.926Zm2.983,1.986a2.138,2.138,0,0,0-1.989,1.986c0,0.993.891,0.993,1.989,0.993s1.988,0,1.988-.993A2.137,2.137,0,0,0,167.934,391.912Z" transform="translate(-159.969 -383.969)"/>
</svg>
