<svg xmlns="http://www.w3.org/2000/svg" width="16" height="16" viewBox="0 0 16 16">
  <metadata><?xpacket begin="﻿" id="W5M0MpCehiHzreSzNTczkc9d"?>
<x:xmpmeta xmlns:x="adobe:ns:meta/" x:xmptk="Adobe XMP Core 5.6-c138 79.159824, 2016/09/14-01:09:01        ">
   <rdf:RDF xmlns:rdf="http://www.w3.org/1999/02/22-rdf-syntax-ns#">
      <rdf:Description rdf:about=""/>
   </rdf:RDF>
</x:xmpmeta>
                                                                                                    
                                                                                                    
                                                                                                    
                                                                                                    
                                                                                                    
                                                                                                    
                                                                                                    
                                                                                                    
                                                                                                    
                                                                                                    
                                                                                                    
                                                                                                    
                                                                                                    
                                                                                                    
                                                                                                    
                                                                                                    
                                                                                                    
                                                                                                    
                                                                                                    
                                                                                                    
                           
<?xpacket end="w"?></metadata>
<defs>
    <style>
      .cls-1 {
        fill-rule: evenodd;
      }
    </style>
  </defs>
  <path id="snow" class="cls-1" d="M751,263a1,1,0,1,0,1,1A1,1,0,0,0,751,263Zm-14,0a1,1,0,1,0,1,1A1,1,0,0,0,737,263Zm7,7a1,1,0,1,0,1,1A1,1,0,0,0,744,270Zm0-12a1,1,0,1,0-1-1A1,1,0,0,0,744,258Zm2.42,7H748a1,1,0,0,0,0-2h-1.58l3.29-3.29a1,1,0,0,0-1.42-1.42L745,261.58V260a1,1,0,0,0-2,0v1.58l-3.29-3.29a1,1,0,0,0-1.42,1.42l3.29,3.29H740a1,1,0,0,0,0,2h1.58l-3.29,3.29a1.008,1.008,0,0,0,0,1.42,1.014,1.014,0,0,0,1.42,0l3.29-3.29V268a1,1,0,0,0,2,0v-1.58l3.29,3.29a1.014,1.014,0,0,0,1.42,0,1.008,1.008,0,0,0,0-1.42ZM744,265a0.99,0.99,0,1,1,.71-0.29A1.014,1.014,0,0,1,744,265Z" transform="translate(-736 -256)"/>
</svg>
