<svg xmlns="http://www.w3.org/2000/svg" width="11.969" height="16" viewBox="0 0 11.969 16">
  <metadata><?xpacket begin="﻿" id="W5M0MpCehiHzreSzNTczkc9d"?>
<x:xmpmeta xmlns:x="adobe:ns:meta/" x:xmptk="Adobe XMP Core 5.6-c138 79.159824, 2016/09/14-01:09:01        ">
   <rdf:RDF xmlns:rdf="http://www.w3.org/1999/02/22-rdf-syntax-ns#">
      <rdf:Description rdf:about=""/>
   </rdf:RDF>
</x:xmpmeta>
                                                                                                    
                                                                                                    
                                                                                                    
                                                                                                    
                                                                                                    
                                                                                                    
                                                                                                    
                                                                                                    
                                                                                                    
                                                                                                    
                                                                                                    
                                                                                                    
                                                                                                    
                                                                                                    
                                                                                                    
                                                                                                    
                                                                                                    
                                                                                                    
                                                                                                    
                                                                                                    
                           
<?xpacket end="w"?></metadata>
<defs>
    <style>
      .cls-1 {
        fill-rule: evenodd;
      }
    </style>
  </defs>
  <path id="sock" class="cls-1" d="M268.893,648.94l-0.27-.3-2.135-2.14V642a2,2,0,0,0-2-2h-4.5a2,2,0,0,0-2,2v7.21a1.969,1.969,0,0,0,.589,1.41l4.031,4.04,0.3,0.27a4.312,4.312,0,0,0,2.833,1.07,4.264,4.264,0,0,0,4.221-4.34A4.358,4.358,0,0,0,268.893,648.94Zm-4.4-6.94v1h-4.5v-1h4.5Zm2.814,11.34a2.152,2.152,0,0,1-1.557.66,2.289,2.289,0,0,1-1.387-.48,0.636,0.636,0,0,1-.129-0.1,1.008,1.008,0,0,1-.19-0.17c-0.06-.05-0.11-0.11-0.17-0.17l-2.394-2.38-1.487-1.49V645h4.5v2.32l0.18,0.18,2.534,2.55a2.132,2.132,0,0,1,.28.33A2.195,2.195,0,0,1,267.306,653.34Z" transform="translate(-258 -640)"/>
</svg>
