<svg xmlns="http://www.w3.org/2000/svg" width="16" height="12" viewBox="0 0 16 12">
  <metadata><?xpacket begin="﻿" id="W5M0MpCehiHzreSzNTczkc9d"?>
<x:xmpmeta xmlns:x="adobe:ns:meta/" x:xmptk="Adobe XMP Core 5.6-c138 79.159824, 2016/09/14-01:09:01        ">
   <rdf:RDF xmlns:rdf="http://www.w3.org/1999/02/22-rdf-syntax-ns#">
      <rdf:Description rdf:about=""/>
   </rdf:RDF>
</x:xmpmeta>
                                                                                                    
                                                                                                    
                                                                                                    
                                                                                                    
                                                                                                    
                                                                                                    
                                                                                                    
                                                                                                    
                                                                                                    
                                                                                                    
                                                                                                    
                                                                                                    
                                                                                                    
                                                                                                    
                                                                                                    
                                                                                                    
                                                                                                    
                                                                                                    
                                                                                                    
                                                                                                    
                           
<?xpacket end="w"?></metadata>
<defs>
    <style>
      .cls-1 {
        fill-rule: evenodd;
      }
    </style>
  </defs>
  <path id="sound_3" class="cls-1" d="M295,196v8l-2.844-2H290v-4h2l3-2m0-2a2,2,0,0,0-1.109.336l-2.5,1.664H290a2,2,0,0,0-2,2v4a2,2,0,0,0,2,2h1.523l2.326,1.636A2,2,0,0,0,297,204v-8a2,2,0,0,0-2-2h0Zm3.547,4.053-0.027.047a0.952,0.952,0,0,0,.161,1.169,1,1,0,0,1-.006,1.467,0.949,0.949,0,0,0-.161,1.167l0.026,0.046a0.966,0.966,0,0,0,1.466.274,2.984,2.984,0,0,0,.009-4.439A0.965,0.965,0,0,0,298.547,198.053Zm1.506-2.636-0.027.048a1,1,0,0,0,.325,1.3,3.99,3.99,0,0,1-.007,6.467,1,1,0,0,0-.321,1.309l0.028,0.047a0.968,0.968,0,0,0,1.38.331,6,6,0,0,0,0-9.842A0.967,0.967,0,0,0,300.053,195.417Z" transform="translate(-288 -194)"/>
</svg>
