<svg xmlns="http://www.w3.org/2000/svg" width="15.937" height="12" viewBox="0 0 15.937 12">
  <metadata><?xpacket begin="﻿" id="W5M0MpCehiHzreSzNTczkc9d"?>
<x:xmpmeta xmlns:x="adobe:ns:meta/" x:xmptk="Adobe XMP Core 5.6-c138 79.159824, 2016/09/14-01:09:01        ">
   <rdf:RDF xmlns:rdf="http://www.w3.org/1999/02/22-rdf-syntax-ns#">
      <rdf:Description rdf:about=""/>
   </rdf:RDF>
</x:xmpmeta>
                                                                                                    
                                                                                                    
                                                                                                    
                                                                                                    
                                                                                                    
                                                                                                    
                                                                                                    
                                                                                                    
                                                                                                    
                                                                                                    
                                                                                                    
                                                                                                    
                                                                                                    
                                                                                                    
                                                                                                    
                                                                                                    
                                                                                                    
                                                                                                    
                                                                                                    
                                                                                                    
                           
<?xpacket end="w"?></metadata>
<defs>
    <style>
      .cls-1 {
        fill-rule: evenodd;
      }
    </style>
  </defs>
  <path id="sound_no" class="cls-1" d="M199.884,194.236a1.982,1.982,0,0,0-2.042.1L195.36,196h-1.387a2,2,0,0,0-1.99,2v4a2,2,0,0,0,1.99,2h1.515l2.313,1.636A1.989,1.989,0,0,0,200.935,204v-8A2,2,0,0,0,199.884,194.236ZM198.946,204l-2.829-2h-2.144v-4h1.989l2.984-2v8Zm7.374-4,1.286-1.293a1,1,0,0,0,0-1.414,0.99,0.99,0,0,0-1.407,0l-1.286,1.293-1.286-1.293a0.989,0.989,0,0,0-1.406,0,1,1,0,0,0,0,1.414L203.507,200l-1.286,1.293a1,1,0,0,0,0,1.414,0.99,0.99,0,0,0,1.406,0l1.286-1.293,1.286,1.293a0.991,0.991,0,0,0,1.407,0,1,1,0,0,0,0-1.414Z" transform="translate(-191.969 -194)"/>
</svg>
