<svg xmlns="http://www.w3.org/2000/svg" width="14" height="16" viewBox="0 0 14 16">
  <metadata><?xpacket begin="﻿" id="W5M0MpCehiHzreSzNTczkc9d"?>
<x:xmpmeta xmlns:x="adobe:ns:meta/" x:xmptk="Adobe XMP Core 5.6-c138 79.159824, 2016/09/14-01:09:01        ">
   <rdf:RDF xmlns:rdf="http://www.w3.org/1999/02/22-rdf-syntax-ns#">
      <rdf:Description rdf:about=""/>
   </rdf:RDF>
</x:xmpmeta>
                                                                                                    
                                                                                                    
                                                                                                    
                                                                                                    
                                                                                                    
                                                                                                    
                                                                                                    
                                                                                                    
                                                                                                    
                                                                                                    
                                                                                                    
                                                                                                    
                                                                                                    
                                                                                                    
                                                                                                    
                                                                                                    
                                                                                                    
                                                                                                    
                                                                                                    
                                                                                                    
                           
<?xpacket end="w"?></metadata>
<defs>
    <style>
      .cls-1 {
        fill-rule: evenodd;
      }
    </style>
  </defs>
  <path id="speaker_1" class="cls-1" d="M141,192H131a2,2,0,0,0-2,2v12a2,2,0,0,0,2,2h10a2,2,0,0,0,2-2V194A2,2,0,0,0,141,192Zm0,14H131V194h10v12Zm-5-1a3,3,0,1,0-3-3A3,3,0,0,0,136,205Zm0-4a1,1,0,1,1-1,1A1,1,0,0,1,136,201Zm0-3a1,1,0,1,0-1-1A1,1,0,0,0,136,198Z" transform="translate(-129 -192)"/>
</svg>
