<svg xmlns="http://www.w3.org/2000/svg" width="16" height="16" viewBox="0 0 16 16">
  <metadata><?xpacket begin="﻿" id="W5M0MpCehiHzreSzNTczkc9d"?>
<x:xmpmeta xmlns:x="adobe:ns:meta/" x:xmptk="Adobe XMP Core 5.6-c138 79.159824, 2016/09/14-01:09:01        ">
   <rdf:RDF xmlns:rdf="http://www.w3.org/1999/02/22-rdf-syntax-ns#">
      <rdf:Description rdf:about=""/>
   </rdf:RDF>
</x:xmpmeta>
                                                                                                    
                                                                                                    
                                                                                                    
                                                                                                    
                                                                                                    
                                                                                                    
                                                                                                    
                                                                                                    
                                                                                                    
                                                                                                    
                                                                                                    
                                                                                                    
                                                                                                    
                                                                                                    
                                                                                                    
                                                                                                    
                                                                                                    
                                                                                                    
                                                                                                    
                                                                                                    
                           
<?xpacket end="w"?></metadata>
<defs>
    <style>
      .cls-1 {
        fill-rule: evenodd;
      }
    </style>
  </defs>
  <path id="star_2" class="cls-1" d="M136,290l2,4,4,2-4,2-2,4-2-4-4-2,4-2,2-4m0-2a2,2,0,0,0-1.789,1.105l-1.7,3.4-3.4,1.7a2,2,0,0,0,0,3.578l3.4,1.7,1.7,3.4a2,2,0,0,0,3.578,0l1.7-3.4,3.4-1.7a2,2,0,0,0,0-3.578l-3.4-1.7-1.7-3.4A2,2,0,0,0,136,288h0Z" transform="translate(-128 -288)"/>
</svg>
