<svg xmlns="http://www.w3.org/2000/svg" width="9.875" height="15.031" viewBox="0 0 9.875 15.031">
  <metadata><?xpacket begin="﻿" id="W5M0MpCehiHzreSzNTczkc9d"?>
<x:xmpmeta xmlns:x="adobe:ns:meta/" x:xmptk="Adobe XMP Core 5.6-c138 79.159824, 2016/09/14-01:09:01        ">
   <rdf:RDF xmlns:rdf="http://www.w3.org/1999/02/22-rdf-syntax-ns#">
      <rdf:Description rdf:about=""/>
   </rdf:RDF>
</x:xmpmeta>
                                                                                                    
                                                                                                    
                                                                                                    
                                                                                                    
                                                                                                    
                                                                                                    
                                                                                                    
                                                                                                    
                                                                                                    
                                                                                                    
                                                                                                    
                                                                                                    
                                                                                                    
                                                                                                    
                                                                                                    
                                                                                                    
                                                                                                    
                                                                                                    
                                                                                                    
                                                                                                    
                           
<?xpacket end="w"?></metadata>
<defs>
    <style>
      .cls-1 {
        fill-rule: evenodd;
      }
    </style>
  </defs>
  <path id="star_1_half" class="cls-1" d="M293.914,290.66l1.793,3.72,4.137,0.536-3.028,2.834,0.763,4.052-3.665-1.969V290.66m0-1.953a2.029,2.029,0,0,0-.436.048,1.958,1.958,0,0,0-1.541,1.905v9.173a1.95,1.95,0,0,0,1.032,1.715l3.665,1.969a2,2,0,0,0,2.107-.136,1.938,1.938,0,0,0,.781-1.936l-0.566-3.008,2.248-2.1a1.937,1.937,0,0,0,.52-2.021,1.968,1.968,0,0,0-1.623-1.332l-3.071-.4L295.7,289.82a1.979,1.979,0,0,0-1.784-1.113h0Z" transform="translate(-291.938 -288.719)"/>
</svg>
