<svg xmlns="http://www.w3.org/2000/svg" width="15.75" height="15.906" viewBox="0 0 15.75 15.906">
  <metadata><?xpacket begin="﻿" id="W5M0MpCehiHzreSzNTczkc9d"?>
<x:xmpmeta xmlns:x="adobe:ns:meta/" x:xmptk="Adobe XMP Core 5.6-c138 79.159824, 2016/09/14-01:09:01        ">
   <rdf:RDF xmlns:rdf="http://www.w3.org/1999/02/22-rdf-syntax-ns#">
      <rdf:Description rdf:about=""/>
   </rdf:RDF>
</x:xmpmeta>
                                                                                                    
                                                                                                    
                                                                                                    
                                                                                                    
                                                                                                    
                                                                                                    
                                                                                                    
                                                                                                    
                                                                                                    
                                                                                                    
                                                                                                    
                                                                                                    
                                                                                                    
                                                                                                    
                                                                                                    
                                                                                                    
                                                                                                    
                                                                                                    
                                                                                                    
                                                                                                    
                           
<?xpacket end="w"?></metadata>
<defs>
    <style>
      .cls-1 {
        fill-rule: evenodd;
      }
    </style>
  </defs>
  <path id="star_1_no" class="cls-1" d="M263.908,290.371l1.3,2.765,0.482,1.024,0.611,0.08,3.515,0.467-1.566,1.5,1.389,1.4,1.536-1.462a1.994,1.994,0,0,0-1.1-3.411l-3.062-.408-1.32-2.815a1.967,1.967,0,0,0-3.564,0l-0.158.348,1.477,1.492ZM271.5,302.3l-2.251-2.274v-0.007l-2.413-2.437,0,0-4.282-4.325,0,0-1.477-1.492,0,0-3.358-3.393a0.979,0.979,0,0,0-1.393,0,1,1,0,0,0,0,1.407l2.75,2.777h-0.006l-1.211.169-0.108.01a2.129,2.129,0,0,0-.916.368,2.009,2.009,0,0,0-.187,3.043l2.245,2.149-0.561,3.063a1.958,1.958,0,0,0,.778,1.969,1.913,1.913,0,0,0,2.1.14l2.708-1.482,2.708,1.482a1.871,1.871,0,0,0,.7.228,1.022,1.022,0,0,0,.246.02,1.826,1.826,0,0,0,.926-0.248,1.062,1.062,0,0,0,.226-0.14,2.056,2.056,0,0,0,.5-0.517,0.008,0.008,0,0,0,0,0l0.888,0.9a0.975,0.975,0,0,0,1.392,0A1,1,0,0,0,271.5,302.3Zm-4.064-1.286,0.128,0.716-1.753-.965-1.9-1.044-0.345.189-3.308,1.82,0.758-4.128L258,294.707l0.364-.05,1.241-.159,1.211-.169h0.005l6.611,6.678v0.007Z" transform="translate(-256.031 -288.094)"/>
</svg>
