<svg xmlns="http://www.w3.org/2000/svg" width="15.75" height="15.031" viewBox="0 0 15.75 15.031">
  <metadata><?xpacket begin="﻿" id="W5M0MpCehiHzreSzNTczkc9d"?>
<x:xmpmeta xmlns:x="adobe:ns:meta/" x:xmptk="Adobe XMP Core 5.6-c138 79.159824, 2016/09/14-01:09:01        ">
   <rdf:RDF xmlns:rdf="http://www.w3.org/1999/02/22-rdf-syntax-ns#">
      <rdf:Description rdf:about=""/>
   </rdf:RDF>
</x:xmpmeta>
                                                                                                    
                                                                                                    
                                                                                                    
                                                                                                    
                                                                                                    
                                                                                                    
                                                                                                    
                                                                                                    
                                                                                                    
                                                                                                    
                                                                                                    
                                                                                                    
                                                                                                    
                                                                                                    
                                                                                                    
                                                                                                    
                                                                                                    
                                                                                                    
                                                                                                    
                                                                                                    
                           
<?xpacket end="w"?></metadata>
<defs>
    <style>
      .cls-1 {
        fill-rule: evenodd;
      }
    </style>
  </defs>
  <path id="star_1" class="cls-1" d="M239.688,294.312a1.964,1.964,0,0,0-1.617-1.332l-3.059-.4-1.327-2.762a1.977,1.977,0,0,0-3.556,0l-1.326,2.762-3.059.4a1.963,1.963,0,0,0-1.617,1.332,1.942,1.942,0,0,0,.518,2.021l2.239,2.1-0.564,3.008a1.945,1.945,0,0,0,.779,1.937,1.98,1.98,0,0,0,2.1.135l2.71-1.461,2.711,1.461a1.98,1.98,0,0,0,2.1-.135,1.947,1.947,0,0,0,.779-1.937l-0.565-3.008,2.24-2.1A1.942,1.942,0,0,0,239.688,294.312Zm-4.89,3.438,0.761,4.052-3.652-1.969-3.651,1.969,0.76-4.052L226,294.916l4.121-.535,1.786-3.721,1.787,3.721,4.121,0.535Z" transform="translate(-224.031 -288.719)"/>
</svg>
