<svg xmlns="http://www.w3.org/2000/svg" width="12" height="12" viewBox="0 0 12 12">
  <metadata><?xpacket begin="﻿" id="W5M0MpCehiHzreSzNTczkc9d"?>
<x:xmpmeta xmlns:x="adobe:ns:meta/" x:xmptk="Adobe XMP Core 5.6-c138 79.159824, 2016/09/14-01:09:01        ">
   <rdf:RDF xmlns:rdf="http://www.w3.org/1999/02/22-rdf-syntax-ns#">
      <rdf:Description rdf:about=""/>
   </rdf:RDF>
</x:xmpmeta>
                                                                                                    
                                                                                                    
                                                                                                    
                                                                                                    
                                                                                                    
                                                                                                    
                                                                                                    
                                                                                                    
                                                                                                    
                                                                                                    
                                                                                                    
                                                                                                    
                                                                                                    
                                                                                                    
                                                                                                    
                                                                                                    
                                                                                                    
                                                                                                    
                                                                                                    
                                                                                                    
                           
<?xpacket end="w"?></metadata>
<defs>
    <style>
      .cls-1 {
        fill-rule: evenodd;
      }
    </style>
  </defs>
  <path id="sun_4" class="cls-1" d="M648,263a1,1,0,1,1-1,1,1,1,0,0,1,1-1h0Zm0-2a3,3,0,1,0,3,3,3,3,0,0,0-3-3h0Zm6,3a1,1,0,1,1-1-1A1,1,0,0,1,654,264Zm-10,0a1,1,0,1,1-1-1A1,1,0,0,1,644,264Zm5-5a1,1,0,1,1-1-1A1,1,0,0,1,649,259Zm0,10a1,1,0,1,1-1-1A1,1,0,0,1,649,269Zm3.243-.758a1,1,0,1,1,0-1.414A1,1,0,0,1,652.243,268.242Zm-7.071-7.071a1,1,0,1,1,0-1.414A1,1,0,0,1,645.172,261.171Zm7.071,0a1,1,0,1,1,0-1.414A1,1,0,0,1,652.243,261.171Zm-7.071,7.071a1,1,0,1,1,0-1.414A1,1,0,0,1,645.172,268.242Z" transform="translate(-642 -258)"/>
</svg>
