<svg xmlns="http://www.w3.org/2000/svg" width="16" height="16" viewBox="0 0 16 16">
  <metadata><?xpacket begin="﻿" id="W5M0MpCehiHzreSzNTczkc9d"?>
<x:xmpmeta xmlns:x="adobe:ns:meta/" x:xmptk="Adobe XMP Core 5.6-c138 79.159824, 2016/09/14-01:09:01        ">
   <rdf:RDF xmlns:rdf="http://www.w3.org/1999/02/22-rdf-syntax-ns#">
      <rdf:Description rdf:about=""/>
   </rdf:RDF>
</x:xmpmeta>
                                                                                                    
                                                                                                    
                                                                                                    
                                                                                                    
                                                                                                    
                                                                                                    
                                                                                                    
                                                                                                    
                                                                                                    
                                                                                                    
                                                                                                    
                                                                                                    
                                                                                                    
                                                                                                    
                                                                                                    
                                                                                                    
                                                                                                    
                                                                                                    
                                                                                                    
                                                                                                    
                           
<?xpacket end="w"?></metadata>
<defs>
    <style>
      .cls-1 {
        fill-rule: evenodd;
      }
    </style>
  </defs>
  <path id="sun_2" class="cls-1" d="M584,262a2,2,0,1,1-2,2,2,2,0,0,1,2-2h0Zm0-2a4,4,0,1,0,4,4,4,4,0,0,0-4-4h0Zm0-1a1,1,0,0,1-1-1v-1a1,1,0,0,1,2,0v1A1,1,0,0,1,584,259Zm7,6h-1a1,1,0,0,1,0-2h1A1,1,0,0,1,591,265Zm-7,7a1,1,0,0,1-1-1v-1a1,1,0,0,1,2,0v1A1,1,0,0,1,584,272Zm-6-7h-1a1,1,0,0,1,0-2h1A1,1,0,0,1,578,265Zm10.242-4.243a1,1,0,0,1-.707-1.707l0.708-.707a1,1,0,1,1,1.414,1.415l-0.708.707A1,1,0,0,1,588.242,260.757ZM589,270a1,1,0,0,1-.707-0.293l-0.758-.758a1,1,0,0,1,1.414-1.414l0.758,0.758A1,1,0,0,1,589,270Zm-10,0a1,1,0,0,1-.708-1.707l0.758-.758a1,1,0,0,1,1.415,1.414l-0.758.758A1,1,0,0,1,579,270Zm0.757-9.243a1,1,0,0,1-.707-0.293l-0.757-.757a1,1,0,0,1,1.414-1.414l0.757,0.757A1,1,0,0,1,579.757,260.757Z" transform="translate(-576 -256)"/>
</svg>
