<svg xmlns="http://www.w3.org/2000/svg" width="16" height="16" viewBox="0 0 16 16">
  <metadata><?xpacket begin="﻿" id="W5M0MpCehiHzreSzNTczkc9d"?>
<x:xmpmeta xmlns:x="adobe:ns:meta/" x:xmptk="Adobe XMP Core 5.6-c138 79.159824, 2016/09/14-01:09:01        ">
   <rdf:RDF xmlns:rdf="http://www.w3.org/1999/02/22-rdf-syntax-ns#">
      <rdf:Description rdf:about=""/>
   </rdf:RDF>
</x:xmpmeta>
                                                                                                    
                                                                                                    
                                                                                                    
                                                                                                    
                                                                                                    
                                                                                                    
                                                                                                    
                                                                                                    
                                                                                                    
                                                                                                    
                                                                                                    
                                                                                                    
                                                                                                    
                                                                                                    
                                                                                                    
                                                                                                    
                                                                                                    
                                                                                                    
                                                                                                    
                                                                                                    
                           
<?xpacket end="w"?></metadata>
<defs>
    <style>
      .cls-1 {
        fill-rule: evenodd;
      }
    </style>
  </defs>
  <path id="sun_1" class="cls-1" d="M559,263h-1c-0.031,0-.057.015-0.088,0.018a5.959,5.959,0,0,0-1.027-2.489l0.822-.822a1,1,0,0,0-1.414-1.414l-0.822.822a5.966,5.966,0,0,0-2.489-1.028A0.838,0.838,0,0,0,553,258v-1a1,1,0,0,0-2,0v1a0.838,0.838,0,0,0,.018.087,5.961,5.961,0,0,0-2.489,1.028l-0.822-.822a1,1,0,0,0-1.414,1.414l0.822,0.822a5.946,5.946,0,0,0-1.027,2.489c-0.031,0-.057-0.018-0.088-0.018h-1a1,1,0,0,0,0,2h1c0.031,0,.057-0.015.088-0.018a5.952,5.952,0,0,0,1.027,2.489l-0.822.822a1,1,0,1,0,1.414,1.414l0.822-.822a5.965,5.965,0,0,0,2.489,1.027c0,0.031-.018.057-0.018,0.088v1a1,1,0,0,0,2,0v-1c0-.031-0.015-0.057-0.018-0.088a5.965,5.965,0,0,0,2.489-1.027l0.822,0.822a1,1,0,0,0,1.414-1.414l-0.822-.822a5.965,5.965,0,0,0,1.027-2.489c0.031,0,.057.018,0.088,0.018h1A1,1,0,0,0,559,263Zm-7,5a4,4,0,1,1,4-4A4,4,0,0,1,552,268Z" transform="translate(-544 -256)"/>
</svg>
