<svg xmlns="http://www.w3.org/2000/svg" width="14" height="14" viewBox="0 0 14 14">
  <metadata><?xpacket begin="﻿" id="W5M0MpCehiHzreSzNTczkc9d"?>
<x:xmpmeta xmlns:x="adobe:ns:meta/" x:xmptk="Adobe XMP Core 5.6-c138 79.159824, 2016/09/14-01:09:01        ">
   <rdf:RDF xmlns:rdf="http://www.w3.org/1999/02/22-rdf-syntax-ns#">
      <rdf:Description rdf:about=""/>
   </rdf:RDF>
</x:xmpmeta>
                                                                                                    
                                                                                                    
                                                                                                    
                                                                                                    
                                                                                                    
                                                                                                    
                                                                                                    
                                                                                                    
                                                                                                    
                                                                                                    
                                                                                                    
                                                                                                    
                                                                                                    
                                                                                                    
                                                                                                    
                                                                                                    
                                                                                                    
                                                                                                    
                                                                                                    
                                                                                                    
                           
<?xpacket end="w"?></metadata>
<defs>
    <style>
      .cls-1 {
        fill-rule: evenodd;
      }
    </style>
  </defs>
  <path id="sun_3" class="cls-1" d="M616,263a1,1,0,1,1-1,1,1,1,0,0,1,1-1h0Zm0-2a3,3,0,1,0,3,3,3,3,0,0,0-3-3h0Zm0-1a1,1,0,0,1-1-1v-1a1,1,0,0,1,2,0v1A1,1,0,0,1,616,260Zm6,5h-1a1,1,0,0,1,0-2h1A1,1,0,0,1,622,265Zm-6,6a1,1,0,0,1-1-1v-1a1,1,0,0,1,2,0v1A1,1,0,0,1,616,271Zm-5-6h-1a1,1,0,0,1,0-2h1A1,1,0,0,1,611,265Zm8.535-3.536a1,1,0,0,1-.707-1.707l0.465-.465a1,1,0,0,1,1.414,1.415l-0.465.465A1,1,0,0,1,619.535,261.464ZM620,269a1,1,0,0,1-.707-0.293l-0.465-.465a1,1,0,1,1,1.414-1.414l0.465,0.465A1,1,0,0,1,620,269Zm-8,0a1,1,0,0,1-.708-1.707l0.465-.465a1,1,0,0,1,1.415,1.414l-0.465.465A1,1,0,0,1,612,269Zm0.464-7.536a1,1,0,0,1-.707-0.293l-0.464-.464a1,1,0,0,1,1.414-1.414l0.464,0.464A1,1,0,0,1,612.464,261.464Z" transform="translate(-609 -257)"/>
</svg>
