<svg xmlns="http://www.w3.org/2000/svg" width="15.937" height="16" viewBox="0 0 15.937 16">
  <metadata><?xpacket begin="﻿" id="W5M0MpCehiHzreSzNTczkc9d"?>
<x:xmpmeta xmlns:x="adobe:ns:meta/" x:xmptk="Adobe XMP Core 5.6-c138 79.159824, 2016/09/14-01:09:01        ">
   <rdf:RDF xmlns:rdf="http://www.w3.org/1999/02/22-rdf-syntax-ns#">
      <rdf:Description rdf:about=""/>
   </rdf:RDF>
</x:xmpmeta>
                                                                                                    
                                                                                                    
                                                                                                    
                                                                                                    
                                                                                                    
                                                                                                    
                                                                                                    
                                                                                                    
                                                                                                    
                                                                                                    
                                                                                                    
                                                                                                    
                                                                                                    
                                                                                                    
                                                                                                    
                                                                                                    
                                                                                                    
                                                                                                    
                                                                                                    
                                                                                                    
                           
<?xpacket end="w"?></metadata>
<defs>
    <style>
      .cls-1 {
        fill-rule: evenodd;
      }
    </style>
  </defs>
  <path id="sword" class="cls-1" d="M559.606,300.293a0.99,0.99,0,0,0-1.407,0l-0.288.29,0,0-1.87-1.88-0.2-.2,1-1.01,1.77-1.78a1.012,1.012,0,0,0,0-1.42,1,1,0,0,0-1.412,0l-1.085,1.09-6.753-6.79a1.95,1.95,0,0,0-1.4-.59h-1.989a2,2,0,0,0-1.99,2v2a1.971,1.971,0,0,0,.587,1.41l6.754,6.79-1.085,1.09a1,1,0,0,0,1.413,1.42l1.77-1.78,1-1.01,0.2,0.2L556.5,302l-0.288.29a1,1,0,0,0,0,1.414,0.99,0.99,0,0,0,1.406,0l0.981-.986s0.012-.006.017-0.011a0.108,0.108,0,0,0,.011-0.018l0.981-.985A1,1,0,0,0,559.606,300.293ZM545.973,292v-2h1.989l6.753,6.79-1.989,2Z" transform="translate(-543.969 -288)"/>
</svg>
