<svg xmlns="http://www.w3.org/2000/svg" width="16" height="16" viewBox="0 0 16 16">
  <metadata><?xpacket begin="﻿" id="W5M0MpCehiHzreSzNTczkc9d"?>
<x:xmpmeta xmlns:x="adobe:ns:meta/" x:xmptk="Adobe XMP Core 5.6-c138 79.159824, 2016/09/14-01:09:01        ">
   <rdf:RDF xmlns:rdf="http://www.w3.org/1999/02/22-rdf-syntax-ns#">
      <rdf:Description rdf:about=""/>
   </rdf:RDF>
</x:xmpmeta>
                                                                                                    
                                                                                                    
                                                                                                    
                                                                                                    
                                                                                                    
                                                                                                    
                                                                                                    
                                                                                                    
                                                                                                    
                                                                                                    
                                                                                                    
                                                                                                    
                                                                                                    
                                                                                                    
                                                                                                    
                                                                                                    
                                                                                                    
                                                                                                    
                                                                                                    
                                                                                                    
                           
<?xpacket end="w"?></metadata>
<defs>
    <style>
      .cls-1 {
        fill-rule: evenodd;
      }
    </style>
  </defs>
  <path id="tablet_add" class="cls-1" d="M174,608H162a2.006,2.006,0,0,0-2,2v10a2.006,2.006,0,0,0,2,2h5a1,1,0,0,0,0-2h-5V610h12v5a1,1,0,0,0,2,0v-5A2.006,2.006,0,0,0,174,608Zm-6,9a1,1,0,1,0,1,1A1,1,0,0,0,168,617Zm7,3h-1v-1a1,1,0,0,0-2,0v1h-1a1,1,0,0,0,0,2h1v1a1,1,0,0,0,1,1,0.946,0.946,0,0,0,.41-0.09A1,1,0,0,0,174,623v-1h1a1,1,0,0,0,1-1,0.946,0.946,0,0,0-.09-0.41A1,1,0,0,0,175,620Z" transform="translate(-160 -608)"/>
</svg>
