<svg xmlns="http://www.w3.org/2000/svg" width="16" height="14" viewBox="0 0 16 14">
  <metadata><?xpacket begin="﻿" id="W5M0MpCehiHzreSzNTczkc9d"?>
<x:xmpmeta xmlns:x="adobe:ns:meta/" x:xmptk="Adobe XMP Core 5.6-c138 79.159824, 2016/09/14-01:09:01        ">
   <rdf:RDF xmlns:rdf="http://www.w3.org/1999/02/22-rdf-syntax-ns#">
      <rdf:Description rdf:about=""/>
   </rdf:RDF>
</x:xmpmeta>
                                                                                                    
                                                                                                    
                                                                                                    
                                                                                                    
                                                                                                    
                                                                                                    
                                                                                                    
                                                                                                    
                                                                                                    
                                                                                                    
                                                                                                    
                                                                                                    
                                                                                                    
                                                                                                    
                                                                                                    
                                                                                                    
                                                                                                    
                                                                                                    
                                                                                                    
                                                                                                    
                           
<?xpacket end="w"?></metadata>
<defs>
    <style>
      .cls-1 {
        fill-rule: evenodd;
      }
    </style>
  </defs>
  <path id="tablet_minus" class="cls-1" d="M206,609H194a2.006,2.006,0,0,0-2,2v10a2.006,2.006,0,0,0,2,2h5a1,1,0,0,0,0-2h-5V611h12v7a1,1,0,0,0,2,0v-7A2.006,2.006,0,0,0,206,609Zm-6,9a1,1,0,1,0,1,1A1,1,0,0,0,200,618Zm7,3h-4a1,1,0,0,0,0,2h4a1,1,0,0,0,1-1,0.946,0.946,0,0,0-.09-0.41A1,1,0,0,0,207,621Z" transform="translate(-192 -609)"/>
</svg>
