<svg xmlns="http://www.w3.org/2000/svg" width="16" height="16" viewBox="0 0 16 16">
  <metadata><?xpacket begin="﻿" id="W5M0MpCehiHzreSzNTczkc9d"?>
<x:xmpmeta xmlns:x="adobe:ns:meta/" x:xmptk="Adobe XMP Core 5.6-c138 79.159824, 2016/09/14-01:09:01        ">
   <rdf:RDF xmlns:rdf="http://www.w3.org/1999/02/22-rdf-syntax-ns#">
      <rdf:Description rdf:about=""/>
   </rdf:RDF>
</x:xmpmeta>
                                                                                                    
                                                                                                    
                                                                                                    
                                                                                                    
                                                                                                    
                                                                                                    
                                                                                                    
                                                                                                    
                                                                                                    
                                                                                                    
                                                                                                    
                                                                                                    
                                                                                                    
                                                                                                    
                                                                                                    
                                                                                                    
                                                                                                    
                                                                                                    
                                                                                                    
                                                                                                    
                           
<?xpacket end="w"?></metadata>
<defs>
    <style>
      .cls-1 {
        fill-rule: evenodd;
      }
    </style>
  </defs>
  <path id="tarch_5_" data-name="tarch_5 " class="cls-1" d="M750.766,545.653a6.227,6.227,0,0,0-1.891-.963,17.566,17.566,0,0,0-9.75,0,6.245,6.245,0,0,0-1.892.963A2.969,2.969,0,0,0,736,548.005a2.765,2.765,0,0,0,.13.812,74.862,74.862,0,0,0,1.921,8.244C738.773,559.229,741.707,560,744,560s5.227-.769,5.948-2.937a74.663,74.663,0,0,0,1.922-8.244,2.765,2.765,0,0,0,.13-0.812A2.968,2.968,0,0,0,750.766,545.653Zm-2.715,10.775c-0.3.894-2.039,1.568-4.051,1.568s-3.754-.674-4.051-1.568a53,53,0,0,1-1.326-5.294c0.161,0.065.327,0.128,0.5,0.186a17.566,17.566,0,0,0,9.75,0c0.175-.058.341-0.121,0.5-0.186A53.071,53.071,0,0,1,748.051,556.428Zm1.882-8.139c-0.414.971-2.909,1.718-5.933,1.718s-5.518-.747-5.933-1.718c-0.026-.143-0.046-0.256-0.06-0.332C738.084,546.874,740.735,546,744,546s5.916,0.871,5.993,1.954C749.979,548.033,749.959,548.146,749.933,548.289Z" transform="translate(-736 -544)"/>
</svg>
