<svg xmlns="http://www.w3.org/2000/svg" width="16" height="16" viewBox="0 0 16 16">
  <metadata><?xpacket begin="﻿" id="W5M0MpCehiHzreSzNTczkc9d"?>
<x:xmpmeta xmlns:x="adobe:ns:meta/" x:xmptk="Adobe XMP Core 5.6-c138 79.159824, 2016/09/14-01:09:01        ">
   <rdf:RDF xmlns:rdf="http://www.w3.org/1999/02/22-rdf-syntax-ns#">
      <rdf:Description rdf:about=""/>
   </rdf:RDF>
</x:xmpmeta>
                                                                                                    
                                                                                                    
                                                                                                    
                                                                                                    
                                                                                                    
                                                                                                    
                                                                                                    
                                                                                                    
                                                                                                    
                                                                                                    
                                                                                                    
                                                                                                    
                                                                                                    
                                                                                                    
                                                                                                    
                                                                                                    
                                                                                                    
                                                                                                    
                                                                                                    
                                                                                                    
                           
<?xpacket end="w"?></metadata>
<defs>
    <style>
      .cls-1 {
        fill-rule: evenodd;
      }
    </style>
  </defs>
  <path id="tea_1" class="cls-1" d="M108.5,582H108a2,2,0,0,0-2-2H98a2,2,0,0,0-2,2v8a2,2,0,0,0,2,2h8a2,2,0,0,0,2-2v-1h0.5A3.5,3.5,0,0,0,108.5,582Zm-2.5,8H98v-8h8v8Zm2.5-3H108v-3h0.5A1.5,1.5,0,0,1,108.5,587ZM99,579a1,1,0,0,0,1-1v-1a1,1,0,0,0-2,0v1A1,1,0,0,0,99,579Zm3,0a1,1,0,0,0,1-1v-1a1,1,0,0,0-2,0v1A1,1,0,0,0,102,579Zm3,0a1,1,0,0,0,1-1v-1a1,1,0,0,0-2,0v1A1,1,0,0,0,105,579Z" transform="translate(-96 -576)"/>
</svg>
