<svg xmlns="http://www.w3.org/2000/svg" width="15.969" height="16" viewBox="0 0 15.969 16">
  <metadata><?xpacket begin="﻿" id="W5M0MpCehiHzreSzNTczkc9d"?>
<x:xmpmeta xmlns:x="adobe:ns:meta/" x:xmptk="Adobe XMP Core 5.6-c138 79.159824, 2016/09/14-01:09:01        ">
   <rdf:RDF xmlns:rdf="http://www.w3.org/1999/02/22-rdf-syntax-ns#">
      <rdf:Description rdf:about=""/>
   </rdf:RDF>
</x:xmpmeta>
                                                                                                    
                                                                                                    
                                                                                                    
                                                                                                    
                                                                                                    
                                                                                                    
                                                                                                    
                                                                                                    
                                                                                                    
                                                                                                    
                                                                                                    
                                                                                                    
                                                                                                    
                                                                                                    
                                                                                                    
                                                                                                    
                                                                                                    
                                                                                                    
                                                                                                    
                                                                                                    
                           
<?xpacket end="w"?></metadata>
<defs>
    <style>
      .cls-1 {
        fill-rule: evenodd;
      }
    </style>
  </defs>
  <path id="temperature_2" class="cls-1" d="M107.313,287.992a4.681,4.681,0,0,0-4.671,4.677,4.594,4.594,0,0,0,.114,1.008l-6.042,6.049a2.512,2.512,0,0,0,3.55,3.555l6.042-6.049A4.674,4.674,0,1,0,107.313,287.992Zm2.574,5V293a2.486,2.486,0,0,1-.342.988,2.607,2.607,0,0,1-2.232,1.278,2.526,2.526,0,0,1-1.5-.488l-1.485,1.486-5.533,5.54a0.359,0.359,0,0,1-.6,0,0.427,0.427,0,0,1,0-.6l5.533-5.54,1.485-1.486a2.534,2.534,0,0,1-.488-1.507,2.6,2.6,0,0,1,.363-1.32,2.569,2.569,0,0,1,.914-0.915,2.479,2.479,0,0,1,.986-0.343h0.01c0.1-.01.218-0.021,0.322-0.021a2.6,2.6,0,0,1,2.595,2.6A3.164,3.164,0,0,1,109.887,292.991Z" transform="translate(-96 -288)"/>
</svg>
