<svg xmlns="http://www.w3.org/2000/svg" width="8" height="16" viewBox="0 0 8 16">
  <metadata><?xpacket begin="﻿" id="W5M0MpCehiHzreSzNTczkc9d"?>
<x:xmpmeta xmlns:x="adobe:ns:meta/" x:xmptk="Adobe XMP Core 5.6-c138 79.159824, 2016/09/14-01:09:01        ">
   <rdf:RDF xmlns:rdf="http://www.w3.org/1999/02/22-rdf-syntax-ns#">
      <rdf:Description rdf:about=""/>
   </rdf:RDF>
</x:xmpmeta>
                                                                                                    
                                                                                                    
                                                                                                    
                                                                                                    
                                                                                                    
                                                                                                    
                                                                                                    
                                                                                                    
                                                                                                    
                                                                                                    
                                                                                                    
                                                                                                    
                                                                                                    
                                                                                                    
                                                                                                    
                                                                                                    
                                                                                                    
                                                                                                    
                                                                                                    
                                                                                                    
                           
<?xpacket end="w"?></metadata>
<defs>
    <style>
      .cls-1 {
        fill-rule: evenodd;
      }
    </style>
  </defs>
  <path id="temperature_1" class="cls-1" d="M72,288a4,4,0,0,0-3,6.64V301a3,3,0,1,0,6,0v-6.36A4,4,0,0,0,72,288Zm1.7,5.05a2.019,2.019,0,0,1-.65.65,1,1,0,0,0-.05.3v7a1,1,0,1,1-2,0v-1a1,1,0,1,0,0-2v-1a1,1,0,1,0,0-2v-1.27A2,2,0,1,1,73.7,293.05Z" transform="translate(-68 -288)"/>
</svg>
