<svg xmlns="http://www.w3.org/2000/svg" width="14" height="16" viewBox="0 0 14 16">
  <metadata><?xpacket begin="﻿" id="W5M0MpCehiHzreSzNTczkc9d"?>
<x:xmpmeta xmlns:x="adobe:ns:meta/" x:xmptk="Adobe XMP Core 5.6-c138 79.159824, 2016/09/14-01:09:01        ">
   <rdf:RDF xmlns:rdf="http://www.w3.org/1999/02/22-rdf-syntax-ns#">
      <rdf:Description rdf:about=""/>
   </rdf:RDF>
</x:xmpmeta>
                                                                                                    
                                                                                                    
                                                                                                    
                                                                                                    
                                                                                                    
                                                                                                    
                                                                                                    
                                                                                                    
                                                                                                    
                                                                                                    
                                                                                                    
                                                                                                    
                                                                                                    
                                                                                                    
                                                                                                    
                                                                                                    
                                                                                                    
                                                                                                    
                                                                                                    
                                                                                                    
                           
<?xpacket end="w"?></metadata>
<defs>
    <style>
      .cls-1 {
        fill-rule: evenodd;
      }
    </style>
  </defs>
  <path id="tes_3" class="cls-1" d="M173,576H163a2,2,0,0,0-2,2v2a1.992,1.992,0,0,0,1.025,1.736,1.922,1.922,0,0,0,0,.514l0.22,1.79v0.01l0.57,4.56,0.21,1.64A1.99,1.99,0,0,0,165,592h6a1.99,1.99,0,0,0,1.98-1.75l0.21-1.64,0.57-4.56v-0.01l0.22-1.79a1.922,1.922,0,0,0,0-.514A1.992,1.992,0,0,0,175,580v-2A2,2,0,0,0,173,576Zm-10,2h10v2H163v-2Zm8.88,5-0.75,6L171,590h-6l-0.12-1-0.75-6L164,582h8Z" transform="translate(-161 -576)"/>
</svg>
