<svg xmlns="http://www.w3.org/2000/svg" width="15.937" height="16" viewBox="0 0 15.937 16">
  <metadata><?xpacket begin="﻿" id="W5M0MpCehiHzreSzNTczkc9d"?>
<x:xmpmeta xmlns:x="adobe:ns:meta/" x:xmptk="Adobe XMP Core 5.6-c138 79.159824, 2016/09/14-01:09:01        ">
   <rdf:RDF xmlns:rdf="http://www.w3.org/1999/02/22-rdf-syntax-ns#">
      <rdf:Description rdf:about=""/>
   </rdf:RDF>
</x:xmpmeta>
                                                                                                    
                                                                                                    
                                                                                                    
                                                                                                    
                                                                                                    
                                                                                                    
                                                                                                    
                                                                                                    
                                                                                                    
                                                                                                    
                                                                                                    
                                                                                                    
                                                                                                    
                                                                                                    
                                                                                                    
                                                                                                    
                                                                                                    
                                                                                                    
                                                                                                    
                                                                                                    
                           
<?xpacket end="w"?></metadata>
<defs>
    <style>
      .cls-1 {
        fill-rule: evenodd;
      }
    </style>
  </defs>
  <path id="tes_2" class="cls-1" d="M140.51,582h-0.5a2.03,2.03,0,0,0-.5-1.32,2,2,0,0,0-1.5-.68h-7.974a2,2,0,0,0-1.495.68,1.964,1.964,0,0,0-.478,1.57l1,8a1.984,1.984,0,0,0,1.973,1.75h5.98A1.986,1.986,0,0,0,139,590.25l0.159-1.25h1.355A3.5,3.5,0,0,0,140.51,582Zm-3.488,8h-5.98l-1-8h7.974l-0.04.29-0.708,5.68Zm3.488-3H139.4l0.369-3h0.737A1.5,1.5,0,0,1,140.51,587Zm-9.468-8a1,1,0,0,0,1-1v-1a1,1,0,1,0-1.994,0v1A1,1,0,0,0,131.042,579Zm2.99,0a1,1,0,0,0,1-1v-1a1,1,0,1,0-1.994,0v1A1,1,0,0,0,134.032,579Zm2.99,0a1,1,0,0,0,1-1v-1a1,1,0,1,0-1.994,0v1A1,1,0,0,0,137.022,579Z" transform="translate(-128.063 -576)"/>
</svg>
