<svg xmlns="http://www.w3.org/2000/svg" width="16" height="16" viewBox="0 0 16 16">
  <metadata><?xpacket begin="﻿" id="W5M0MpCehiHzreSzNTczkc9d"?>
<x:xmpmeta xmlns:x="adobe:ns:meta/" x:xmptk="Adobe XMP Core 5.6-c138 79.159824, 2016/09/14-01:09:01        ">
   <rdf:RDF xmlns:rdf="http://www.w3.org/1999/02/22-rdf-syntax-ns#">
      <rdf:Description rdf:about=""/>
   </rdf:RDF>
</x:xmpmeta>
                                                                                                    
                                                                                                    
                                                                                                    
                                                                                                    
                                                                                                    
                                                                                                    
                                                                                                    
                                                                                                    
                                                                                                    
                                                                                                    
                                                                                                    
                                                                                                    
                                                                                                    
                                                                                                    
                                                                                                    
                                                                                                    
                                                                                                    
                                                                                                    
                                                                                                    
                                                                                                    
                           
<?xpacket end="w"?></metadata>
<defs>
    <style>
      .cls-1 {
        fill-rule: evenodd;
      }
    </style>
  </defs>
  <path id="thumb" class="cls-1" d="M430,293h-4v-3a2,2,0,0,0-2-2h-1a2,2,0,0,0-1.857,1.257l-1.5,3.743H418a2,2,0,0,0-2,2v7a2,2,0,0,0,2,2h2a2,2,0,0,1,2,0h4a2,2,0,0,0,1.414-.586l2.563-2.562,1.437-1.438A2,2,0,0,0,432,298v-3A2,2,0,0,0,430,293Zm-12,9v-7h1v7h-1Zm12-4-1.438,1.437L426,302h-4l-1-1v-6l2-5h1v5h6v3Z" transform="translate(-416 -288)"/>
</svg>
