<svg xmlns="http://www.w3.org/2000/svg" width="15.969" height="16" viewBox="0 0 15.969 16">
  <metadata><?xpacket begin="﻿" id="W5M0MpCehiHzreSzNTczkc9d"?>
<x:xmpmeta xmlns:x="adobe:ns:meta/" x:xmptk="Adobe XMP Core 5.6-c138 79.159824, 2016/09/14-01:09:01        ">
   <rdf:RDF xmlns:rdf="http://www.w3.org/1999/02/22-rdf-syntax-ns#">
      <rdf:Description rdf:about=""/>
   </rdf:RDF>
</x:xmpmeta>
                                                                                                    
                                                                                                    
                                                                                                    
                                                                                                    
                                                                                                    
                                                                                                    
                                                                                                    
                                                                                                    
                                                                                                    
                                                                                                    
                                                                                                    
                                                                                                    
                                                                                                    
                                                                                                    
                                                                                                    
                                                                                                    
                                                                                                    
                                                                                                    
                                                                                                    
                                                                                                    
                           
<?xpacket end="w"?></metadata>
<defs>
    <style>
      .cls-1 {
        fill-rule: evenodd;
      }
    </style>
  </defs>
  <path id="time_1_exp" class="cls-1" d="M175,269h0a1,1,0,0,1-1-1v-2a1,1,0,0,1,1-1h0a1,1,0,0,1,1,1v2A1,1,0,0,1,175,269Zm0,3h0a1,1,0,0,1-1-1h0a1,1,0,0,1,1-1h0a1,1,0,0,1,1,1h0A1,1,0,0,1,175,272Zm-8.074-13.889a5.988,5.988,0,0,1,6.83,4.214,0.977,0.977,0,0,0,.946.685h0a1,1,0,0,0,.972-1.261A7.992,7.992,0,1,0,168.008,272a7.9,7.9,0,0,0,3.463-.795,0.978,0.978,0,0,0,.531-0.885h0a0.99,0.99,0,0,0-1.4-.909,5.916,5.916,0,0,1-2.591.591,6,6,0,0,1-5.952-6.687A5.872,5.872,0,0,1,166.923,258.107Zm4.08,4.9h-2v-2a1,1,0,1,0-2,0v3a1,1,0,0,0,1,1H171A1,1,0,0,0,171,263.006Z" transform="translate(-160.031 -256)"/>
</svg>
