<svg xmlns="http://www.w3.org/2000/svg" width="16.031" height="16" viewBox="0 0 16.031 16">
  <metadata><?xpacket begin="﻿" id="W5M0MpCehiHzreSzNTczkc9d"?>
<x:xmpmeta xmlns:x="adobe:ns:meta/" x:xmptk="Adobe XMP Core 5.6-c138 79.159824, 2016/09/14-01:09:01        ">
   <rdf:RDF xmlns:rdf="http://www.w3.org/1999/02/22-rdf-syntax-ns#">
      <rdf:Description rdf:about=""/>
   </rdf:RDF>
</x:xmpmeta>
                                                                                                    
                                                                                                    
                                                                                                    
                                                                                                    
                                                                                                    
                                                                                                    
                                                                                                    
                                                                                                    
                                                                                                    
                                                                                                    
                                                                                                    
                                                                                                    
                                                                                                    
                                                                                                    
                                                                                                    
                                                                                                    
                                                                                                    
                                                                                                    
                                                                                                    
                                                                                                    
                           
<?xpacket end="w"?></metadata>
<defs>
    <style>
      .cls-1 {
        fill-rule: evenodd;
      }
    </style>
  </defs>
  <path id="time_1_add" class="cls-1" d="M103.126,269.935a6.01,6.01,0,0,1-5-7.233,6,6,0,0,1,11.8.44,0.991,0.991,0,0,0,.982.851,1.006,1.006,0,0,0,1-1.139,8,8,0,1,0-9.052,9.062A1,1,0,0,0,103.126,269.935Zm4.861-5.942a1,1,0,0,0-1-1h-2v-2a1,1,0,0,0-2,0v3a1,1,0,0,0,1,1h3A1,1,0,0,0,107.987,263.993Zm3,4h-1v-1a1,1,0,0,0-2,0v1h-1a1,1,0,1,0,0,2h1v1a1,1,0,0,0,2,0v-1h1A1,1,0,0,0,110.988,267.994Z" transform="translate(-95.969 -256)"/>
</svg>
