<svg xmlns="http://www.w3.org/2000/svg" width="15.813" height="15.937" viewBox="0 0 15.813 15.937">
  <metadata><?xpacket begin="﻿" id="W5M0MpCehiHzreSzNTczkc9d"?>
<x:xmpmeta xmlns:x="adobe:ns:meta/" x:xmptk="Adobe XMP Core 5.6-c138 79.159824, 2016/09/14-01:09:01        ">
   <rdf:RDF xmlns:rdf="http://www.w3.org/1999/02/22-rdf-syntax-ns#">
      <rdf:Description rdf:about=""/>
   </rdf:RDF>
</x:xmpmeta>
                                                                                                    
                                                                                                    
                                                                                                    
                                                                                                    
                                                                                                    
                                                                                                    
                                                                                                    
                                                                                                    
                                                                                                    
                                                                                                    
                                                                                                    
                                                                                                    
                                                                                                    
                                                                                                    
                                                                                                    
                                                                                                    
                                                                                                    
                                                                                                    
                                                                                                    
                                                                                                    
                           
<?xpacket end="w"?></metadata>
<defs>
    <style>
      .cls-1 {
        fill-rule: evenodd;
      }
    </style>
  </defs>
  <path id="time_2" class="cls-1" d="M40.944,258.145v-1.074a0.989,0.989,0,1,0-1.979,0v1.074A6.925,6.925,0,1,0,40.944,258.145ZM39.955,270a4.973,4.973,0,1,1,4.946-4.973A4.959,4.959,0,0,1,39.955,270Zm7.624-11.644L45.6,256.368a0.986,0.986,0,0,0-1.4,0,1,1,0,0,0,0,1.407l1.979,1.989a0.986,0.986,0,0,0,1.4,0A1,1,0,0,0,47.579,258.357Zm-13.85,1.407,1.978-1.989a1,1,0,0,0,0-1.407,0.986,0.986,0,0,0-1.4,0l-1.978,1.989a1,1,0,0,0,0,1.407A0.986,0.986,0,0,0,33.729,259.764Zm8.2,4.27H40.944v-1a0.989,0.989,0,1,0-1.979,0v1.989a0.992,0.992,0,0,0,.989,1h1.978A0.995,0.995,0,0,0,41.933,264.034Z" transform="translate(-32.063 -256.063)"/>
</svg>
