<svg xmlns="http://www.w3.org/2000/svg" width="16" height="16" viewBox="0 0 16 16">
  <metadata><?xpacket begin="﻿" id="W5M0MpCehiHzreSzNTczkc9d"?>
<x:xmpmeta xmlns:x="adobe:ns:meta/" x:xmptk="Adobe XMP Core 5.6-c138 79.159824, 2016/09/14-01:09:01        ">
   <rdf:RDF xmlns:rdf="http://www.w3.org/1999/02/22-rdf-syntax-ns#">
      <rdf:Description rdf:about=""/>
   </rdf:RDF>
</x:xmpmeta>
                                                                                                    
                                                                                                    
                                                                                                    
                                                                                                    
                                                                                                    
                                                                                                    
                                                                                                    
                                                                                                    
                                                                                                    
                                                                                                    
                                                                                                    
                                                                                                    
                                                                                                    
                                                                                                    
                                                                                                    
                                                                                                    
                                                                                                    
                                                                                                    
                                                                                                    
                                                                                                    
                           
<?xpacket end="w"?></metadata>
<defs>
    <style>
      .cls-1 {
        fill-rule: evenodd;
      }
    </style>
  </defs>
  <path id="time_1_minus" class="cls-1" d="M135.147,270.009a6.037,6.037,0,0,1-4.966-7.448,5.839,5.839,0,0,1,4.532-4.4,6.029,6.029,0,0,1,7.232,6.764,0.993,0.993,0,0,0,.987,1.132,1.011,1.011,0,0,0,1-.875,8.033,8.033,0,0,0-9.531-9.007,7.82,7.82,0,0,0-6.184,6.008A8.049,8.049,0,0,0,134.88,272,1,1,0,0,0,135.147,270.009Zm4.861-5.963a1,1,0,0,0-1-1h-2v-2.008a1,1,0,1,0-2,0v3.012a1,1,0,0,0,1,1h3A1,1,0,0,0,140.008,264.046Zm3,4.016h-4a1,1,0,0,0,0,2.009h4A1,1,0,0,0,143.009,268.062Z" transform="translate(-128 -256)"/>
</svg>
