<svg xmlns="http://www.w3.org/2000/svg" width="16" height="15.844" viewBox="0 0 16 15.844">
  <metadata><?xpacket begin="﻿" id="W5M0MpCehiHzreSzNTczkc9d"?>
<x:xmpmeta xmlns:x="adobe:ns:meta/" x:xmptk="Adobe XMP Core 5.6-c138 79.159824, 2016/09/14-01:09:01        ">
   <rdf:RDF xmlns:rdf="http://www.w3.org/1999/02/22-rdf-syntax-ns#">
      <rdf:Description rdf:about=""/>
   </rdf:RDF>
</x:xmpmeta>
                                                                                                    
                                                                                                    
                                                                                                    
                                                                                                    
                                                                                                    
                                                                                                    
                                                                                                    
                                                                                                    
                                                                                                    
                                                                                                    
                                                                                                    
                                                                                                    
                                                                                                    
                                                                                                    
                                                                                                    
                                                                                                    
                                                                                                    
                                                                                                    
                                                                                                    
                                                                                                    
                           
<?xpacket end="w"?></metadata>
<defs>
    <style>
      .cls-1 {
        fill-rule: evenodd;
      }
    </style>
  </defs>
  <path id="train_1" class="cls-1" d="M709,237.992h-5v1.984h16v-1.984H709Zm9-.992a2,2,0,0,0,2-1.984v-4.961a1.9,1.9,0,0,0-.1-0.625l-1-1.984a2,2,0,0,0-1.9-1.36h-0.382l0.276-.548a0.987,0.987,0,0,0-.447-1.331,1,1,0,0,0-1.342.443l-0.723,1.436h-0.764l-0.724-1.436a1,1,0,0,0-1.341-.443,0.989,0.989,0,0,0-.448,1.331l0.277,0.548H704v1.985h4v1.984h-4v1.984h14v2.977H704V237a1,1,0,0,0,2,0h2a1,1,0,0,0,2,0h2a1,1,0,0,0,2,0h2A1,1,0,0,0,718,237Zm-8-6.945v-1.984h2v1.984h-2Zm4,0v-1.984h3l1,1.984h-4Z" transform="translate(-704 -224.125)"/>
</svg>
