<svg xmlns="http://www.w3.org/2000/svg" width="16" height="16" viewBox="0 0 16 16">
  <metadata><?xpacket begin="﻿" id="W5M0MpCehiHzreSzNTczkc9d"?>
<x:xmpmeta xmlns:x="adobe:ns:meta/" x:xmptk="Adobe XMP Core 5.6-c138 79.159824, 2016/09/14-01:09:01        ">
   <rdf:RDF xmlns:rdf="http://www.w3.org/1999/02/22-rdf-syntax-ns#">
      <rdf:Description rdf:about=""/>
   </rdf:RDF>
</x:xmpmeta>
                                                                                                    
                                                                                                    
                                                                                                    
                                                                                                    
                                                                                                    
                                                                                                    
                                                                                                    
                                                                                                    
                                                                                                    
                                                                                                    
                                                                                                    
                                                                                                    
                                                                                                    
                                                                                                    
                                                                                                    
                                                                                                    
                                                                                                    
                                                                                                    
                                                                                                    
                                                                                                    
                           
<?xpacket end="w"?></metadata>
<defs>
    <style>
      .cls-1 {
        fill-rule: evenodd;
      }
    </style>
  </defs>
  <path id="train_2" class="cls-1" d="M681.74,236.968l0.01,0a1.068,1.068,0,0,0,.25.03h4a2.006,2.006,0,0,0,2-2v-1a10.016,10.016,0,0,0-10-10h-6v2h2.52l2.4,3H672v2h13.42a8.093,8.093,0,0,1,.58,3v1h-4l-1-1h-9v2a2,2,0,0,0,4,0h2A1.994,1.994,0,0,0,681.74,236.968ZM679.48,229l-2.4-3H678a7.956,7.956,0,0,1,6.24,3h-4.76ZM672,238v2h16v-2H672Z" transform="translate(-672 -224)"/>
</svg>
