<svg xmlns="http://www.w3.org/2000/svg" width="16" height="10" viewBox="0 0 16 10">
  <metadata><?xpacket begin="﻿" id="W5M0MpCehiHzreSzNTczkc9d"?>
<x:xmpmeta xmlns:x="adobe:ns:meta/" x:xmptk="Adobe XMP Core 5.6-c138 79.159824, 2016/09/14-01:09:01        ">
   <rdf:RDF xmlns:rdf="http://www.w3.org/1999/02/22-rdf-syntax-ns#">
      <rdf:Description rdf:about=""/>
   </rdf:RDF>
</x:xmpmeta>
                                                                                                    
                                                                                                    
                                                                                                    
                                                                                                    
                                                                                                    
                                                                                                    
                                                                                                    
                                                                                                    
                                                                                                    
                                                                                                    
                                                                                                    
                                                                                                    
                                                                                                    
                                                                                                    
                                                                                                    
                                                                                                    
                                                                                                    
                                                                                                    
                                                                                                    
                                                                                                    
                           
<?xpacket end="w"?></metadata>
<defs>
    <style>
      .cls-1 {
        fill-rule: evenodd;
      }
    </style>
  </defs>
  <path id="underpants_2" class="cls-1" d="M206,645v2c-4,0-4,4-4,4h-4s0-4-4-4v-2h12m0-2H194a2,2,0,0,0-2,2v2a2,2,0,0,0,2,2,1.836,1.836,0,0,1,2,2.024A1.98,1.98,0,0,0,198,653h4a2,2,0,0,0,2-2,1.83,1.83,0,0,1,2-2,2,2,0,0,0,2-2v-2a2,2,0,0,0-2-2h0Z" transform="translate(-192 -643)"/>
</svg>
