<svg xmlns="http://www.w3.org/2000/svg" width="15.843" height="10" viewBox="0 0 15.843 10">
  <metadata><?xpacket begin="﻿" id="W5M0MpCehiHzreSzNTczkc9d"?>
<x:xmpmeta xmlns:x="adobe:ns:meta/" x:xmptk="Adobe XMP Core 5.6-c138 79.159824, 2016/09/14-01:09:01        ">
   <rdf:RDF xmlns:rdf="http://www.w3.org/1999/02/22-rdf-syntax-ns#">
      <rdf:Description rdf:about=""/>
   </rdf:RDF>
</x:xmpmeta>
                                                                                                    
                                                                                                    
                                                                                                    
                                                                                                    
                                                                                                    
                                                                                                    
                                                                                                    
                                                                                                    
                                                                                                    
                                                                                                    
                                                                                                    
                                                                                                    
                                                                                                    
                                                                                                    
                                                                                                    
                                                                                                    
                                                                                                    
                                                                                                    
                                                                                                    
                                                                                                    
                           
<?xpacket end="w"?></metadata>
<defs>
    <style>
      .cls-1 {
        fill-rule: evenodd;
      }
    </style>
  </defs>
  <path id="underpants_1" class="cls-1" d="M141.931,645l-0.992,6h-2.977l-0.993-3h-1.984l-0.993,3h-2.977l-0.992-6h11.908m0-2H130.023a1.98,1.98,0,0,0-1.514.707,2.009,2.009,0,0,0-.444,1.622l0.993,6A1.988,1.988,0,0,0,131.015,653h2.977a1.985,1.985,0,0,0,1.883-1.368l0.1-.308,0.1,0.308A1.985,1.985,0,0,0,137.962,653h2.977a1.988,1.988,0,0,0,1.957-1.671l0.993-6a2.009,2.009,0,0,0-.444-1.622,1.98,1.98,0,0,0-1.514-.707h0Zm0,4h0Z" transform="translate(-128.063 -643)"/>
</svg>
