<svg xmlns="http://www.w3.org/2000/svg" width="16" height="14" viewBox="0 0 16 14">
  <metadata><?xpacket begin="﻿" id="W5M0MpCehiHzreSzNTczkc9d"?>
<x:xmpmeta xmlns:x="adobe:ns:meta/" x:xmptk="Adobe XMP Core 5.6-c138 79.159824, 2016/09/14-01:09:01        ">
   <rdf:RDF xmlns:rdf="http://www.w3.org/1999/02/22-rdf-syntax-ns#">
      <rdf:Description rdf:about=""/>
   </rdf:RDF>
</x:xmpmeta>
                                                                                                    
                                                                                                    
                                                                                                    
                                                                                                    
                                                                                                    
                                                                                                    
                                                                                                    
                                                                                                    
                                                                                                    
                                                                                                    
                                                                                                    
                                                                                                    
                                                                                                    
                                                                                                    
                                                                                                    
                                                                                                    
                                                                                                    
                                                                                                    
                                                                                                    
                                                                                                    
                           
<?xpacket end="w"?></metadata>
<defs>
    <style>
      .cls-1 {
        fill-rule: evenodd;
      }
    </style>
  </defs>
  <path id="video_clip" class="cls-1" d="M676,167a1,1,0,1,0,1,1A1,1,0,0,0,676,167Zm11,6h-3.11a6.994,6.994,0,1,0-4.89,2,6.865,6.865,0,0,0,.776-0.046A0.939,0.939,0,0,0,680,175h7A1,1,0,0,0,687,173Zm-13-5a5,5,0,1,1,5,5A5,5,0,0,1,674,168Zm8,1a1,1,0,1,0-1-1A1,1,0,0,0,682,169Zm-3-3a1,1,0,1,0-1-1A1,1,0,0,0,679,166Zm1,5a1,1,0,1,0-1,1A1,1,0,0,0,680,171Zm-1-2a1,1,0,1,0-1-1A1,1,0,0,0,679,169Z" transform="translate(-672 -161)"/>
</svg>
