<svg xmlns="http://www.w3.org/2000/svg" width="16" height="14" viewBox="0 0 16 14">
  <metadata><?xpacket begin="﻿" id="W5M0MpCehiHzreSzNTczkc9d"?>
<x:xmpmeta xmlns:x="adobe:ns:meta/" x:xmptk="Adobe XMP Core 5.6-c138 79.159824, 2016/09/14-01:09:01        ">
   <rdf:RDF xmlns:rdf="http://www.w3.org/1999/02/22-rdf-syntax-ns#">
      <rdf:Description rdf:about=""/>
   </rdf:RDF>
</x:xmpmeta>
                                                                                                    
                                                                                                    
                                                                                                    
                                                                                                    
                                                                                                    
                                                                                                    
                                                                                                    
                                                                                                    
                                                                                                    
                                                                                                    
                                                                                                    
                                                                                                    
                                                                                                    
                                                                                                    
                                                                                                    
                                                                                                    
                                                                                                    
                                                                                                    
                                                                                                    
                                                                                                    
                           
<?xpacket end="w"?></metadata>
<defs>
    <style>
      .cls-1 {
        fill-rule: evenodd;
      }
    </style>
  </defs>
  <path id="video_1" class="cls-1" d="M622.765,164.152a2,2,0,0,0-2.179.434l-0.705.7-0.092-.185A2,2,0,0,0,618,164v-2a1,1,0,0,0-1-1h-7a1,1,0,0,0,0,2h6v1h-6a2,2,0,0,0-2,2v7a2,2,0,0,0,2,2h8a2,2,0,0,0,1.789-1.106l0.092-.184,0.705,0.7A2,2,0,0,0,624,173v-7A2,2,0,0,0,622.765,164.152ZM622,173l-2-2h-1l-1,2h-8v-7h8l1,2h1l2-2v7Z" transform="translate(-608 -161)"/>
</svg>
