<svg xmlns="http://www.w3.org/2000/svg" width="16" height="12" viewBox="0 0 16 12">
  <metadata><?xpacket begin="﻿" id="W5M0MpCehiHzreSzNTczkc9d"?>
<x:xmpmeta xmlns:x="adobe:ns:meta/" x:xmptk="Adobe XMP Core 5.6-c138 79.159824, 2016/09/14-01:09:01        ">
   <rdf:RDF xmlns:rdf="http://www.w3.org/1999/02/22-rdf-syntax-ns#">
      <rdf:Description rdf:about=""/>
   </rdf:RDF>
</x:xmpmeta>
                                                                                                    
                                                                                                    
                                                                                                    
                                                                                                    
                                                                                                    
                                                                                                    
                                                                                                    
                                                                                                    
                                                                                                    
                                                                                                    
                                                                                                    
                                                                                                    
                                                                                                    
                                                                                                    
                                                                                                    
                                                                                                    
                                                                                                    
                                                                                                    
                                                                                                    
                                                                                                    
                           
<?xpacket end="w"?></metadata>
<defs>
    <style>
      .cls-1 {
        fill-rule: evenodd;
      }
    </style>
  </defs>
  <path id="video_2" class="cls-1" d="M654.765,162.152a2,2,0,0,0-2.179.434l-0.705.7-0.092-.185A2,2,0,0,0,650,162h-8a2,2,0,0,0-2,2v8a2,2,0,0,0,2,2h8a2,2,0,0,0,1.789-1.106l0.092-.184,0.705,0.7A2,2,0,0,0,656,172v-8A2,2,0,0,0,654.765,162.152ZM654,172l-2-2h-1l-1,2h-8v-8h8l1,2h1l2-2v8Z" transform="translate(-640 -162)"/>
</svg>
