<svg xmlns="http://www.w3.org/2000/svg" width="15.937" height="16" viewBox="0 0 15.937 16">
  <metadata><?xpacket begin="﻿" id="W5M0MpCehiHzreSzNTczkc9d"?>
<x:xmpmeta xmlns:x="adobe:ns:meta/" x:xmptk="Adobe XMP Core 5.6-c138 79.159824, 2016/09/14-01:09:01        ">
   <rdf:RDF xmlns:rdf="http://www.w3.org/1999/02/22-rdf-syntax-ns#">
      <rdf:Description rdf:about=""/>
   </rdf:RDF>
</x:xmpmeta>
                                                                                                    
                                                                                                    
                                                                                                    
                                                                                                    
                                                                                                    
                                                                                                    
                                                                                                    
                                                                                                    
                                                                                                    
                                                                                                    
                                                                                                    
                                                                                                    
                                                                                                    
                                                                                                    
                                                                                                    
                                                                                                    
                                                                                                    
                                                                                                    
                                                                                                    
                                                                                                    
                           
<?xpacket end="w"?></metadata>
<defs>
    <style>
      .cls-1 {
        fill-rule: evenodd;
      }
    </style>
  </defs>
  <path id="vine" class="cls-1" d="M238.623,586.47A3.061,3.061,0,0,0,239,585a2.993,2.993,0,0,0-2.212-2.89,2.948,2.948,0,0,0,.219-1.11,2.976,2.976,0,0,0-5.572-1.48c-0.841-1.777-2.709-3.52-6.385-3.52a1,1,0,0,0,0,2,5.446,5.446,0,0,1,3.508,1.026,3.49,3.49,0,0,0-1.419-.058,4.231,4.231,0,0,0-2.981,2.585,1,1,0,0,0,.095,1.047,5.417,5.417,0,0,0,2.3,1.733,3,3,0,0,0,2.48,4.667,2.905,2.905,0,0,0,1.106-.22,2.986,2.986,0,0,0,2.88,2.22,3.043,3.043,0,0,0,1.465-.38A3,3,0,1,0,238.623,586.47Zm-6.8-3.45a1.464,1.464,0,0,1,.209-0.02,1,1,0,0,1,.976.81,1.108,1.108,0,0,1,.02.19,1,1,0,0,1-1,1,1.085,1.085,0,0,1-.189-0.02,1.006,1.006,0,0,1-.808-0.98,1.492,1.492,0,0,1,.02-0.21A1.04,1.04,0,0,1,231.818,583.02Zm5.191,1.98a1,1,0,1,1-1-1A1,1,0,0,1,237.009,585Zm-2.989-5a1,1,0,0,1,.209,1.98,1.492,1.492,0,0,1-.209.02,1,1,0,0,1-.977-0.81,1.108,1.108,0,0,1-.02-0.19A1,1,0,0,1,234.02,580Zm-6.549.94a2.187,2.187,0,0,1,1.42.367,2.032,2.032,0,0,1-1.246,1.2,1.956,1.956,0,0,1-1.364-.646A1.925,1.925,0,0,1,227.471,580.94Zm1.566,6.06a1,1,0,0,1,0-2,1.108,1.108,0,0,1,.19.02,1.006,1.006,0,0,1,.807.98,1.492,1.492,0,0,1-.02.21A1,1,0,0,1,229.037,587Zm3.986,2a1,1,0,1,1,1-1A1,1,0,0,1,233.023,589Zm3.986,1a1,1,0,1,1,1-1A1,1,0,0,1,237.009,590Z" transform="translate(-224.063 -576)"/>
</svg>
