<svg xmlns="http://www.w3.org/2000/svg" width="16" height="16" viewBox="0 0 16 16">
  <metadata><?xpacket begin="﻿" id="W5M0MpCehiHzreSzNTczkc9d"?>
<x:xmpmeta xmlns:x="adobe:ns:meta/" x:xmptk="Adobe XMP Core 5.6-c138 79.159824, 2016/09/14-01:09:01        ">
   <rdf:RDF xmlns:rdf="http://www.w3.org/1999/02/22-rdf-syntax-ns#">
      <rdf:Description rdf:about=""/>
   </rdf:RDF>
</x:xmpmeta>
                                                                                                    
                                                                                                    
                                                                                                    
                                                                                                    
                                                                                                    
                                                                                                    
                                                                                                    
                                                                                                    
                                                                                                    
                                                                                                    
                                                                                                    
                                                                                                    
                                                                                                    
                                                                                                    
                                                                                                    
                                                                                                    
                                                                                                    
                                                                                                    
                                                                                                    
                                                                                                    
                           
<?xpacket end="w"?></metadata>
<defs>
    <style>
      .cls-1 {
        fill-rule: evenodd;
      }
    </style>
  </defs>
  <path id="wind" class="cls-1" d="M45.2,292.02a1.01,1.01,0,0,0-.4,0A1,1,0,0,0,45,294a1,1,0,0,1,0,2H40a1,1,0,0,0,0,2h5a2.968,2.968,0,0,0,2.82-2,2.868,2.868,0,0,0,0-2A2.941,2.941,0,0,0,45.2,292.02ZM35,294h6a1,1,0,0,0,0-2H35a1,1,0,1,1,0-2h2a1.026,1.026,0,0,0,.7-0.28A1.048,1.048,0,0,0,38,289a1,1,0,0,0-1-1H35a2.968,2.968,0,0,0-2.82,2,2.868,2.868,0,0,0,0,2A2.968,2.968,0,0,0,35,294Zm12.43,7.26-0.2-.26A2.941,2.941,0,0,0,45,300H44a1,1,0,0,0-.96.73A0.8,0.8,0,0,0,43,301a1,1,0,0,0,1,1h1a1,1,0,0,1,1,1,1,1,0,1,0,2,0,2.772,2.772,0,0,0-.18-1A2.5,2.5,0,0,0,47.43,301.26ZM41,290h6a1,1,0,0,0,0-2H41A1,1,0,1,0,41,290Zm-1,10H35a1,1,0,1,1,0-2h1a1,1,0,0,0,1-1,0.806,0.806,0,0,0-.04-0.27A1,1,0,0,0,36,296H35a2.968,2.968,0,0,0-2.82,2,2.868,2.868,0,0,0,0,2A2.968,2.968,0,0,0,35,302h5A1,1,0,1,0,40,300Z" transform="translate(-32 -288)"/>
</svg>
