<svg xmlns="http://www.w3.org/2000/svg" width="16" height="16" viewBox="0 0 16 16">
  <metadata><?xpacket begin="﻿" id="W5M0MpCehiHzreSzNTczkc9d"?>
<x:xmpmeta xmlns:x="adobe:ns:meta/" x:xmptk="Adobe XMP Core 5.6-c138 79.159824, 2016/09/14-01:09:01        ">
   <rdf:RDF xmlns:rdf="http://www.w3.org/1999/02/22-rdf-syntax-ns#">
      <rdf:Description rdf:about=""/>
   </rdf:RDF>
</x:xmpmeta>
                                                                                                    
                                                                                                    
                                                                                                    
                                                                                                    
                                                                                                    
                                                                                                    
                                                                                                    
                                                                                                    
                                                                                                    
                                                                                                    
                                                                                                    
                                                                                                    
                                                                                                    
                                                                                                    
                                                                                                    
                                                                                                    
                                                                                                    
                                                                                                    
                                                                                                    
                                                                                                    
                           
<?xpacket end="w"?></metadata>
<defs>
    <style>
      .cls-1 {
        fill-rule: evenodd;
      }
    </style>
  </defs>
  <path id="world_1" class="cls-1" d="M335.98,263.39a8.338,8.338,0,0,0-.3-1.61,8,8,0,0,0-7.41-5.77,3.65,3.65,0,0,0-.54,0,8,8,0,0,0-7.41,5.77,8.338,8.338,0,0,0-.3,1.61c-0.01.2-.02,0.4-0.02,0.61a8,8,0,0,0,7.73,7.99,3.65,3.65,0,0,0,.54,0A8,8,0,0,0,336,264C336,263.79,335.99,263.59,335.98,263.39Zm-3.24-3.05a5.794,5.794,0,0,1,1.14,2.46c0.02,0.11.04,0.23,0.05,0.34a3.8,3.8,0,0,1-1.93.6c-0.01-.5-0.03-1-0.08-1.5a15.162,15.162,0,0,0-.31-2.07,8.8,8.8,0,0,0-.34-1.2A5.647,5.647,0,0,1,332.74,260.34Zm-3.25-.31a10.774,10.774,0,0,1,.4,2.02,16.159,16.159,0,0,1,.11,1.89c-0.63.04-1.3,0.06-2,.06s-1.37-.02-2-0.06a16.159,16.159,0,0,1,.11-1.89,10.774,10.774,0,0,1,.4-2.02c0.36-1.25.9-2.03,1.49-2.03S329.13,258.78,329.49,260.03Zm-4.76-1.06a8.8,8.8,0,0,0-.34,1.2,15.162,15.162,0,0,0-.31,2.07c-0.05.5-.07,1-0.08,1.5a3.8,3.8,0,0,1-1.93-.6c0.01-.11.03-0.23,0.05-0.34a5.794,5.794,0,0,1,1.14-2.46A5.647,5.647,0,0,1,324.73,258.97Zm-2.56,6.42a10.356,10.356,0,0,0,1.91.4,13.29,13.29,0,0,0,.65,3.24A5.958,5.958,0,0,1,322.17,265.39Zm3.94,0.57c0.58,0.03,1.2.04,1.89,0.04s1.31-.01,1.89-0.04c-0.27,2.35-1.02,4.04-1.89,4.04S326.38,268.31,326.11,265.96Zm5.16,3.07a13.29,13.29,0,0,0,.65-3.24,10.356,10.356,0,0,0,1.91-.4A5.958,5.958,0,0,1,331.27,269.03Z" transform="translate(-320 -256)"/>
</svg>
