<svg xmlns="http://www.w3.org/2000/svg" width="16" height="16" viewBox="0 0 16 16">
  <metadata><?xpacket begin="﻿" id="W5M0MpCehiHzreSzNTczkc9d"?>
<x:xmpmeta xmlns:x="adobe:ns:meta/" x:xmptk="Adobe XMP Core 5.6-c138 79.159824, 2016/09/14-01:09:01        ">
   <rdf:RDF xmlns:rdf="http://www.w3.org/1999/02/22-rdf-syntax-ns#">
      <rdf:Description rdf:about=""/>
   </rdf:RDF>
</x:xmpmeta>
                                                                                                    
                                                                                                    
                                                                                                    
                                                                                                    
                                                                                                    
                                                                                                    
                                                                                                    
                                                                                                    
                                                                                                    
                                                                                                    
                                                                                                    
                                                                                                    
                                                                                                    
                                                                                                    
                                                                                                    
                                                                                                    
                                                                                                    
                                                                                                    
                                                                                                    
                                                                                                    
                           
<?xpacket end="w"?></metadata>
<defs>
    <style>
      .cls-1 {
        fill-rule: evenodd;
      }
    </style>
  </defs>
  <path id="world_2" class="cls-1" d="M360,256a8,8,0,1,0,8,8A8.009,8.009,0,0,0,360,256Zm5.91,7h-1.937a14.434,14.434,0,0,0-.711-4.032A6,6,0,0,1,365.91,263ZM360,270c-0.991,0-1.811-2.164-1.97-5h3.94C361.811,267.836,360.991,270,360,270Zm-1.97-7c0.159-2.837.979-5,1.97-5s1.811,2.163,1.97,5h-3.94Zm-1.292-4.032a14.434,14.434,0,0,0-.711,4.032H354.09A6,6,0,0,1,356.738,258.968ZM354.09,265h1.937a14.434,14.434,0,0,0,.711,4.032A6,6,0,0,1,354.09,265Zm9.172,4.032a14.434,14.434,0,0,0,.711-4.032h1.937A6,6,0,0,1,363.262,269.032Z" transform="translate(-352 -256)"/>
</svg>
