<svg xmlns="http://www.w3.org/2000/svg" width="16" height="16" viewBox="0 0 16 16">
  <metadata><?xpacket begin="﻿" id="W5M0MpCehiHzreSzNTczkc9d"?>
<x:xmpmeta xmlns:x="adobe:ns:meta/" x:xmptk="Adobe XMP Core 5.6-c138 79.159824, 2016/09/14-01:09:01        ">
   <rdf:RDF xmlns:rdf="http://www.w3.org/1999/02/22-rdf-syntax-ns#">
      <rdf:Description rdf:about=""/>
   </rdf:RDF>
</x:xmpmeta>
                                                                                                    
                                                                                                    
                                                                                                    
                                                                                                    
                                                                                                    
                                                                                                    
                                                                                                    
                                                                                                    
                                                                                                    
                                                                                                    
                                                                                                    
                                                                                                    
                                                                                                    
                                                                                                    
                                                                                                    
                                                                                                    
                                                                                                    
                                                                                                    
                                                                                                    
                                                                                                    
                           
<?xpacket end="w"?></metadata>
<defs>
    <style>
      .cls-1 {
        fill-rule: evenodd;
      }
    </style>
  </defs>
  <path id="world_3" class="cls-1" d="M392,256a8,8,0,1,0,8,8A8.009,8.009,0,0,0,392,256Zm0,14a5.985,5.985,0,0,1-4.835-2.458c0.066-.023.036-0.088-0.163-0.225a5.941,5.941,0,0,1-.428-0.769A24,24,0,0,1,387,264a0.946,0.946,0,0,0-.911-0.993,5.932,5.932,0,0,1,.663-1.912A5.412,5.412,0,0,1,388,261a0.821,0.821,0,0,0,.732-0.591,1.883,1.883,0,0,0,0-1.439A6,6,0,1,1,392,270Zm4-5c-2,2,1-3,0-4a7.581,7.581,0,0,0-4-2,2.151,2.151,0,0,0-2,2c0,1,2,1,3,1s2-1,1,1-2,0-4,0-1,4,1,3,2,4,4,2S398,263,396,265Z" transform="translate(-384 -256)"/>
</svg>
