<svg xmlns="http://www.w3.org/2000/svg" width="15.937" height="16" viewBox="0 0 15.937 16">
  <metadata><?xpacket begin="﻿" id="W5M0MpCehiHzreSzNTczkc9d"?>
<x:xmpmeta xmlns:x="adobe:ns:meta/" x:xmptk="Adobe XMP Core 5.6-c138 79.159824, 2016/09/14-01:09:01        ">
   <rdf:RDF xmlns:rdf="http://www.w3.org/1999/02/22-rdf-syntax-ns#">
      <rdf:Description rdf:about=""/>
   </rdf:RDF>
</x:xmpmeta>
                                                                                                    
                                                                                                    
                                                                                                    
                                                                                                    
                                                                                                    
                                                                                                    
                                                                                                    
                                                                                                    
                                                                                                    
                                                                                                    
                                                                                                    
                                                                                                    
                                                                                                    
                                                                                                    
                                                                                                    
                                                                                                    
                                                                                                    
                                                                                                    
                                                                                                    
                                                                                                    
                           
<?xpacket end="w"?></metadata>
<defs>
    <style>
      .cls-1 {
        fill-rule: evenodd;
      }
    </style>
  </defs>
  <path id="zoom_2" class="cls-1" d="M655.606,652.293l-2.984-3a0.99,0.99,0,0,0-.7-0.293h-0.808a5.957,5.957,0,1,0-5.16,3,5.9,5.9,0,0,0,2.984-.812V652a1.006,1.006,0,0,0,.291.707l2.984,3a0.99,0.99,0,0,0,1.406,0l1.99-2A1,1,0,0,0,655.606,652.293ZM645.951,650a4,4,0,1,1,3.978-4A3.989,3.989,0,0,1,645.951,650Zm6.962,3.586-1.989-2V651h0.583l1.989,2ZM647.94,645h-0.994v-1a1,1,0,1,0-1.99,0v1h-0.994a1,1,0,0,0,0,2h0.994v1a1,1,0,1,0,1.99,0v-1h0.994A1,1,0,0,0,647.94,645Z" transform="translate(-639.969 -640)"/>
</svg>
