<svg xmlns="http://www.w3.org/2000/svg" width="15.937" height="16" viewBox="0 0 15.937 16">
  <metadata><?xpacket begin="﻿" id="W5M0MpCehiHzreSzNTczkc9d"?>
<x:xmpmeta xmlns:x="adobe:ns:meta/" x:xmptk="Adobe XMP Core 5.6-c138 79.159824, 2016/09/14-01:09:01        ">
   <rdf:RDF xmlns:rdf="http://www.w3.org/1999/02/22-rdf-syntax-ns#">
      <rdf:Description rdf:about=""/>
   </rdf:RDF>
</x:xmpmeta>
                                                                                                    
                                                                                                    
                                                                                                    
                                                                                                    
                                                                                                    
                                                                                                    
                                                                                                    
                                                                                                    
                                                                                                    
                                                                                                    
                                                                                                    
                                                                                                    
                                                                                                    
                                                                                                    
                                                                                                    
                                                                                                    
                                                                                                    
                                                                                                    
                                                                                                    
                                                                                                    
                           
<?xpacket end="w"?></metadata>
<defs>
    <style>
      .cls-1 {
        fill-rule: evenodd;
      }
    </style>
  </defs>
  <path id="zoom_1" class="cls-1" d="M551.94,645h-0.994v-1a1,1,0,1,0-1.99,0v1h-0.994a1,1,0,0,0,0,2h0.994v1a1,1,0,1,0,1.99,0v-1h0.994A1,1,0,0,0,551.94,645Zm7.666,9.293-4.8-4.822A5.956,5.956,0,1,0,549.951,652a5.9,5.9,0,0,0,3.452-1.115l4.8,4.822a0.991,0.991,0,0,0,1.407,0A1,1,0,0,0,559.606,654.293ZM549.951,650a4,4,0,1,1,3.978-4A3.989,3.989,0,0,1,549.951,650Z" transform="translate(-543.969 -640)"/>
</svg>
